<svg width="320" height="176" viewBox="0 0 320 176" fill="none" xmlns="http://www.w3.org/2000/svg">
<rect x="0.5" y="0.5" width="319" height="175" rx="7.5"/>
<path d="M95.754 74.4665L94.251 78.9676C93.947 79.8886 93.0869 80.5056 92.1139 80.5056H55.7474C54.2097 80.5056 53.1237 82.0088 53.6103 83.4686C53.9143 84.3897 54.7744 85.0067 55.7474 85.0067H89.1166C90.6544 85.0067 91.7403 86.5099 91.2538 87.9697L85.2506 105.983C84.9466 106.904 84.0865 107.521 83.1135 107.521H53.7579C52.7849 107.521 51.9249 106.904 51.6208 105.983L50.1178 101.482C49.6313 100.022 50.7173 98.5186 52.255 98.5186H76.6238C77.5881 98.5186 78.4482 97.9016 78.761 96.9806C79.2475 95.5208 78.1615 94.0175 76.6238 94.0175H49.2577C48.2847 94.0175 47.4247 93.4006 47.1206 92.4795L41.1174 74.4665C40.6309 73.0067 41.7169 71.5034 43.2546 71.5034H93.6168C95.1546 71.5034 96.2405 73.0154 95.754 74.4665Z" fill="#778197"/>
<path d="M119.227 74.4665L117.724 78.9676C117.42 79.8886 116.56 80.5056 115.587 80.5056H107.725L110.722 71.5034H117.081C118.628 71.5034 119.714 73.0154 119.227 74.4665Z" fill="#778197"/>
<path d="M128.444 60.9631L126.941 65.4641C126.637 66.3852 125.776 67.0022 124.803 67.0022H112.232L114.205 61.076C114.813 59.2426 116.533 58 118.47 58H126.306C127.844 58 128.93 59.5033 128.444 60.9631Z" fill="#778197"/>
<path d="M99.8642 80.5137H107.727L99.2387 105.991C98.9346 106.912 98.0746 107.529 97.1016 107.529H92.3581C90.8204 107.529 89.7344 106.026 90.2209 104.566L97.7271 82.0517C98.0311 81.1306 98.8912 80.5137 99.8642 80.5137Z" fill="#778197"/>
<path d="M112.225 67.002L110.722 71.503H104.354C102.816 71.503 101.731 69.9998 102.217 68.54C102.521 67.6189 103.381 67.002 104.354 67.002H112.225Z" fill="#778197"/>
<path d="M92.2694 118C94.2606 118 95.8748 116.386 95.8748 114.394C95.8748 112.403 94.2606 110.788 92.2694 110.788C90.2782 110.788 88.6641 112.403 88.6641 114.394C88.6641 116.386 90.2782 118 92.2694 118Z" fill="#778197"/>
<path d="M68.4394 118C70.4305 118 72.0447 116.386 72.0447 114.394C72.0447 112.403 70.4305 110.788 68.4394 110.788C66.4482 110.788 64.834 112.403 64.834 114.394C64.834 116.386 66.4482 118 68.4394 118Z" fill="#778197"/>
<path d="M164.275 77.4379V75.5957C164.275 70.8513 160.426 67.002 155.683 67.002H149.549C144.806 67.002 140.957 70.8513 140.957 75.5957V79.1844C140.957 82.3299 142.46 85.2756 144.997 87.1265L152.937 92.9049C153.893 93.6 154.458 94.7036 154.458 95.8853V99.5348C154.458 100.551 153.632 101.377 152.616 101.377C151.599 101.377 150.774 100.551 150.774 99.5348V95.8506C150.774 94.8339 149.949 94.0084 148.932 94.0084H142.799C141.782 94.0084 140.957 94.8339 140.957 95.8506V98.9179C140.957 103.662 144.806 107.512 149.549 107.512H155.683C160.426 107.512 164.275 103.662 164.275 98.9179V94.0953C164.275 90.9498 162.772 88.0041 160.235 86.1533L152.294 80.3748C151.339 79.6797 150.774 78.5762 150.774 77.3944V74.9701C150.774 73.9534 151.599 73.1279 152.616 73.1279C153.632 73.1279 154.458 73.9534 154.458 74.9701V77.4292C154.458 78.4458 155.283 79.2713 156.299 79.2713H162.433C163.449 79.28 164.275 78.4545 164.275 77.4379Z" fill="#778197"/>
<path d="M185.143 75.5957H181.46C179.983 75.5957 178.68 76.2561 177.776 77.2901V68.8441C177.776 67.8274 176.951 67.002 175.934 67.002H169.801C168.784 67.002 167.959 67.8274 167.959 68.8441V105.67C167.959 106.686 168.784 107.512 169.801 107.512H175.934C176.951 107.512 177.776 106.686 177.776 105.67V80.5052C177.776 79.8274 178.323 79.28 179.001 79.28C179.679 79.28 180.226 79.8274 180.226 80.5052V105.67C180.226 106.686 181.051 107.512 182.068 107.512H188.201C189.218 107.512 190.043 106.686 190.043 105.67V80.5052C190.052 77.7941 187.854 75.5957 185.143 75.5957Z" fill="#778197"/>
<path d="M193.734 86.649V96.468C193.734 102.568 198.678 107.521 204.785 107.521H206.01C212.109 107.521 217.061 102.577 217.061 96.468V86.649C217.061 80.5491 212.117 75.5962 206.01 75.5962H204.785C198.678 75.5962 193.734 80.5491 193.734 86.649ZM205.393 103.837C204.716 103.837 204.168 103.289 204.168 102.611V80.5057C204.168 79.8279 204.716 79.2805 205.393 79.2805C206.071 79.2805 206.618 79.8279 206.618 80.5057V102.603C206.627 103.28 206.071 103.837 205.393 103.837Z" fill="#778197"/>
<path d="M236.694 74.371H235.469C233.453 74.371 231.681 75.3616 230.56 76.8561V76.2044C230.56 75.1878 229.735 74.3623 228.718 74.3623H222.576C221.56 74.3623 220.734 75.1878 220.734 76.2044V109.354C220.734 110.371 221.56 111.196 222.576 111.196H228.71C229.726 111.196 230.551 110.371 230.551 109.354V103.793C231.672 105.296 233.444 106.278 235.46 106.278H236.685C240.073 106.278 242.818 103.532 242.818 100.144V80.5057C242.827 77.1168 240.082 74.371 236.694 74.371ZM231.785 101.377C231.107 101.377 230.56 100.83 230.56 100.152V80.5057C230.56 79.8279 231.107 79.2805 231.785 79.2805C232.463 79.2805 233.01 79.8279 233.01 80.5057V100.152C233.01 100.83 232.463 101.377 231.785 101.377Z" fill="#778197"/>
<path d="M264.929 72.5284V68.8441C264.929 67.8274 264.103 67.002 263.087 67.002H248.361C247.345 67.002 246.52 67.8274 246.52 68.8441V105.67C246.52 106.686 247.345 107.512 248.361 107.512H254.495C255.511 107.512 256.337 106.686 256.337 105.67V90.9411C256.337 89.9244 257.162 89.0989 258.178 89.0989H261.862C262.878 89.0989 263.704 88.2735 263.704 87.2568V83.5725C263.704 82.5559 262.878 81.7304 261.862 81.7304H258.178C257.162 81.7304 256.337 80.9049 256.337 79.8882V76.204C256.337 75.1873 257.162 74.3618 258.178 74.3618H263.087C264.103 74.3705 264.929 73.545 264.929 72.5284Z" fill="#778197"/>
<path d="M276.589 107.52H270.455C269.439 107.52 268.613 106.695 268.613 105.678V76.2127C268.613 75.1961 269.439 74.3706 270.455 74.3706H276.589C277.605 74.3706 278.43 75.1961 278.43 76.2127V105.678C278.43 106.695 277.605 107.52 276.589 107.52Z" fill="#778197"/>
<path d="M276.589 71.9114H270.455C269.439 71.9114 268.613 71.0859 268.613 70.0693V68.8441C268.613 67.8274 269.439 67.002 270.455 67.002H276.589C277.605 67.002 278.43 67.8274 278.43 68.8441V70.0693C278.43 71.0946 277.605 71.9114 276.589 71.9114Z" fill="#778197"/>
</svg>
