<svg width="320" height="320" viewBox="0 0 320 320" fill="none" xmlns="http://www.w3.org/2000/svg">
<rect width="320" height="320" rx="8"/>
<path d="M178.559 100.795L176.017 108.393C175.503 109.948 174.049 110.989 172.403 110.989H110.898C108.298 110.989 106.461 113.526 107.284 115.991C107.798 117.545 109.253 118.587 110.898 118.587H167.334C169.935 118.587 171.771 121.124 170.948 123.588L160.796 153.993C160.281 155.548 158.827 156.589 157.181 156.589H107.534C105.888 156.589 104.434 155.548 103.919 153.993L101.377 146.395C100.555 143.931 102.391 141.394 104.992 141.394H146.206C147.836 141.394 149.291 140.353 149.82 138.798C150.643 136.334 148.806 133.796 146.206 133.796H99.9229C98.2773 133.796 96.8227 132.755 96.3084 131.2L86.1556 100.795C85.3328 98.3314 87.1694 95.7939 89.7701 95.7939H174.945C177.545 95.7939 179.382 98.346 178.559 100.795Z" fill="white"/>
<path d="M218.256 100.794L215.714 108.392C215.2 109.946 213.745 110.988 212.1 110.988H198.803L203.872 95.7925H214.627C217.242 95.7925 219.079 98.3446 218.256 100.794Z" fill="white"/>
<path d="M233.843 78.0015L231.301 85.5991C230.787 87.1538 229.332 88.1951 227.686 88.1951H206.426L209.761 78.1922C210.79 75.0974 213.699 73 216.975 73H230.228C232.829 73 234.666 75.5374 233.843 78.0015Z" fill="white"/>
<path d="M185.51 111.002H198.807L184.452 154.006C183.938 155.561 182.483 156.603 180.837 156.603H172.815C170.214 156.603 168.378 154.065 169.201 151.601L181.895 113.599C182.409 112.044 183.864 111.002 185.51 111.002Z" fill="white"/>
<path d="M206.418 88.1953L203.876 95.7929H193.106C190.505 95.7929 188.669 93.2555 189.492 90.7914C190.006 89.2367 191.46 88.1953 193.106 88.1953H206.418Z" fill="white"/>
<path d="M172.664 174.277C176.032 174.277 178.762 171.552 178.762 168.19C178.762 164.828 176.032 162.103 172.664 162.103C169.296 162.103 166.566 164.828 166.566 168.19C166.566 171.552 169.296 174.277 172.664 174.277Z" fill="white"/>
<path d="M132.365 174.277C135.733 174.277 138.463 171.552 138.463 168.19C138.463 164.828 135.733 162.103 132.365 162.103C128.998 162.103 126.268 164.828 126.268 168.19C126.268 171.552 128.998 174.277 132.365 174.277Z" fill="white"/>
<path d="M107.139 208.463V206.334C107.139 200.853 102.659 196.405 97.1387 196.405H90.0001C84.4793 196.405 80 200.853 80 206.334V210.481C80 214.115 81.7493 217.519 84.7018 219.657L93.9435 226.334C95.0558 227.137 95.713 228.412 95.713 229.778V233.995C95.713 235.169 94.7524 236.123 93.5694 236.123C92.3864 236.123 91.4258 235.169 91.4258 233.995V229.738C91.4258 228.563 90.4652 227.609 89.2822 227.609H82.1436C80.9606 227.609 80 228.563 80 229.738V233.282C80 238.764 84.4793 243.211 90.0001 243.211H97.1387C102.659 243.211 107.139 238.764 107.139 233.282V227.71C107.139 224.075 105.39 220.671 102.437 218.533L93.1953 211.856C92.083 211.053 91.4258 209.778 91.4258 208.413V205.611C91.4258 204.437 92.3864 203.483 93.5694 203.483C94.7524 203.483 95.713 204.437 95.713 205.611V208.453C95.713 209.627 96.6736 210.581 97.8566 210.581H104.995C106.178 210.591 107.139 209.638 107.139 208.463Z" fill="white"/>
<path d="M131.424 206.334H127.137C125.418 206.334 123.901 207.097 122.85 208.292V198.533C122.85 197.359 121.889 196.405 120.706 196.405H113.567C112.384 196.405 111.424 197.359 111.424 198.533V241.083C111.424 242.258 112.384 243.211 113.567 243.211H120.706C121.889 243.211 122.85 242.258 122.85 241.083V212.007C122.85 211.224 123.487 210.591 124.275 210.591C125.064 210.591 125.701 211.224 125.701 212.007V241.083C125.701 242.258 126.662 243.211 127.845 243.211H134.983C136.166 243.211 137.127 242.258 137.127 241.083V212.007C137.137 208.874 134.579 206.334 131.424 206.334Z" fill="white"/>
<path d="M141.426 219.106V230.451C141.426 237.499 147.179 243.222 154.287 243.222H155.713C162.811 243.222 168.575 237.509 168.575 230.451V219.106C168.575 212.058 162.821 206.335 155.713 206.335H154.287C147.179 206.335 141.426 212.058 141.426 219.106ZM154.995 238.965C154.206 238.965 153.569 238.332 153.569 237.549V212.008C153.569 211.224 154.206 210.592 154.995 210.592C155.784 210.592 156.421 211.224 156.421 212.008V237.539C156.431 238.322 155.784 238.965 154.995 238.965Z" fill="white"/>
<path d="M191.428 204.919H190.002C187.656 204.919 185.594 206.064 184.289 207.791V207.038C184.289 205.863 183.329 204.909 182.146 204.909H174.997C173.814 204.909 172.854 205.863 172.854 207.038V245.34C172.854 246.515 173.814 247.469 174.997 247.469H182.136C183.319 247.469 184.279 246.515 184.279 245.34V238.915C185.584 240.652 187.646 241.786 189.992 241.786H191.418C195.361 241.786 198.557 238.613 198.557 234.698V212.007C198.567 208.092 195.371 204.919 191.428 204.919ZM185.715 236.124C184.926 236.124 184.289 235.491 184.289 234.708V212.007C184.289 211.224 184.926 210.592 185.715 210.592C186.504 210.592 187.141 211.224 187.141 212.007V234.708C187.141 235.491 186.504 236.124 185.715 236.124Z" fill="white"/>
<path d="M224.291 202.79V198.533C224.291 197.359 223.331 196.405 222.148 196.405H205.009C203.826 196.405 202.865 197.359 202.865 198.533V241.083C202.865 242.258 203.826 243.211 205.009 243.211H212.147C213.33 243.211 214.291 242.258 214.291 241.083V224.065C214.291 222.89 215.252 221.937 216.435 221.937H220.722C221.905 221.937 222.865 220.983 222.865 219.808V215.551C222.865 214.376 221.905 213.423 220.722 213.423H216.435C215.252 213.423 214.291 212.469 214.291 211.294V207.037C214.291 205.862 215.252 204.909 216.435 204.909H222.148C223.331 204.919 224.291 203.965 224.291 202.79Z" fill="white"/>
<path d="M237.856 243.221H230.718C229.535 243.221 228.574 242.267 228.574 241.093V207.047C228.574 205.872 229.535 204.918 230.718 204.918H237.856C239.039 204.918 240 205.872 240 207.047V241.093C240 242.267 239.039 243.221 237.856 243.221Z" fill="white"/>
<path d="M237.856 202.077H230.718C229.535 202.077 228.574 201.124 228.574 199.949V198.533C228.574 197.359 229.535 196.405 230.718 196.405H237.856C239.039 196.405 240 197.359 240 198.533V199.949C240 201.134 239.039 202.077 237.856 202.077Z" fill="white"/>
</svg>
