<svg width="320" height="176" viewBox="0 0 320 176" fill="none" xmlns="http://www.w3.org/2000/svg">
<rect x="0.5" y="0.5" width="319" height="175" rx="7.5"/>
<path d="M160 147C127.414 147 101 120.586 101 88C101 55.4136 127.414 29 160 29C192.586 29 219 55.4136 219 88C219 120.586 192.586 147 160 147Z" fill="#F55681"/>
<path d="M169.629 76.7222L168.377 80.4731C168.123 81.2407 167.406 81.7548 166.596 81.7548H136.29C135.008 81.7548 134.103 83.0076 134.509 84.2241C134.762 84.9917 135.479 85.5058 136.29 85.5058H164.098C165.379 85.5058 166.284 86.7585 165.879 87.975L160.876 102.986C160.623 103.754 159.906 104.268 159.095 104.268H134.632C133.821 104.268 133.104 103.754 132.851 102.986L131.598 99.2351C131.193 98.0186 132.098 96.7659 133.379 96.7659H153.687C154.491 96.7659 155.207 96.2518 155.468 95.4842C155.873 94.2677 154.968 93.0149 153.687 93.0149H130.882C130.071 93.0149 129.354 92.5008 129.101 91.7332L124.098 76.7222C123.692 75.5057 124.597 74.2529 125.879 74.2529H167.848C169.129 74.2529 170.034 75.5129 169.629 76.7222Z" fill="white"/>
<path d="M189.189 76.7217L187.937 80.4726C187.683 81.2402 186.966 81.7543 186.156 81.7543H179.604L182.101 74.2524H187.401C188.689 74.2524 189.594 75.5124 189.189 76.7217Z" fill="white"/>
<path d="M196.867 65.4693L195.614 69.2202C195.361 69.9878 194.644 70.5019 193.833 70.5019H183.357L185.001 65.5634C185.508 64.0355 186.941 63 188.556 63H195.086C196.367 63 197.272 64.2527 196.867 65.4693Z" fill="white"/>
<path d="M173.056 81.7612H179.608L172.535 102.992C172.281 103.76 171.565 104.274 170.754 104.274H166.801C165.519 104.274 164.614 103.021 165.02 101.805L171.275 83.0429C171.528 82.2754 172.245 81.7612 173.056 81.7612Z" fill="white"/>
<path d="M183.358 70.501L182.106 74.2519H176.799C175.517 74.2519 174.612 72.9992 175.018 71.7827C175.271 71.0151 175.988 70.501 176.799 70.501H183.358Z" fill="white"/>
<path d="M166.725 113C168.385 113 169.73 111.655 169.73 109.995C169.73 108.335 168.385 106.99 166.725 106.99C165.066 106.99 163.721 108.335 163.721 109.995C163.721 111.655 165.066 113 166.725 113Z" fill="white"/>
<path d="M146.866 113C148.525 113 149.87 111.655 149.87 109.995C149.87 108.335 148.525 106.99 146.866 106.99C145.206 106.99 143.861 108.335 143.861 109.995C143.861 111.655 145.206 113 146.866 113Z" fill="white"/>
</svg>
