<svg width="912" height="584" viewBox="0 0 912 584" fill="none" xmlns="http://www.w3.org/2000/svg">
<path d="M347.178 6.68718C337.452 9.04349 327.84 11.9136 318.442 15.1203C241.658 41.2789 152.419 96.2005 110.661 168.431C61.9492 252.691 41.2385 368.31 29.0051 463.537C26.4274 483.584 24.4963 504.463 31.0691 523.57C38.8024 546.052 57.8478 563.485 79.6304 572.999C101.413 582.513 125.756 584.807 149.505 583.771C218.263 580.768 282.743 551.376 349.605 535.033C469.689 505.685 595.379 518.813 718.988 519.415C759.223 519.61 799.643 518.441 839.249 511.354C856.071 508.342 873.309 503.984 886.667 493.319C909.38 475.195 915.714 442.091 909.043 413.807C902.364 385.522 884.958 361.082 866.825 338.378C848.692 315.674 829.203 293.484 817.112 267.06C789.97 207.709 800.742 129.41 752.712 85.225C724.622 59.3853 683.759 53.4059 645.597 52.901C607.435 52.3961 568.335 56.0457 531.847 44.8399C499.949 35.0426 472.098 14.4293 439.969 5.40272C409.798 -3.07469 377.89 -0.753807 347.178 6.68718Z" fill="#F3F4F9"/>
<path d="M349.603 535.023C469.687 505.676 595.377 518.804 718.986 519.406C759.221 519.601 799.641 518.432 839.247 511.345C856.069 508.333 873.307 503.975 886.665 493.31C909.378 475.186 915.712 442.082 909.041 413.797C902.362 385.513 884.956 361.073 866.823 338.369C848.69 315.665 829.201 293.475 817.11 267.051C812.211 256.341 808.553 245.011 805.559 233.38L796.018 242.921V187.273C793.892 175.881 791.695 164.586 788.932 153.655H764.128V97.7062C760.736 93.3036 756.953 89.1225 752.71 85.216C733.682 67.7031 708.773 59.3231 682.827 55.576V70.7503H654.135V148.863H631.82V273.739H499.504V340.158H472.406V18.1408C461.874 13.1181 451.182 8.55609 439.967 5.40253C422.481 0.486167 404.41 -0.78943 386.321 0.450734V158.439H116.807C114.654 161.734 112.608 165.065 110.659 168.44C61.9473 252.7 41.2365 368.319 29.0032 463.546C26.4254 483.592 24.4943 504.471 31.0672 523.579C38.8005 546.061 57.8459 563.494 79.6285 573.008C87.0606 576.259 94.8028 578.642 102.704 580.36H182.828C239.362 571.511 293.654 548.701 349.603 535.023Z" fill="#F1F1F1"/>
<path d="M430.062 481.289L597.422 343.56C642.556 306.417 629.578 234.177 574.338 215.061C549.827 206.584 522.685 211.394 502.585 227.791L278.939 410.157L430.062 481.289Z" fill="url(#paint0_linear_33_3228)"/>
<path d="M255.986 377.629H214.184C211.836 377.629 209.932 379.534 209.932 381.881C209.932 384.149 211.765 385.983 214.033 385.983H256.119C258.387 385.983 260.22 384.149 260.22 381.881C260.229 379.534 258.333 377.629 255.986 377.629Z" fill="#F3F4F9" stroke="#E0E0E0" stroke-miterlimit="10" stroke-linecap="round" stroke-linejoin="round"/>
<path d="M235.078 329.812L216.547 377.629H253.61L235.078 329.812Z" fill="#F3F4F9" stroke="#E0E0E0" stroke-miterlimit="10" stroke-linecap="round" stroke-linejoin="round"/>
<path d="M235.078 332.842C236.13 332.842 236.983 331.989 236.983 330.937C236.983 329.885 236.13 329.033 235.078 329.033C234.027 329.033 233.174 329.885 233.174 330.937C233.174 331.989 234.027 332.842 235.078 332.842Z" fill="#F3F4F9" stroke="#E0E0E0" stroke-miterlimit="10" stroke-linecap="round" stroke-linejoin="round"/>
<path d="M227.729 348.787H242.434L247.66 362.26H222.512L227.729 348.787Z" fill="#E0E0E0" stroke="#E0E0E0" stroke-miterlimit="10" stroke-linecap="round" stroke-linejoin="round"/>
<path d="M531.97 151.361C482.107 139.172 431.446 174.96 421.259 194.723C412.294 212.112 308.936 365.679 284.23 402.326L269.197 400.413L278.941 410.157L430.064 481.289C430.064 481.289 551.866 288.506 570.734 248.608C589.603 208.71 581.834 163.55 531.97 151.361Z" fill="#E0E0E0" stroke="#E0E0E0" stroke-miterlimit="10" stroke-linecap="round" stroke-linejoin="round"/>
<path d="M269.197 400.413C269.197 400.413 401.319 204.733 411.506 184.979C421.693 165.225 472.363 129.428 522.217 141.617C572.081 153.806 579.858 198.966 560.981 238.864C542.104 278.762 420.311 471.545 420.311 471.545L269.197 400.413Z" fill="white" stroke="#E0E0E0" stroke-miterlimit="10" stroke-linejoin="round"/>
<path d="M532.963 225.603C525.256 241.902 497.069 288.94 467.075 337.811C464.674 341.727 462.256 345.66 459.837 349.584C458.234 352.188 456.631 354.784 455.027 357.379C438.321 384.45 421.818 410.892 408.698 431.807L365.682 411.566L315.119 387.763C328.699 367.584 346.495 341.089 364.371 314.292C398.662 262.879 433.262 210.376 439.029 199.267C440.181 197.309 443.228 194.085 447.719 190.48C458.898 181.497 479.069 170.15 501.33 170.15C506.007 170.15 510.551 170.681 514.865 171.736C531.634 175.837 535.496 183.933 536.763 186.591C541.369 196.255 539.943 210.845 532.963 225.603Z" fill="#E0E0E0" stroke="#E0E0E0" stroke-miterlimit="10" stroke-linecap="round" stroke-linejoin="round"/>
<path d="M391.852 360.612H349.332V403.132H391.852V360.612Z" stroke="#E0E0E0" stroke-miterlimit="10" stroke-linecap="round" stroke-linejoin="round"/>
<path d="M391.852 360.612L349.332 403.132" stroke="#E0E0E0" stroke-miterlimit="10" stroke-linecap="round" stroke-linejoin="round"/>
<path d="M349.332 360.612L391.852 403.132" stroke="#E0E0E0" stroke-miterlimit="10" stroke-linecap="round" stroke-linejoin="round"/>
<path d="M391.852 318.093H349.332V360.613H391.852V318.093Z" stroke="#E0E0E0" stroke-miterlimit="10" stroke-linecap="round" stroke-linejoin="round"/>
<path d="M391.852 318.093L349.332 360.613" stroke="#E0E0E0" stroke-miterlimit="10" stroke-linecap="round" stroke-linejoin="round"/>
<path d="M349.332 318.093L391.852 360.613" stroke="#E0E0E0" stroke-miterlimit="10" stroke-linecap="round" stroke-linejoin="round"/>
<path d="M391.852 275.573H349.332V318.093H391.852V275.573Z" stroke="#E0E0E0" stroke-miterlimit="10" stroke-linecap="round" stroke-linejoin="round"/>
<path d="M391.852 275.573L349.332 318.093" stroke="#E0E0E0" stroke-miterlimit="10" stroke-linecap="round" stroke-linejoin="round"/>
<path d="M349.332 275.573L391.852 318.093" stroke="#E0E0E0" stroke-miterlimit="10" stroke-linecap="round" stroke-linejoin="round"/>
<path d="M391.852 233.053H349.332V275.573H391.852V233.053Z" stroke="#E0E0E0" stroke-miterlimit="10" stroke-linecap="round" stroke-linejoin="round"/>
<path d="M391.852 233.053L349.332 275.573" stroke="#E0E0E0" stroke-miterlimit="10" stroke-linecap="round" stroke-linejoin="round"/>
<path d="M349.332 233.053L391.852 275.573" stroke="#E0E0E0" stroke-miterlimit="10" stroke-linecap="round" stroke-linejoin="round"/>
<path d="M391.852 190.533H349.332V233.053H391.852V190.533Z" stroke="#E0E0E0" stroke-miterlimit="10" stroke-linecap="round" stroke-linejoin="round"/>
<path d="M391.852 190.533L349.332 233.053" stroke="#E0E0E0" stroke-miterlimit="10" stroke-linecap="round" stroke-linejoin="round"/>
<path d="M349.332 190.533L391.852 233.053" stroke="#E0E0E0" stroke-miterlimit="10" stroke-linecap="round" stroke-linejoin="round"/>
<path d="M391.852 148.013H349.332V190.533H391.852V148.013Z" stroke="#E0E0E0" stroke-miterlimit="10" stroke-linecap="round" stroke-linejoin="round"/>
<path d="M391.852 148.013L349.332 190.533" stroke="#E0E0E0" stroke-miterlimit="10" stroke-linecap="round" stroke-linejoin="round"/>
<path d="M349.332 148.013L391.852 190.533" stroke="#E0E0E0" stroke-miterlimit="10" stroke-linecap="round" stroke-linejoin="round"/>
<path d="M391.852 105.493H349.332V148.013H391.852V105.493Z" stroke="#E0E0E0" stroke-miterlimit="10" stroke-linecap="round" stroke-linejoin="round"/>
<path d="M391.852 105.493L349.332 148.013" stroke="#E0E0E0" stroke-miterlimit="10" stroke-linecap="round" stroke-linejoin="round"/>
<path d="M349.332 105.493L391.852 148.013" stroke="#E0E0E0" stroke-miterlimit="10" stroke-linecap="round" stroke-linejoin="round"/>
<path d="M391.852 62.9731H349.332V105.493H391.852V62.9731Z" stroke="#E0E0E0" stroke-miterlimit="10" stroke-linecap="round" stroke-linejoin="round"/>
<path d="M391.852 62.9731L349.332 105.493" stroke="#E0E0E0" stroke-miterlimit="10" stroke-linecap="round" stroke-linejoin="round"/>
<path d="M349.332 62.9731L391.852 105.493" stroke="#E0E0E0" stroke-miterlimit="10" stroke-linecap="round" stroke-linejoin="round"/>
<path d="M434.37 62.9731H391.85V105.493H434.37V62.9731Z" stroke="#E0E0E0" stroke-miterlimit="10" stroke-linecap="round" stroke-linejoin="round"/>
<path d="M434.37 62.9731L391.85 105.493" stroke="#E0E0E0" stroke-miterlimit="10" stroke-linecap="round" stroke-linejoin="round"/>
<path d="M391.85 62.9731L434.37 105.493" stroke="#E0E0E0" stroke-miterlimit="10" stroke-linecap="round" stroke-linejoin="round"/>
<path d="M349.329 62.9731H306.809V105.493H349.329V62.9731Z" stroke="#E0E0E0" stroke-miterlimit="10" stroke-linecap="round" stroke-linejoin="round"/>
<path d="M349.329 62.9731L306.809 105.493" stroke="#E0E0E0" stroke-miterlimit="10" stroke-linecap="round" stroke-linejoin="round"/>
<path d="M306.809 62.9731L349.329 105.493" stroke="#E0E0E0" stroke-miterlimit="10" stroke-linecap="round" stroke-linejoin="round"/>
<path d="M306.813 62.9731H264.293V105.493H306.813V62.9731Z" stroke="#E0E0E0" stroke-miterlimit="10" stroke-linecap="round" stroke-linejoin="round"/>
<path d="M306.813 62.9731L264.293 105.493" stroke="#E0E0E0" stroke-miterlimit="10" stroke-linecap="round" stroke-linejoin="round"/>
<path d="M264.293 62.9731L306.813 105.493" stroke="#E0E0E0" stroke-miterlimit="10" stroke-linecap="round" stroke-linejoin="round"/>
<path d="M264.289 62.9731H221.77V105.493H264.289V62.9731Z" stroke="#E0E0E0" stroke-miterlimit="10" stroke-linecap="round" stroke-linejoin="round"/>
<path d="M264.289 62.9731L221.77 105.493" stroke="#E0E0E0" stroke-miterlimit="10" stroke-linecap="round" stroke-linejoin="round"/>
<path d="M221.77 62.9731L264.289 105.493" stroke="#E0E0E0" stroke-miterlimit="10" stroke-linecap="round" stroke-linejoin="round"/>
<path d="M221.772 105.493H179.252L221.772 62.9731V105.493Z" stroke="#E0E0E0" stroke-miterlimit="10" stroke-linecap="round" stroke-linejoin="round"/>
<path d="M391.852 20.4531H349.332V62.973H391.852V20.4531Z" stroke="#E0E0E0" stroke-miterlimit="10" stroke-linecap="round" stroke-linejoin="round"/>
<path d="M391.852 20.4531L349.332 62.973" stroke="#E0E0E0" stroke-miterlimit="10" stroke-linecap="round" stroke-linejoin="round"/>
<path d="M349.332 20.4531L391.852 62.973" stroke="#E0E0E0" stroke-miterlimit="10" stroke-linecap="round" stroke-linejoin="round"/>
<path d="M195.195 105.493V185.218" stroke="#E0E0E0" stroke-miterlimit="10" stroke-linecap="round" stroke-linejoin="round"/>
<path d="M214.144 118.78H176.248C175.46 118.78 174.822 118.143 174.822 117.354V114.006C174.822 113.217 175.46 112.58 176.248 112.58H214.144C214.933 112.58 215.571 113.217 215.571 114.006V117.354C215.571 118.134 214.924 118.78 214.144 118.78Z" fill="#E0E0E0" stroke="#E0E0E0" stroke-miterlimit="10" stroke-linecap="round" stroke-linejoin="round"/>
<path d="M459.838 349.584C441.519 379.33 423.076 408.89 408.699 431.807L365.683 411.566C355.585 382.732 360.696 350.682 360.696 350.682L459.838 349.584Z" fill="#E6E6E6"/>
<path d="M339.947 275.582C339.947 275.582 350.781 317.623 363.298 327.243C375.815 336.863 371.12 304.637 371.12 304.637L373.441 277.353L339.947 275.582Z" fill="#FAA5A5" stroke="#FFB8B8" stroke-miterlimit="10" stroke-linejoin="round"/>
<path d="M485.979 262.888C485.979 262.888 471.265 298.489 460.245 309.899C449.226 321.308 453.398 282.686 455.338 277.327C457.278 271.967 469.192 251.071 469.777 251.115C470.379 251.159 485.979 262.888 485.979 262.888Z" fill="#FAA5A5" stroke="#FAA5A5" stroke-miterlimit="10" stroke-linejoin="round"/>
<path d="M490.839 256.093C487.633 270.931 472.219 273.101 472.219 273.101C469.367 281.454 462.989 282.376 462.014 312.361C461.563 326.215 464.158 333.736 467.073 337.811C464.672 341.726 462.254 345.659 459.835 349.584C458.232 352.188 456.629 354.783 455.025 357.379C397.092 369.524 356.592 352.073 356.592 352.073C361.977 342.559 363.714 321.618 363.714 321.618L364.369 314.292L367.284 281.534C346.272 281.702 333.746 273.473 331.912 267.6C330.079 261.727 330.725 221.448 335.456 213.422C340.186 205.406 359.922 201.136 359.922 201.136L429.088 192.349C429.088 192.349 437.486 190.169 447.717 190.479C456.682 190.745 467.055 192.915 474.434 200.126C490.246 215.575 494.037 241.246 490.839 256.093Z" fill="#F55681"/>
<path d="M406.899 265.766C404.587 264.544 401.894 264.34 399.281 264.26C387.544 263.924 375.735 265.793 364.68 269.761C359.472 271.622 354.236 273.987 348.718 273.836C343.792 273.703 339.115 271.559 334.969 268.902C334.686 268.725 334.341 268.486 333.942 268.238C333.304 267.83 332.542 267.37 331.754 266.989C331.807 267.219 331.86 267.432 331.913 267.6C333.747 273.473 346.273 281.702 367.285 281.534L366.399 291.517C366.647 291.42 366.886 291.296 367.09 291.11C367.958 290.339 368.02 289.028 368.02 287.868C368.011 284.634 368.002 281.41 367.993 278.177C371.191 278.212 372.352 282.411 372.245 285.609C371.802 299.959 365.265 313.761 365.956 328.102C366.195 333.125 367.639 338.564 371.758 341.443C377.02 345.11 384.824 342.825 388.863 337.846C392.903 332.868 393.877 326.047 393.603 319.642C393.328 313.238 391.955 306.895 391.973 300.482C391.973 298.604 392.123 296.637 393.133 295.061C394.648 292.669 397.633 291.792 400.255 290.702C405.242 288.638 409.822 284.936 411.612 279.842C413.401 274.766 411.674 268.291 406.899 265.766Z" fill="#D44E72"/>
<path d="M435.065 211.687C435.065 211.687 440.097 238.545 428.466 254.082C416.835 269.62 394.795 265.572 394.795 265.572C394.795 265.572 379.665 238.572 379.869 237.73C380.073 236.888 397.285 222.166 398.25 221.98C399.216 221.794 435.065 211.687 435.065 211.687Z" fill="#D44E72"/>
<path d="M430.929 220.102C430.929 220.943 432.656 250.946 415.931 258.857C399.207 266.767 383.519 246.73 385.565 236.675C387.62 226.63 430.929 220.102 430.929 220.102Z" fill="#D44E72"/>
<path d="M332.437 133.459C332.437 133.459 303.878 129.889 302.283 141.617C300.689 153.346 308.706 164.419 324.633 166.855C324.633 166.855 318.919 192.349 350.995 185.696C350.995 185.696 354.725 196.751 355.61 198.523C355.61 198.523 357.524 189.585 369.615 185.696C381.698 181.807 423.075 189.682 434.467 198.178C434.467 198.178 445.478 191.41 449.119 176.634C452.751 161.858 451.812 158.749 451.812 158.749C451.812 158.749 460.263 157.73 460.617 153.168C460.617 153.168 458.269 151.485 455.346 151.893C455.346 151.893 456.613 149.528 454.939 147.641C454.939 147.641 452.033 148.155 451.555 150.307C451.555 150.307 447.002 138.269 439.809 136.639C432.616 135.009 429.719 141.263 429.719 141.263C429.719 141.263 418.549 112.181 397.041 109.497C375.542 106.813 376.427 123.041 376.427 123.041C376.427 123.041 359.792 105.537 341.056 115.875C331.923 120.906 332.437 133.459 332.437 133.459Z" fill="#2F2E41"/>
<path d="M359.932 190.32C359.932 190.32 367.869 232.131 397.978 244.081C428.088 256.022 438.779 211.669 438.779 206.15C438.779 202.483 445.007 202.695 446.911 198.904C448.816 195.112 451.305 188.894 446.911 184.438C442.518 179.982 436.521 181.896 435.068 187.654C433.615 193.412 434.474 198.177 434.474 198.177C434.474 198.177 422.445 189.913 425.262 172.86C425.262 172.86 407.474 190.409 369.773 172.86C369.773 172.86 370.641 183.96 368.657 186.998C366.682 190.045 359.932 190.32 359.932 190.32Z" fill="#FFB8B8" stroke="#FAA5A5" stroke-miterlimit="10" stroke-linejoin="round"/>
<path d="M356.806 204.609L353.617 196.326C353.617 196.326 343.447 216.762 353.023 230.448C362.599 244.134 371.006 246.199 379.572 246.438L356.806 204.609Z" fill="#D44E72"/>
<path d="M353.022 200.33C353.022 200.33 352.721 228.482 374.539 246.119L391.617 244.09C391.617 244.09 411.681 235.108 410.973 218.773C410.264 202.439 408.227 196.034 394.798 186.733C381.377 177.414 360.029 184.235 353.022 200.33Z" fill="#FFB8B8" stroke="#FAA5A5" stroke-miterlimit="10" stroke-linejoin="round"/>
<path d="M379.854 231.759C389.12 231.759 396.631 224.248 396.631 214.982C396.631 205.716 389.12 198.204 379.854 198.204C370.588 198.204 363.076 205.716 363.076 214.982C363.076 224.248 370.588 231.759 379.854 231.759Z" fill="white"/>
<path d="M490.84 256.093C491.132 254.738 491.362 253.285 491.54 251.771C488.909 267.822 477.118 268.442 477.118 268.442C479.297 260.54 474.904 255.801 474.904 255.801C474.904 255.801 475.63 266.404 472.229 273.11C472.22 273.101 487.633 270.931 490.84 256.093Z" fill="#D44E72"/>
<path d="M384.621 250.034C375.275 251.699 364.796 257.953 363.378 267.768C361.961 277.583 364.238 284.891 362.634 288.754C361.031 292.616 352.748 315.497 363.945 330.095C375.151 344.694 382.512 339.786 387.783 330.937C393.054 322.087 386.791 296.141 381.077 288.745C381.077 288.745 403.161 289.064 406.713 281.437C408.396 277.831 408.396 276.334 408.396 276.334C408.396 276.334 410.788 273.42 407.679 269.274C407.679 269.274 411.506 260.814 405.633 260.398C405.633 260.398 404.401 253.365 398.971 254.436C398.989 254.454 395.321 248.129 384.621 250.034Z" fill="#FFB8B8" stroke="#FFB8B8" stroke-miterlimit="10" stroke-linejoin="round"/>
<path d="M419.921 180.168C419.921 180.168 417.759 187.609 409.84 190.001" stroke="#864B53" stroke-width="2" stroke-miterlimit="10" stroke-linecap="round" stroke-linejoin="round"/>
<path d="M421.753 190.214L411.584 194.572L422.683 197.487" stroke="#864B53" stroke-width="2" stroke-miterlimit="10" stroke-linecap="round" stroke-linejoin="round"/>
<path d="M439.605 187.663C439.605 187.663 445.966 187.282 444.079 194.909" stroke="#864B53" stroke-width="2" stroke-miterlimit="10" stroke-linecap="round" stroke-linejoin="round"/>
<path d="M201.685 345.19V189.222H162.185L58.1445 345.19V398.03H145.151V443.951H201.685V398.322H233.017V345.199H201.685V345.19ZM145.151 345.19H119.356L145.151 305.345V345.19Z" fill="#D44E72"/>
<path d="M192.829 345.19V189.222H153.33L49.2891 345.19V398.03H136.295V443.951H192.829V398.322H224.161V345.199H192.829V345.19ZM136.295 345.19H110.5L136.295 305.345V345.19Z" fill="#F55681"/>
<path d="M732.734 345.19V189.222H693.235L589.203 345.19V398.03H676.209V443.951H732.743V398.322H764.075V345.199H732.734V345.19ZM676.201 345.19H650.405L676.201 305.345V345.19Z" fill="#E0E0E0" stroke="#E0E0E0" stroke-miterlimit="10" stroke-linecap="round" stroke-linejoin="round"/>
<path d="M723.875 345.19V189.222H684.376L580.344 345.19V398.03H667.35V443.951H723.884V398.322H755.216V345.199H723.875V345.19ZM667.341 345.19H641.546L667.341 305.345V345.19Z" fill="white" stroke="#E0E0E0" stroke-miterlimit="10" stroke-linejoin="round"/>
<path d="M379.855 181.107C361.146 181.107 345.98 196.273 345.98 214.982C345.98 233.69 361.146 248.856 379.855 248.856C398.563 248.856 413.729 233.69 413.729 214.982C413.729 196.273 398.563 181.107 379.855 181.107ZM379.855 244.391C363.617 244.391 350.454 231.228 350.454 214.99C350.454 198.753 363.617 185.59 379.855 185.59C396.092 185.59 409.255 198.753 409.255 214.99C409.255 231.228 396.101 244.391 379.855 244.391Z" fill="#E0E0E0" stroke="#E0E0E0" stroke-miterlimit="10" stroke-linecap="round" stroke-linejoin="round"/>
<path d="M190.908 459.055V488.89C190.908 490.325 192.069 491.485 193.504 491.485H285.488C286.923 491.485 288.084 490.325 288.084 488.89V449.763C288.084 449.213 287.951 448.682 287.703 448.195L266.39 407.225C265.841 406.162 264.742 405.498 263.546 405.498H228.246C226.474 405.498 225.039 406.933 225.039 408.704V456.459H193.513C192.069 456.459 190.908 457.62 190.908 459.055Z" fill="#F3F4F9" stroke="#E0E0E0" stroke-miterlimit="10" stroke-linecap="round" stroke-linejoin="round"/>
<path d="M288.072 451.029H262.472C260.877 451.029 259.593 452.323 259.593 453.908V464.848C259.593 468.188 256.891 470.89 253.551 470.89C252.533 470.89 251.541 470.633 250.646 470.146L248.892 469.18L225.019 456.468H193.492C192.057 456.468 190.896 457.629 190.896 459.064V488.899C190.896 490.334 192.057 491.494 193.492 491.494H285.477C286.912 491.494 288.072 490.334 288.072 488.899V451.029V451.029Z" fill="white" stroke="#E0E0E0" stroke-miterlimit="10" stroke-linecap="round" stroke-linejoin="round"/>
<path d="M265.58 436.183L259.043 442.72C258.441 443.322 257.466 443.322 256.864 442.72C256.262 442.118 256.262 441.143 256.864 440.541L263.401 434.004C264.004 433.401 264.978 433.401 265.58 434.004C266.183 434.606 266.183 435.58 265.58 436.183Z" fill="#E0E0E0" stroke="#E0E0E0" stroke-miterlimit="10" stroke-linecap="round" stroke-linejoin="round"/>
<path d="M263.033 438.726L261.58 440.179L268.84 447.438L270.293 445.985L263.033 438.726Z" fill="#E0E0E0" stroke="#E0E0E0" stroke-miterlimit="10" stroke-linecap="round" stroke-linejoin="round"/>
<path d="M283.13 439.425H270.71C269.514 439.425 268.549 440.39 268.549 441.586V448.983C268.549 451.508 270.595 453.545 273.111 453.545H288.081V449.762C288.081 449.213 287.949 448.682 287.701 448.195L283.13 439.425Z" fill="#E0E0E0" stroke="#E0E0E0" stroke-miterlimit="10" stroke-linecap="round" stroke-linejoin="round"/>
<path d="M247.377 459.055H235.365C234.523 459.055 233.85 458.373 233.85 457.54V451.215C233.85 450.374 233.168 449.701 232.335 449.701H226.542C225.701 449.701 225.027 450.383 225.027 451.215V456.46V467.656C225.027 468.498 225.709 469.171 226.542 469.171H247.377C248.218 469.171 248.892 468.489 248.892 467.656V460.57C248.892 459.737 248.218 459.055 247.377 459.055Z" fill="#E0E0E0" stroke="#E0E0E0" stroke-miterlimit="10" stroke-linecap="round" stroke-linejoin="round"/>
<path d="M291.155 484.62H288.072V396.807C288.072 395.957 288.763 395.266 289.614 395.266C290.464 395.266 291.155 395.957 291.155 396.807V484.62Z" fill="#E0E0E0" stroke="#E0E0E0" stroke-miterlimit="10" stroke-linecap="round" stroke-linejoin="round"/>
<path d="M288.479 484.124V482.033C288.479 481.759 288.7 481.537 288.975 481.537H328.022C328.872 481.537 329.563 482.228 329.563 483.079C329.563 483.929 328.872 484.62 328.022 484.62H288.975C288.7 484.62 288.479 484.398 288.479 484.124Z" fill="#E0E0E0" stroke="#E0E0E0" stroke-miterlimit="10" stroke-linecap="round" stroke-linejoin="round"/>
<path d="M216.072 504.126C223.161 504.126 228.908 498.379 228.908 491.29C228.908 484.201 223.161 478.455 216.072 478.455C208.983 478.455 203.236 484.201 203.236 491.29C203.236 498.379 208.983 504.126 216.072 504.126Z" fill="white" stroke="#E0E0E0" stroke-miterlimit="10" stroke-linecap="round" stroke-linejoin="round"/>
<path d="M216.07 496.942C219.191 496.942 221.721 494.412 221.721 491.29C221.721 488.169 219.191 485.639 216.07 485.639C212.948 485.639 210.418 488.169 210.418 491.29C210.418 494.412 212.948 496.942 216.07 496.942Z" fill="#E0E0E0" stroke="#E0E0E0" stroke-miterlimit="10" stroke-linecap="round" stroke-linejoin="round"/>
<path d="M268.449 504.126C275.538 504.126 281.285 498.379 281.285 491.29C281.285 484.201 275.538 478.455 268.449 478.455C261.36 478.455 255.613 484.201 255.613 491.29C255.613 498.379 261.36 504.126 268.449 504.126Z" fill="white" stroke="#E0E0E0" stroke-miterlimit="10" stroke-linecap="round" stroke-linejoin="round"/>
<path d="M268.45 496.942C271.572 496.942 274.102 494.412 274.102 491.29C274.102 488.169 271.572 485.639 268.45 485.639C265.329 485.639 262.799 488.169 262.799 491.29C262.799 494.412 265.329 496.942 268.45 496.942Z" fill="#E0E0E0" stroke="#E0E0E0" stroke-miterlimit="10" stroke-linecap="round" stroke-linejoin="round"/>
<path d="M755.207 327.394H735.719V344.224H755.207V327.394Z" fill="white" stroke="#F55681" stroke-miterlimit="10" stroke-linecap="round" stroke-linejoin="round"/>
<path d="M755.208 327.394H750.779V344.224H755.208V327.394Z" fill="#D44E72" stroke="#F55681" stroke-miterlimit="10" stroke-linecap="round" stroke-linejoin="round"/>
<path d="M744.577 327.394H735.719V344.224H744.577V327.394Z" fill="#F55681" stroke="#F55681" stroke-miterlimit="10" stroke-linecap="round" stroke-linejoin="round"/>
<path d="M745.463 317.649L735.719 327.394H755.207L745.463 317.649Z" stroke="#F55681" stroke-miterlimit="10" stroke-linecap="round" stroke-linejoin="round"/>
<path d="M683.322 410.883V464.919" stroke="#2F2E41" stroke-miterlimit="10" stroke-linecap="round" stroke-linejoin="round"/>
<path d="M702.811 411.326V465.362" stroke="#2F2E41" stroke-miterlimit="10" stroke-linecap="round" stroke-linejoin="round"/>
<path d="M683.32 414.427H702.809" stroke="#2F2E41" stroke-miterlimit="10" stroke-linecap="round" stroke-linejoin="round"/>
<path d="M683.32 423.285H702.809" stroke="#2F2E41" stroke-miterlimit="10" stroke-linecap="round" stroke-linejoin="round"/>
<path d="M683.32 432.143H702.809" stroke="#2F2E41" stroke-miterlimit="10" stroke-linecap="round" stroke-linejoin="round"/>
<path d="M683.32 441.001H702.809" stroke="#2F2E41" stroke-miterlimit="10" stroke-linecap="round" stroke-linejoin="round"/>
<path d="M683.32 449.86H702.809" stroke="#2F2E41" stroke-miterlimit="10" stroke-linecap="round" stroke-linejoin="round"/>
<path d="M683.32 458.718H702.809" stroke="#2F2E41" stroke-miterlimit="10" stroke-linecap="round" stroke-linejoin="round"/>
<path d="M683.322 358.274V412.31" stroke="#2F2E41" stroke-miterlimit="10" stroke-linecap="round" stroke-linejoin="round"/>
<path d="M702.811 358.717V412.753" stroke="#2F2E41" stroke-miterlimit="10" stroke-linecap="round" stroke-linejoin="round"/>
<path d="M683.32 361.817H702.809" stroke="#2F2E41" stroke-miterlimit="10" stroke-linecap="round" stroke-linejoin="round"/>
<path d="M683.32 370.675H702.809" stroke="#2F2E41" stroke-miterlimit="10" stroke-linecap="round" stroke-linejoin="round"/>
<path d="M683.32 379.534H702.809" stroke="#2F2E41" stroke-miterlimit="10" stroke-linecap="round" stroke-linejoin="round"/>
<path d="M683.32 388.392H702.809" stroke="#2F2E41" stroke-miterlimit="10" stroke-linecap="round" stroke-linejoin="round"/>
<path d="M683.32 397.25H702.809" stroke="#2F2E41" stroke-miterlimit="10" stroke-linecap="round" stroke-linejoin="round"/>
<path d="M683.32 406.109H702.809" stroke="#2F2E41" stroke-miterlimit="10" stroke-linecap="round" stroke-linejoin="round"/>
<path d="M683.322 306.612V360.648" stroke="#2F2E41" stroke-miterlimit="10" stroke-linecap="round" stroke-linejoin="round"/>
<path d="M702.811 307.055V361.091" stroke="#2F2E41" stroke-miterlimit="10" stroke-linecap="round" stroke-linejoin="round"/>
<path d="M683.32 310.156H702.809" stroke="#2F2E41" stroke-miterlimit="10" stroke-linecap="round" stroke-linejoin="round"/>
<path d="M683.32 319.014H702.809" stroke="#2F2E41" stroke-miterlimit="10" stroke-linecap="round" stroke-linejoin="round"/>
<path d="M683.32 327.872H702.809" stroke="#2F2E41" stroke-miterlimit="10" stroke-linecap="round" stroke-linejoin="round"/>
<path d="M683.32 336.73H702.809" stroke="#2F2E41" stroke-miterlimit="10" stroke-linecap="round" stroke-linejoin="round"/>
<path d="M683.32 345.589H702.809" stroke="#2F2E41" stroke-miterlimit="10" stroke-linecap="round" stroke-linejoin="round"/>
<path d="M683.32 354.447H702.809" stroke="#2F2E41" stroke-miterlimit="10" stroke-linecap="round" stroke-linejoin="round"/>
<path d="M455.024 357.379C456.628 354.783 458.231 352.188 459.835 349.584C462.253 345.659 464.671 341.726 467.072 337.811C464.157 333.736 461.562 326.215 462.014 312.361C462.147 308.171 462.395 304.566 462.713 301.412C462.306 302.103 461.943 303.104 461.677 304.486C460.056 312.884 459.392 321.467 459.684 330.016C459.843 334.675 460.136 339.051 457.354 343.099C448.115 356.555 425.03 357.29 410.618 357.317C397.082 357.344 383.476 356.511 370.295 353.419C365.998 352.409 361.746 351.169 357.406 350.461C357.14 351.028 356.865 351.568 356.582 352.064C356.591 352.073 397.091 369.524 455.024 357.379Z" fill="#D44E72"/>
<path d="M92.4425 413.178V404.461H84.7889C84.3371 402.61 83.6108 400.873 82.6452 399.297L88.0576 393.884L81.8922 387.719L76.4798 393.131C74.8942 392.166 73.1668 391.439 71.3154 390.988V383.334H62.5988V390.988C60.7474 391.439 59.0112 392.166 57.4256 393.131L52.0131 387.719L45.8478 393.884L51.2602 399.297C50.2946 400.882 49.5683 402.61 49.1165 404.461H41.4629V413.178H49.1165C49.5683 415.029 50.2946 416.765 51.2602 418.351L45.8478 423.763L52.0131 429.929L57.4256 424.516C59.0112 425.482 60.7474 426.208 62.5988 426.66V434.314H71.3154V426.66C73.1668 426.208 74.903 425.482 76.4798 424.516L81.8922 429.929L88.0576 423.763L82.6452 418.351C83.6108 416.765 84.3371 415.029 84.7889 413.178H92.4425ZM75.8509 408.819C75.8509 409.652 75.7357 410.458 75.5231 411.22C75.3282 411.911 75.0536 412.566 74.7082 413.169C73.9109 414.586 72.7328 415.764 71.3154 416.562C70.7042 416.907 70.0398 417.182 69.3577 417.377C68.5871 417.589 67.7898 417.704 66.9571 417.704C66.1244 417.704 65.3183 417.589 64.5565 417.377C63.8656 417.182 63.2101 416.907 62.5988 416.562C61.1815 415.764 60.0033 414.586 59.2061 413.169C58.8606 412.558 58.586 411.902 58.3911 411.211C58.1785 410.449 58.0634 409.643 58.0634 408.811C58.0634 407.978 58.1785 407.172 58.3911 406.41C58.586 405.719 58.8606 405.063 59.2061 404.452C60.0033 403.026 61.1815 401.857 62.5988 401.059C63.2101 400.714 63.8656 400.439 64.5565 400.253C65.3183 400.032 66.1244 399.917 66.9571 399.917C67.7898 399.917 68.5959 400.032 69.3577 400.245C70.0487 400.439 70.7042 400.714 71.3154 401.059C72.7328 401.857 73.9109 403.035 74.7082 404.452C75.0536 405.063 75.3282 405.719 75.5231 406.41C75.7357 407.181 75.8509 407.987 75.8509 408.819Z" fill="#21202F"/>
<path d="M655.516 461.137H544.008V476.86H655.516V461.137Z" fill="white" stroke="#E0E0E0" stroke-miterlimit="10" stroke-linejoin="round"/>
<path d="M571.885 461.137H544.008V476.86H571.885V461.137Z" fill="white" stroke="#E0E0E0" stroke-miterlimit="10" stroke-linejoin="round"/>
<path d="M599.762 461.137H571.885V476.86H599.762V461.137Z" fill="#E0E0E0" stroke="#E0E0E0" stroke-miterlimit="10"/>
<path d="M655.515 461.137H627.328V476.86H655.515V461.137Z" fill="#E0E0E0" stroke="#E0E0E0" stroke-miterlimit="10"/>
<path d="M566.596 477.507V524.314" stroke="#E0E0E0" stroke-miterlimit="10"/>
<path d="M633.971 477.507V524.314" stroke="#E0E0E0" stroke-miterlimit="10"/>
<path d="M74.2238 396.913V384.22H63.0801C62.4246 381.527 61.3616 379.002 59.9619 376.699L67.8458 368.815L58.8635 359.833L50.9796 367.716C48.6764 366.317 46.1518 365.254 43.4589 364.598V353.455H30.7649V364.598C28.072 365.254 25.5385 366.317 23.2354 367.716L15.3515 359.833L6.37799 368.815L14.2619 376.699C12.8623 379.002 11.7993 381.527 11.1438 384.22H0V396.913H11.1438C11.7993 399.606 12.8623 402.14 14.2619 404.443L6.37799 412.327L15.3515 421.3L23.2354 413.417C25.5385 414.816 28.072 415.879 30.7649 416.535V427.678H43.4589V416.535C46.1518 415.879 48.6764 414.816 50.9796 413.417L58.8635 421.3L67.8458 412.327L59.9619 404.443C61.3616 402.14 62.4246 399.606 63.0801 396.913H74.2238ZM50.0672 390.571C50.0672 391.785 49.8989 392.963 49.5889 394.07C49.3054 395.071 48.9068 396.028 48.4018 396.913C47.2414 398.977 45.5229 400.696 43.4589 401.856C42.5642 402.361 41.6075 402.76 40.6065 403.043C39.4904 403.353 38.3211 403.522 37.1075 403.522C35.8939 403.522 34.7246 403.353 33.6173 403.043C32.6075 402.76 31.6596 402.361 30.7649 401.856C28.7009 400.696 26.9824 398.977 25.822 396.913C25.3171 396.028 24.9184 395.071 24.635 394.061C24.3249 392.954 24.1566 391.785 24.1566 390.571C24.1566 389.357 24.3249 388.188 24.635 387.072C24.9184 386.062 25.3171 385.105 25.822 384.22C26.9824 382.147 28.7009 380.437 30.7649 379.277C31.6596 378.772 32.6075 378.373 33.6173 378.098C34.7246 377.78 35.8939 377.611 37.1075 377.611C38.3211 377.611 39.4904 377.78 40.6065 378.09C41.6075 378.373 42.5642 378.772 43.4589 379.277C45.5229 380.437 47.2414 382.147 48.4018 384.22C48.9068 385.105 49.3054 386.062 49.5889 387.072C49.8989 388.188 50.0672 389.357 50.0672 390.571Z" fill="#2F2E41"/>
<path d="M379.854 218.374C381.727 218.374 383.246 216.855 383.246 214.982C383.246 213.108 381.727 211.589 379.854 211.589C377.98 211.589 376.461 213.108 376.461 214.982C376.461 216.855 377.98 218.374 379.854 218.374Z" fill="#864B53"/>
<defs>
<linearGradient id="paint0_linear_33_3228" x1="351.367" y1="444.707" x2="609.843" y2="241.954" gradientUnits="userSpaceOnUse">
<stop stop-color="#E0E0E0"/>
<stop offset="1" stop-color="#E0E0E0" stop-opacity="0.1"/>
</linearGradient>
</defs>
</svg>
