<svg width="516" height="638" viewBox="0 0 516 638" fill="none" xmlns="http://www.w3.org/2000/svg">
<path d="M275.923 11.7773H274.393C165.193 11.7773 76.6719 100.437 76.6719 209.806V593.625H473.633V209.796C473.633 100.427 385.112 11.7773 275.923 11.7773Z" fill="#E6E6E6" stroke="#E0E0E0" stroke-miterlimit="10" stroke-linejoin="round"/>
<path d="M275.152 48.8315C182.651 48.8315 107.668 123.931 107.668 216.576V560.577H442.636V216.576C442.636 123.931 367.653 48.8315 275.152 48.8315Z" fill="white"/>
<path d="M364.905 560.577V505.377H338.017V427.203H293.302L286.482 560.577H364.905Z" fill="#E0E0E0"/>
<path d="M354.644 348.268V342.259H329.646V190.037L307.648 173.012V560.577H329.646V487.471H353.644V481.462H329.646V470.446H353.644V464.437H329.646V366.294H354.644V360.285H329.646V348.268H354.644Z" fill="#F3F4F9"/>
<path d="M175.162 560.577H214.158V60.2979C200.14 65.7859 187.041 73.1165 175.162 81.9895V560.577Z" fill="#E6E6E6"/>
<path d="M188.66 560.577H214.158V60.2979C205.259 63.7829 196.739 68.0091 188.66 72.8962V560.577Z" fill="#F3F4F9"/>
<path d="M329.648 170.679V157.009C329.648 155.036 327.398 153.924 325.838 155.116L316.239 162.467C314.939 163.458 315.009 165.441 316.379 166.342L325.978 172.662C327.548 173.703 329.648 172.571 329.648 170.679Z" fill="#F55681"/>
<path d="M307.648 173.012V188.495L329.646 205.369V190.037L307.648 173.012Z" fill="#E6E6E6"/>
<path d="M403.82 560.578V109.19C397.861 102.039 391.322 95.3894 384.272 89.3105C368.354 109.69 348.506 144.591 348.506 191.9C348.506 264.226 348.506 518.246 348.506 560.568H403.82V560.578Z" fill="#F3F4F9"/>
<path d="M403.82 560.578V109.19C397.861 102.039 391.322 95.3894 384.272 89.3105C368.354 109.69 348.506 144.591 348.506 191.9C348.506 264.226 348.506 518.246 348.506 560.568H403.82V560.578Z" stroke="#E0E0E0" stroke-miterlimit="10" stroke-linejoin="round"/>
<path d="M384.563 560.577L348.496 532.737" stroke="#E0E0E0" stroke-miterlimit="10" stroke-linejoin="round"/>
<path d="M395.232 481.091L348.496 519.637" stroke="#E0E0E0" stroke-miterlimit="10" stroke-linejoin="round"/>
<path d="M395.232 365.753L348.496 402.437" stroke="#E0E0E0" stroke-miterlimit="10" stroke-linejoin="round"/>
<path d="M395.232 337.812L348.496 298.435" stroke="#E0E0E0" stroke-miterlimit="10" stroke-linejoin="round"/>
<path d="M395.23 560.577H403.82V109.189C401.08 105.895 398.21 102.72 395.23 99.6455V560.577Z" fill="#E0E0E0"/>
<path d="M442.637 560.577V216.576C442.637 201.153 440.547 186.221 436.658 172.031C429.978 172.281 424.639 177.769 424.639 184.529V560.577H442.637Z" fill="#E0E0E0"/>
<path d="M442.637 245.858C399.051 247.13 360.645 278.987 360.645 319.215C360.645 359.714 405.48 385.973 442.637 386.694V245.858Z" fill="white" stroke="#E0E0E0" stroke-miterlimit="10" stroke-linejoin="round"/>
<path d="M442.637 560.577V373.435C427.598 373.455 416.539 377.701 412.59 381.006C412.59 381.006 439.637 424.379 439.637 483.465C439.637 526.057 439.637 550.332 439.637 560.577H442.637Z" fill="#F3F4F9"/>
<path d="M442.637 560.577V373.435C427.598 373.455 416.539 377.701 412.59 381.006C412.59 381.006 439.637 424.379 439.637 483.465C439.637 526.057 439.637 550.332 439.637 560.577H442.637Z" stroke="#E0E0E0" stroke-miterlimit="10" stroke-linejoin="round"/>
<path d="M283.651 534.539C283.651 475.914 272.012 428.385 257.654 428.385C243.295 428.385 231.656 475.914 231.656 534.539C231.656 543.523 231.926 552.245 232.446 560.577H282.861C283.381 552.245 283.651 543.523 283.651 534.539Z" fill="#E0E0E0"/>
<path d="M120.667 429.386L115.167 424.379H107.668V560.577H120.667V429.386Z" fill="#E0E0E0"/>
<path d="M155.664 560.578V448.414C155.664 443.437 151.635 439.401 146.665 439.401C141.696 439.401 137.666 443.437 137.666 448.414V560.578H155.664Z" fill="#E0E0E0"/>
<path d="M395.232 127.887L350.916 163.709" stroke="#E0E0E0" stroke-miterlimit="10" stroke-linejoin="round"/>
<path d="M395.231 216.866L348.836 181.234" stroke="#E0E0E0" stroke-miterlimit="10" stroke-linejoin="round"/>
<path d="M395.232 247.261L348.496 284.986" stroke="#E0E0E0" stroke-miterlimit="10" stroke-linejoin="round"/>
<path d="M395.232 451.649L348.496 413.673" stroke="#E0E0E0" stroke-miterlimit="10" stroke-linejoin="round"/>
<path d="M360.645 319.225C360.645 321.369 360.775 323.482 361.024 325.545C367.654 320.197 387.992 309.101 442.637 309.101V301.199C411.05 301.199 379.463 303.803 360.715 317.022C360.685 317.753 360.645 318.484 360.645 319.225Z" fill="#F55681"/>
<path d="M299.749 543.512L198.099 458.128L107.668 493.029V560.577H299.749V543.512Z" fill="white" stroke="#E0E0E0" stroke-miterlimit="10" stroke-linejoin="round"/>
<path d="M160.163 505.497C138.145 505.497 118.797 516.914 107.668 534.149V560.577H222.197C218.487 529.552 192.14 505.497 160.163 505.497Z" fill="#F3F4F9"/>
<path d="M123.418 560.577H196.911C193.441 543.432 178.303 530.534 160.164 530.534C142.026 530.534 126.898 543.432 123.418 560.577Z" fill="white" stroke="#F55681" stroke-miterlimit="10" stroke-linejoin="round"/>
<path d="M186.9 511.496L229.556 484.546" stroke="#E0E0E0" stroke-miterlimit="10" stroke-linejoin="round"/>
<path d="M237.047 506.599V528.891L245.567 537.243V560.577" fill="white"/>
<path d="M237.047 506.599V528.891L245.567 537.243V560.577" stroke="#E0E0E0" stroke-miterlimit="10" stroke-linejoin="round"/>
<path d="M258.064 537.904V560.577" stroke="#E0E0E0" stroke-miterlimit="10" stroke-linejoin="round"/>
<path d="M276.072 523.624V560.577" stroke="#E0E0E0" stroke-miterlimit="10" stroke-linejoin="round"/>
<path d="M275.152 48.8315C182.651 48.8315 107.668 123.931 107.668 216.576V560.577H442.636V216.576C442.636 123.931 367.653 48.8315 275.152 48.8315Z" stroke="#E0E0E0" stroke-miterlimit="10" stroke-linejoin="round"/>
<path d="M457.634 432.391C460.948 432.391 463.634 429.7 463.634 426.382C463.634 423.063 460.948 420.373 457.634 420.373C454.321 420.373 451.635 423.063 451.635 426.382C451.635 429.7 454.321 432.391 457.634 432.391Z" fill="#F55681" stroke="#F55681" stroke-miterlimit="10" stroke-linejoin="round"/>
<path d="M457.634 457.427C460.948 457.427 463.634 454.736 463.634 451.418C463.634 448.099 460.948 445.409 457.634 445.409C454.321 445.409 451.635 448.099 451.635 451.418C451.635 454.736 454.321 457.427 457.634 457.427Z" fill="white" stroke="#F55681" stroke-miterlimit="10" stroke-linejoin="round"/>
<path d="M107.67 266.148H101.67V298.195H107.67V266.148Z" fill="#F55681"/>
<path d="M107.67 306.207H101.67V338.253H107.67V306.207Z" fill="white"/>
<path d="M107.67 346.265H101.67V378.311H107.67V346.265Z" fill="#F55681"/>
<path d="M107.669 560.577L76.6719 593.625H473.633L442.636 560.577H107.669Z" stroke="#E0E0E0" stroke-miterlimit="10" stroke-linejoin="round"/>
<path d="M270.324 581.097C289.404 581.097 304.871 578.353 304.871 574.968C304.871 571.583 289.404 568.839 270.324 568.839C251.244 568.839 235.777 571.583 235.777 574.968C235.777 578.353 251.244 581.097 270.324 581.097Z" fill="#E0E0E0"/>
<path d="M179.423 347.066C178.903 346.806 176.773 345.363 175.843 344.342C174.913 343.331 170.804 337.172 169.594 336.17C168.384 335.169 167.794 331.353 167.794 331.353C167.794 331.353 166.194 330.942 165.864 332.645C165.524 334.347 166.034 336.501 167.214 337.502C168.384 338.503 167.064 340.146 166.174 340.016C165.294 339.885 159.315 338.924 156.325 335.97C153.335 333.015 150.546 336.781 152.446 340.506C154.335 344.222 157.125 351.713 169.594 351.713C174.523 351.713 176.043 355.558 176.043 355.558L179.423 347.066Z" fill="#A0616A" stroke="#864B53" stroke-miterlimit="10" stroke-linejoin="round"/>
<path d="M379.123 334.788C379.123 334.788 375.353 336.01 373.823 339.845C372.304 343.691 373.224 344.572 372.384 345.834C371.544 347.096 368.494 349.97 365.574 349.85L370.014 354.747L371.984 356.149C371.984 356.149 372.734 353.225 376.163 353.475C379.593 353.726 385.242 353.606 389.342 348.648C393.442 343.691 392.482 338.834 391.852 337.863C391.222 336.891 387.052 342.62 380.743 342.62C378.393 342.62 377.553 341.768 377.733 340.947C377.903 340.126 380.103 337.212 379.123 334.788Z" fill="#A0616A" stroke="#864B53" stroke-miterlimit="10" stroke-linejoin="round"/>
<path d="M277.824 353.786H263.545V363.51H277.824V353.786Z" fill="#A0616A" stroke="#864B53" stroke-miterlimit="10" stroke-linejoin="round"/>
<path d="M258.376 344.042C258.376 344.042 256.796 344.112 256.926 345.714C257.056 347.316 257.966 346.886 258.146 348.298C258.336 349.71 258.126 350.601 258.716 351.172C259.256 351.693 260.906 351.623 260.796 350.421C260.686 349.229 258.376 344.042 258.376 344.042Z" fill="#A0616A" stroke="#864B53" stroke-miterlimit="10" stroke-linejoin="round"/>
<path d="M283.263 344.042C283.263 344.042 284.843 344.112 284.713 345.714C284.583 347.316 283.673 346.886 283.493 348.298C283.303 349.71 283.513 350.601 282.923 351.172C282.383 351.693 280.733 351.623 280.843 350.421C280.953 349.229 283.263 344.042 283.263 344.042Z" fill="#A0616A" stroke="#864B53" stroke-miterlimit="10" stroke-linejoin="round"/>
<path d="M270.123 324.944C262.414 324.944 256.885 329.11 256.885 339.485C256.885 344.472 259.475 344.903 259.974 348.548C260.474 352.194 260.334 357.862 268.394 357.862C276.453 357.862 280.232 357.471 281.212 352.464C282.192 347.457 282.242 346.666 282.472 345.844C282.702 345.023 284.452 341.708 284.642 338.223C284.832 334.738 282.462 324.944 270.123 324.944Z" fill="#2F2E41"/>
<path d="M241.346 559.065C241.346 559.065 238.166 560.757 237.506 564.523C237.506 564.523 232.977 564.463 233.287 571.022C233.327 571.894 234.747 573.586 237.196 574.497C239.646 575.409 245.795 575.729 249.625 574.548C250.435 574.297 251.135 564.242 250.565 561.759C249.985 559.255 241.346 559.065 241.346 559.065Z" fill="#2F2E41"/>
<path d="M295.882 562.36C295.752 562.75 294.532 568.889 294.922 572.975C294.922 572.975 296.322 575.659 301.372 575.94C306.421 576.22 312.301 574.337 313.23 571.724C314.16 569.11 311.411 566.015 308.411 564.984C308.411 564.984 306.781 561.288 305.491 560.337L295.882 562.36Z" fill="#2F2E41"/>
<path d="M248.066 431.099C248.066 431.099 245.556 436.356 246.026 455.154C246.496 473.951 242.526 501.031 242.856 515.772C243.186 530.514 232.327 558.705 236.757 559.976C237.397 560.157 243.256 563.121 250.846 563.031C250.846 563.031 254.435 555.961 256.625 539.296C258.815 522.632 268.674 470.696 273.133 462.975C273.133 462.975 278.363 480.561 281.353 499.829C284.342 519.097 287.692 534.129 290.772 546.407C293.841 558.685 294.921 563.562 294.921 563.562C294.921 563.562 304.89 560.748 307.05 561.399C307.05 561.399 304.2 515.061 300.041 500.67C300.041 500.67 300.071 447.503 296.261 431.099H248.066Z" fill="#E6E6E6"/>
<path d="M246.736 436.987C250.296 435.355 257.955 432.991 272.874 432.581C282.673 432.31 290.942 434.213 297.211 436.496C296.921 434.433 296.602 432.611 296.252 431.099H248.056C248.066 431.099 247.336 432.641 246.736 436.987Z" fill="#D44E72"/>
<path d="M262.785 456.806C262.785 456.806 264.305 459.36 268.815 460.662C268.815 460.662 267.795 461.323 265.955 461.132C265.955 461.132 267.005 461.924 270.015 462.274C273.024 462.625 267.715 472.469 265.565 488.222C263.415 503.975 259.666 511.035 257.006 514.08C254.336 517.134 256.676 518.346 258.656 516.754C260.636 515.161 252.566 559.476 246.847 560.868C243.087 561.789 238.998 561.098 235.918 559.005C236.088 559.526 236.358 559.866 236.768 559.987C237.408 560.167 243.267 563.131 250.857 563.041C250.857 563.041 254.446 555.971 256.636 539.306C258.826 522.642 268.685 470.706 273.144 462.985C272.674 461.363 271.684 458.909 271.684 458.909C266.215 458.969 262.785 456.806 262.785 456.806Z" fill="#E0E0E0"/>
<path d="M271.034 358.392C267.254 358.573 262.035 359.033 260.215 359.925C260.215 359.925 259.305 361.217 259.405 363.78C259.405 363.78 250.256 361.156 242.686 360.726C235.117 360.295 224.108 361.767 218.019 358.693C211.929 355.618 189.072 347.276 178.743 345.954C178.743 345.954 174.823 347.797 175.113 357.211C175.113 357.211 196.571 370.13 218.229 376.769C239.887 383.409 241.497 388.196 243.486 402.457C245.476 416.717 245.136 427.002 244.546 429.556C243.956 432.11 245.286 434.573 247.656 434.313C247.656 434.313 275.693 429.716 296.821 433.582C296.821 433.582 299.491 406.733 302.631 392.562C305.14 381.256 310.03 381.466 318.209 379.613C322.549 378.632 341.627 372.162 354.546 364.491C367.464 356.83 373.554 356.87 373.554 356.87C373.554 356.87 370.634 346.255 365.805 345.123C365.805 345.123 350.536 352.694 339.577 355.749C328.618 358.803 311.72 362.599 311.72 362.599C311.72 362.599 297.081 358.843 282.503 362.478C282.503 362.478 281.693 359.484 280.803 358.983C279.913 358.483 275.013 358.202 271.034 358.392Z" fill="#F55681"/>
<path d="M300.041 500.67C300.041 500.67 300.051 490.325 299.721 477.346C299.281 486.76 298.471 497.666 297.211 499.579C294.961 503.014 300.291 501.872 301.621 514.26C302.101 518.706 303.091 523.964 304.351 528.721C303.201 517.605 301.731 506.509 300.041 500.67Z" fill="#E0E0E0"/>
<path d="M297.711 559.986C293.922 558.084 288.062 534.98 287.652 533.288C288.702 537.994 289.752 542.361 290.762 546.417C293.832 558.695 294.912 563.572 294.912 563.572C294.912 563.572 304.881 560.758 307.04 561.409C305.171 560.287 301.601 561.939 297.711 559.986Z" fill="#E0E0E0"/>
<path d="M293.692 381.276C293.692 381.276 291.402 422.035 259.355 423.047C259.355 423.047 275.204 430.057 285.823 409.397C291.032 399.272 293.442 389.217 293.692 381.276Z" fill="#D44E72"/>
<path d="M213.58 375.257C215.13 375.788 216.68 376.299 218.24 376.78C239.898 383.419 241.507 388.206 243.497 402.467C243.937 405.642 244.267 408.626 244.497 411.36C245.787 404.7 245.677 394.275 242.217 388.427C237.268 380.074 220.129 375.818 213.58 375.257Z" fill="#D44E72"/>
<path d="M248.377 424.699C248.507 423.808 248.787 422.796 247.317 424.539C244.837 427.463 245.647 424.409 244.977 424.869C244.907 427.143 244.747 428.755 244.557 429.566C246.057 426.682 248.057 426.922 248.377 424.699Z" fill="#D44E72"/>
<path d="M304.231 383.379C302.801 386.674 302.191 391.03 301.951 394.625C302.171 393.914 302.401 393.233 302.651 392.572C307.691 378.973 313.8 379.904 318.23 379.624C319.629 379.533 322.469 378.762 326.109 377.51C320.719 377.46 306.781 377.49 304.231 383.379Z" fill="#D44E72"/>
<path d="M23.7477 410.479C36.8632 410.479 47.4954 399.83 47.4954 386.694C47.4954 373.558 36.8632 362.909 23.7477 362.909C10.6322 362.909 0 373.558 0 386.694C0 399.83 10.6322 410.479 23.7477 410.479Z" fill="#F55681"/>
<path d="M32.5473 390.259C32.3773 389.768 32.1473 389.308 31.8573 388.867C31.5574 388.426 31.1974 388.026 30.7674 387.655C30.3375 387.285 29.8675 386.964 29.3476 386.684C30.4075 386.173 31.2274 385.492 31.8073 384.641C32.3773 383.79 32.6672 382.848 32.6672 381.807C32.6672 380.815 32.4873 379.884 32.1173 379.023C31.7473 378.162 31.2474 377.41 30.6074 376.78C29.9675 376.149 29.2176 375.648 28.3577 375.277C27.7877 375.037 27.1978 374.877 26.5778 374.797H26.6678V371.742H24.368V374.696L25.008 374.727L22.9082 374.717V371.742H20.6084V374.707L14.709 374.686V377.481H17.0088V396.208H14.709V398.962H20.6084V401.636H22.9082V398.962H24.368V401.636H26.6678V398.962H25.7379C26.7178 398.962 27.6377 398.772 28.4876 398.401C29.3476 398.031 30.0975 397.52 30.7274 396.869C31.3674 396.218 31.8673 395.457 32.2373 394.585C32.6073 393.714 32.7872 392.773 32.7872 391.751C32.7972 391.251 32.7072 390.75 32.5473 390.259ZM20.1285 377.491H25.6179C26.1179 377.491 26.5878 377.611 27.0278 377.861C27.4677 378.111 27.8577 378.422 28.1877 378.822C28.5176 379.213 28.7776 379.664 28.9676 380.174C29.1576 380.685 29.2576 381.196 29.2576 381.717C29.2576 382.197 29.1576 382.658 28.9676 383.109C28.7776 383.559 28.5176 383.95 28.1977 384.29C27.8777 384.631 27.4877 384.901 27.0478 385.102C26.6078 385.302 26.1279 385.402 25.6179 385.402H20.1285V377.491ZM29.1076 393.444C28.9176 393.965 28.6676 394.435 28.3377 394.846C28.0077 395.256 27.6277 395.587 27.1878 395.847C26.7478 396.108 26.2779 396.228 25.7679 396.228H20.1285V388.196H25.7679C26.2679 388.196 26.7378 388.296 27.1778 388.497C27.6177 388.697 27.9977 388.967 28.3277 389.308C28.6476 389.648 28.9076 390.039 29.0976 390.479C29.2876 390.92 29.3876 391.371 29.3876 391.841C29.3876 392.382 29.2976 392.913 29.1076 393.444Z" fill="white"/>
<path d="M451.636 38.4962C458.418 38.4962 463.915 32.9903 463.915 26.1983C463.915 19.4064 458.418 13.9004 451.636 13.9004C444.855 13.9004 439.357 19.4064 439.357 26.1983C439.357 32.9903 444.855 38.4962 451.636 38.4962Z" fill="#515667"/>
<path d="M456.187 28.041C456.097 27.7906 455.977 27.5503 455.827 27.32C455.677 27.0896 455.487 26.8893 455.267 26.699C455.047 26.5088 454.797 26.3385 454.537 26.1983C455.087 25.9379 455.507 25.5774 455.807 25.1368C456.107 24.6961 456.257 24.2054 456.257 23.6746C456.257 23.1639 456.167 22.6832 455.977 22.2325C455.787 21.7819 455.527 21.4013 455.197 21.0708C454.867 20.7404 454.477 20.48 454.037 20.2897C453.747 20.1595 453.437 20.0894 453.117 20.0393H453.167V18.457H451.977V19.9793L452.307 19.9993H451.217V18.457H450.027V19.9893L446.977 19.9793V21.4214H448.167V31.1055H446.977V32.5476H450.027V33.9296H451.217V32.5476H451.977V33.9296H453.167V32.5476H452.687C453.197 32.5476 453.667 32.4474 454.107 32.2571C454.547 32.0669 454.937 31.7965 455.267 31.466C455.597 31.1255 455.857 30.7349 456.047 30.2843C456.237 29.8336 456.327 29.3429 456.327 28.8221C456.317 28.5517 456.277 28.3014 456.187 28.041ZM449.767 21.4414H452.607C452.867 21.4414 453.107 21.5015 453.337 21.6317C453.567 21.7618 453.767 21.9221 453.937 22.1324C454.107 22.3327 454.247 22.573 454.337 22.8334C454.437 23.0938 454.487 23.3642 454.487 23.6346C454.487 23.8849 454.437 24.1253 454.337 24.3556C454.237 24.586 454.107 24.7963 453.937 24.9665C453.767 25.1468 453.567 25.287 453.347 25.3871C453.117 25.4873 452.877 25.5474 452.607 25.5474H449.767V21.4414ZM454.417 29.6934C454.317 29.9638 454.187 30.2042 454.017 30.4145C453.847 30.6248 453.647 30.795 453.427 30.9352C453.197 31.0654 452.957 31.1355 452.697 31.1355H449.787V26.9895H452.697C452.957 26.9895 453.197 27.0395 453.427 27.1497C453.657 27.2498 453.857 27.3901 454.017 27.5703C454.187 27.7506 454.317 27.9509 454.417 28.1712C454.517 28.4015 454.567 28.6319 454.567 28.8722C454.557 29.1426 454.507 29.423 454.417 29.6934Z" fill="white"/>
<path d="M164.934 124.261C199.195 124.261 226.968 96.4443 226.968 62.1306C226.968 27.8168 199.195 0 164.934 0C130.674 0 102.9 27.8168 102.9 62.1306C102.9 96.4443 130.674 124.261 164.934 124.261Z" fill="#F55681"/>
<path d="M141 62.6177L163.946 77L188 63.0611L163.946 23L141 62.6177Z" fill="white"/>
<path d="M141 68.5432L164.166 101L188 68L163.946 82.3658L141 68.5432Z" fill="white"/>
<path d="M390.482 193.792C401.096 193.792 409.7 185.175 409.7 174.544C409.7 163.914 401.096 155.296 390.482 155.296C379.868 155.296 371.264 163.914 371.264 174.544C371.264 185.175 379.868 193.792 390.482 193.792Z" fill="#515667"/>
<path d="M382.193 174.635L390.283 179.672L398.762 174.795L390.283 160.774L382.193 174.635Z" fill="white"/>
<path d="M382.193 176.638L390.363 188.315L398.762 176.447L390.283 181.615L382.193 176.638Z" fill="white"/>
<path d="M357.825 638C375.861 638 390.482 623.356 390.482 605.292C390.482 587.228 375.861 572.584 357.825 572.584C339.789 572.584 325.168 587.228 325.168 605.292C325.168 623.356 339.789 638 357.825 638Z" fill="#F55681"/>
<path d="M345.02 605.429L357.524 613.213L370.638 605.675L357.524 584L345.02 605.429Z" fill="white"/>
<path d="M345.02 608.537L357.642 626.594L370.638 608.228L357.524 616.23L345.02 608.537Z" fill="white"/>
<path d="M485.003 384.831C502.122 384.831 516 370.931 516 353.785C516 336.64 502.122 322.74 485.003 322.74C467.884 322.74 454.006 336.64 454.006 353.785C454.006 370.931 467.884 384.831 485.003 384.831Z" fill="#F55681"/>
<path d="M489.652 353.784L485 349.124L480.348 353.784L485 358.443L489.652 353.784Z" fill="white"/>
<path d="M469.399 349.131L464.746 353.79L469.399 358.45L474.052 353.79L469.399 349.131Z" fill="white"/>
<path d="M471.734 346.795L476.384 351.452L485.003 342.83L493.592 351.432L498.242 346.775L485.003 333.516L471.734 346.795Z" fill="white"/>
<path d="M469.399 349.131L464.746 353.79L469.399 358.45L474.052 353.79L469.399 349.131Z" fill="white"/>
<path d="M485.003 364.742L476.384 356.119L471.734 360.776L485.003 374.055L498.262 360.776L493.612 356.119L485.003 364.742Z" fill="white"/>
<path d="M500.582 349.124L495.93 353.784L500.582 358.444L505.235 353.784L500.582 349.124Z" fill="white"/>
<path d="M192.032 583.651C204.888 583.651 215.309 573.213 215.309 560.337C215.309 547.461 204.888 537.023 192.032 537.023C179.176 537.023 168.754 547.461 168.754 560.337C168.754 573.213 179.176 583.651 192.032 583.651Z" fill="#515667"/>
<path d="M195.247 560.335L192.033 557.117L188.82 560.335L192.033 563.553L195.247 560.335Z" fill="white"/>
<path d="M181.251 557.118L178.037 560.336L181.251 563.554L184.464 560.336L181.251 557.118Z" fill="white"/>
<path d="M182.867 555.509L186.078 558.734L192.029 552.773L197.962 558.715L201.173 555.5L192.029 546.333L182.867 555.509Z" fill="white"/>
<path d="M181.251 557.117L178.037 560.335L181.251 563.553L184.464 560.335L181.251 557.117Z" fill="white"/>
<path d="M192.029 567.909L186.078 561.948L182.867 565.164L192.029 574.34L201.191 565.164L197.971 561.948L192.029 567.909Z" fill="white"/>
<path d="M202.786 557.12L199.572 560.338L202.786 563.556L205.999 560.338L202.786 557.12Z" fill="white"/>
<path d="M120.668 179.932C129.228 179.932 136.167 172.983 136.167 164.41C136.167 155.837 129.228 148.887 120.668 148.887C112.109 148.887 105.17 155.837 105.17 164.41C105.17 172.983 112.109 179.932 120.668 179.932Z" fill="#515667"/>
<path d="M123.002 164.405L120.676 162.075L118.35 164.405L120.676 166.735L123.002 164.405Z" fill="white"/>
<path d="M112.871 162.077L110.545 164.407L112.871 166.737L115.198 164.407L112.871 162.077Z" fill="white"/>
<path d="M114.041 160.915L116.371 163.248L120.67 158.932L124.97 163.238L127.3 160.905L120.67 154.275L114.041 160.915Z" fill="white"/>
<path d="M112.871 162.077L110.545 164.407L112.871 166.737L115.198 164.407L112.871 162.077Z" fill="white"/>
<path d="M120.668 169.888L116.369 165.571L114.039 167.905L120.668 174.544L127.308 167.905L124.978 165.571L120.668 169.888Z" fill="white"/>
<path d="M128.459 162.078L126.133 164.408L128.459 166.738L130.785 164.408L128.459 162.078Z" fill="white"/>
<path d="M276.097 385.391L275.696 386.591C275.615 386.837 275.385 387.001 275.126 387.001H265.426C265.016 387.001 264.726 387.402 264.856 387.791C264.937 388.037 265.166 388.202 265.426 388.202H274.326C274.737 388.202 275.026 388.603 274.896 388.992L273.295 393.796C273.214 394.041 272.985 394.206 272.725 394.206H264.895C264.636 394.206 264.406 394.041 264.325 393.796L263.924 392.595C263.794 392.206 264.084 391.805 264.494 391.805H270.994C271.251 391.805 271.481 391.64 271.564 391.395C271.694 391.006 271.404 390.605 270.994 390.605H263.695C263.435 390.605 263.206 390.44 263.125 390.194L261.524 385.391C261.394 385.001 261.683 384.601 262.094 384.601H275.527C275.937 384.601 276.227 385.004 276.097 385.391Z" fill="white"/>
<path d="M282.359 385.391L281.958 386.592C281.877 386.837 281.648 387.002 281.388 387.002H279.291L280.09 384.601H281.787C282.199 384.601 282.489 385.004 282.359 385.391Z" fill="white"/>
<path d="M284.818 381.79L284.417 382.991C284.336 383.236 284.107 383.401 283.847 383.401H280.494L281.02 381.82C281.182 381.331 281.641 381 282.158 381H284.248C284.658 381 284.948 381.401 284.818 381.79Z" fill="white"/>
<path d="M277.189 387.004H279.287L277.023 393.798C276.941 394.044 276.712 394.208 276.453 394.208H275.187C274.777 394.208 274.487 393.807 274.617 393.418L276.619 387.414C276.7 387.168 276.93 387.004 277.189 387.004Z" fill="white"/>
<path d="M280.486 383.4L280.085 384.601H278.387C277.976 384.601 277.687 384.2 277.816 383.811C277.898 383.565 278.127 383.4 278.387 383.4H280.486Z" fill="white"/>
<path d="M275.171 397C275.702 397 276.132 396.569 276.132 396.038C276.132 395.507 275.702 395.077 275.171 395.077C274.64 395.077 274.209 395.507 274.209 396.038C274.209 396.569 274.64 397 275.171 397Z" fill="white"/>
<path d="M268.813 397C269.344 397 269.775 396.569 269.775 396.038C269.775 395.507 269.344 395.077 268.813 395.077C268.282 395.077 267.852 395.507 267.852 396.038C267.852 396.569 268.282 397 268.813 397Z" fill="white"/>
</svg>
