<svg width="64" height="104" viewBox="0 0 64 104" fill="none" xmlns="http://www.w3.org/2000/svg">
<path d="M16.44 58.88C21.1013 58.88 24.88 55.1013 24.88 50.44C24.88 45.7787 21.1013 42 16.44 42C11.7787 42 8 45.7787 8 50.44C8 55.1013 11.7787 58.88 16.44 58.88Z" stroke="#F55681" stroke-width="2" stroke-miterlimit="10" stroke-linecap="round" stroke-linejoin="round"/>
<path d="M41.7399 84.8299C50.339 84.8299 57.3099 77.859 57.3099 69.2599C57.3099 60.6609 50.339 53.6899 41.7399 53.6899C33.1409 53.6899 26.1699 60.6609 26.1699 69.2599C26.1699 77.859 33.1409 84.8299 41.7399 84.8299Z" stroke="#2F2E41" stroke-width="2" stroke-miterlimit="10" stroke-linecap="round" stroke-linejoin="round"/>
<path d="M11.7593 101.54V83.69C11.7593 83.16 11.3293 82.74 10.8093 82.74H7.9793C7.4493 82.74 7.0293 83.17 7.0293 83.69V101.55C7.0293 102.08 7.4593 102.5 7.9793 102.5H10.7993C11.3293 102.5 11.7593 102.07 11.7593 101.54Z" fill="#2F2E41"/>
<path d="M10.4199 86.05H24.8499C27.7899 86.05 30.1799 88.4401 30.1799 91.3801H38.8099C42.2299 91.3801 44.9999 94.15 44.9999 97.57C44.9999 98.24 44.4499 98.7901 43.7799 98.7901H10.4199V86.05Z" stroke="#2F2E41" stroke-width="2" stroke-miterlimit="10" stroke-linecap="round" stroke-linejoin="round"/>
<path d="M30.1795 91.3799H22.7695" stroke="#2F2E41" stroke-width="2" stroke-miterlimit="10" stroke-linecap="round" stroke-linejoin="round"/>
<path d="M44.1723 66.6586L43.8381 67.659C43.7705 67.8637 43.5793 68.0009 43.363 68.0009H35.2785C34.9366 68.0009 34.6952 68.335 34.8034 68.6594C34.871 68.8642 35.0622 69.0013 35.2785 69.0013H42.6967C43.0386 69.0013 43.28 69.3354 43.1718 69.6599L41.8373 73.6635C41.7697 73.8683 41.5785 74.0054 41.3622 74.0054H34.8362C34.6199 74.0054 34.4287 73.8683 34.3611 73.6635L34.027 72.6631C33.9188 72.3386 34.1602 72.0045 34.5021 72.0045H39.9195C40.1338 72.0045 40.325 71.8674 40.3946 71.6627C40.5027 71.3382 40.2613 71.0041 39.9195 71.0041H33.8358C33.6195 71.0041 33.4283 70.867 33.3607 70.6622L32.0261 66.6586C31.918 66.3341 32.1594 66 32.5012 66H43.6972C44.039 66 44.2804 66.3361 44.1723 66.6586Z" fill="#F55681"/>
<path d="M49.3891 66.6588L49.055 67.6593C48.9874 67.864 48.7962 68.0011 48.5799 68.0011H46.832L47.4983 66.0002H48.9121C49.2559 66.0002 49.4973 66.3363 49.3891 66.6588Z" fill="#F55681"/>
<path d="M51.4379 63.6586L51.1037 64.659C51.0361 64.8637 50.8449 65.0009 50.6286 65.0009H47.834L48.2724 63.6837C48.4076 63.2762 48.79 63 49.2207 63H50.9627C51.3046 63 51.546 63.3341 51.4379 63.6586Z" fill="#F55681"/>
<path d="M45.0839 68.0032H46.8318L44.9449 73.6658C44.8773 73.8706 44.6861 74.0077 44.4698 74.0077H43.4153C43.0734 74.0077 42.832 73.6736 42.9402 73.3491L44.6088 68.345C44.6764 68.1403 44.8676 68.0032 45.0839 68.0032Z" fill="#F55681"/>
<path d="M47.8311 65.0005L47.497 66.0009H46.0813C45.7394 66.0009 45.498 65.6668 45.6062 65.3423C45.6738 65.1376 45.865 65.0005 46.0813 65.0005H47.8311Z" fill="#F55681"/>
<path d="M43.3972 76.3352C43.8399 76.3352 44.1987 75.9763 44.1987 75.5337C44.1987 75.091 43.8399 74.7322 43.3972 74.7322C42.9545 74.7322 42.5957 75.091 42.5957 75.5337C42.5957 75.9763 42.9545 76.3352 43.3972 76.3352Z" fill="#F55681"/>
<path d="M38.0984 76.3349C38.541 76.3349 38.8999 75.9761 38.8999 75.5334C38.8999 75.0908 38.541 74.7319 38.0984 74.7319C37.6557 74.7319 37.2969 75.0908 37.2969 75.5334C37.2969 75.9761 37.6557 76.3349 38.0984 76.3349Z" fill="#F55681"/>
</svg>
