<svg width="64" height="104" viewBox="0 0 64 104" fill="none" xmlns="http://www.w3.org/2000/svg">
<path d="M28 59L31 62L37 56" stroke="#F55681" stroke-width="2" stroke-miterlimit="10" stroke-linecap="round" stroke-linejoin="round"/>
<path d="M53.0003 68.52V65.16C53.0003 63.75 52.2503 62.45 51.0303 61.74L48.8203 60.46" stroke="#2F2E41" stroke-width="2" stroke-miterlimit="10" stroke-linecap="round" stroke-linejoin="round"/>
<path d="M27.9902 96.9299L30.0202 98.0999C31.2402 98.8099 32.7502 98.8099 33.9702 98.0999L35.2802 97.3399" stroke="#2F2E41" stroke-width="2" stroke-miterlimit="10" stroke-linecap="round" stroke-linejoin="round"/>
<path d="M15.04 60.54L12.97 61.73C11.75 62.44 11 63.74 11 65.15V68.38" stroke="#2F2E41" stroke-width="2" stroke-miterlimit="10" stroke-linecap="round" stroke-linejoin="round"/>
<path d="M45.6703 64.63V51.82C45.6703 50.9 45.1803 50.05 44.3803 49.59L33.2803 43.18C32.4803 42.72 31.5103 42.72 30.7103 43.18L19.6103 49.59C18.8103 50.05 18.3203 50.9 18.3203 51.82V64.63C18.3203 65.55 18.8103 66.4 19.6103 66.86L30.7103 73.27C31.5103 73.73 32.4803 73.73 33.2803 73.27L44.3803 66.86C45.1803 66.39 45.6703 65.54 45.6703 64.63Z" stroke="#F55681" stroke-width="2" stroke-miterlimit="10" stroke-linecap="round" stroke-linejoin="round"/>
<path d="M29.6703 91.63V78.82C29.6703 77.9 29.1803 77.05 28.3803 76.59L17.2803 70.18C16.4803 69.72 15.5103 69.72 14.7103 70.18L3.61029 76.59C2.81029 77.05 2.32031 77.9 2.32031 78.82V91.63C2.32031 92.55 2.81029 93.4 3.61029 93.86L14.7103 100.27C15.5103 100.73 16.4803 100.73 17.2803 100.27L28.3803 93.86C29.1803 93.39 29.6703 92.54 29.6703 91.63Z" stroke="#2F2E41" stroke-width="2" stroke-miterlimit="10" stroke-linecap="round" stroke-linejoin="round"/>
<path d="M24.8504 89.37V81.07C24.8504 80.48 24.5304 79.93 24.0204 79.63L16.8304 75.48C16.3104 75.18 15.6804 75.18 15.1704 75.48L7.98041 79.63C7.46041 79.93 7.15039 80.48 7.15039 81.07V89.37C7.15039 89.96 7.47041 90.51 7.98041 90.81L15.1704 94.96C15.6904 95.26 16.3204 95.26 16.8304 94.96L24.0204 90.81C24.5304 90.51 24.8504 89.97 24.8504 89.37Z" fill="#EBEFFD"/>
<path d="M56.8504 89.37V81.07C56.8504 80.48 56.5304 79.93 56.0204 79.63L48.8304 75.48C48.3104 75.18 47.6804 75.18 47.1704 75.48L39.9804 79.63C39.4604 79.93 39.1504 80.48 39.1504 81.07V89.37C39.1504 89.96 39.4704 90.51 39.9804 90.81L47.1704 94.96C47.6904 95.26 48.3204 95.26 48.8304 94.96L56.0204 90.81C56.5304 90.51 56.8504 89.97 56.8504 89.37Z" fill="#EBEFFD"/>
<path d="M61.6703 91.63V78.82C61.6703 77.9 61.1803 77.05 60.3803 76.59L49.2803 70.18C48.4803 69.72 47.5103 69.72 46.7103 70.18L35.6103 76.59C34.8103 77.05 34.3203 77.9 34.3203 78.82V91.63C34.3203 92.55 34.8103 93.4 35.6103 93.86L46.7103 100.27C47.5103 100.73 48.4803 100.73 49.2803 100.27L60.3803 93.86C61.1803 93.39 61.6703 92.54 61.6703 91.63Z" stroke="#2F2E41" stroke-width="2" stroke-miterlimit="10" stroke-linecap="round" stroke-linejoin="round"/>
</svg>
