<svg width="440" height="280" viewBox="0 0 440 280" fill="none" xmlns="http://www.w3.org/2000/svg">
<path opacity="0.3" d="M220.066 186.95C245.89 186.95 266.826 166.015 266.826 140.19C266.826 114.365 245.89 93.4302 220.066 93.4302C194.241 93.4302 173.306 114.365 173.306 140.19C173.306 166.015 194.241 186.95 220.066 186.95Z" fill="#E0E0E0"/>
<path d="M315.49 195.286C322.47 183.195 285.407 148.726 232.705 118.298C180.004 87.8702 131.621 73.0049 124.64 85.0958C117.66 97.1867 154.724 131.655 207.425 162.083C260.127 192.511 308.509 207.377 315.49 195.286Z" stroke="#E0E0E0" stroke-miterlimit="10" stroke-linecap="round" stroke-linejoin="round"/>
<path d="M232.705 162.079C285.406 131.651 322.47 97.1825 315.489 85.0916C308.508 73.0008 260.126 87.866 207.425 118.294C154.723 148.722 117.659 183.191 124.64 195.282C131.621 207.373 180.003 192.507 232.705 162.079Z" stroke="#E0E0E0" stroke-miterlimit="10" stroke-linecap="round" stroke-linejoin="round"/>
<path d="M220.066 250.38C234.027 250.38 245.346 201.046 245.346 140.19C245.346 79.3337 234.027 30 220.066 30C206.104 30 194.786 79.3337 194.786 140.19C194.786 201.046 206.104 250.38 220.066 250.38Z" stroke="#E0E0E0" stroke-miterlimit="10" stroke-linecap="round" stroke-linejoin="round"/>
<path d="M220.546 44.4398C223.898 44.4398 226.616 41.7222 226.616 38.3698C226.616 35.0174 223.898 32.2998 220.546 32.2998C217.193 32.2998 214.476 35.0174 214.476 38.3698C214.476 41.7222 217.193 44.4398 220.546 44.4398Z" fill="white" stroke="#2F2E41" stroke-width="2" stroke-miterlimit="10" stroke-linecap="round" stroke-linejoin="round"/>
<path d="M211.966 57.8099C209.906 57.8099 208.396 55.7899 209.066 53.8399C210.706 49.0899 215.226 45.6699 220.536 45.6699C225.846 45.6699 230.366 49.0799 232.006 53.8399C232.676 55.7899 231.166 57.8099 229.106 57.8099H211.966V57.8099Z" fill="white" stroke="#2F2E41" stroke-width="2" stroke-miterlimit="10" stroke-linecap="round" stroke-linejoin="round"/>
<path d="M222.276 39.8096C222.566 39.8096 222.786 40.0896 222.716 40.3696C222.466 41.3296 221.596 42.0496 220.546 42.0496C219.506 42.0496 218.626 41.3396 218.376 40.3696C218.306 40.0896 218.516 39.8096 218.816 39.8096H222.276Z" fill="#F55681"/>
<path d="M139.556 91.2001C142.908 91.2001 145.626 88.4824 145.626 85.1301C145.626 81.7777 142.908 79.0601 139.556 79.0601C136.203 79.0601 133.486 81.7777 133.486 85.1301C133.486 88.4824 136.203 91.2001 139.556 91.2001Z" fill="white" stroke="#2F2E41" stroke-width="2" stroke-miterlimit="10" stroke-linecap="round" stroke-linejoin="round"/>
<path d="M130.976 104.57C128.916 104.57 127.406 102.55 128.076 100.6C129.716 95.8502 134.236 92.4302 139.546 92.4302C144.856 92.4302 149.376 95.8402 151.016 100.6C151.686 102.55 150.176 104.57 148.116 104.57H130.976Z" fill="white" stroke="#2F2E41" stroke-width="2" stroke-miterlimit="10" stroke-linecap="round" stroke-linejoin="round"/>
<path d="M141.286 86.5698C141.576 86.5698 141.796 86.8498 141.726 87.1298C141.476 88.0898 140.606 88.8098 139.556 88.8098C138.516 88.8098 137.636 88.0998 137.386 87.1298C137.316 86.8498 137.526 86.5698 137.826 86.5698H141.286Z" fill="#F55681"/>
<path d="M139.556 184.72C142.908 184.72 145.626 182.002 145.626 178.65C145.626 175.298 142.908 172.58 139.556 172.58C136.203 172.58 133.486 175.298 133.486 178.65C133.486 182.002 136.203 184.72 139.556 184.72Z" fill="white" stroke="#2F2E41" stroke-width="2" stroke-miterlimit="10" stroke-linecap="round" stroke-linejoin="round"/>
<path d="M130.976 198.08C128.916 198.08 127.406 196.06 128.076 194.11C129.716 189.36 134.236 185.94 139.546 185.94C144.856 185.94 149.376 189.35 151.016 194.11C151.686 196.06 150.176 198.08 148.116 198.08H130.976Z" fill="white" stroke="#2F2E41" stroke-width="2" stroke-miterlimit="10" stroke-linecap="round" stroke-linejoin="round"/>
<path d="M141.286 180.08C141.576 180.08 141.796 180.36 141.726 180.64C141.476 181.6 140.606 182.32 139.556 182.32C138.516 182.32 137.636 181.61 137.386 180.64C137.316 180.36 137.526 180.08 137.826 180.08H141.286Z" fill="#F55681"/>
<path d="M301.536 184.72C304.888 184.72 307.606 182.002 307.606 178.65C307.606 175.298 304.888 172.58 301.536 172.58C298.183 172.58 295.466 175.298 295.466 178.65C295.466 182.002 298.183 184.72 301.536 184.72Z" fill="white" stroke="#2F2E41" stroke-width="2" stroke-miterlimit="10" stroke-linecap="round" stroke-linejoin="round"/>
<path d="M292.956 198.08C290.896 198.08 289.386 196.06 290.056 194.11C291.696 189.36 296.216 185.94 301.526 185.94C306.836 185.94 311.356 189.35 312.996 194.11C313.666 196.06 312.156 198.08 310.096 198.08H292.956Z" fill="white" stroke="#2F2E41" stroke-width="2" stroke-miterlimit="10" stroke-linecap="round" stroke-linejoin="round"/>
<path d="M303.266 180.08C303.556 180.08 303.776 180.36 303.706 180.64C303.456 181.6 302.586 182.32 301.536 182.32C300.496 182.32 299.616 181.61 299.366 180.64C299.296 180.36 299.506 180.08 299.806 180.08H303.266Z" fill="#F55681"/>
<path d="M301.536 91.2001C304.888 91.2001 307.606 88.4824 307.606 85.1301C307.606 81.7777 304.888 79.0601 301.536 79.0601C298.183 79.0601 295.466 81.7777 295.466 85.1301C295.466 88.4824 298.183 91.2001 301.536 91.2001Z" fill="white" stroke="#2F2E41" stroke-width="2" stroke-miterlimit="10" stroke-linecap="round" stroke-linejoin="round"/>
<path d="M292.956 104.57C290.896 104.57 289.386 102.55 290.056 100.6C291.696 95.8502 296.216 92.4302 301.526 92.4302C306.836 92.4302 311.356 95.8402 312.996 100.6C313.666 102.55 312.156 104.57 310.096 104.57H292.956Z" fill="white" stroke="#2F2E41" stroke-width="2" stroke-miterlimit="10" stroke-linecap="round" stroke-linejoin="round"/>
<path d="M303.266 86.5698C303.556 86.5698 303.776 86.8498 303.706 87.1298C303.456 88.0898 302.586 88.8098 301.536 88.8098C300.496 88.8098 299.616 88.0998 299.366 87.1298C299.296 86.8498 299.506 86.5698 299.806 86.5698H303.266Z" fill="#F55681"/>
<path d="M220.546 231.48C223.898 231.48 226.616 228.762 226.616 225.41C226.616 222.057 223.898 219.34 220.546 219.34C217.193 219.34 214.476 222.057 214.476 225.41C214.476 228.762 217.193 231.48 220.546 231.48Z" fill="white" stroke="#2F2E41" stroke-width="2" stroke-miterlimit="10" stroke-linecap="round" stroke-linejoin="round"/>
<path d="M211.966 244.84C209.906 244.84 208.396 242.82 209.066 240.87C210.706 236.12 215.226 232.7 220.536 232.7C225.846 232.7 230.366 236.11 232.006 240.87C232.676 242.82 231.166 244.84 229.106 244.84H211.966Z" fill="white" stroke="#2F2E41" stroke-width="2" stroke-miterlimit="10" stroke-linecap="round" stroke-linejoin="round"/>
<path d="M222.276 226.84C222.566 226.84 222.786 227.12 222.716 227.4C222.466 228.36 221.596 229.08 220.546 229.08C219.506 229.08 218.626 228.37 218.376 227.4C218.306 227.12 218.516 226.84 218.816 226.84H222.276Z" fill="#F55681"/>
<path d="M219.566 127.62C224.763 127.62 228.976 123.407 228.976 118.21C228.976 113.013 224.763 108.8 219.566 108.8C214.369 108.8 210.156 113.013 210.156 118.21C210.156 123.407 214.369 127.62 219.566 127.62Z" fill="white" stroke="#2F2E41" stroke-width="2" stroke-miterlimit="10" stroke-linecap="round" stroke-linejoin="round"/>
<path d="M206.266 148.34C203.076 148.34 200.736 145.2 201.776 142.18C204.326 134.81 211.326 129.52 219.566 129.52C227.806 129.52 234.806 134.81 237.356 142.18C238.396 145.2 236.056 148.34 232.866 148.34H206.266Z" fill="white" stroke="#2F2E41" stroke-width="2" stroke-miterlimit="10" stroke-linecap="round" stroke-linejoin="round"/>
<path d="M197.436 132.37C199.534 132.37 201.236 130.669 201.236 128.57C201.236 126.471 199.534 124.77 197.436 124.77C195.337 124.77 193.636 126.471 193.636 128.57C193.636 130.669 195.337 132.37 197.436 132.37Z" fill="white" stroke="#F55681" stroke-width="2" stroke-miterlimit="10" stroke-linecap="round" stroke-linejoin="round"/>
<path d="M195.036 131.49L193.326 133.2C192.346 134.18 191.796 135.51 191.796 136.9V144.76" stroke="#F55681" stroke-width="2" stroke-miterlimit="10" stroke-linecap="round" stroke-linejoin="round"/>
<path d="M242.736 132.37C244.834 132.37 246.536 130.669 246.536 128.57C246.536 126.471 244.834 124.77 242.736 124.77C240.637 124.77 238.936 126.471 238.936 128.57C238.936 130.669 240.637 132.37 242.736 132.37Z" fill="white" stroke="#F55681" stroke-width="2" stroke-miterlimit="10" stroke-linecap="round" stroke-linejoin="round"/>
<path d="M245.136 131.49L246.846 133.2C247.826 134.18 248.376 135.51 248.376 136.9V144.76" stroke="#F55681" stroke-width="2" stroke-miterlimit="10" stroke-linecap="round" stroke-linejoin="round"/>
<path d="M196.586 156.47V171.58" stroke="#2F2E41" stroke-width="2" stroke-miterlimit="10" stroke-linecap="round" stroke-linejoin="round"/>
<path d="M244.356 156.47V171.58" stroke="#2F2E41" stroke-width="2" stroke-miterlimit="10" stroke-linecap="round" stroke-linejoin="round"/>
<path d="M212.366 165.68H227.546" stroke="#F55681" stroke-width="2" stroke-miterlimit="10" stroke-linecap="round" stroke-linejoin="round"/>
<path d="M251.796 144.75H188.336V156.47H251.796V144.75Z" fill="white" stroke="#2F2E41" stroke-width="2" stroke-miterlimit="10" stroke-linecap="round" stroke-linejoin="round"/>
<path d="M222.166 121.41C222.606 121.41 222.926 121.83 222.826 122.25C222.456 123.7 221.136 124.77 219.566 124.77C217.996 124.77 216.686 123.7 216.306 122.25C216.196 121.82 216.526 121.41 216.966 121.41H222.166Z" fill="#F55681"/>
<path d="M174.646 93.4298C176.407 93.4298 177.836 92.0016 177.836 90.2398C177.836 88.478 176.407 87.0498 174.646 87.0498C172.884 87.0498 171.456 88.478 171.456 90.2398C171.456 92.0016 172.884 93.4298 174.646 93.4298Z" fill="#E0E0E0"/>
<path d="M181.026 190.14C182.787 190.14 184.216 188.712 184.216 186.95C184.216 185.188 182.787 183.76 181.026 183.76C179.264 183.76 177.836 185.188 177.836 186.95C177.836 188.712 179.264 190.14 181.026 190.14Z" fill="#E0E0E0"/>
<path d="M242.736 91.9899C244.497 91.9899 245.926 90.5617 245.926 88.7999C245.926 87.0381 244.497 85.6099 242.736 85.6099C240.974 85.6099 239.546 87.0381 239.546 88.7999C239.546 90.5617 240.974 91.9899 242.736 91.9899Z" fill="#E0E0E0"/>
</svg>
