<svg width="440" height="280" viewBox="0 0 440 280" fill="none" xmlns="http://www.w3.org/2000/svg">
<line x1="204" y1="140.5" x2="100" y2="140.5" stroke="#E0E0E0"/>
<path d="M89.33 169.66C105.529 169.66 118.66 156.529 118.66 140.33C118.66 124.131 105.529 111 89.33 111C73.1315 111 60 124.131 60 140.33C60 156.529 73.1315 169.66 89.33 169.66Z" fill="#F55681"/>
<path d="M366.63 194.28V100.76L285.64 54L204.65 100.76V194.28L285.64 241.04L366.63 194.28Z" stroke="#E0E0E0" stroke-miterlimit="10" stroke-linecap="round" stroke-linejoin="round"/>
<path d="M285.64 54V241.04" stroke="#E0E0E0" stroke-miterlimit="10" stroke-linecap="round" stroke-linejoin="round"/>
<path d="M204.65 100.76H366.63" stroke="#E0E0E0" stroke-miterlimit="10" stroke-linecap="round" stroke-linejoin="round"/>
<path d="M204.65 194.28H366.63" stroke="#E0E0E0" stroke-miterlimit="10" stroke-linecap="round" stroke-linejoin="round"/>
<path d="M204.65 100.76L285.64 241.04" stroke="#E0E0E0" stroke-miterlimit="10" stroke-linecap="round" stroke-linejoin="round"/>
<path d="M285.64 54L366.63 194.28" stroke="#E0E0E0" stroke-miterlimit="10" stroke-linecap="round" stroke-linejoin="round"/>
<path d="M366.63 100.76L285.64 241.04" stroke="#E0E0E0" stroke-miterlimit="10" stroke-linecap="round" stroke-linejoin="round"/>
<path d="M285.64 54L204.65 194.28" stroke="#E0E0E0" stroke-miterlimit="10" stroke-linecap="round" stroke-linejoin="round"/>
<path d="M204.65 100.76L366.63 194.28" stroke="#E0E0E0" stroke-miterlimit="10" stroke-linecap="round" stroke-linejoin="round"/>
<path d="M204.65 194.28L366.63 100.76" stroke="#E0E0E0" stroke-miterlimit="10" stroke-linecap="round" stroke-linejoin="round"/>
<path d="M286.121 51.7799C289.473 51.7799 292.191 49.0623 292.191 45.7099C292.191 42.3575 289.473 39.6399 286.121 39.6399C282.768 39.6399 280.051 42.3575 280.051 45.7099C280.051 49.0623 282.768 51.7799 286.121 51.7799Z" fill="white" stroke="#2F2E41" stroke-width="2" stroke-miterlimit="10" stroke-linecap="round" stroke-linejoin="round"/>
<path d="M277.541 65.14C275.481 65.14 273.971 63.12 274.641 61.17C276.281 56.42 280.801 53 286.111 53C291.421 53 295.941 56.41 297.581 61.17C298.251 63.12 296.741 65.14 294.681 65.14H277.541Z" fill="white" stroke="#2F2E41" stroke-width="2" stroke-miterlimit="10" stroke-linecap="round" stroke-linejoin="round"/>
<path d="M287.851 47.1399C288.141 47.1399 288.361 47.4199 288.291 47.6999C288.041 48.6599 287.171 49.3799 286.121 49.3799C285.081 49.3799 284.201 48.6699 283.951 47.6999C283.881 47.4199 284.091 47.1399 284.391 47.1399H287.851Z" fill="#F55681"/>
<path d="M299.561 66.1399H291.761C291.151 66.1399 290.671 65.5999 290.701 64.9599L291.101 57.7099C291.131 57.1199 291.601 56.6599 292.161 56.6599H299.151C299.711 56.6599 300.171 57.1199 300.211 57.7099L300.611 64.9599C300.651 65.5999 300.171 66.1399 299.561 66.1399Z" fill="white" stroke="#F55681" stroke-width="2" stroke-miterlimit="10" stroke-linecap="round" stroke-linejoin="round"/>
<path d="M297.511 59.29V55.85C297.511 54.83 296.681 54 295.661 54C294.641 54 293.811 54.83 293.811 55.85V59.29" stroke="#F55681" stroke-width="2" stroke-miterlimit="10" stroke-linecap="round" stroke-linejoin="round"/>
<path d="M286.121 238.78C289.473 238.78 292.191 236.062 292.191 232.71C292.191 229.358 289.473 226.64 286.121 226.64C282.768 226.64 280.051 229.358 280.051 232.71C280.051 236.062 282.768 238.78 286.121 238.78Z" fill="white" stroke="#2F2E41" stroke-width="2" stroke-miterlimit="10" stroke-linecap="round" stroke-linejoin="round"/>
<path d="M277.541 252.14C275.481 252.14 273.971 250.12 274.641 248.17C276.281 243.42 280.801 240 286.111 240C291.421 240 295.941 243.41 297.581 248.17C298.251 250.12 296.741 252.14 294.681 252.14H277.541Z" fill="white" stroke="#2F2E41" stroke-width="2" stroke-miterlimit="10" stroke-linecap="round" stroke-linejoin="round"/>
<path d="M287.851 234.14C288.141 234.14 288.361 234.42 288.291 234.7C288.041 235.66 287.171 236.38 286.121 236.38C285.081 236.38 284.201 235.67 283.951 234.7C283.881 234.42 284.091 234.14 284.391 234.14H287.851Z" fill="#F55681"/>
<path d="M299.561 253.14H291.761C291.151 253.14 290.671 252.6 290.701 251.96L291.101 244.71C291.131 244.12 291.601 243.66 292.161 243.66H299.151C299.711 243.66 300.171 244.12 300.211 244.71L300.611 251.96C300.651 252.6 300.171 253.14 299.561 253.14Z" fill="white" stroke="#F55681" stroke-width="2" stroke-miterlimit="10" stroke-linecap="round" stroke-linejoin="round"/>
<path d="M297.511 246.29V242.85C297.511 241.83 296.681 241 295.661 241C294.641 241 293.811 241.83 293.811 242.85V246.29" stroke="#F55681" stroke-width="2" stroke-miterlimit="10" stroke-linecap="round" stroke-linejoin="round"/>
<path d="M205.131 98.5399C208.483 98.5399 211.201 95.8223 211.201 92.4699C211.201 89.1175 208.483 86.3999 205.131 86.3999C201.778 86.3999 199.061 89.1175 199.061 92.4699C199.061 95.8223 201.778 98.5399 205.131 98.5399Z" fill="white" stroke="#2F2E41" stroke-width="2" stroke-miterlimit="10" stroke-linecap="round" stroke-linejoin="round"/>
<path d="M196.55 111.9C194.49 111.9 192.98 109.88 193.65 107.93C195.29 103.18 199.81 99.76 205.12 99.76C210.43 99.76 214.95 103.17 216.59 107.93C217.26 109.88 215.75 111.9 213.69 111.9H196.55Z" fill="white" stroke="#2F2E41" stroke-width="2" stroke-miterlimit="10" stroke-linecap="round" stroke-linejoin="round"/>
<path d="M206.861 93.8999C207.151 93.8999 207.371 94.1799 207.301 94.4599C207.051 95.4199 206.181 96.1399 205.131 96.1399C204.091 96.1399 203.211 95.4299 202.961 94.4599C202.891 94.1799 203.101 93.8999 203.401 93.8999H206.861Z" fill="#F55681"/>
<path d="M218.571 112.9H210.771C210.161 112.9 209.681 112.36 209.711 111.72L210.111 104.47C210.141 103.88 210.611 103.42 211.171 103.42H218.161C218.721 103.42 219.181 103.88 219.221 104.47L219.621 111.72C219.661 112.36 219.181 112.9 218.571 112.9Z" fill="white" stroke="#F55681" stroke-width="2" stroke-miterlimit="10" stroke-linecap="round" stroke-linejoin="round"/>
<path d="M216.521 106.05V102.61C216.521 101.59 215.691 100.76 214.671 100.76C213.651 100.76 212.821 101.59 212.821 102.61V106.05" stroke="#F55681" stroke-width="2" stroke-miterlimit="10" stroke-linecap="round" stroke-linejoin="round"/>
<path d="M205.131 192.05C208.483 192.05 211.201 189.333 211.201 185.98C211.201 182.628 208.483 179.91 205.131 179.91C201.778 179.91 199.061 182.628 199.061 185.98C199.061 189.333 201.778 192.05 205.131 192.05Z" fill="white" stroke="#2F2E41" stroke-width="2" stroke-miterlimit="10" stroke-linecap="round" stroke-linejoin="round"/>
<path d="M196.55 205.42C194.49 205.42 192.98 203.4 193.65 201.45C195.29 196.7 199.81 193.28 205.12 193.28C210.43 193.28 214.95 196.69 216.59 201.45C217.26 203.4 215.75 205.42 213.69 205.42H196.55Z" fill="white" stroke="#2F2E41" stroke-width="2" stroke-miterlimit="10" stroke-linecap="round" stroke-linejoin="round"/>
<path d="M206.861 187.42C207.151 187.42 207.371 187.7 207.301 187.98C207.051 188.94 206.181 189.66 205.131 189.66C204.091 189.66 203.211 188.95 202.961 187.98C202.891 187.7 203.101 187.42 203.401 187.42H206.861Z" fill="#F55681"/>
<path d="M218.571 206.42H210.771C210.161 206.42 209.681 205.88 209.711 205.24L210.111 197.99C210.141 197.4 210.611 196.94 211.171 196.94H218.161C218.721 196.94 219.181 197.4 219.221 197.99L219.621 205.24C219.661 205.87 219.181 206.42 218.571 206.42Z" fill="white" stroke="#F55681" stroke-width="2" stroke-miterlimit="10" stroke-linecap="round" stroke-linejoin="round"/>
<path d="M216.521 199.57V196.13C216.521 195.11 215.691 194.28 214.671 194.28C213.651 194.28 212.821 195.11 212.821 196.13V199.57" stroke="#F55681" stroke-width="2" stroke-miterlimit="10" stroke-linecap="round" stroke-linejoin="round"/>
<path d="M367.111 192.05C370.463 192.05 373.181 189.333 373.181 185.98C373.181 182.628 370.463 179.91 367.111 179.91C363.758 179.91 361.041 182.628 361.041 185.98C361.041 189.333 363.758 192.05 367.111 192.05Z" fill="white" stroke="#2F2E41" stroke-width="2" stroke-miterlimit="10" stroke-linecap="round" stroke-linejoin="round"/>
<path d="M358.53 205.42C356.47 205.42 354.96 203.4 355.63 201.45C357.27 196.7 361.79 193.28 367.1 193.28C372.41 193.28 376.93 196.69 378.57 201.45C379.24 203.4 377.73 205.42 375.67 205.42H358.53Z" fill="white" stroke="#2F2E41" stroke-width="2" stroke-miterlimit="10" stroke-linecap="round" stroke-linejoin="round"/>
<path d="M368.84 187.42C369.13 187.42 369.35 187.7 369.28 187.98C369.03 188.94 368.16 189.66 367.11 189.66C366.07 189.66 365.19 188.95 364.94 187.98C364.87 187.7 365.08 187.42 365.38 187.42H368.84Z" fill="#F55681"/>
<path d="M380.55 206.42H372.75C372.14 206.42 371.66 205.88 371.69 205.24L372.09 197.99C372.12 197.4 372.59 196.94 373.15 196.94H380.14C380.7 196.94 381.16 197.4 381.2 197.99L381.6 205.24C381.64 205.87 381.15 206.42 380.55 206.42Z" fill="white" stroke="#F55681" stroke-width="2" stroke-miterlimit="10" stroke-linecap="round" stroke-linejoin="round"/>
<path d="M378.5 199.57V196.13C378.5 195.11 377.67 194.28 376.65 194.28C375.63 194.28 374.8 195.11 374.8 196.13V199.57" stroke="#F55681" stroke-width="2" stroke-miterlimit="10" stroke-linecap="round" stroke-linejoin="round"/>
<path d="M367.111 98.5399C370.463 98.5399 373.181 95.8223 373.181 92.4699C373.181 89.1175 370.463 86.3999 367.111 86.3999C363.758 86.3999 361.041 89.1175 361.041 92.4699C361.041 95.8223 363.758 98.5399 367.111 98.5399Z" fill="white" stroke="#2F2E41" stroke-width="2" stroke-miterlimit="10" stroke-linecap="round" stroke-linejoin="round"/>
<path d="M358.53 111.9C356.47 111.9 354.96 109.88 355.63 107.93C357.27 103.18 361.79 99.76 367.1 99.76C372.41 99.76 376.93 103.17 378.57 107.93C379.24 109.88 377.73 111.9 375.67 111.9H358.53Z" fill="white" stroke="#2F2E41" stroke-width="2" stroke-miterlimit="10" stroke-linecap="round" stroke-linejoin="round"/>
<path d="M368.84 93.8999C369.13 93.8999 369.35 94.1799 369.28 94.4599C369.03 95.4199 368.16 96.1399 367.11 96.1399C366.07 96.1399 365.19 95.4299 364.94 94.4599C364.87 94.1799 365.08 93.8999 365.38 93.8999H368.84Z" fill="#F55681"/>
<path d="M380.55 112.9H372.75C372.14 112.9 371.66 112.36 371.69 111.72L372.09 104.47C372.12 103.88 372.59 103.42 373.15 103.42H380.14C380.7 103.42 381.16 103.88 381.2 104.47L381.6 111.72C381.64 112.36 381.15 112.9 380.55 112.9Z" fill="white" stroke="#F55681" stroke-width="2" stroke-miterlimit="10" stroke-linecap="round" stroke-linejoin="round"/>
<path d="M378.5 106.05V102.61C378.5 101.59 377.67 100.76 376.65 100.76C375.63 100.76 374.8 101.59 374.8 102.61V106.05" stroke="#F55681" stroke-width="2" stroke-miterlimit="10" stroke-linecap="round" stroke-linejoin="round"/>
<path d="M277.841 166.49L293.451 162.39C292.931 159.25 295.411 156.91 295.411 156.91C300.321 153.39 303.571 147.4 303.571 141.11C303.571 131.24 295.571 123.23 285.691 123.23C275.821 123.23 267.811 131.23 267.811 141.11C267.811 147.6 271.271 153.77 276.441 157.24" fill="white"/>
<path d="M277.841 166.49L293.451 162.39C292.931 159.25 295.411 156.91 295.411 156.91C300.321 153.39 303.571 147.4 303.571 141.11C303.571 131.24 295.571 123.23 285.691 123.23C275.821 123.23 267.811 131.23 267.811 141.11C267.811 147.6 271.271 153.77 276.441 157.24" stroke="#2F2E41" stroke-width="2" stroke-miterlimit="10" stroke-linecap="round" stroke-linejoin="round"/>
<path d="M293.441 167.67L277.831 171.77" stroke="#2F2E41" stroke-width="2" stroke-miterlimit="10" stroke-linecap="round" stroke-linejoin="round"/>
<path d="M280.9 176.61C282.11 177.54 283.61 178.09 285.25 178.09C286.89 178.09 288.39 177.53 289.6 176.61" stroke="#2F2E41" stroke-width="2" stroke-miterlimit="10" stroke-linecap="round" stroke-linejoin="round"/>
<path d="M285.641 110.68V115.68" stroke="#F55681" stroke-width="2" stroke-miterlimit="10" stroke-linecap="round" stroke-linejoin="round"/>
<path d="M261.48 120.73L265.02 124.26" stroke="#F55681" stroke-width="2" stroke-miterlimit="10" stroke-linecap="round" stroke-linejoin="round"/>
<path d="M254.26 144.91H259.26" stroke="#F55681" stroke-width="2" stroke-miterlimit="10" stroke-linecap="round" stroke-linejoin="round"/>
<path d="M264.301 166.3L267.841 162.77" stroke="#F55681" stroke-width="2" stroke-miterlimit="10" stroke-linecap="round" stroke-linejoin="round"/>
<path d="M307.121 166.24L303.591 162.71" stroke="#F55681" stroke-width="2" stroke-miterlimit="10" stroke-linecap="round" stroke-linejoin="round"/>
<path d="M317.101 144.82H312.101" stroke="#F55681" stroke-width="2" stroke-miterlimit="10" stroke-linecap="round" stroke-linejoin="round"/>
<path d="M309.821 120.66L306.291 124.2" stroke="#F55681" stroke-width="2" stroke-miterlimit="10" stroke-linecap="round" stroke-linejoin="round"/>
<path d="M285.251 150.26C289.779 150.26 293.451 146.414 293.451 141.67C293.451 136.926 289.779 133.08 285.251 133.08C280.722 133.08 277.051 136.926 277.051 141.67C277.051 146.414 280.722 150.26 285.251 150.26Z" fill="#F55681"/>
<path d="M205 140.5L198.25 144.397L198.25 136.603L205 140.5Z" fill="#E0E0E0"/>
</svg>
