<svg width="440" height="280" viewBox="0 0 440 280" fill="none" xmlns="http://www.w3.org/2000/svg">
<path d="M74.4802 89.7801C77.8325 89.7801 80.5502 87.0625 80.5502 83.7101C80.5502 80.3578 77.8325 77.6401 74.4802 77.6401C71.1278 77.6401 68.4102 80.3578 68.4102 83.7101C68.4102 87.0625 71.1278 89.7801 74.4802 89.7801Z" fill="white" stroke="#2F2E41" stroke-width="2" stroke-miterlimit="10" stroke-linecap="round" stroke-linejoin="round"/>
<path d="M65.9 103.14C63.84 103.14 62.33 101.12 63 99.17C64.65 94.41 69.17 91 74.48 91C79.79 91 84.31 94.41 85.95 99.17C86.62 101.12 85.11 103.14 83.05 103.14H65.9Z" fill="white" stroke="#2F2E41" stroke-width="2" stroke-miterlimit="10" stroke-linecap="round" stroke-linejoin="round"/>
<path d="M76.2102 85.1401C76.5002 85.1401 76.7202 85.4201 76.6502 85.7001C76.4002 86.6601 75.5302 87.3801 74.4802 87.3801C73.4402 87.3801 72.5602 86.6701 72.3102 85.7001C72.2402 85.4201 72.4502 85.1401 72.7502 85.1401H76.2102Z" fill="#F55681"/>
<path d="M87.9199 104.14H80.1199C79.5099 104.14 79.0299 103.6 79.0599 102.96L79.4599 95.7102C79.4899 95.1202 79.9599 94.6602 80.5199 94.6602H87.5099C88.0699 94.6602 88.5299 95.1202 88.5699 95.7102L88.9699 102.96C89.0099 103.6 88.5299 104.14 87.9199 104.14Z" fill="white" stroke="#F55681" stroke-width="2" stroke-miterlimit="10" stroke-linecap="round" stroke-linejoin="round"/>
<path d="M85.8699 97.29V93.85C85.8699 92.83 85.0399 92 84.0199 92C82.9999 92 82.1699 92.83 82.1699 93.85V97.29" stroke="#F55681" stroke-width="2" stroke-miterlimit="10" stroke-linecap="round" stroke-linejoin="round"/>
<path d="M74.4802 185.78C77.8325 185.78 80.5502 183.063 80.5502 179.71C80.5502 176.358 77.8325 173.64 74.4802 173.64C71.1278 173.64 68.4102 176.358 68.4102 179.71C68.4102 183.063 71.1278 185.78 74.4802 185.78Z" fill="white" stroke="#2F2E41" stroke-width="2" stroke-miterlimit="10" stroke-linecap="round" stroke-linejoin="round"/>
<path d="M65.9 199.14C63.84 199.14 62.33 197.12 63 195.17C64.64 190.42 69.16 187 74.47 187C79.78 187 84.3 190.41 85.94 195.17C86.61 197.12 85.1 199.14 83.04 199.14H65.9Z" fill="white" stroke="#2F2E41" stroke-width="2" stroke-miterlimit="10" stroke-linecap="round" stroke-linejoin="round"/>
<path d="M76.2102 181.14C76.5002 181.14 76.7202 181.42 76.6502 181.7C76.4002 182.66 75.5302 183.38 74.4802 183.38C73.4402 183.38 72.5602 182.67 72.3102 181.7C72.2402 181.42 72.4502 181.14 72.7502 181.14H76.2102Z" fill="#F55681"/>
<path d="M87.9199 200.14H80.1199C79.5099 200.14 79.0299 199.6 79.0599 198.96L79.4599 191.71C79.4899 191.12 79.9599 190.66 80.5199 190.66H87.5099C88.0699 190.66 88.5299 191.12 88.5699 191.71L88.9699 198.96C89.0099 199.6 88.5299 200.14 87.9199 200.14Z" fill="white" stroke="#F55681" stroke-width="2" stroke-miterlimit="10" stroke-linecap="round" stroke-linejoin="round"/>
<path d="M85.8699 193.3V189.86C85.8699 188.84 85.0399 188.01 84.0199 188.01C82.9999 188.01 82.1699 188.84 82.1699 189.86V193.3" stroke="#F55681" stroke-width="2" stroke-miterlimit="10" stroke-linecap="round" stroke-linejoin="round"/>
<path d="M100 92H142V188H100" stroke="#E0E0E0"/>
<path d="M100 140L335 140" stroke="#E0E0E0"/>
<path d="M74.4802 137.78C77.8325 137.78 80.5502 135.063 80.5502 131.71C80.5502 128.358 77.8325 125.64 74.4802 125.64C71.1278 125.64 68.4102 128.358 68.4102 131.71C68.4102 135.063 71.1278 137.78 74.4802 137.78Z" fill="white" stroke="#2F2E41" stroke-width="2" stroke-miterlimit="10" stroke-linecap="round" stroke-linejoin="round"/>
<path d="M65.9 151.14C63.84 151.14 62.33 149.12 63 147.17C64.64 142.42 69.16 139 74.47 139C79.78 139 84.3 142.41 85.94 147.17C86.61 149.12 85.1 151.14 83.04 151.14H65.9Z" fill="white" stroke="#2F2E41" stroke-width="2" stroke-miterlimit="10" stroke-linecap="round" stroke-linejoin="round"/>
<path d="M76.2102 133.14C76.5002 133.14 76.7202 133.42 76.6502 133.7C76.4002 134.66 75.5302 135.38 74.4802 135.38C73.4402 135.38 72.5602 134.67 72.3102 133.7C72.2402 133.42 72.4502 133.14 72.7502 133.14H76.2102Z" fill="#F55681"/>
<path d="M87.9199 152.14H80.1199C79.5099 152.14 79.0299 151.6 79.0599 150.96L79.4599 143.71C79.4899 143.12 79.9599 142.66 80.5199 142.66H87.5099C88.0699 142.66 88.5299 143.12 88.5699 143.71L88.9699 150.96C89.0099 151.6 88.5299 152.14 87.9199 152.14Z" fill="white" stroke="#F55681" stroke-width="2" stroke-miterlimit="10" stroke-linecap="round" stroke-linejoin="round"/>
<path d="M85.8699 145.3V141.86C85.8699 140.84 85.0399 140.01 84.0199 140.01C82.9999 140.01 82.1699 140.84 82.1699 141.86V145.3" stroke="#F55681" stroke-width="2" stroke-miterlimit="10" stroke-linecap="round" stroke-linejoin="round"/>
<path d="M237.61 174.57H183.02C181.5 174.57 180.27 173.34 180.27 171.82V108.81C180.27 107.29 181.5 106.06 183.02 106.06H237.61C239.13 106.06 240.36 107.29 240.36 108.81V171.82C240.36 173.34 239.13 174.57 237.61 174.57Z" fill="white" stroke="#2F2E41" stroke-width="2" stroke-miterlimit="10" stroke-linecap="round" stroke-linejoin="round"/>
<path d="M200.28 121.24H231.63" stroke="#2F2E41" stroke-width="2" stroke-miterlimit="10" stroke-linecap="round" stroke-linejoin="round"/>
<path d="M200.28 134.25H231.63" stroke="#2F2E41" stroke-width="2" stroke-miterlimit="10" stroke-linecap="round" stroke-linejoin="round"/>
<path d="M200.28 147.25H231.63" stroke="#2F2E41" stroke-width="2" stroke-miterlimit="10" stroke-linecap="round" stroke-linejoin="round"/>
<path d="M200.28 160.26H231.63" stroke="#2F2E41" stroke-width="2" stroke-miterlimit="10" stroke-linecap="round" stroke-linejoin="round"/>
<path d="M225.23 164.57L242.51 147.29C242.99 146.81 243.76 146.81 244.23 147.29L249.41 152.47C249.89 152.95 249.89 153.72 249.41 154.19L232.13 171.47C231.88 171.72 231.55 171.84 231.2 171.83L226.29 171.56C225.67 171.53 225.18 171.03 225.14 170.41L224.87 165.5C224.86 165.16 224.99 164.82 225.23 164.57Z" fill="white" stroke="#F55681" stroke-width="2" stroke-miterlimit="10" stroke-linecap="round" stroke-linejoin="round"/>
<path d="M224.87 177.23H249.76" stroke="#F55681" stroke-width="2" stroke-miterlimit="10" stroke-linecap="round" stroke-linejoin="round"/>
<path d="M195.35 118.06H189V124.41H195.35V118.06Z" stroke="#2F2E41" stroke-width="2" stroke-miterlimit="10" stroke-linecap="round" stroke-linejoin="round"/>
<path d="M195.35 131.07H189V137.42H195.35V131.07Z" stroke="#2F2E41" stroke-width="2" stroke-miterlimit="10" stroke-linecap="round" stroke-linejoin="round"/>
<path d="M195.35 144.08H189V150.43H195.35V144.08Z" stroke="#2F2E41" stroke-width="2" stroke-miterlimit="10" stroke-linecap="round" stroke-linejoin="round"/>
<path d="M195.35 157.08H189V163.43H195.35V157.08Z" stroke="#2F2E41" stroke-width="2" stroke-miterlimit="10" stroke-linecap="round" stroke-linejoin="round"/>
<path d="M367.37 121.37H332.62C331.98 121.37 331.37 121.63 330.93 122.1L326.25 127.08C325.85 127.51 325.62 128.08 325.62 128.67V168.38C325.62 169.66 326.66 170.7 327.94 170.7H372.05C373.33 170.7 374.37 169.66 374.37 168.38V128.67C374.37 128.08 374.14 127.51 373.74 127.08L369.06 122.1C368.62 121.63 368.01 121.37 367.37 121.37Z" fill="white" stroke="#2F2E41" stroke-width="2" stroke-miterlimit="10" stroke-linecap="round" stroke-linejoin="round"/>
<path d="M326.2 128.33H373.79" stroke="#2F2E41" stroke-width="2" stroke-miterlimit="10" stroke-linecap="round" stroke-linejoin="round"/>
<path d="M342.89 147.64H346.11V154.09C346.11 154.82 346.71 155.42 347.44 155.42H352.56C353.29 155.42 353.89 154.82 353.89 154.09V147.64H357.11C358.07 147.64 358.56 146.47 357.88 145.79L350.77 138.68C350.35 138.26 349.66 138.26 349.24 138.68L342.13 145.79C341.45 146.47 341.93 147.64 342.89 147.64Z" fill="#F55681"/>
<path d="M342 159.37H358" stroke="#F55681" stroke-width="2" stroke-miterlimit="10" stroke-linecap="round" stroke-linejoin="round"/>
<circle cx="100" cy="140" r="2" fill="#E0E0E0"/>
<circle cx="100" cy="92" r="2" fill="#E0E0E0"/>
<circle cx="100" cy="188" r="2" fill="#E0E0E0"/>
</svg>
