<svg width="440" height="280" viewBox="0 0 440 280" fill="none" xmlns="http://www.w3.org/2000/svg">
<path d="M307.605 190.106V88.9346L219.989 38.3491L132.374 88.9346V190.106L219.989 240.691L307.605 190.106Z" stroke="#E0E0E0" stroke-miterlimit="10" stroke-linecap="round" stroke-linejoin="round"/>
<path d="M219.989 38.3491V240.691" stroke="#E0E0E0" stroke-miterlimit="10" stroke-linecap="round" stroke-linejoin="round"/>
<path d="M132.373 88.9346H307.604" stroke="#E0E0E0" stroke-miterlimit="10" stroke-linecap="round" stroke-linejoin="round"/>
<path d="M132.373 190.105H307.604" stroke="#E0E0E0" stroke-miterlimit="10" stroke-linecap="round" stroke-linejoin="round"/>
<path d="M132.373 88.9346L219.988 240.691" stroke="#E0E0E0" stroke-miterlimit="10" stroke-linecap="round" stroke-linejoin="round"/>
<path d="M219.989 38.3491L307.605 190.106" stroke="#E0E0E0" stroke-miterlimit="10" stroke-linecap="round" stroke-linejoin="round"/>
<path d="M307.605 88.9346L219.989 240.691" stroke="#E0E0E0" stroke-miterlimit="10" stroke-linecap="round" stroke-linejoin="round"/>
<path d="M219.989 38.3491L132.374 190.106" stroke="#E0E0E0" stroke-miterlimit="10" stroke-linecap="round" stroke-linejoin="round"/>
<path d="M132.373 88.9346L307.604 190.106" stroke="#E0E0E0" stroke-miterlimit="10" stroke-linecap="round" stroke-linejoin="round"/>
<path d="M132.373 190.106L307.604 88.9346" stroke="#E0E0E0" stroke-miterlimit="10" stroke-linecap="round" stroke-linejoin="round"/>
<path d="M220.508 35.9476C224.135 35.9476 227.075 33.0077 227.075 29.381C227.075 25.7544 224.135 22.8145 220.508 22.8145C216.881 22.8145 213.941 25.7544 213.941 29.381C213.941 33.0077 216.881 35.9476 220.508 35.9476Z" fill="white" stroke="#2F2E41" stroke-width="2" stroke-miterlimit="10" stroke-linecap="round" stroke-linejoin="round"/>
<path d="M211.227 50.4008C208.998 50.4008 207.365 48.2155 208.089 46.106C209.874 40.9566 214.764 37.2676 220.509 37.2676C226.253 37.2676 231.143 40.9566 232.917 46.106C233.642 48.2155 232.008 50.4008 229.78 50.4008H211.227Z" fill="white" stroke="#2F2E41" stroke-width="2" stroke-miterlimit="10" stroke-linecap="round" stroke-linejoin="round"/>
<path d="M222.38 30.9282C222.693 30.9282 222.931 31.2311 222.856 31.534C222.585 32.5726 221.644 33.3515 220.508 33.3515C219.383 33.3515 218.431 32.5834 218.161 31.534C218.085 31.2311 218.312 30.9282 218.637 30.9282H222.38Z" fill="#F55681"/>
<path d="M235.047 51.4821H226.609C225.949 51.4821 225.43 50.898 225.462 50.2056L225.895 42.3625C225.927 41.7242 226.436 41.2266 227.042 41.2266H234.603C235.209 41.2266 235.707 41.7242 235.75 42.3625L236.183 50.2056C236.226 50.898 235.707 51.4821 235.047 51.4821Z" fill="white" stroke="#F55681" stroke-width="2" stroke-miterlimit="10" stroke-linecap="round" stroke-linejoin="round"/>
<path d="M232.829 44.0719V40.3505C232.829 39.247 231.931 38.3491 230.828 38.3491C229.725 38.3491 228.827 39.247 228.827 40.3505V44.0719" stroke="#F55681" stroke-width="2" stroke-miterlimit="10" stroke-linecap="round" stroke-linejoin="round"/>
<path d="M132.894 86.5331C136.52 86.5331 139.46 83.5931 139.46 79.9665C139.46 76.3399 136.52 73.3999 132.894 73.3999C129.267 73.3999 126.327 76.3399 126.327 79.9665C126.327 83.5931 129.267 86.5331 132.894 86.5331Z" fill="white" stroke="#2F2E41" stroke-width="2" stroke-miterlimit="10" stroke-linecap="round" stroke-linejoin="round"/>
<path d="M123.612 100.986C121.384 100.986 119.75 98.801 120.475 96.6914C122.249 91.5528 127.139 87.853 132.883 87.853C138.628 87.853 143.518 91.542 145.292 96.6914C146.017 98.801 144.383 100.986 142.155 100.986H123.612Z" fill="white" stroke="#2F2E41" stroke-width="2" stroke-miterlimit="10" stroke-linecap="round" stroke-linejoin="round"/>
<path d="M134.765 81.5137C135.079 81.5137 135.317 81.8166 135.241 82.1195C134.971 83.158 134.03 83.9369 132.894 83.9369C131.769 83.9369 130.817 83.1688 130.546 82.1195C130.471 81.8166 130.698 81.5137 131.022 81.5137H134.765Z" fill="#F55681"/>
<path d="M147.434 102.068H138.996C138.336 102.068 137.816 101.483 137.849 100.791L138.282 92.9479C138.314 92.3096 138.822 91.812 139.428 91.812H146.99C147.596 91.812 148.094 92.3096 148.137 92.9479L148.57 100.791C148.613 101.483 148.094 102.068 147.434 102.068Z" fill="white" stroke="#F55681" stroke-width="2" stroke-miterlimit="10" stroke-linecap="round" stroke-linejoin="round"/>
<path d="M145.216 94.6574V90.9359C145.216 89.8325 144.318 88.9346 143.215 88.9346C142.111 88.9346 141.213 89.8325 141.213 90.9359V94.6574" stroke="#F55681" stroke-width="2" stroke-miterlimit="10" stroke-linecap="round" stroke-linejoin="round"/>
<path d="M132.894 187.693C136.52 187.693 139.46 184.753 139.46 181.126C139.46 177.5 136.52 174.56 132.894 174.56C129.267 174.56 126.327 177.5 126.327 181.126C126.327 184.753 129.267 187.693 132.894 187.693Z" fill="white" stroke="#2F2E41" stroke-width="2" stroke-miterlimit="10" stroke-linecap="round" stroke-linejoin="round"/>
<path d="M123.612 202.157C121.384 202.157 119.75 199.971 120.475 197.862C122.249 192.723 127.139 189.023 132.883 189.023C138.628 189.023 143.518 192.712 145.292 197.862C146.017 199.971 144.383 202.157 142.155 202.157H123.612Z" fill="white" stroke="#2F2E41" stroke-width="2" stroke-miterlimit="10" stroke-linecap="round" stroke-linejoin="round"/>
<path d="M134.765 182.684C135.079 182.684 135.317 182.987 135.241 183.29C134.971 184.328 134.03 185.107 132.894 185.107C131.769 185.107 130.817 184.339 130.546 183.29C130.471 182.987 130.698 182.684 131.022 182.684H134.765Z" fill="#F55681"/>
<path d="M147.434 203.238H138.996C138.336 203.238 137.816 202.654 137.849 201.961L138.282 194.118C138.314 193.48 138.822 192.982 139.428 192.982H146.99C147.596 192.982 148.094 193.48 148.137 194.118L148.57 201.961C148.613 202.643 148.094 203.238 147.434 203.238Z" fill="white" stroke="#F55681" stroke-width="2" stroke-miterlimit="10" stroke-linecap="round" stroke-linejoin="round"/>
<path d="M145.216 195.828V192.106C145.216 191.003 144.318 190.105 143.215 190.105C142.111 190.105 141.213 191.003 141.213 192.106V195.828" stroke="#F55681" stroke-width="2" stroke-miterlimit="10" stroke-linecap="round" stroke-linejoin="round"/>
<path d="M308.126 187.693C311.753 187.693 314.693 184.753 314.693 181.126C314.693 177.5 311.753 174.56 308.126 174.56C304.499 174.56 301.559 177.5 301.559 181.126C301.559 184.753 304.499 187.693 308.126 187.693Z" fill="white" stroke="#2F2E41" stroke-width="2" stroke-miterlimit="10" stroke-linecap="round" stroke-linejoin="round"/>
<path d="M298.845 202.157C296.616 202.157 294.982 199.971 295.707 197.862C297.481 192.723 302.371 189.023 308.116 189.023C313.86 189.023 318.75 192.712 320.524 197.862C321.249 199.971 319.615 202.157 317.387 202.157H298.845Z" fill="white" stroke="#2F2E41" stroke-width="2" stroke-miterlimit="10" stroke-linecap="round" stroke-linejoin="round"/>
<path d="M309.998 182.684C310.311 182.684 310.549 182.987 310.474 183.29C310.203 184.328 309.262 185.107 308.126 185.107C307.001 185.107 306.049 184.339 305.779 183.29C305.703 182.987 305.93 182.684 306.255 182.684H309.998Z" fill="#F55681"/>
<path d="M322.666 203.238H314.228C313.568 203.238 313.049 202.654 313.081 201.961L313.514 194.118C313.546 193.48 314.055 192.982 314.66 192.982H322.222C322.828 192.982 323.326 193.48 323.369 194.118L323.802 201.961C323.845 202.643 323.315 203.238 322.666 203.238Z" fill="white" stroke="#F55681" stroke-width="2" stroke-miterlimit="10" stroke-linecap="round" stroke-linejoin="round"/>
<path d="M320.448 195.828V192.106C320.448 191.003 319.55 190.105 318.447 190.105C317.343 190.105 316.446 191.003 316.446 192.106V195.828" stroke="#F55681" stroke-width="2" stroke-miterlimit="10" stroke-linecap="round" stroke-linejoin="round"/>
<path d="M308.126 86.5331C311.753 86.5331 314.693 83.5931 314.693 79.9665C314.693 76.3399 311.753 73.3999 308.126 73.3999C304.499 73.3999 301.559 76.3399 301.559 79.9665C301.559 83.5931 304.499 86.5331 308.126 86.5331Z" fill="white" stroke="#2F2E41" stroke-width="2" stroke-miterlimit="10" stroke-linecap="round" stroke-linejoin="round"/>
<path d="M298.845 100.986C296.616 100.986 294.982 98.801 295.707 96.6914C297.481 91.5528 302.371 87.853 308.116 87.853C313.86 87.853 318.75 91.542 320.524 96.6914C321.249 98.801 319.615 100.986 317.387 100.986H298.845Z" fill="white" stroke="#2F2E41" stroke-width="2" stroke-miterlimit="10" stroke-linecap="round" stroke-linejoin="round"/>
<path d="M309.998 81.5137C310.311 81.5137 310.549 81.8166 310.474 82.1195C310.203 83.158 309.262 83.9369 308.126 83.9369C307.001 83.9369 306.049 83.1688 305.779 82.1195C305.703 81.8166 305.93 81.5137 306.255 81.5137H309.998Z" fill="#F55681"/>
<path d="M322.666 102.068H314.228C313.568 102.068 313.049 101.483 313.081 100.791L313.514 92.9479C313.546 92.3096 314.055 91.812 314.66 91.812H322.222C322.828 91.812 323.326 92.3096 323.369 92.9479L323.802 100.791C323.845 101.483 323.315 102.068 322.666 102.068Z" fill="white" stroke="#F55681" stroke-width="2" stroke-miterlimit="10" stroke-linecap="round" stroke-linejoin="round"/>
<path d="M320.448 94.6574V90.9359C320.448 89.8325 319.55 88.9346 318.447 88.9346C317.343 88.9346 316.446 89.8325 316.446 90.9359V94.6574" stroke="#F55681" stroke-width="2" stroke-miterlimit="10" stroke-linecap="round" stroke-linejoin="round"/>
<path d="M220.508 238.278C224.135 238.278 227.075 235.338 227.075 231.712C227.075 228.085 224.135 225.145 220.508 225.145C216.881 225.145 213.941 228.085 213.941 231.712C213.941 235.338 216.881 238.278 220.508 238.278Z" fill="white" stroke="#2F2E41" stroke-width="2" stroke-miterlimit="10" stroke-linecap="round" stroke-linejoin="round"/>
<path d="M211.227 252.731C208.998 252.731 207.365 250.546 208.089 248.437C209.864 243.298 214.753 239.598 220.498 239.598C226.242 239.598 231.132 243.287 232.906 248.437C233.631 250.546 231.997 252.731 229.769 252.731H211.227Z" fill="white" stroke="#2F2E41" stroke-width="2" stroke-miterlimit="10" stroke-linecap="round" stroke-linejoin="round"/>
<path d="M222.38 233.259C222.693 233.259 222.931 233.562 222.856 233.865C222.585 234.903 221.644 235.682 220.508 235.682C219.383 235.682 218.431 234.914 218.161 233.865C218.085 233.562 218.312 233.259 218.637 233.259H222.38Z" fill="#F55681"/>
<path d="M235.047 253.813H226.609C225.949 253.813 225.43 253.229 225.462 252.536L225.895 244.693C225.927 244.055 226.436 243.557 227.042 243.557H234.603C235.209 243.557 235.707 244.055 235.75 244.693L236.183 252.536C236.226 253.229 235.707 253.813 235.047 253.813Z" fill="white" stroke="#F55681" stroke-width="2" stroke-miterlimit="10" stroke-linecap="round" stroke-linejoin="round"/>
<path d="M232.829 246.413V242.692C232.829 241.588 231.931 240.69 230.828 240.69C229.725 240.69 228.827 241.588 228.827 242.692V246.413" stroke="#F55681" stroke-width="2" stroke-miterlimit="10" stroke-linecap="round" stroke-linejoin="round"/>
<path d="M242.426 120.945H198.591V155.996H242.426V120.945Z" fill="white" stroke="#2F2E41" stroke-miterlimit="10" stroke-linecap="round" stroke-linejoin="round"/>
<path d="M220.508 104.545L189.32 123.088H251.697L220.508 104.545Z" fill="white" stroke="#2F2E41" stroke-width="2" stroke-miterlimit="10" stroke-linecap="round" stroke-linejoin="round"/>
<path d="M220.51 118.036C222.374 118.036 223.885 116.525 223.885 114.66C223.885 112.796 222.374 111.285 220.51 111.285C218.645 111.285 217.134 112.796 217.134 114.66C217.134 116.525 218.645 118.036 220.51 118.036Z" stroke="#2F2E41" stroke-width="2" stroke-miterlimit="10" stroke-linecap="round" stroke-linejoin="round"/>
<path d="M201.967 123.087H195.228V126.463H201.967V123.087Z" fill="white" stroke="#2F2E41" stroke-width="2" stroke-miterlimit="10" stroke-linecap="round" stroke-linejoin="round"/>
<path d="M216.289 123.087H209.549V126.463H216.289V123.087Z" fill="white" stroke="#2F2E41" stroke-width="2" stroke-miterlimit="10" stroke-linecap="round" stroke-linejoin="round"/>
<path d="M230.623 123.087H223.883V126.463H230.623V123.087Z" fill="white" stroke="#2F2E41" stroke-width="2" stroke-miterlimit="10" stroke-linecap="round" stroke-linejoin="round"/>
<path d="M245.791 123.087H239.052V126.463H245.791V123.087Z" fill="white" stroke="#2F2E41" stroke-width="2" stroke-miterlimit="10" stroke-linecap="round" stroke-linejoin="round"/>
<path d="M246.645 154.276H194.382V160.172H246.645V154.276Z" fill="white" stroke="#2F2E41" stroke-width="2" stroke-miterlimit="10" stroke-linecap="round" stroke-linejoin="round"/>
<path d="M190.163 160.183H250.852" stroke="#2F2E41" stroke-width="2" stroke-miterlimit="10" stroke-linecap="round" stroke-linejoin="round"/>
<path d="M198.591 127.307V154.276" stroke="#2F2E41" stroke-width="2" stroke-miterlimit="10" stroke-linecap="round" stroke-linejoin="round"/>
<path d="M212.925 127.307V154.276" stroke="#2F2E41" stroke-width="2" stroke-miterlimit="10" stroke-linecap="round" stroke-linejoin="round"/>
<path d="M227.249 127.307V154.276" stroke="#2F2E41" stroke-width="2" stroke-miterlimit="10" stroke-linecap="round" stroke-linejoin="round"/>
<path d="M242.426 127.307V154.276" stroke="#2F2E41" stroke-width="2" stroke-miterlimit="10" stroke-linecap="round" stroke-linejoin="round"/>
<path d="M220.509 104.448V95.1768" stroke="#2F2E41" stroke-miterlimit="10" stroke-linecap="round" stroke-linejoin="round"/>
<path d="M228.622 100.964H221.666C221.028 100.964 220.509 100.445 220.509 99.8069V96.3343C220.509 95.696 221.028 95.1768 221.666 95.1768H228.622C229.26 95.1768 229.78 95.696 229.78 96.3343V99.8069C229.78 100.445 229.26 100.964 228.622 100.964Z" fill="#F55681"/>
</svg>
