<svg width="672" height="626" viewBox="0 0 672 626" fill="none" xmlns="http://www.w3.org/2000/svg">
<path d="M226.67 99.8936L35.5098 164.224V604.244L226.67 539.914V99.8936Z" fill="white" stroke="#E0E0E0" stroke-miterlimit="10" stroke-linejoin="round"/>
<path d="M55.5802 240.143C55.5502 241.433 55.5503 242.723 55.6103 244.023C56.5003 266.133 70.0403 287.263 89.6903 297.423C98.9403 302.203 109.46 304.763 117.64 311.223C125.87 317.723 130.89 327.523 138.69 334.523C146.74 341.743 157.68 345.643 168.49 345.143C176.2 344.783 184.31 341.843 188.51 335.373C192.44 329.333 192.22 321.623 193.3 314.493C195.3 301.313 202.07 289.373 205.84 276.583C214.84 246.043 206.21 213.333 196.47 183.013C189.82 162.303 175.18 148.903 152.66 158.273C144.7 161.583 137.58 166.623 129.83 170.403C115.5 177.403 99.2002 180.053 85.5502 188.293C67.7002 199.043 56.1302 219.353 55.5802 240.143Z" fill="#E6E6E6"/>
<path d="M99.5298 445.143C97.8098 449.513 96.0599 453.863 94.0999 458.113C89.4299 468.253 83.4598 478.203 82.5398 489.333C81.8798 497.303 83.8699 505.443 82.1499 513.253C81.0699 518.143 78.5998 522.593 76.9798 527.333C75.3698 532.073 74.6999 537.533 77.1399 541.903C79.2599 545.693 83.4498 548.003 87.7398 548.673C92.0298 549.343 96.4199 548.563 100.59 547.363C118.17 542.273 132.97 529.673 143.15 514.463C153.33 499.253 159.24 481.553 163.06 463.653C166.35 448.263 168.18 432.313 165.6 416.793C164.58 410.663 162.8 404.473 158.92 399.623C143.25 380.013 119.13 404.783 111.01 419.143C106.36 427.403 103.01 436.303 99.5298 445.143Z" fill="#E6E6E6"/>
<path d="M226.67 99.8936L417.84 164.224V604.244L226.67 539.914V99.8936Z" fill="white" stroke="#E0E0E0" stroke-miterlimit="10" stroke-linejoin="round"/>
<path d="M609.01 99.8936L417.84 164.224V604.244L609.01 539.914V99.8936Z" fill="white" stroke="#E0E0E0" stroke-miterlimit="10" stroke-linejoin="round"/>
<path d="M529.429 163.993C524.589 165.623 519.609 166.963 514.359 167.783C503.609 169.463 492.639 169.343 481.919 171.203C471.199 173.063 460.339 177.263 453.489 185.713C444.309 197.033 444.579 214.273 452.219 226.683C457.399 235.093 465.439 241.483 474.289 245.873C495.459 256.383 521.489 255.573 542.759 245.263C564.029 234.953 580.439 215.703 588.919 193.643C592.659 183.913 594.889 172.833 590.929 163.183C586.059 151.323 572.859 147.903 561.509 151.653C550.439 155.313 540.269 160.353 529.429 163.993Z" fill="#E6E6E6"/>
<path d="M509.47 306.794C499.96 309.764 491.63 315.424 486.34 324.184C480.24 334.274 477.99 346.184 476.3 357.844C472.75 382.284 471.09 407.264 462.93 430.574C455.05 453.074 441.27 473.504 436.32 496.834C434.42 505.804 433.9 515.264 436.45 524.074C439 532.884 444.93 540.994 453.3 544.734C467.24 550.954 483.28 544.044 496.71 536.764C530.41 518.494 563.98 495.634 581.02 461.294C596.04 431.024 596.25 395.084 588.35 362.224C584.09 344.524 576.9 326.394 562.34 315.464C548.4 305.034 526.94 301.344 509.47 306.794Z" fill="#E6E6E6"/>
<path d="M376.99 202.023C381.87 202.503 386.5 204.043 390.5 207.173C397.58 212.693 399.83 222.273 401.44 231.103C415.29 307.103 414.84 387.833 384.72 458.973C381.06 467.603 375.8 477.053 366.64 479.043C361.51 480.153 356.23 478.623 351.02 477.953C345.81 477.283 339.8 477.823 336.47 481.873C332.85 486.283 334.07 493.153 337.52 497.693C340.97 502.233 346.14 505.073 350.96 508.133C359.5 513.563 367.36 520.053 374.3 527.413C380.11 533.563 385.56 541.233 384.8 549.663C383.88 559.873 373.47 567.363 363.22 567.743C352.97 568.123 343.27 562.903 335.4 556.343C323.58 546.493 314.51 532.913 311.79 517.773C309.07 502.633 313.24 486.003 324.15 475.143C330.66 468.663 339.37 464.213 344.13 456.363C347.99 449.993 348.7 442.213 348.45 434.773C348.28 429.593 347.64 424.223 344.94 419.793C342.3 415.443 337.98 412.453 334.19 409.053C320.59 396.813 313.65 378.723 310.33 360.733C307.01 342.743 306.83 324.313 304.24 306.203C300.91 282.993 293.93 257.843 305.16 237.263C313.05 222.783 328.1 214.603 343.05 209.103C352.8 205.503 365.61 200.903 376.99 202.023Z" fill="#E6E6E6"/>
<path d="M110.601 440.944C63.7508 377.624 96.0808 215.064 149.881 196.274C206.471 176.514 206.971 337.814 236.631 342.474C258.471 345.904 281.481 336.494 296.841 320.594C304.991 312.164 310.971 301.934 316.871 291.804C323.041 281.224 329.201 270.644 335.371 260.064C339.571 252.854 343.841 245.554 349.821 239.734C367.561 222.474 399.721 223.544 416.271 241.944C427.631 254.574 431.101 272.194 434.421 288.854C440.451 319.144 447.391 349.244 455.221 379.114C459.471 395.314 464.581 412.424 477.251 423.384C490.531 434.864 510.631 437.064 526.741 430.094C542.861 423.124 554.711 407.834 559.041 390.824C561.341 381.774 561.671 372.354 561.981 363.024C562.421 349.954 562.861 336.884 563.301 323.814C563.851 307.264 564.451 290.484 569.241 274.634C573.661 260.034 581.541 246.534 584.601 231.594C586.411 222.724 588.222 211.5 582.581 204.544C574.054 194.029 549.2 178.4 518 200" stroke="#E0E0E0" stroke-linecap="round" stroke-linejoin="round" stroke-dasharray="12.09 12.09"/>
<path d="M114.4 445.664C115.73 447.174 117.12 448.624 118.56 449.984" stroke="#E0E0E0" stroke-linecap="round" stroke-linejoin="round"/>
<path d="M512 210C514.761 210 517 207.761 517 205C517 202.239 514.761 200 512 200C509.239 200 507 202.239 507 205C507 207.761 509.239 210 512 210Z" fill="white"/>
<path d="M561 352C563.761 352 566 349.761 566 347C566 344.239 563.761 342 561 342C558.239 342 556 344.239 556 347C556 349.761 558.239 352 561 352Z" fill="white"/>
<path d="M507 439C509.761 439 512 436.761 512 434C512 431.239 509.761 429 507 429C504.239 429 502 431.239 502 434C502 436.761 504.239 439 507 439Z" fill="white"/>
<path d="M376 233C378.761 233 381 230.761 381 228C381 225.239 378.761 223 376 223C373.239 223 371 225.239 371 228C371 230.761 373.239 233 376 233Z" fill="white"/>
<path d="M157.119 203.793C161.267 203.793 164.629 200.431 164.629 196.283C164.629 192.136 161.267 188.773 157.119 188.773C152.972 188.773 149.609 192.136 149.609 196.283C149.609 200.431 152.972 203.793 157.119 203.793Z" fill="white" stroke="#E0E0E0" stroke-miterlimit="10" stroke-linejoin="round"/>
<path d="M121.18 455.043C125.328 455.043 128.69 451.681 128.69 447.533C128.69 443.386 125.328 440.023 121.18 440.023C117.032 440.023 113.67 443.386 113.67 447.533C113.67 451.681 117.032 455.043 121.18 455.043Z" fill="white" stroke="#E0E0E0" stroke-miterlimit="10" stroke-linejoin="round"/>
<path d="M133.711 415.124C133.961 415.124 134.221 415.124 134.471 415.124" stroke="#E0E0E0" stroke-miterlimit="10" stroke-linecap="round" stroke-linejoin="round" stroke-dasharray="12 12"/>
<path d="M209.32 26.9731L414.56 127.653" stroke="#E6E6E6" stroke-miterlimit="10" stroke-linecap="round" stroke-linejoin="round"/>
<path d="M185.379 34.7531C184.889 34.6731 184.439 34.5432 184.019 34.3232C183.049 33.8332 181.179 31.4732 179.499 29.3432L172.829 26.4232C172.399 26.2332 172.059 25.8832 171.889 25.4532C171.719 25.0132 171.729 24.5332 171.919 24.1032C172.209 23.4432 172.869 23.0232 173.599 23.0432L171.089 20.6331C170.709 20.2731 171.119 19.6532 171.599 19.8632C174.809 21.2332 177.709 22.4131 178.999 22.7531L182.959 23.8032L188.869 33.8731C189.249 34.5231 188.699 35.3131 187.969 35.1931L185.379 34.7531Z" fill="#E6E6E6"/>
<path d="M207.219 18.7333C207.389 18.6033 207.469 18.3833 207.439 18.1733C207.399 17.9633 207.249 17.7833 207.049 17.7133L206.179 17.4133C205.419 17.1433 204.599 17.1033 203.819 17.2833L193.479 19.5933C191.049 18.1233 188.599 16.7033 186.119 15.3233L204.759 2.52332C204.939 2.39332 205.039 2.17331 205.009 1.95331C204.979 1.73331 204.819 1.54334 204.609 1.48334L201.159 0.22333C200.229 -0.11667 199.309 -0.0566945 198.399 0.323306L187.919 4.76331L182.789 2.57331C182.269 2.35331 181.689 2.34335 181.159 2.55335C180.639 2.76335 180.219 3.1733 179.999 3.6933C179.539 4.7733 180.039 6.02334 181.119 6.48334L182.029 6.87329L173.989 9.28333C170.609 7.83333 167.219 6.60334 163.909 5.73334C162.609 5.39334 160.709 5.87333 158.899 6.03333C156.549 6.24333 154.589 6.04331 153.889 7.45331C152.949 9.30331 158.909 12.3233 160.079 12.8033C162.869 14.2133 176.409 20.3333 179.429 21.1433L198.799 26.2933C200.569 27.0133 201.579 25.4233 200.839 24.2633L207.219 18.7333Z" fill="#E6E6E6"/>
<path d="M336.101 585.263H125.831C113.021 585.263 102.641 574.883 102.641 562.073V110.393C102.641 97.5831 113.021 87.2031 125.831 87.2031H336.101C348.911 87.2031 359.291 97.5831 359.291 110.393V562.073C359.301 574.883 348.911 585.263 336.101 585.263Z" fill="#515667"/>
<path d="M336.081 100.303H289.73C287.27 100.303 285.271 102.303 285.271 104.763V111.163C285.271 114.933 282.221 117.983 278.451 117.983H183.48C179.71 117.983 176.661 114.933 176.661 111.163V104.763C176.661 102.303 174.661 100.303 172.201 100.303H125.851C119.381 100.303 114.141 105.543 114.141 112.013V560.453C114.141 566.923 119.381 572.163 125.851 572.163H336.081C342.551 572.163 347.791 566.923 347.791 560.453V112.013C347.791 105.543 342.551 100.303 336.081 100.303Z" fill="white" stroke="#21202F" stroke-miterlimit="10" stroke-linejoin="round"/>
<path d="M318.89 151.343H253.08C249.3 151.343 245.76 153.493 244.28 156.973C242.09 162.163 236.95 165.803 230.96 165.803C224.97 165.803 219.84 162.163 217.64 156.973C216.17 153.493 212.62 151.343 208.84 151.343H143.03C136.85 151.343 131.83 156.353 131.83 162.543V261.113C131.83 267.293 136.84 272.313 143.03 272.313H208.84C212.62 272.313 216.16 270.163 217.64 266.683C219.83 261.493 224.97 257.853 230.96 257.853C236.95 257.853 242.08 261.493 244.28 266.683C245.75 270.163 249.3 272.313 253.08 272.313H318.89C325.07 272.313 330.09 267.303 330.09 261.113V162.543C330.08 156.353 325.07 151.343 318.89 151.343Z" fill="#F55681"/>
<path d="M147.561 200.713H184.24" stroke="white" stroke-width="2" stroke-miterlimit="10" stroke-linecap="round" stroke-linejoin="round"/>
<path d="M182.76 211.953H149.561C148.456 211.953 147.561 212.849 147.561 213.953V224.053C147.561 225.158 148.456 226.053 149.561 226.053H182.76C183.865 226.053 184.76 225.158 184.76 224.053V213.953C184.76 212.849 183.865 211.953 182.76 211.953Z" fill="white"/>
<path d="M147.561 247.093H192.871" stroke="white" stroke-width="2" stroke-miterlimit="10" stroke-linecap="round" stroke-linejoin="round"/>
<path d="M277.789 200.713H314.459" stroke="white" stroke-width="2" stroke-miterlimit="10" stroke-linecap="round" stroke-linejoin="round"/>
<path d="M312.46 211.953H279.26C278.155 211.953 277.26 212.849 277.26 213.953V224.053C277.26 225.158 278.155 226.053 279.26 226.053H312.46C313.565 226.053 314.46 225.158 314.46 224.053V213.953C314.46 212.849 313.565 211.953 312.46 211.953Z" fill="white"/>
<path d="M269.16 247.093H314.46" stroke="white" stroke-width="2" stroke-miterlimit="10" stroke-linecap="round" stroke-linejoin="round"/>
<path d="M249.576 180.983H212.356C210.569 180.983 209.121 182.432 209.121 184.218C209.121 186.005 210.569 187.453 212.356 187.453H249.576C251.363 187.453 252.811 186.005 252.811 184.218C252.811 182.432 251.363 180.983 249.576 180.983Z" fill="white"/>
<path d="M224.13 230.993H226.58L234.94 221.153C234.94 221.153 237.39 221.153 240.43 221.153C243.47 221.153 243.92 219.013 243.92 219.013C243.92 219.013 243.47 216.873 240.43 216.873C237.39 216.873 234.94 216.873 234.94 216.873L226.58 207.033H224.13L229.52 217.123C229.52 217.123 224.72 217.363 223.61 217.813L219.33 213.423L218.02 213.493L220.37 219.023L218.02 224.553L219.33 224.623L223.61 220.233C224.72 220.683 229.52 220.923 229.52 220.923L224.13 230.993Z" fill="white"/>
<path opacity="0.36" d="M201.841 219.864C202.316 219.864 202.701 219.479 202.701 219.004C202.701 218.529 202.316 218.144 201.841 218.144C201.366 218.144 200.98 218.529 200.98 219.004C200.98 219.479 201.366 219.864 201.841 219.864Z" fill="white"/>
<path opacity="0.36" d="M206.581 219.864C207.056 219.864 207.441 219.479 207.441 219.004C207.441 218.529 207.056 218.144 206.581 218.144C206.106 218.144 205.721 218.529 205.721 219.004C205.721 219.479 206.106 219.864 206.581 219.864Z" fill="white"/>
<path opacity="0.36" d="M211.331 219.864C211.806 219.864 212.191 219.479 212.191 219.004C212.191 218.529 211.806 218.144 211.331 218.144C210.856 218.144 210.471 218.529 210.471 219.004C210.471 219.479 210.856 219.864 211.331 219.864Z" fill="white"/>
<path opacity="0.36" d="M254.331 219.864C254.806 219.864 255.191 219.479 255.191 219.004C255.191 218.529 254.806 218.144 254.331 218.144C253.856 218.144 253.471 218.529 253.471 219.004C253.471 219.479 253.856 219.864 254.331 219.864Z" fill="white"/>
<path opacity="0.36" d="M259.081 219.864C259.556 219.864 259.941 219.479 259.941 219.004C259.941 218.529 259.556 218.144 259.081 218.144C258.606 218.144 258.221 218.529 258.221 219.004C258.221 219.479 258.606 219.864 259.081 219.864Z" fill="white"/>
<path opacity="0.36" d="M263.821 219.864C264.296 219.864 264.681 219.479 264.681 219.004C264.681 218.529 264.296 218.144 263.821 218.144C263.346 218.144 262.961 218.529 262.961 219.004C262.961 219.479 263.346 219.864 263.821 219.864Z" fill="white"/>
<path d="M305.76 549.563H249.78C246.57 549.563 243.55 551.393 242.3 554.353C240.43 558.763 236.06 561.863 230.97 561.863C225.88 561.863 221.51 558.763 219.64 554.353C218.39 551.393 215.37 549.563 212.16 549.563H156.18C150.92 549.563 146.66 553.823 146.66 559.083V571.153H315.29V559.083C315.28 553.823 311.02 549.563 305.76 549.563Z" fill="white" stroke="#E6E6E6" stroke-miterlimit="10" stroke-linejoin="round"/>
<path d="M307.901 293.243H250.311C247.001 293.243 243.901 295.123 242.611 298.163C240.691 302.703 236.201 305.883 230.961 305.883C225.721 305.883 221.231 302.693 219.311 298.163C218.021 295.123 214.921 293.243 211.611 293.243H154.021C148.611 293.243 144.221 297.633 144.221 303.043V389.303C144.221 394.713 148.611 399.103 154.021 399.103H211.611C214.921 399.103 218.021 397.223 219.311 394.183C221.231 389.643 225.721 386.463 230.961 386.463C236.201 386.463 240.691 389.653 242.611 394.183C243.901 397.223 247.001 399.103 250.311 399.103H307.901C313.311 399.103 317.701 394.713 317.701 389.303V303.043C317.701 297.633 313.311 293.243 307.901 293.243Z" fill="white" stroke="#E0E0E0" stroke-miterlimit="10" stroke-linejoin="round"/>
<path d="M286.881 369.813H306.521" stroke="#E0E0E0" stroke-width="2" stroke-miterlimit="10" stroke-linecap="round" stroke-linejoin="round"/>
<path d="M155.061 312.763H218.01" stroke="#E0E0E0" stroke-width="2" stroke-miterlimit="10" stroke-linecap="round" stroke-linejoin="round"/>
<path d="M291.602 312.763H306.521" stroke="#E0E0E0" stroke-width="2" stroke-miterlimit="10" stroke-linecap="round" stroke-linejoin="round"/>
<path d="M197.041 325.183H159.061C156.851 325.183 155.061 326.974 155.061 329.183V367.163C155.061 369.372 156.851 371.163 159.061 371.163H197.041C199.25 371.163 201.041 369.372 201.041 367.163V329.183C201.041 326.974 199.25 325.183 197.041 325.183Z" fill="#E6E6E6"/>
<path d="M252.33 325.183H213.33C212.226 325.183 211.33 326.079 211.33 327.183V331.263C211.33 332.368 212.226 333.263 213.33 333.263H252.33C253.435 333.263 254.33 332.368 254.33 331.263V327.183C254.33 326.079 253.435 325.183 252.33 325.183Z" fill="#E6E6E6"/>
<path d="M304.521 325.183H288.881C287.776 325.183 286.881 326.079 286.881 327.183V331.263C286.881 332.368 287.776 333.263 288.881 333.263H304.521C305.625 333.263 306.521 332.368 306.521 331.263V327.183C306.521 326.079 305.625 325.183 304.521 325.183Z" fill="#E6E6E6"/>
<path d="M211.33 347.103H254.33" stroke="#E0E0E0" stroke-width="2" stroke-miterlimit="10" stroke-linecap="round" stroke-linejoin="round"/>
<path d="M211.33 369.813H230.97" stroke="#E0E0E0" stroke-width="2" stroke-miterlimit="10" stroke-linecap="round" stroke-linejoin="round"/>
<path d="M249.102 369.813H268.741" stroke="#E0E0E0" stroke-width="2" stroke-miterlimit="10" stroke-linecap="round" stroke-linejoin="round"/>
<path d="M182.001 338.513H168.451V357.843H182.001V338.513Z" stroke="white" stroke-miterlimit="10" stroke-linecap="round" stroke-linejoin="round"/>
<path d="M187.78 345.043H182V357.833H187.78V345.043Z" stroke="white" stroke-miterlimit="10" stroke-linecap="round" stroke-linejoin="round"/>
<path d="M167.32 357.833H188.78" stroke="white" stroke-miterlimit="10" stroke-linecap="round" stroke-linejoin="round"/>
<path d="M172.34 342.483H178.05" stroke="white" stroke-miterlimit="10" stroke-linecap="round" stroke-linejoin="round"/>
<path d="M172.34 345.903H178.05" stroke="white" stroke-miterlimit="10" stroke-linecap="round" stroke-linejoin="round"/>
<path d="M172.34 349.313H178.05" stroke="white" stroke-miterlimit="10" stroke-linecap="round" stroke-linejoin="round"/>
<path d="M172.34 352.723H178.05" stroke="white" stroke-miterlimit="10" stroke-linecap="round" stroke-linejoin="round"/>
<path d="M307.901 421.903H250.311C247.001 421.903 243.901 423.783 242.611 426.823C240.691 431.363 236.201 434.543 230.961 434.543C225.721 434.543 221.231 431.353 219.311 426.823C218.021 423.783 214.921 421.903 211.611 421.903H154.021C148.611 421.903 144.221 426.293 144.221 431.703V517.963C144.221 523.373 148.611 527.763 154.021 527.763H211.611C214.921 527.763 218.021 525.883 219.311 522.843C221.231 518.303 225.721 515.123 230.961 515.123C236.201 515.123 240.691 518.313 242.611 522.843C243.901 525.883 247.001 527.763 250.311 527.763H307.901C313.311 527.763 317.701 523.373 317.701 517.963V431.703C317.701 426.293 313.311 421.903 307.901 421.903Z" fill="white" stroke="#E0E0E0" stroke-miterlimit="10" stroke-linejoin="round"/>
<path d="M212.831 443.943H159.061C156.851 443.943 155.061 445.734 155.061 447.943V501.713C155.061 503.923 156.851 505.713 159.061 505.713H212.831C215.04 505.713 216.831 503.923 216.831 501.713V447.943C216.831 445.734 215.04 443.943 212.831 443.943Z" fill="white" stroke="#E0E0E0" stroke-miterlimit="10" stroke-linejoin="round"/>
<path d="M279.12 443.943H227.74C226.636 443.943 225.74 444.839 225.74 445.943V450.023C225.74 451.128 226.636 452.023 227.74 452.023H279.12C280.225 452.023 281.12 451.128 281.12 450.023V445.943C281.12 444.839 280.225 443.943 279.12 443.943Z" fill="#E6E6E6"/>
<path d="M300.64 506.573H289.15C286.176 506.573 283.77 504.167 283.77 501.193C283.77 498.22 286.176 495.813 289.15 495.813H300.64C303.613 495.813 306.02 498.22 306.02 501.193C306.02 504.167 303.613 506.573 300.64 506.573Z" fill="#E0E0E0" stroke="#E0E0E0"/>
<path d="M271.61 507.073H260.12C256.87 507.073 254.24 504.443 254.24 501.193C254.24 497.943 256.87 495.313 260.12 495.313H271.61C274.86 495.313 277.49 497.943 277.49 501.193C277.49 504.443 274.86 507.073 271.61 507.073Z" fill="white" stroke="#E6E6E6" stroke-miterlimit="10" stroke-linejoin="round"/>
<path d="M184.031 471.233C184.031 471.233 171.211 476.393 175.891 492.283L184.031 491.313C184.031 491.313 177.821 480.503 186.371 472.603L184.031 471.233Z" fill="white" stroke="#E0E0E0" stroke-miterlimit="10" stroke-linejoin="round"/>
<path d="M170.65 497.094H195.75C195.75 497.094 193.92 489.304 184.3 489.304C174.68 489.304 171.51 492.794 170.65 497.094Z" fill="#E0E0E0"/>
<path d="M185.211 467.503C185.211 467.503 183.031 473.013 185.671 478.773C188.691 485.353 194.141 485.053 194.141 485.053C194.141 485.053 194.681 480.353 192.041 474.643C189.411 468.923 185.211 467.503 185.211 467.503Z" fill="#E6E6E6"/>
<path d="M185.98 475.213C187.488 475.213 188.71 473.991 188.71 472.483C188.71 470.976 187.488 469.753 185.98 469.753C184.472 469.753 183.25 470.976 183.25 472.483C183.25 473.991 184.472 475.213 185.98 475.213Z" fill="#E0E0E0"/>
<path d="M201.23 467.364C201.23 467.364 196.42 464.243 190.47 465.653C183.66 467.253 182.9 472.484 182.9 472.484C182.9 472.484 187.25 473.894 193.17 472.484C199.08 471.074 201.23 467.364 201.23 467.364Z" fill="#E0E0E0"/>
<path d="M178.52 452.563C178.52 452.563 176.02 457.713 178.15 463.453C180.59 470.013 185.87 470.114 185.87 470.114C185.87 470.114 186.73 465.613 184.6 459.923C182.47 454.233 178.52 452.563 178.52 452.563Z" fill="#E6E6E6"/>
<path d="M186.681 469.743C186.681 469.743 181.471 465.993 174.721 467.243C167.001 468.673 165.871 474.483 165.871 474.483C165.871 474.483 170.671 476.303 177.371 475.043C184.071 473.783 186.681 469.743 186.681 469.743Z" fill="#E0E0E0"/>
<path d="M196.811 462.453C199.252 462.453 201.23 460.474 201.23 458.033C201.23 455.592 199.252 453.613 196.811 453.613C194.369 453.613 192.391 455.592 192.391 458.033C192.391 460.474 194.369 462.453 196.811 462.453Z" fill="#E6E6E6"/>
<path d="M225.74 469.783H274.18" stroke="#E6E6E6" stroke-width="2" stroke-miterlimit="10" stroke-linecap="round" stroke-linejoin="round"/>
<path d="M225.74 483.593H306.52" stroke="#E6E6E6" stroke-width="2" stroke-miterlimit="10" stroke-linecap="round" stroke-linejoin="round"/>
<path d="M345.27 367.483H291.61C285.25 367.483 280.09 372.643 280.09 379.003V483.063H285.55V379.373C285.55 375.563 288.64 372.463 292.46 372.463H344.43C348.24 372.463 351.34 375.553 351.34 379.373V483.063H356.8V379.003C356.79 372.643 351.63 367.483 345.27 367.483Z" fill="white" stroke="#E0E0E0" stroke-miterlimit="10" stroke-linejoin="round"/>
<path d="M338.95 375.633H297.93C294.715 375.633 292.1 373.026 292.1 369.803C292.1 366.589 294.706 363.973 297.93 363.973H338.95C342.164 363.973 344.78 366.58 344.78 369.803C344.78 373.026 342.164 375.633 338.95 375.633Z" fill="#E0E0E0" stroke="#E0E0E0"/>
<path d="M287.131 625.453C284.377 625.453 282.141 623.217 282.141 620.463V609.863H292.131V620.462C292.121 623.218 289.884 625.453 287.131 625.453Z" fill="#E0E0E0" stroke="#E0E0E0"/>
<path d="M349.75 625.453C346.996 625.453 344.76 623.217 344.76 620.463V609.863H354.75V620.463C354.75 623.217 352.514 625.453 349.75 625.453Z" fill="#E0E0E0" stroke="#E0E0E0"/>
<path d="M349.86 615.793H287.03C275.14 615.793 265.49 606.153 265.49 594.253V482.143C265.49 470.253 275.13 460.603 287.03 460.603H349.86C361.75 460.603 371.4 470.243 371.4 482.143V594.253C371.39 606.143 361.75 615.793 349.86 615.793Z" fill="white" stroke="#E0E0E0" stroke-miterlimit="10" stroke-linejoin="round"/>
<path d="M337.561 589.673H299.321C291.071 589.673 284.371 582.983 284.371 574.723V501.673C284.371 493.423 291.061 486.723 299.321 486.723H337.561C345.811 486.723 352.511 493.413 352.511 501.673V574.723C352.511 582.973 345.821 589.673 337.561 589.673Z" fill="white" stroke="#E0E0E0" stroke-miterlimit="10" stroke-linejoin="round"/>
<path d="M328.59 516.543H308.3C304.82 516.543 301.99 513.723 301.99 510.233C301.99 506.753 304.81 503.923 308.3 503.923H328.59C332.07 503.923 334.9 506.743 334.9 510.233C334.89 513.723 332.07 516.543 328.59 516.543Z" fill="#E6E6E6"/>
<path d="M380.927 203.048C378.197 200.318 373.778 200.318 371.048 203.048C368.318 205.778 368.318 210.198 371.048 212.928L375.987 217.868L380.927 212.928C383.657 210.198 383.657 205.778 380.927 203.048ZM375.987 210.748C374.627 210.748 373.527 209.647 373.527 208.287C373.527 206.927 374.627 205.828 375.987 205.828C377.347 205.828 378.447 206.927 378.447 208.287C378.447 209.647 377.347 210.748 375.987 210.748Z" fill="#F55681"/>
<path d="M205.69 63.6231V116.773C205.69 121.573 201.8 125.463 197 125.463H99.1589L90.6289 138.263V117.173V63.6231C90.6289 58.8231 94.5188 54.9331 99.3188 54.9331L197 54.9331C201.8 54.9331 205.69 58.8231 205.69 63.6231Z" fill="#E6E6E6"/>
<path d="M109 92H189" stroke="white" stroke-width="2" stroke-miterlimit="10" stroke-linecap="round" stroke-linejoin="round"/>
<path d="M109 77H189" stroke="white" stroke-width="2" stroke-miterlimit="10" stroke-linecap="round" stroke-linejoin="round"/>
<path d="M109 107H160" stroke="white" stroke-width="2" stroke-miterlimit="10" stroke-linecap="round" stroke-linejoin="round"/>
<path d="M91.0103 186.563C88.3203 183.493 87.9504 181.433 87.6304 178.363C87.3204 175.283 87.5203 168.683 87.5203 168.683C87.5203 168.683 82.3403 167.413 80.2803 167.413C78.2203 167.413 66.9604 170.243 66.9604 170.243L50.5403 200.643L44.9004 216.753L70.8904 221.663L69.7104 209.443L78.4004 204.803L90.0303 197.523C90.0303 197.523 90.1904 194.413 90.1304 192.773C90.0604 191.113 92.3603 188.103 91.0103 186.563Z" fill="#FFB8B8" stroke="#FAA5A5" stroke-miterlimit="10" stroke-linejoin="round"/>
<path d="M24.5981 257.471L58.7704 301.985L52.8069 336.934C52.56 336.875 52.2285 336.793 51.8217 336.689C50.8601 336.445 49.4785 336.078 47.8013 335.59C44.4458 334.613 39.912 333.152 35.1936 331.216C30.4727 329.278 25.5828 326.871 21.5068 324.006C17.4231 321.135 14.206 317.838 12.7555 314.141C11.3027 310.438 11.2948 305.017 12.1528 298.892C13.008 292.787 14.7104 286.064 16.6049 279.803C18.4986 273.545 20.5804 267.763 22.189 263.545C22.9933 261.436 23.6789 259.719 24.1634 258.529C24.3347 258.108 24.4808 257.754 24.5981 257.471Z" fill="#E6E6E6" stroke="#E0E0E0"/>
<path d="M7.79004 584.413C7.79004 584.413 0.2 597.723 0 604.323C0 604.323 6.87009 614.013 39.3401 614.993C71.8101 615.973 69.4001 613.223 69.4001 613.223L70.54 607.113L36.28 592.713L7.79004 584.413Z" fill="#2F2E41"/>
<path d="M29.4292 400.403C29.4292 400.403 29.1392 451.053 32.9192 485.013C32.9192 485.013 22.6092 512.693 17.8992 543.873C13.1992 575.053 7.78906 584.413 7.78906 584.413C7.78906 584.413 15.6491 594.213 36.2791 592.713L59.979 452.863L29.4292 400.403Z" fill="#F55681"/>
<path d="M36.2107 604.393C36.2107 604.393 34.0704 611.453 34.5004 618.263C34.9204 625.073 70.4305 628.363 107.5 623.933C107.5 623.933 109.051 617.513 106.221 613.223C106.221 613.223 89.6705 610.603 83.6005 608.143C77.5405 605.693 72.8306 601.633 69.4006 601.493C65.9706 601.353 36.2107 604.393 36.2107 604.393Z" fill="#2F2E41"/>
<path d="M18.7896 379.523C18.7896 379.523 18.9497 371.283 26.9097 371.123C34.8697 370.963 30.6997 358.073 30.6997 358.073L19.7097 359.803C19.7097 359.803 17.1196 372.173 18.7896 379.523Z" fill="#E0E0E0"/>
<path d="M24.2705 360.063C24.2705 360.063 20.3406 383.523 27.8606 404.763C35.3706 426.003 38.1406 434.293 39.3306 447.763C40.5106 461.243 43.4407 489.083 45.6607 496.853C45.6607 496.853 32.3605 557.403 32.2605 605.633C32.2605 605.633 37.4505 610.813 52.2905 610.063C61.3405 609.603 69.4906 603.703 69.4006 601.493C69.4006 601.493 61.5405 584.983 65.0205 563.553C68.5005 542.123 87.2305 467.033 91.0205 437.673C94.8105 408.313 97.5907 372.783 96.4507 365.403C95.3007 358.043 24.2705 360.063 24.2705 360.063Z" fill="#F55681"/>
<path d="M96.6907 371.863C96.6807 371.843 94.9605 368.253 92.2605 362.843C76.8505 358.563 24.2705 360.063 24.2705 360.063C24.2705 360.063 20.3406 383.523 27.8606 404.763C35.3706 426.003 38.1406 434.293 39.3306 447.763C40.5106 461.243 43.4407 489.083 45.6607 496.853C45.6607 496.853 32.3605 557.403 32.2605 605.633C32.2605 605.633 37.4505 610.813 52.2905 610.073C55.0005 609.933 57.6305 609.303 59.9805 608.433C59.9805 608.433 40.9407 613.723 38.6707 601.493C28.5207 546.903 57.6207 508.143 50.4207 496.643C43.2207 485.143 53.0706 469.493 45.1106 438.043C37.1506 406.593 26.1605 385.993 34.2705 379.743C54.1405 364.393 96.6307 371.853 96.6907 371.863Z" fill="#D44E72"/>
<path d="M40.0392 219.953C40.0392 219.953 24.0592 232.833 24.5692 256.153C25.0692 279.473 32.1592 292.913 31.0192 313.853C29.8792 334.793 12.7692 355.533 18.7992 379.523C18.7992 379.523 17.7491 371.303 21.2291 363.593C21.2291 363.593 25.4793 369.223 25.8493 377.143C25.8493 377.143 69.5292 359.423 106.989 375.403C106.989 375.403 93.3094 345.293 96.9694 301.263L98.1994 276.583C98.1994 276.583 97.5093 260.963 88.8993 246.563L86.7291 239.173L65.0092 221.263L43.1994 216.733L40.0392 219.953Z" fill="white" stroke="#E0E0E0" stroke-linejoin="round"/>
<path d="M40.0391 219.953C40.0391 219.953 59.8492 219.553 76.4292 237.193L84.979 241.733L82.7092 245.993C82.7092 245.993 93.9692 259.143 96.9092 270.143C96.9092 270.143 94.7392 255.743 86.9692 245.043L86.3992 240.703L69.6292 226.283L52.8591 219.943L42.8191 218.423L40.0391 219.953Z" fill="#E6E6E6"/>
<path d="M59.299 239.393C59.299 239.393 71.3391 237.373 81.6691 247.893C91.9991 258.413 96.9091 270.143 96.9091 270.143L88.3891 277.823C88.3891 277.823 61.1992 258.593 59.9692 255.373C58.7392 252.153 59.299 239.393 59.299 239.393Z" fill="#E6E6E6"/>
<path d="M93.601 324.344C94.581 326.934 95.7809 329.424 97.0009 331.704C96.2109 322.624 96.0311 312.384 96.9511 301.264L97.2211 295.924L44.881 251.014C44.881 251.014 43.4011 272.424 67.4611 291.184C91.5211 309.944 90.011 314.894 93.601 324.344Z" fill="#E6E6E6"/>
<path d="M38.5898 213.264L40.0398 219.943C40.0398 219.943 57.8999 216.233 77.6099 236.163L86.0798 241.423L83.8699 245.813C83.8699 245.813 95.1399 255.883 98.1899 276.583C98.1899 276.583 100.1 251.493 79.7598 228.663C79.7598 228.663 78.32 218.914 76.45 216.734C74.59 214.544 60.6898 209.344 38.5898 213.264Z" fill="white" stroke="#E0E0E0" stroke-linejoin="round"/>
<path d="M140.17 243.693C140.17 243.693 143.98 245.303 147.46 249.093C150.94 252.883 154.68 257.073 154.74 258.583C154.8 260.083 145.58 261.793 145.26 261.603C144.94 261.413 139.57 256.493 139.54 254.023C139.51 251.553 140.17 243.693 140.17 243.693Z" fill="#E0E0E0"/>
<path d="M141.351 251.143C141.351 251.143 140.411 241.613 144.571 234.013C147.291 229.033 154.141 227.143 155.871 224.383C156.791 222.913 158.471 223.313 158.881 223.673C159.621 224.323 160.711 226.233 157.491 229.453C154.271 232.673 154.071 232.973 154.711 233.283C155.351 233.593 164.311 234.353 169.851 228.203C172.391 225.383 173.551 223.273 175.671 223.783C177.791 224.293 175.161 228.933 174.071 230.233C174.071 230.233 175.531 230.043 176.881 228.193C178.231 226.343 179.531 226.343 180.381 227.243C181.231 228.143 180.331 232.153 176.051 235.033C176.051 235.033 177.631 234.483 178.691 233.563C179.751 232.633 181.331 232.353 181.901 233.253C182.471 234.153 181.081 236.873 177.041 239.173C177.041 239.173 178.401 238.893 179.061 238.513C179.721 238.133 180.591 238.453 180.881 238.923C181.171 239.393 181.211 240.503 179.711 241.483C178.211 242.463 172.541 245.163 166.861 245.793C161.181 246.423 152.701 253.613 151.071 257.273C149.431 260.933 141.351 251.143 141.351 251.143Z" fill="#FFB8B8" stroke="#FAA5A5" stroke-miterlimit="10" stroke-linejoin="round"/>
<mask id="path-98-inside-1_33_3726" fill="white">
<path d="M45.2301 248.604C45.2301 248.604 40.1703 264.774 66.6703 287.594C93.1603 310.414 98.9301 315.424 116.48 308.524C125.75 304.884 154.74 258.574 154.74 258.574C154.74 258.574 144.93 254.454 140.17 243.684C140.17 243.684 112.89 278.524 103.88 276.564C94.8703 274.604 82.1604 234.944 57.7204 239.804"/>
</mask>
<path d="M45.2301 248.604C45.2301 248.604 40.1703 264.774 66.6703 287.594C93.1603 310.414 98.9301 315.424 116.48 308.524C125.75 304.884 154.74 258.574 154.74 258.574C154.74 258.574 144.93 254.454 140.17 243.684C140.17 243.684 112.89 278.524 103.88 276.564C94.8703 274.604 82.1604 234.944 57.7204 239.804" fill="white"/>
<path d="M66.6703 287.594L67.323 286.836L67.3229 286.836L66.6703 287.594ZM116.48 308.524L116.115 307.593L116.114 307.593L116.48 308.524ZM154.74 258.574L155.588 259.104L156.212 258.107L155.127 257.652L154.74 258.574ZM140.17 243.684L141.085 243.279L140.411 241.754L139.383 243.067L140.17 243.684ZM45.2301 248.604C44.2758 248.305 44.2755 248.306 44.2752 248.307C44.275 248.307 44.2747 248.308 44.2745 248.309C44.2739 248.311 44.2733 248.313 44.2727 248.315C44.2714 248.319 44.2697 248.325 44.2679 248.331C44.2641 248.344 44.2593 248.36 44.2535 248.381C44.242 248.422 44.2267 248.479 44.2089 248.551C44.1732 248.696 44.1272 248.902 44.08 249.168C43.9854 249.699 43.8859 250.468 43.8541 251.455C43.7905 253.43 43.9986 256.271 45.0541 259.826C47.167 266.941 52.6541 276.843 66.0178 288.351L67.3229 286.836C54.1866 275.524 48.9536 265.931 46.9714 259.256C45.9794 255.916 45.7961 253.289 45.8531 251.519C45.8816 250.633 45.9704 249.96 46.049 249.518C46.0884 249.297 46.1252 249.134 46.1507 249.03C46.1634 248.979 46.1734 248.942 46.1794 248.92C46.1824 248.91 46.1844 248.903 46.1853 248.9C46.1858 248.898 46.1859 248.898 46.1858 248.898C46.1857 248.898 46.1856 248.899 46.1854 248.899C46.1853 248.9 46.1851 248.9 46.185 248.901C46.1848 248.901 46.1845 248.902 45.2301 248.604ZM66.0177 288.351C79.2062 299.713 87.3994 306.794 94.5048 310.11C98.1048 311.79 101.458 312.524 105.061 312.372C108.642 312.222 112.411 311.198 116.846 309.454L116.114 307.593C111.774 309.299 108.241 310.237 104.977 310.374C101.734 310.511 98.6982 309.86 95.3507 308.297C88.5612 305.129 80.6245 298.295 67.323 286.836L66.0177 288.351ZM116.846 309.454C118.201 308.922 119.787 307.679 121.479 306.053C123.197 304.402 125.116 302.263 127.139 299.821C131.186 294.937 135.697 288.781 139.906 282.756C144.118 276.728 148.037 270.816 150.904 266.412C152.337 264.209 153.508 262.383 154.32 261.108C154.726 260.47 155.043 259.969 155.258 259.628C155.366 259.458 155.448 259.327 155.503 259.239C155.531 259.194 155.552 259.161 155.566 259.138C155.573 259.127 155.579 259.119 155.582 259.113C155.584 259.11 155.585 259.108 155.586 259.106C155.587 259.106 155.587 259.105 155.587 259.105C155.588 259.104 155.588 259.104 154.74 258.574C153.893 258.043 153.892 258.043 153.892 258.043C153.892 258.044 153.892 258.044 153.891 258.045C153.89 258.046 153.889 258.048 153.887 258.051C153.884 258.056 153.879 258.065 153.872 258.076C153.858 258.098 153.837 258.131 153.81 258.174C153.755 258.262 153.674 258.391 153.567 258.561C153.353 258.9 153.037 259.398 152.633 260.033C151.824 261.304 150.657 263.125 149.228 265.321C146.369 269.714 142.461 275.606 138.267 281.611C134.07 287.619 129.595 293.723 125.599 298.545C123.6 300.957 121.734 303.033 120.093 304.611C118.424 306.215 117.077 307.215 116.115 307.593L116.846 309.454ZM154.74 258.574C155.127 257.652 155.128 257.652 155.128 257.652C155.128 257.652 155.128 257.652 155.128 257.652C155.128 257.652 155.128 257.652 155.128 257.652C155.128 257.652 155.127 257.651 155.126 257.651C155.123 257.65 155.118 257.647 155.11 257.644C155.095 257.638 155.071 257.627 155.039 257.612C154.973 257.583 154.874 257.537 154.743 257.475C154.482 257.349 154.098 257.155 153.62 256.888C152.663 256.354 151.332 255.53 149.855 254.379C146.898 252.073 143.381 248.474 141.085 243.279L139.256 244.088C141.72 249.663 145.487 253.509 148.625 255.956C150.196 257.18 151.615 258.06 152.646 258.635C153.162 258.923 153.581 259.135 153.875 259.276C154.022 259.347 154.138 259.4 154.219 259.437C154.259 259.455 154.291 259.469 154.314 259.479C154.325 259.483 154.334 259.487 154.34 259.49C154.344 259.492 154.346 259.493 154.348 259.494C154.349 259.494 154.35 259.494 154.351 259.495C154.351 259.495 154.352 259.495 154.352 259.495C154.353 259.495 154.353 259.496 154.74 258.574ZM140.17 243.684C139.383 243.067 139.383 243.067 139.383 243.067C139.383 243.068 139.382 243.068 139.382 243.068C139.381 243.069 139.38 243.071 139.378 243.073C139.375 243.077 139.371 243.083 139.364 243.091C139.351 243.107 139.332 243.132 139.306 243.165C139.255 243.23 139.179 243.326 139.078 243.453C138.878 243.706 138.582 244.077 138.201 244.55C137.441 245.495 136.344 246.843 134.999 248.456C132.308 251.683 128.63 255.961 124.675 260.174C120.714 264.394 116.5 268.521 112.736 271.465C110.852 272.938 109.112 274.09 107.597 274.81C106.052 275.545 104.891 275.76 104.093 275.586L103.668 277.541C105.122 277.857 106.784 277.412 108.456 276.616C110.157 275.807 112.027 274.558 113.968 273.041C117.852 270.003 122.148 265.788 126.133 261.543C130.124 257.291 133.829 252.982 136.535 249.737C137.888 248.114 138.993 246.756 139.76 245.804C140.143 245.327 140.442 244.952 140.645 244.696C140.747 244.567 140.825 244.469 140.877 244.402C140.904 244.369 140.924 244.344 140.937 244.326C140.944 244.318 140.949 244.311 140.952 244.307C140.954 244.305 140.955 244.303 140.956 244.302C140.957 244.301 140.957 244.301 140.957 244.301C140.958 244.3 140.958 244.3 140.17 243.684ZM104.093 275.586C103.256 275.404 102.242 274.742 101.021 273.516C99.8202 272.311 98.526 270.671 97.1132 268.722C94.3323 264.887 91.0561 259.789 87.3788 255.016C80.0244 245.469 70.3866 236.265 57.5253 238.823L57.9154 240.784C69.4942 238.482 78.4313 246.678 85.7944 256.236C89.4758 261.015 92.594 265.897 95.494 269.896C96.9216 271.866 98.2896 273.608 99.6039 274.928C100.898 276.227 102.252 277.233 103.668 277.541L104.093 275.586Z" fill="#E0E0E0" mask="url(#path-98-inside-1_33_3726)"/>
<path d="M53.4902 322.863C53.4902 322.863 61.8703 351.083 92.3203 351.403C96.0603 351.443 98.0203 346.583 87.7903 343.543C77.5603 340.513 60.4302 331.873 53.4902 322.863Z" fill="#E6E6E6"/>
<path d="M174.061 230.243C173.431 231.013 169.481 234.993 166.891 235.513" stroke="#FAA5A5" stroke-miterlimit="10" stroke-linecap="round" stroke-linejoin="round"/>
<path d="M176.04 235.043C176.04 235.043 171.89 237.464 168.85 237.884" stroke="#FAA5A5" stroke-miterlimit="10" stroke-linecap="round" stroke-linejoin="round"/>
<path d="M177.031 239.173C175.741 239.863 172.481 240.883 171.381 241.003" stroke="#FAA5A5" stroke-miterlimit="10" stroke-linecap="round" stroke-linejoin="round"/>
<path d="M85.0599 416.213C85.1699 415.083 84.2598 474.823 76.9998 472.683C69.7298 470.543 80.5399 462.183 85.0599 416.213Z" fill="#D44E72"/>
<path d="M115.9 270.153C115.88 270.173 115.86 270.183 115.83 270.203C115.87 270.173 115.9 270.153 115.9 270.153Z" fill="#E0E0E0"/>
<path d="M105.23 283.293C104.94 280.013 111.32 274.073 114.35 271.453C110.12 274.913 106.33 277.103 103.88 276.563C102.61 276.283 101.27 275.263 99.8398 273.733C105.32 280.663 105.57 287.233 105.23 283.293Z" fill="#E6E6E6"/>
<path d="M98.2505 271.883C98.0005 271.563 97.7405 271.233 97.4805 270.903C97.6805 271.213 97.9205 271.533 98.2405 271.873C98.2405 271.883 98.2405 271.883 98.2505 271.883Z" fill="#E0E0E0"/>
<path d="M46.991 157.053C42.891 158.763 42.2211 162.363 38.6211 161.893C38.6211 161.893 40.5111 163.123 44.8711 161.423C49.2411 159.713 46.991 157.053 46.991 157.053Z" fill="#A0616A"/>
<path d="M85.3596 183.463C85.9174 183.463 86.3696 183.011 86.3696 182.453C86.3696 181.896 85.9174 181.443 85.3596 181.443C84.8018 181.443 84.3496 181.896 84.3496 182.453C84.3496 183.011 84.8018 183.463 85.3596 183.463Z" fill="#864B53"/>
<path d="M88.0104 177.183C88.1604 177.903 87.5905 178.633 85.5605 179.053C83.5305 179.473 80.8206 179.433 80.6706 178.713C80.5206 177.993 82.9904 176.873 85.0104 176.453C87.0504 176.033 87.8604 176.463 88.0104 177.183Z" fill="#864B53"/>
<path d="M86.5698 192.683C83.7398 194.323 81.6999 198.123 79.3999 197.443C78.4799 197.173 76.5499 195.923 74.6999 194.313C74.6899 194.273 72.6698 186.983 73.8498 181.203L75.6399 179.673C76.0999 178.973 76.2999 178.123 76.1899 177.293L75.5598 172.203C75.6398 172.183 75.6899 172.163 75.6899 172.163C75.6899 172.163 88.0397 174.333 90.7797 168.203C93.6097 161.883 91.4398 157.213 88.8498 155.453C82.5498 151.153 77.2598 153.373 71.1198 156.773C71.1198 156.773 55.7397 153.503 46.9897 157.053C44.3297 158.133 42.7199 162.693 40.8999 166.343C40.8899 166.373 40.8698 166.403 40.8598 166.433C39.0198 170.083 39.0598 174.393 41.0698 177.953C43.9398 183.033 47.7999 191.063 49.9599 200.543L58.5598 201.813C60.9198 202.163 63.2597 201.083 64.5297 199.063L69.0798 191.853L66.7397 189.613C66.7397 189.613 62.9698 186.673 63.7998 183.453C64.6298 180.253 67.3998 178.973 69.8698 180.853C69.9498 180.913 70.0298 180.983 70.0998 181.043C70.1698 181.103 70.2498 181.163 70.3098 181.233C70.3698 181.293 70.4297 181.353 70.4897 181.413C71.0397 181.993 71.3199 182.553 71.4499 182.883C71.4799 182.973 71.5198 183.073 71.5498 183.173C72.1898 185.933 69.2998 191.853 69.0798 191.853C69.0798 191.853 67.3498 210.093 75.1198 214.443C75.9498 214.903 76.8898 215.133 77.8398 215.193C85.0898 215.603 89.4499 213.753 89.8999 208.063C90.0899 205.613 90.3099 202.793 90.4299 200.253C90.4599 199.603 91.0198 199.003 91.0398 198.403C91.1298 195.503 91.0598 193.293 90.6098 193.023C89.5098 192.353 87.1798 192.333 86.5698 192.683Z" fill="#A0616A"/>
<path d="M61.7598 196.853C59.5298 197.463 57.0398 197.433 55.0098 196.333C52.9998 195.243 51.6898 193.303 50.4998 191.293C50.1698 190.733 49.8498 190.173 49.5298 189.623C47.4398 186.083 44.9298 182.803 42.0898 179.823C44.7998 184.903 48.04 192.143 49.95 200.533L58.5498 201.803C60.9098 202.153 63.2498 201.073 64.5198 199.053L67.8499 193.773C65.9599 195.063 63.9598 196.243 61.7598 196.853Z" fill="#864B53"/>
<path d="M86.5105 169.243C83.2305 171.203 79.3805 172.203 75.5605 172.083C75.5905 172.113 75.6306 172.143 75.6606 172.173C75.6706 172.173 75.6907 172.163 75.6907 172.163C75.6907 172.163 88.0405 174.333 90.7805 168.203C92.0405 165.383 92.3005 162.893 91.9805 160.843C91.9905 161.353 91.9806 161.863 91.9106 162.363C91.4406 165.343 89.0905 167.693 86.5105 169.243Z" fill="#864B53"/>
<circle cx="609.5" cy="458.5" r="47" fill="white" stroke="#E6E6E6"/>
<path d="M616.955 449.433L615.945 452.457C615.74 453.076 615.163 453.49 614.509 453.49H590.073C589.04 453.49 588.31 454.5 588.637 455.481C588.842 456.099 589.419 456.514 590.073 456.514H612.495C613.528 456.514 614.258 457.524 613.931 458.504L609.897 470.605C609.693 471.224 609.115 471.639 608.461 471.639H588.736C588.083 471.639 587.505 471.224 587.3 470.605L586.291 467.582C585.964 466.601 586.693 465.591 587.727 465.591H604.101C604.749 465.591 605.326 465.177 605.537 464.558C605.864 463.577 605.134 462.567 604.101 462.567H585.713C585.059 462.567 584.481 462.153 584.277 461.534L580.243 449.433C579.916 448.452 580.646 447.442 581.679 447.442H615.519C616.552 447.442 617.282 448.458 616.955 449.433Z" fill="#F55681"/>
<path d="M632.727 449.433L631.717 452.457C631.513 453.076 630.935 453.49 630.281 453.49H624.998L627.012 447.443H631.285C632.324 447.443 633.054 448.459 632.727 449.433Z" fill="#F55681"/>
<path d="M638.922 440.362L637.912 443.386C637.708 444.005 637.13 444.419 636.476 444.419H628.029L629.354 440.438C629.763 439.206 630.919 438.372 632.221 438.372H637.486C638.519 438.372 639.249 439.381 638.922 440.362Z" fill="#F55681"/>
<path d="M619.715 453.496H624.998L619.294 470.611C619.09 471.23 618.512 471.645 617.858 471.645H614.671C613.638 471.645 612.908 470.635 613.235 469.654L618.279 454.529C618.483 453.911 619.061 453.496 619.715 453.496Z" fill="#F55681"/>
<path d="M628.02 444.419L627.011 447.443H622.732C621.698 447.443 620.969 446.433 621.296 445.452C621.5 444.833 622.078 444.419 622.732 444.419H628.02Z" fill="#F55681"/>
<path d="M614.614 478.679C615.952 478.679 617.036 477.594 617.036 476.257C617.036 474.919 615.952 473.834 614.614 473.834C613.276 473.834 612.191 474.919 612.191 476.257C612.191 477.594 613.276 478.679 614.614 478.679Z" fill="#F55681"/>
<path d="M598.6 478.679C599.938 478.679 601.023 477.594 601.023 476.257C601.023 474.919 599.938 473.834 598.6 473.834C597.262 473.834 596.178 474.919 596.178 476.257C596.178 477.594 597.262 478.679 598.6 478.679Z" fill="#F55681"/>
<path d="M479 339C487.837 339 495 331.837 495 323C495 314.163 487.837 307 479 307C470.163 307 463 314.163 463 323C463 331.837 470.163 339 479 339Z" fill="#515667"/>
<path d="M484.626 325.203C484.521 324.901 484.366 324.614 484.17 324.343C483.975 324.071 483.739 323.823 483.462 323.598C483.185 323.374 482.875 323.172 482.533 323.002C483.225 322.684 483.763 322.265 484.138 321.73C484.512 321.203 484.7 320.614 484.7 319.978C484.7 319.366 484.578 318.792 484.341 318.258C484.105 317.723 483.771 317.258 483.356 316.87C482.94 316.475 482.452 316.165 481.89 315.94C481.523 315.793 481.132 315.692 480.725 315.645H480.782V313.754H479.283V315.583L479.698 315.599H478.33V313.754H476.831V315.591L472.986 315.583V317.32H474.485V328.916H472.986V330.621H476.831V332.28H478.33V330.621H479.283V332.28H480.782V330.621H480.179C480.814 330.621 481.417 330.505 481.971 330.273C482.533 330.04 483.014 329.722 483.429 329.319C483.844 328.916 484.17 328.443 484.415 327.901C484.651 327.358 484.773 326.777 484.773 326.149C484.789 325.815 484.732 325.505 484.626 325.203ZM476.538 317.296H480.114C480.44 317.296 480.749 317.374 481.034 317.521C481.319 317.676 481.572 317.87 481.792 318.118C482.004 318.366 482.175 318.637 482.305 318.955C482.427 319.265 482.492 319.591 482.492 319.909C482.492 320.203 482.427 320.49 482.305 320.769C482.183 321.048 482.012 321.288 481.8 321.505C481.588 321.715 481.336 321.885 481.05 322.009C480.765 322.133 480.456 322.195 480.122 322.195H476.546V317.296H476.538ZM482.386 327.172C482.264 327.498 482.093 327.784 481.881 328.04C481.67 328.296 481.417 328.497 481.132 328.66C480.847 328.815 480.537 328.901 480.203 328.901H476.53V323.932H480.203C480.529 323.932 480.839 323.994 481.124 324.118C481.409 324.242 481.661 324.412 481.873 324.622C482.085 324.831 482.256 325.071 482.378 325.343C482.5 325.614 482.566 325.893 482.566 326.187C482.574 326.521 482.509 326.846 482.386 327.172Z" fill="white"/>
<path d="M653 437C663.493 437 672 428.493 672 418C672 407.507 663.493 399 653 399C642.507 399 634 407.507 634 418C634 428.493 642.507 437 653 437Z" fill="#F55681"/>
<path d="M646.352 418.066L652.847 422.095L659.652 418.191L652.847 406.963L646.352 418.066Z" fill="white"/>
<path d="M646.352 419.676L652.905 429.024L659.652 419.512L652.847 423.656L646.352 419.676Z" fill="white"/>
<circle cx="435.5" cy="433.5" r="36.5" transform="rotate(90 435.5 433.5)" fill="#F55681"/>
<path d="M447.813 445.24H422.398C421.077 445.24 420 444.163 420 442.841V428.86C420 427.538 421.077 426.461 422.398 426.461H447.813C449.135 426.461 450.212 427.538 450.212 428.86V442.841C450.212 444.163 449.135 445.24 447.813 445.24Z" fill="white"/>
<path d="M434.641 442.89C438.445 442.89 441.529 439.806 441.529 436.001C441.529 432.197 438.445 429.113 434.641 429.113C430.836 429.113 427.752 432.197 427.752 436.001C427.752 439.806 430.836 442.89 434.641 442.89Z" fill="#F55681"/>
<path d="M434.642 440.082C436.896 440.082 438.723 438.255 438.723 436.001C438.723 433.747 436.896 431.919 434.642 431.919C432.388 431.919 430.561 433.747 430.561 436.001C430.561 438.255 432.388 440.082 434.642 440.082Z" fill="white"/>
<path d="M445.62 430.741C446.478 430.741 447.173 430.045 447.173 429.187C447.173 428.329 446.478 427.634 445.62 427.634C444.762 427.634 444.066 428.329 444.066 429.187C444.066 430.045 444.762 430.741 445.62 430.741Z" fill="#F55681"/>
<path d="M438.342 426.463H430.022C429.136 426.463 428.414 425.74 428.414 424.855C428.414 423.969 429.136 423.247 430.022 423.247H438.342C439.227 423.247 439.95 423.969 439.95 424.855C439.95 425.74 439.234 426.463 438.342 426.463Z" fill="white"/>
<path d="M443.658 424.795C444.109 424.508 444.006 423.542 443.43 422.637C442.853 421.733 442.02 421.233 441.57 421.52C441.119 421.808 441.221 422.774 441.798 423.678C442.375 424.582 443.208 425.082 443.658 424.795Z" fill="white"/>
<path d="M446.541 424.437C447.242 423.99 447.63 423.344 447.407 422.995C447.185 422.646 446.436 422.726 445.735 423.173C445.033 423.62 444.645 424.265 444.868 424.614C445.09 424.963 445.839 424.884 446.541 424.437Z" fill="white"/>
<path d="M477.924 433.253C478.59 433.638 478.59 434.6 477.924 434.985L469.788 439.682C469.122 440.067 468.288 439.586 468.288 438.816L468.288 429.422C468.288 428.652 469.122 428.171 469.788 428.556L477.924 433.253Z" fill="#F55681"/>
<ellipse cx="512.5" cy="162.5" rx="26.5" ry="26.5" transform="rotate(-180 512.5 162.5)" fill="#515667"/>
<path d="M512.885 192.313C512.511 193.027 511.489 193.027 511.115 192.313L508.439 187.215C508.089 186.549 508.572 185.75 509.324 185.75L514.676 185.75C515.428 185.75 515.911 186.549 515.561 187.215L512.885 192.313Z" fill="#515667"/>
<mask id="path-138-inside-2_33_3726" fill="white">
<path fill-rule="evenodd" clip-rule="evenodd" d="M561.5 272C545.208 272 532 285.208 532 301.5C532 316.391 543.033 328.705 557.37 330.713L560.134 335.5C560.519 336.167 561.481 336.167 561.866 335.5L564.554 330.844C579.412 329.316 591 316.761 591 301.5C591 285.208 577.792 272 561.5 272Z"/>
</mask>
<path fill-rule="evenodd" clip-rule="evenodd" d="M561.5 272C545.208 272 532 285.208 532 301.5C532 316.391 543.033 328.705 557.37 330.713L560.134 335.5C560.519 336.167 561.481 336.167 561.866 335.5L564.554 330.844C579.412 329.316 591 316.761 591 301.5C591 285.208 577.792 272 561.5 272Z" fill="white"/>
<path d="M532 301.5H533H532ZM561.5 272V271V272ZM557.37 330.713L558.236 330.213L557.992 329.791L557.509 329.723L557.37 330.713ZM560.134 335.5L559.268 336H559.268L560.134 335.5ZM561.866 335.5L562.732 336H562.732L561.866 335.5ZM564.554 330.844L564.452 329.849L563.944 329.901L563.688 330.344L564.554 330.844ZM533 301.5C533 285.76 545.76 273 561.5 273V271C544.655 271 531 284.655 531 301.5H533ZM557.509 329.723C543.659 327.783 533 315.885 533 301.5H531C531 316.896 542.407 329.627 557.232 331.704L557.509 329.723ZM561 335L558.236 330.213L556.504 331.213L559.268 336L561 335ZM561 335H561L559.268 336C560.038 337.333 561.962 337.333 562.732 336L561 335ZM563.688 330.344L561 335L562.732 336L565.42 331.344L563.688 330.344ZM590 301.5C590 316.243 578.805 328.373 564.452 329.849L564.657 331.839C580.019 330.258 592 317.279 592 301.5H590ZM561.5 273C577.24 273 590 285.76 590 301.5H592C592 284.655 578.345 271 561.5 271V273Z" fill="#E0E0E0" mask="url(#path-138-inside-2_33_3726)"/>
<path d="M565.993 312H551V293.15C551 291.961 551.979 291 553.19 291H563.81C565.021 291 566 291.961 566 293.15V312H565.993Z" fill="#F55681"/>
<path d="M571 312H566V298H569.838C570.48 298 571 298.658 571 299.471V312Z" fill="#D44E72"/>
<path d="M549 311L573 311" stroke="#F55681" stroke-width="2" stroke-miterlimit="10" stroke-linecap="round" stroke-linejoin="round"/>
<path d="M556 296L561 296" stroke="white" stroke-width="2" stroke-miterlimit="10" stroke-linecap="round" stroke-linejoin="round"/>
<path d="M556 301H561" stroke="white" stroke-width="2" stroke-miterlimit="10" stroke-linecap="round" stroke-linejoin="round"/>
<path d="M556 307L561 307" stroke="white" stroke-width="2" stroke-miterlimit="10" stroke-linecap="round" stroke-linejoin="round"/>
<path d="M512.571 159.833C512.571 159.833 505.819 162.551 508.284 170.921L512.571 170.41C512.571 170.41 509.3 164.721 513.803 160.555L512.571 159.833Z" fill="white"/>
<path d="M505.518 173.455H518.738C518.738 173.455 517.774 169.352 512.707 169.352C507.64 169.352 505.971 171.19 505.518 173.455Z" fill="white"/>
<path d="M513.186 157.869C513.186 157.869 512.037 160.771 513.428 163.805C515.019 167.271 517.889 167.113 517.889 167.113C517.889 167.113 518.174 164.637 516.783 161.63C515.398 158.617 513.186 157.869 513.186 157.869Z" fill="white"/>
<path d="M513.592 161.93C514.386 161.93 515.03 161.286 515.03 160.492C515.03 159.698 514.386 159.054 513.592 159.054C512.798 159.054 512.154 159.698 512.154 160.492C512.154 161.286 512.798 161.93 513.592 161.93Z" fill="#E0E0E0"/>
<path d="M521.629 157.795C521.629 157.795 519.096 156.152 515.962 156.894C512.375 157.737 511.975 160.492 511.975 160.492C511.975 160.492 514.266 161.234 517.384 160.492C520.497 159.749 521.629 157.795 521.629 157.795Z" fill="white"/>
<path d="M509.663 150C509.663 150 508.346 152.713 509.468 155.736C510.753 159.191 513.534 159.244 513.534 159.244C513.534 159.244 513.987 156.874 512.866 153.877C511.744 150.88 509.663 150 509.663 150Z" fill="white"/>
<path d="M513.961 159.049C513.961 159.049 511.217 157.074 507.661 157.732C503.595 158.485 503 161.545 503 161.545C503 161.545 505.528 162.504 509.057 161.84C512.586 161.177 513.961 159.049 513.961 159.049Z" fill="white"/>
<path d="M519.303 155.209C520.588 155.209 521.631 154.167 521.631 152.881C521.631 151.595 520.588 150.553 519.303 150.553C518.017 150.553 516.975 151.595 516.975 152.881C516.975 154.167 518.017 155.209 519.303 155.209Z" fill="white"/>
</svg>
