<svg width="576" height="508" viewBox="0 0 576 508" fill="none" xmlns="http://www.w3.org/2000/svg">
<circle cx="198" cy="99.8701" r="25" fill="#21202F"/>
<circle cx="275" cy="144.87" r="38" fill="#E6E6E6"/>
<path d="M287.519 149.84C287.389 150.56 287.129 151.2 286.759 151.76C286.439 152.25 285.959 152.69 285.319 153.09C284.679 153.49 283.809 153.68 282.719 153.68C281.999 153.68 281.319 153.63 280.679 153.54C280.039 153.45 279.469 153.29 278.979 153.06C278.489 152.83 278.089 152.54 277.779 152.17C277.469 151.8 277.279 151.35 277.229 150.83C277.169 150.3 277.249 149.75 277.459 149.17C277.669 148.59 277.979 148.07 278.389 147.6C278.809 147.13 279.309 146.74 279.899 146.44C280.489 146.14 281.139 145.99 281.839 145.99C283.029 145.99 284.069 146.2 284.949 146.61V134.78L272.099 136.65L272.209 152.41V153.12C272.209 153.69 272.099 154.24 271.869 154.78C271.639 155.32 271.329 155.79 270.919 156.21C270.509 156.63 270.019 156.96 269.449 157.2C268.869 157.45 268.239 157.57 267.539 157.57C266.789 157.57 266.089 157.5 265.449 157.36C264.809 157.22 264.239 157.01 263.749 156.74C263.259 156.47 262.859 156.13 262.559 155.72C262.259 155.31 262.079 154.85 262.019 154.32C261.959 153.79 262.039 153.28 262.249 152.78C262.459 152.28 262.769 151.83 263.199 151.44C263.619 151.04 264.129 150.71 264.729 150.44C265.319 150.17 265.969 149.99 266.669 149.92C267.199 149.84 267.719 149.84 268.229 149.91C268.739 149.98 269.219 150.08 269.669 150.24V134.45L287.529 131.87V149.84H287.519Z" fill="white"/>
<path d="M532.06 111.41H364.57V125.05H532.06V111.41Z" fill="white" stroke="#E0E0E0" stroke-miterlimit="10" stroke-linejoin="round"/>
<path d="M465.131 52.04H450.461V111.41H465.131V52.04Z" fill="white" stroke="#E0E0E0" stroke-miterlimit="10" stroke-linejoin="round"/>
<path d="M484.821 57.6001H465.131V111.41H484.821V57.6001Z" fill="#E0E0E0"/>
<path d="M502 50.0205H484.82V111.411H502V50.0205Z" fill="white" stroke="#E0E0E0" stroke-miterlimit="10" stroke-linejoin="round"/>
<path d="M519.18 40.4204H502V111.41H519.18V40.4204Z" fill="#E0E0E0"/>
<path d="M403.05 39.5103C414.33 50.7903 414.33 69.0803 403.05 80.3603C391.77 69.0803 391.77 50.7903 403.05 39.5103Z" fill="#E0E0E0"/>
<path d="M402.175 79.3256C402.441 65.6126 413.512 54.5412 427.225 54.2754C426.959 67.9884 415.888 79.0598 402.175 79.3256Z" fill="white" stroke="#E0E0E0"/>
<path d="M377.641 53.7705C377.641 68.1605 389.311 79.8305 403.701 79.8305C403.701 65.4405 392.031 53.7705 377.641 53.7705Z" fill="white" stroke="#E0E0E0" stroke-miterlimit="10" stroke-linejoin="round"/>
<path d="M402.681 111.41C393.761 111.41 386.271 104.71 385.291 95.84L383.641 81.01C383.491 79.67 384.541 78.5 385.881 78.5H419.481C420.821 78.5 421.871 79.67 421.721 81.01L420.071 95.84C419.091 104.7 411.601 111.41 402.681 111.41Z" fill="#E6E6E6"/>
<path d="M188.397 108.183H186.146C185.462 108.183 184.91 107.631 184.91 106.948V100.071C184.91 99.3881 185.462 98.8359 186.146 98.8359H188.397C189.08 98.8359 189.633 99.3881 189.633 100.071V106.948C189.633 107.631 189.077 108.183 188.397 108.183Z" fill="white" stroke="white" stroke-width="2" stroke-miterlimit="10" stroke-linejoin="round"/>
<path d="M210.264 108.183H208.013C207.33 108.183 206.777 107.631 206.777 106.948V100.071C206.777 99.3881 207.33 98.8359 208.013 98.8359H210.264C210.948 98.8359 211.5 99.3881 211.5 100.071V106.948C211.5 107.631 210.948 108.183 210.264 108.183Z" fill="white" stroke="white" stroke-width="2" stroke-miterlimit="10" stroke-linejoin="round"/>
<path d="M189.633 105.99V96.2951C189.633 91.5604 193.471 87.7227 198.205 87.7227C202.94 87.7227 206.778 91.5604 206.778 96.2951V105.99" stroke="white" stroke-width="2" stroke-miterlimit="10" stroke-linecap="round" stroke-linejoin="round"/>
<path d="M192.406 103.51H196.299L197.379 100.014L199.92 106.844L201.192 103.51H203.773" stroke="white" stroke-width="2" stroke-miterlimit="10" stroke-linecap="round" stroke-linejoin="round"/>
<path d="M372.77 76.4804C372.63 76.4604 372.5 76.3604 372.39 76.1704C372.28 75.9904 372.19 75.6504 372.13 75.1604C372.03 74.3604 371.77 73.7803 371.35 73.4003C370.93 73.0203 370.28 72.7503 369.4 72.5903C368.48 72.4103 367.67 72.0304 366.96 71.4704C366.26 70.9104 365.67 70.3803 365.2 69.8903C364.75 69.4603 364.4 69.3103 364.16 69.4303C363.92 69.5503 363.79 69.7804 363.79 70.1004V74.3004C363.79 75.4404 363.79 76.6803 363.77 78.0103C363.76 79.3403 363.75 80.5903 363.75 81.7803V86.6503C363.77 87.1403 363.69 87.6904 363.52 88.2904C363.35 88.8904 363.02 89.4604 362.54 89.9904C362.06 90.5204 361.42 90.9804 360.62 91.3504C359.82 91.7304 358.83 91.9503 357.65 92.0103C356.44 92.0703 355.36 91.8603 354.39 91.3703C353.42 90.8803 352.67 90.2603 352.14 89.5203C351.61 88.7703 351.35 87.9603 351.36 87.0703C351.37 86.1803 351.75 85.3503 352.51 84.5703C353.27 83.7903 354.08 83.2503 354.96 82.9503C355.84 82.6403 356.69 82.4703 357.5 82.4403C358.32 82.4103 359.05 82.4704 359.69 82.6104C360.33 82.7504 360.81 82.8903 361.11 83.0103V74.3403C361.11 71.9303 361.12 69.2103 361.14 66.1903C361.14 65.6003 361.29 65.1104 361.6 64.7304C361.91 64.3504 362.32 64.1303 362.83 64.0703C363.26 64.0103 363.61 64.1003 363.89 64.3303C364.17 64.5603 364.45 64.8903 364.73 65.3103C365.02 65.7303 365.37 66.2004 365.79 66.7304C366.21 67.2604 366.78 67.7804 367.49 68.2904C368.1 68.7604 368.64 69.1004 369.1 69.3004C369.56 69.5004 369.99 69.6903 370.39 69.8703C370.79 70.0403 371.18 70.2503 371.57 70.5003C371.96 70.7503 372.39 71.1403 372.86 71.7003C373.33 72.2303 373.62 72.7804 373.72 73.3504C373.82 73.9204 373.83 74.4404 373.74 74.9104C373.65 75.3804 373.5 75.7603 373.3 76.0603C373.08 76.3603 372.91 76.5004 372.77 76.4804Z" fill="#F55681"/>
<path d="M241.25 8.69V40.58C241.25 45.38 245.14 49.27 249.94 49.27H331.19L339.72 62.07V40.98V8.69C339.72 3.89 335.83 0 331.03 0H249.94C245.15 0 241.25 3.89 241.25 8.69Z" fill="#E6E6E6"/>
<path d="M321.77 16.0303H256.6" stroke="white" stroke-width="2" stroke-miterlimit="10" stroke-linecap="round"/>
<path d="M321.77 31.04H290.49" stroke="white" stroke-width="2" stroke-miterlimit="10" stroke-linecap="round"/>
<path d="M525 260.87C533.837 260.87 541 253.707 541 244.87C541 236.034 533.837 228.87 525 228.87C516.163 228.87 509 236.034 509 244.87C509 253.707 516.163 260.87 525 260.87Z" fill="#2F2E41"/>
<path d="M519.4 244.926L524.871 248.318L530.6 245.031L524.871 235.576L519.4 244.926Z" fill="white"/>
<path d="M519.4 246.281L524.919 254.154L530.6 246.143L524.871 249.633L519.4 246.281Z" fill="white"/>
<path d="M413.893 211.01C419.607 211.01 424.233 215.646 424.223 221.349L423.943 450.91C423.924 466.324 411.417 478.81 396.003 478.81H1.63974C0.0606683 454.705 12.2709 420.697 37.1854 391.163C49.694 376.335 72.7795 359.818 97.4264 344.66C122.058 329.512 148.194 315.754 166.758 306.437C204.068 287.711 219.826 251.553 220.613 231.75C221 222.013 223.787 216.875 227.248 214.148C230.726 211.408 234.995 211.01 238.563 211.01H413.893Z" fill="white" stroke="#E0E0E0"/>
<path d="M1.17329 479.82C0.913287 479.82 0.693287 479.62 0.673287 479.36C-1.22671 453.39 12.8033 418.52 36.4133 390.53C61.6033 360.68 128.603 324.48 166.303 305.56C203.743 286.77 218.873 250.3 219.603 231.73C220.373 212.31 230.743 210.04 238.483 210.03C238.753 210.03 238.983 210.25 238.983 210.53C238.983 210.81 238.763 211.03 238.493 211.03C237.883 211.04 223.653 211.53 223.633 237.55C223.623 252.22 222.533 267 209.503 286.44C194.253 309.2 164.743 334.76 119.313 364.6C54.0633 407.44 54.0933 453.3 54.1033 477.93V479C54.1033 479.17 54.0233 479.32 53.8833 479.42L53.3933 479.75C53.3133 479.8 53.2133 479.83 53.1133 479.83H1.17329V479.82Z" fill="#E6E6E6"/>
<path d="M238.493 210.51C237.413 210.52 223.163 211.22 223.143 237.53C223.123 264.88 220.403 297.61 119.043 364.16C52.6031 407.79 53.6131 454.73 53.6131 478.98L53.1231 479.31H1.17309C-0.60691 455.01 11.6731 420.62 36.8031 390.83C61.9331 361.04 129.403 324.62 166.533 305.98C203.673 287.34 219.333 251.35 220.113 231.72C220.893 212.16 231.313 210.52 238.493 210.51ZM238.493 209.51C230.553 209.52 219.903 211.83 219.113 231.69C218.683 242.59 213.823 256.43 206.113 268.7C199.293 279.56 186.803 294.7 166.083 305.09C128.353 324.03 61.2731 360.27 36.0331 390.19C23.9731 404.48 14.2731 420.59 7.96309 436.77C1.95309 452.18 -0.73691 466.92 0.17309 479.39C0.21309 479.91 0.64309 480.32 1.17309 480.32H53.1231C53.3231 480.32 53.5131 480.26 53.6831 480.15L54.1731 479.82C54.4531 479.63 54.6131 479.32 54.6131 478.99V477.92C54.6031 453.38 54.5731 407.7 119.593 365.01C165.083 335.14 194.633 309.53 209.923 286.71C223.033 267.15 224.133 252.29 224.143 237.54C224.153 226.98 226.563 219.15 231.103 214.9C234.553 211.67 238.113 211.53 238.503 211.52C239.053 211.51 239.493 211.06 239.493 210.51C239.493 209.96 239.043 209.51 238.493 209.51Z" fill="#E0E0E0"/>
<path d="M402.562 205.71C398.582 205.71 371.182 205.04 344.682 204.39C318.892 203.76 294.532 203.16 291.102 203.16C284.762 203.16 265.482 203.16 265.482 182.29C265.482 161.83 280.642 154.94 287.562 154.94C288.622 154.95 393.172 156.06 402.572 156.06C411.832 156.06 421.752 166.13 421.752 181.11C421.742 195.9 410.192 205.71 402.562 205.71Z" fill="white"/>
<path d="M287.553 155.45C287.553 155.45 393.053 156.57 402.563 156.57C412.073 156.57 421.243 167.12 421.243 181.13C421.243 195.14 410.323 205.22 402.563 205.22C394.803 205.22 298.153 202.67 291.103 202.67C284.053 202.67 265.983 202.17 265.983 182.3C265.983 162.43 280.533 155.45 287.553 155.45ZM287.553 154.45C280.483 154.45 264.973 161.46 264.973 182.3C264.973 191.24 268.503 197.48 275.453 200.84C281.313 203.67 288.173 203.67 291.093 203.67C294.523 203.67 318.883 204.27 344.663 204.9C371.163 205.55 398.563 206.22 402.553 206.22C410.383 206.22 422.233 196.21 422.233 181.13C422.233 167.28 413.223 155.57 402.553 155.57C393.163 155.57 288.613 154.46 287.563 154.45C287.563 154.45 287.563 154.45 287.553 154.45Z" fill="#E0E0E0"/>
<path d="M345.414 156.05C337.014 155.97 328.614 155.88 320.914 155.8C317.584 159.31 314.674 162.57 314.984 162.91C315.664 163.67 310.674 177.35 309.254 181.19C308.264 183.86 301.424 195.77 297.354 202.77C311.774 203.07 346.703 203.95 372.493 204.57C372.083 201.38 370.254 196.84 365.064 190.74C353.194 176.81 344.604 187.41 344.604 187.41C344.604 187.41 335.904 177.05 335.904 173.52C335.904 162.48 342.594 157.66 345.414 156.05Z" fill="#E0E0E0"/>
<path d="M99.1326 472.06C99.1326 472.06 100.033 488.29 94.6126 489.58C89.1926 490.87 39.9526 493.79 38.3126 488.16C36.6826 482.53 59.1226 474.84 72.9126 472.75C86.7026 470.65 99.1326 472.06 99.1326 472.06Z" fill="#2F2E41"/>
<path d="M86.8321 476.06C79.3621 476.06 72.9921 473.32 72.7221 473.2C72.5221 473.11 72.4021 472.91 72.4221 472.69C83.6521 362 96.7421 308.95 114.872 300.69C156.272 281.82 244.272 275.73 245.152 275.67C245.162 275.67 245.172 275.67 245.182 275.67C245.222 275.67 245.262 275.67 245.312 275.69L264.622 280.69C264.792 280.74 264.932 280.87 264.982 281.05C265.062 281.34 272.282 310.02 245.452 326.7C219.812 342.64 141.992 348.37 135.492 348.82C132.432 381.56 99.9421 471.32 99.6121 472.23C99.5721 472.33 99.5121 472.41 99.4321 472.47C96.0021 474.85 91.7721 476.06 86.8321 476.06Z" fill="#F55681"/>
<path d="M245.182 276.17L264.492 281.18C264.492 281.18 272.012 309.6 245.182 326.28C218.352 342.96 135.022 348.35 135.022 348.35C132.182 381.04 99.1323 472.06 99.1323 472.06C95.3423 474.71 90.9323 475.57 86.8223 475.57C79.3723 475.57 72.9123 472.75 72.9123 472.75C82.6223 377.08 94.8723 310.36 115.072 301.15C156.872 282.1 245.182 276.17 245.182 276.17ZM245.182 275.17C245.162 275.17 245.142 275.17 245.112 275.17C244.232 275.23 156.142 281.33 114.662 300.24C104.722 304.77 96.3623 322.45 89.0923 354.3C82.8423 381.66 77.2323 420.37 71.9223 472.64C71.8823 473.07 72.1223 473.48 72.5123 473.66C72.7823 473.78 79.2523 476.56 86.8223 476.56C91.8623 476.56 96.2023 475.32 99.7023 472.87C99.8723 472.75 100.002 472.59 100.072 472.39C100.402 471.49 132.632 382.43 135.932 349.28C145.282 348.64 220.112 343.03 245.702 327.12C259.882 318.3 264.502 306.21 265.872 297.62C267.362 288.33 265.522 281.21 265.442 280.91C265.352 280.56 265.072 280.29 264.722 280.2L245.412 275.19C245.352 275.18 245.262 275.17 245.182 275.17Z" fill="#D44E72"/>
<path d="M217.924 336.44L247.044 299.37C247.044 299.37 224.374 313.29 200.994 319.48C144.024 334.56 154.004 346.7 137.014 344.91C130.324 344.2 127.304 341.68 126.574 341.24C127.644 341.93 131.114 348.4 130.954 353.83C130.764 359.89 120.704 400.82 119.754 402.9C118.804 404.98 94.7638 466.94 85.2938 469.97C81.3938 471.22 78.7337 472.74 77.3438 474.22C82.7337 475.68 92.0138 477.04 99.1438 472.05C99.1438 472.05 132.194 381.03 135.034 348.34C135.024 348.35 183.054 345.24 217.924 336.44Z" fill="#D44E72"/>
<path d="M65.7329 493.39C65.7329 493.39 67.5929 497.61 62.1629 501.51C56.7329 505.41 49.8429 509.22 44.9629 507.49C40.0829 505.76 31.7729 497.06 19.8229 491.18C7.87294 485.3 4.84294 472.82 9.89294 472.74C14.9429 472.67 47.5629 480.01 47.5629 480.01L65.7329 493.39Z" fill="#2F2E41"/>
<path d="M331.922 291.88C331.922 291.88 338.282 340.32 292.482 354.51C246.682 368.7 175.372 378.56 175.372 378.56C175.372 378.56 162.682 396.1 146.092 412.49C129.502 428.88 68.4623 493.35 68.4623 493.35C68.4623 493.35 54.2923 496.95 47.5723 480.01C47.5723 480.01 120.422 365.17 151.502 342.12C182.572 319.07 216.662 326.87 248.052 298.48L268.412 288.01L331.922 291.88Z" fill="#F55681"/>
<path d="M331.923 291.88L271.113 288.17L249.224 284.46C249.224 284.46 261.494 308.54 313.034 302.48C322.704 302.48 328.634 313.23 323.324 321.32C320.954 324.94 317.384 328.8 312.094 332.67C291.434 347.76 191.394 381.3 170.174 372.4C170.174 372.4 175.384 377.05 151.464 401.44C127.544 425.83 74.2235 488.63 66.0435 490.34C57.8635 492.05 53.1035 488.71 53.1035 488.71C60.0435 495.5 68.4635 493.36 68.4635 493.36C68.4635 493.36 129.494 428.89 146.094 412.5C162.684 396.11 175.374 378.57 175.374 378.57C175.374 378.57 246.674 368.72 292.484 354.52C338.294 340.32 331.923 291.88 331.923 291.88Z" fill="#D44E72"/>
<path d="M331.922 291.88C331.922 291.88 338.282 340.32 292.482 354.51C246.682 368.7 175.372 378.56 175.372 378.56C175.372 378.56 162.682 396.1 146.092 412.49C129.502 428.88 68.4623 493.35 68.4623 493.35C68.4623 493.35 54.2923 496.95 47.5723 480.01C47.5723 480.01 120.422 365.17 151.502 342.12C182.572 319.07 216.662 326.87 248.052 298.48" stroke="#D44E72" stroke-miterlimit="10" stroke-linecap="round" stroke-linejoin="round"/>
<path d="M191.262 479.82C190.992 479.82 190.762 479.601 190.762 479.331L190.752 478.82C190.742 478.58 190.732 478.341 190.732 478.091C190.732 439.141 204.452 405.981 231.512 379.521C253.372 358.151 284.052 341 322.712 328.53C387.752 307.56 401.042 249.211 401.042 234.731C401.042 222.831 405.062 210.021 413.882 210.021C416.912 210.021 419.752 211.201 421.892 213.341C424.032 215.481 425.212 218.331 425.202 221.361L424.922 450.92C424.902 466.86 411.922 479.82 395.982 479.82H191.262V479.82Z" fill="white"/>
<path d="M413.892 210.51C419.872 210.51 424.722 215.36 424.722 221.35L424.442 450.91C424.422 466.6 411.692 479.31 396.002 479.31H191.262C191.252 478.9 191.232 478.5 191.232 478.08C191.232 393.3 255.712 350.65 322.872 329C390.032 307.35 401.552 247.07 401.552 234.73C401.552 222.38 405.772 210.51 413.892 210.51ZM413.892 209.51C404.722 209.51 400.552 222.58 400.552 234.72C400.552 249.12 387.312 307.17 322.562 328.04C283.832 340.53 253.082 357.72 231.162 379.14C204.002 405.7 190.232 438.98 190.232 478.07C190.232 478.32 190.242 478.57 190.252 478.82C190.262 478.99 190.262 479.15 190.262 479.32C190.272 479.87 190.712 480.31 191.262 480.31H396.002C412.212 480.31 425.422 467.12 425.442 450.91L425.722 221.35C425.722 218.19 424.502 215.22 422.262 212.98C420.032 210.75 417.052 209.51 413.892 209.51Z" fill="#E0E0E0"/>
<path d="M419.103 211.85C415.533 212.54 410.792 215.78 409.902 227.81C408.422 247.58 397.893 314.07 340.253 343.1C284.453 371.2 240.092 392.12 237.312 479.32H395.992C411.682 479.32 424.412 466.61 424.432 450.92L424.712 221.36C424.722 217.26 422.453 213.69 419.103 211.85Z" fill="#E6E6E6"/>
<path d="M305.732 179.1C305.732 179.1 283.562 176.67 271.962 183.26C260.372 189.85 244.462 205.59 240.742 212.02C240.742 212.02 240.992 227.27 253.432 233.67L263.092 230.58C263.092 230.58 255.832 263.01 242.952 273.61C242.952 273.61 247.512 297.91 291.362 299.54C327.462 300.88 331.932 291.88 331.932 291.88C331.932 291.88 331.812 279.99 342.802 242.21C342.802 242.21 356.872 247.27 371.812 237.31C371.812 237.31 369.772 200.47 358.292 184.95C354.922 180.4 333.422 178.74 328.922 179.65C324.422 180.57 305.732 179.1 305.732 179.1Z" fill="#E6E6E6"/>
<path d="M306.453 196.93C307.243 197.84 308.133 198.31 309.093 198.31C309.163 198.31 309.223 198.31 309.293 198.3C314.043 197.99 318.453 192.09 322.973 179.95C322.623 179.95 322.273 179.94 321.913 179.94C317.643 191.32 313.463 197.03 309.233 197.31C308.523 197.36 307.863 197.02 307.223 196.28C304.773 193.46 303.453 185.97 302.983 178.88C302.673 178.86 302.333 178.84 301.973 178.82C302.423 186.1 303.793 193.87 306.453 196.93Z" fill="#E0E0E0"/>
<path d="M297.873 247.15C295.093 244.5 293.523 240.58 293.523 240.58C293.523 240.58 276.683 229.34 273.543 227.44C271.693 226.32 266.903 229.64 262.413 233.31C260.343 241.34 253.553 264.87 242.943 273.6C242.943 273.6 244.933 284.2 258.933 291.87C258.903 291.84 254.283 287.54 249.233 279.23C244.163 270.89 256.573 257.12 258.343 253.21C260.113 249.29 269.713 251.19 282.093 251.55C294.463 251.92 300.653 249.81 297.873 247.15Z" fill="#E0E0E0"/>
<path d="M341.843 245.54C340.503 242.61 338.303 230.94 338.303 230.94C336.583 219.54 339.763 205.21 339.763 205.21C339.763 205.21 334.003 215.89 336.403 238.44C338.803 260.99 328.663 278.04 319.953 277.22C311.233 276.4 310.383 279.75 319.193 279.37C328.003 278.99 332.663 284.49 327.203 287.52C321.923 290.46 303.453 302.3 278.633 298.31C282.453 298.94 286.673 299.37 291.353 299.55C327.453 300.89 331.923 291.89 331.923 291.89C331.923 291.89 331.813 280.69 341.843 245.54Z" fill="#E0E0E0"/>
<path d="M312.464 187.91C308.824 187.91 307.194 186.34 306.474 185.03C305.304 182.91 305.774 180.33 306.714 178.83C308.254 176.37 308.794 169.05 308.074 165.39C307.304 161.47 328.614 155.56 335.174 153.84C335.214 153.83 335.254 153.82 335.304 153.82C335.454 153.82 335.604 153.89 335.704 154.01C335.824 154.17 335.844 154.39 335.744 154.56C335.674 154.69 328.304 167.97 330.824 179.54C330.854 179.67 330.824 179.8 330.754 179.92C330.534 180.25 325.474 187.91 312.464 187.91Z" fill="#A0616A"/>
<path d="M335.294 154.32C335.294 154.32 327.724 167.75 330.324 179.65C330.324 179.65 325.344 187.41 312.464 187.41C305.684 187.41 305.504 181.7 307.134 179.1C308.764 176.49 309.304 169.06 308.564 165.29C307.824 161.52 335.294 154.32 335.294 154.32ZM335.294 153.32C335.214 153.32 335.124 153.33 335.044 153.35C334.974 153.37 328.064 155.18 321.334 157.44C308.694 161.68 307.254 163.81 307.584 165.48C308.274 168.98 307.754 176.23 306.294 178.56C305.274 180.18 304.764 182.97 306.034 185.27C306.824 186.7 308.584 188.41 312.464 188.41C325.744 188.41 330.954 180.53 331.174 180.19C331.314 179.97 331.364 179.7 331.314 179.44C328.824 168.06 336.104 154.94 336.174 154.81C336.374 154.46 336.344 154.03 336.094 153.71C335.894 153.46 335.594 153.32 335.294 153.32Z" fill="#864B53"/>
<path d="M308.563 165.29C309.303 169.06 308.763 176.49 307.133 179.1C305.503 181.71 305.673 187.41 312.463 187.41C312.573 187.41 312.673 187.4 312.783 187.4C304.993 184.65 309.706 174.382 313.312 172.87C328.812 166.37 329.477 157.66 332.312 156.87C327.463 158.19 307.903 161.95 308.563 165.29Z" fill="#864B53"/>
<path d="M310.273 170.74C304.133 170.74 300.103 166.95 299.193 160.35C297.053 144.69 296.893 139.62 296.883 138.78L293.913 133.02C293.863 132.92 293.843 132.81 293.863 132.71L296.883 115.12C296.913 114.96 297.013 114.82 297.163 114.75C297.233 114.72 297.303 114.71 297.373 114.71C297.463 114.71 297.553 114.73 297.633 114.78L306.953 120.41L342.003 133.44C342.103 133.48 342.183 133.54 342.243 133.63L346.933 140.45C347.043 140.61 347.053 140.82 346.953 140.99L340.893 151.09C340.853 151.16 340.793 151.22 340.713 151.26L331.003 156.94C324.413 168.34 316.103 170.74 310.273 170.74Z" fill="#A0616A"/>
<path d="M297.383 115.2L306.703 120.83L341.833 133.9L346.523 140.72L340.463 150.82L330.643 156.57C324.533 167.21 316.753 170.24 310.273 170.24C304.533 170.24 300.593 166.86 299.693 160.28C297.343 143.13 297.383 138.66 297.383 138.66L294.363 132.8L297.383 115.2ZM297.383 114.2C297.243 114.2 297.103 114.23 296.963 114.29C296.663 114.43 296.453 114.7 296.393 115.03L293.373 132.62C293.333 132.83 293.373 133.05 293.473 133.25L296.383 138.9C296.403 140.06 296.643 145.37 298.693 160.41C299.633 167.29 303.853 171.24 310.263 171.24C316.193 171.24 324.653 168.81 331.363 157.3L340.963 151.69C341.103 151.61 341.233 151.49 341.313 151.34L347.373 141.24C347.573 140.9 347.563 140.48 347.343 140.16L342.653 133.34C342.533 133.17 342.373 133.04 342.173 132.97L307.133 119.93L297.893 114.35C297.743 114.25 297.563 114.2 297.383 114.2Z" fill="#864B53"/>
<path d="M306.002 141.49C306.002 141.49 307.352 146.22 303.622 151.02C303.292 151.44 303.302 152.04 303.642 152.45C304.162 153.08 305.112 153.96 306.702 154.59" stroke="#864B53" stroke-miterlimit="10" stroke-linecap="round" stroke-linejoin="round"/>
<path d="M372.503 284.22C372.303 284.22 372.103 284.2 371.913 284.16C343.733 278.39 313.163 231.86 312.853 231.39L310.562 229.02L311.682 219.18L323.103 219.85L354.152 243.78C354.242 243.85 354.352 243.88 354.462 243.88C354.472 243.88 354.493 243.88 354.503 243.88C362.563 243.16 368.892 239.7 370.682 238.63C380.542 261.52 379.792 276.16 376.122 281.76C375.082 283.35 373.803 284.22 372.503 284.22Z" fill="#A0616A"/>
<path d="M312.133 219.7L322.933 220.33L353.853 244.17C354.033 244.31 354.243 244.38 354.463 244.38C354.493 244.38 354.523 244.38 354.553 244.38C362.093 243.71 368.133 240.67 370.453 239.35C380.003 261.76 379.283 276.04 375.703 281.49C374.763 282.93 373.623 283.72 372.503 283.72C372.343 283.72 372.173 283.7 372.013 283.67C344.043 277.94 313.573 231.58 313.273 231.11C313.233 231.06 313.193 231.01 313.153 230.96L311.093 228.83L312.133 219.7ZM311.243 218.65L310.043 229.19L312.433 231.66C312.433 231.66 343.103 278.77 371.813 284.65C372.043 284.7 372.273 284.72 372.503 284.72C378.443 284.72 384.593 269.29 370.923 237.9C370.923 237.9 363.823 242.55 354.463 243.38L323.293 219.35L311.243 218.65Z" fill="#864B53"/>
<path d="M370.924 237.9H370.904C364.504 241.42 358.804 243.17 353.934 243.44C355.314 244.7 357.344 246.33 360.914 248.33C369.894 253.37 370.824 257.1 370.914 257.58C370.384 253.21 364.554 248.42 360.874 245.79C359.754 244.99 360.024 243.26 361.344 242.86C369.554 240.37 370.924 237.9 370.924 237.9Z" fill="#864B53"/>
<path d="M323.293 219.35L311.243 218.65L310.043 229.19L312.433 231.66C312.433 231.66 314.233 234.77 317.613 239.03C318.203 226.28 329.863 224.42 329.863 224.42L323.293 219.35Z" fill="#2F2E41"/>
<path d="M309.253 197.8C309.253 197.8 306.353 206.51 307.393 220.13C308.433 233.76 307.963 257.54 300.483 270.23C293.003 282.92 280.283 280.65 275.793 282.26C271.303 283.87 271.393 288.57 273.383 289.65C275.373 290.73 276.983 294.58 274.993 295.24C273.003 295.9 274.283 282.5 281.003 276.33C294.053 264.35 278.943 249.51 278.943 249.51" stroke="#E0E0E0" stroke-miterlimit="10" stroke-linecap="round" stroke-linejoin="round"/>
<path d="M308.253 196.8C308.253 196.8 305.353 205.51 306.393 219.13C307.433 232.76 306.963 256.54 299.483 269.23C292.003 281.92 279.283 279.65 274.793 281.26C270.303 282.87 270.393 287.57 272.383 288.65C274.373 289.73 275.983 293.58 273.993 294.24C272.003 294.9 273.283 281.5 280.003 275.33C293.053 263.35 277.943 248.51 277.943 248.51" stroke="#2F2E41" stroke-miterlimit="10" stroke-linecap="round" stroke-linejoin="round"/>
<path d="M308.974 231.59C303.904 231.59 295.934 229.76 294.784 226.46C293.294 222.17 294.764 218.02 294.784 217.98C294.844 217.83 294.814 217.66 294.724 217.52C294.634 217.39 294.474 217.31 294.314 217.31H283.634C282.514 217.31 281.604 216.4 281.604 215.28C281.604 214.3 282.303 213.45 283.273 213.28L298.053 210.62C298.163 210.6 298.253 210.55 298.333 210.47C298.363 210.43 301.794 206.84 306.784 206.69C306.914 206.69 307.054 206.68 307.184 206.68C316.484 206.68 321.404 216.3 322.564 218.89C313.124 219.64 312.074 229.26 311.954 231.29C311.224 231.49 310.184 231.59 308.974 231.59Z" fill="#A0616A"/>
<path d="M307.173 207.18C315.543 207.18 320.273 215.3 321.803 218.46C313.093 219.58 311.694 228.23 311.474 230.88C310.824 231.01 309.964 231.09 308.974 231.09C303.404 231.09 296.194 229 295.254 226.3C293.824 222.19 295.233 218.19 295.243 218.15C295.353 217.84 295.314 217.5 295.124 217.23C294.934 216.96 294.633 216.8 294.303 216.8H283.624C282.784 216.8 282.094 216.11 282.094 215.27C282.094 214.53 282.624 213.89 283.354 213.76L298.134 211.1C298.344 211.06 298.544 210.96 298.684 210.8C298.714 210.77 302.014 207.32 306.784 207.18C306.924 207.19 307.053 207.18 307.173 207.18ZM307.173 206.18C307.033 206.18 306.904 206.18 306.764 206.19C301.494 206.34 297.964 210.12 297.964 210.12L283.184 212.78C281.974 213 281.104 214.05 281.104 215.27C281.104 216.67 282.234 217.8 283.634 217.8H294.314C294.314 217.8 292.744 222.09 294.314 226.62C295.544 230.17 303.724 232.08 308.974 232.08C310.414 232.08 311.634 231.94 312.434 231.65C312.434 231.65 312.434 219.67 323.294 219.34C323.294 219.35 318.353 206.18 307.173 206.18Z" fill="#864B53"/>
<path d="M354.193 243.81C356.883 245.79 362.093 249.12 365.623 251.32C369.143 253.52 371.353 258.05 371.193 259.83" stroke="#864B53" stroke-miterlimit="10" stroke-linecap="round" stroke-linejoin="round"/>
<path d="M385.223 181.12C385.223 197.77 394.233 204.72 403.243 205.18C410.943 204.62 421.233 194.72 421.233 181.12C421.233 167.11 412.063 156.56 402.553 156.56C395.543 156.57 385.223 163.87 385.223 181.12Z" fill="#E0E0E0"/>
<path d="M261.593 249.48C261.373 249.48 261.173 249.33 261.113 249.12L245.763 196.64C245.723 196.49 245.753 196.33 245.843 196.2C245.933 196.07 246.083 196 246.243 196H277.693C277.913 196 278.103 196.14 278.173 196.35L294.783 247.92C294.833 248.07 294.803 248.23 294.713 248.36C294.623 248.49 294.473 248.57 294.323 248.57C294.323 248.57 261.603 249.48 261.593 249.48Z" fill="#515667"/>
<path d="M277.703 196.49L294.313 248.06L261.603 248.97L246.253 196.49H277.703ZM277.703 195.49H246.253C245.943 195.49 245.643 195.64 245.453 195.89C245.263 196.14 245.203 196.47 245.293 196.77L260.643 249.25C260.763 249.68 261.163 249.97 261.603 249.97C261.613 249.97 261.623 249.97 261.633 249.97L294.343 249.06C294.653 249.05 294.953 248.89 295.133 248.64C295.313 248.38 295.363 248.06 295.273 247.76L278.663 196.19C278.523 195.77 278.133 195.49 277.703 195.49Z" fill="#21202F"/>
<path d="M259.984 243.46C265.004 242.05 282.434 236.1 278.974 221.95C274.944 205.47 260.734 227.09 260.734 227.09L257.094 233.57L259.984 243.46Z" fill="#21202F"/>
<path d="M224.393 259.751C218.993 259.751 215.533 256.711 214.393 250.961C212.443 241.131 236.603 220.421 240.953 216.791C242.513 225.041 247.703 228.601 247.933 228.751C248.013 228.811 248.113 228.831 248.213 228.831C248.303 228.831 248.403 228.801 248.483 228.751C248.653 228.641 248.733 228.451 248.703 228.251C248.093 224.581 250.723 219.841 251.953 217.871C252.093 218.381 252.243 218.861 252.383 219.301C252.543 219.831 252.693 220.311 252.793 220.721C252.933 221.271 253.253 222.551 254.433 222.551C254.543 222.551 254.653 222.541 254.783 222.511C262.983 220.871 272.923 212.061 275.783 209.411C276.113 209.101 276.543 208.931 276.983 208.931C277.343 208.931 277.663 209.051 277.923 209.271C279.453 210.581 277.573 213.771 277.553 213.811C277.473 213.951 277.453 214.121 277.523 214.271C277.583 214.421 277.723 214.531 277.883 214.561C278.583 214.711 279.033 215.031 279.273 215.531C279.883 216.831 278.953 219.121 278.543 219.891C278.473 220.031 278.463 220.201 278.533 220.341C278.603 220.481 278.743 220.591 278.893 220.611C279.403 220.701 279.573 220.951 279.663 221.131C280.213 222.281 279.003 224.941 278.543 225.791C278.423 226.011 278.483 226.281 278.683 226.431C278.813 226.531 279.203 226.821 279.053 227.751C278.553 230.721 273.163 236.521 265.833 238.841C264.073 239.401 262.873 239.711 261.913 239.961C258.543 240.851 258.543 240.851 250.063 247.031C248.513 248.161 246.683 249.501 244.483 251.081C236.653 256.761 229.713 259.751 224.393 259.751Z" fill="#A0616A"/>
<path d="M276.983 209.44C277.153 209.44 277.393 209.48 277.603 209.66C278.613 210.52 277.573 212.82 277.133 213.55C276.963 213.83 276.943 214.17 277.073 214.47C277.203 214.77 277.463 214.99 277.783 215.05C278.493 215.2 278.713 215.52 278.823 215.74C279.343 216.84 278.453 218.99 278.103 219.66C277.953 219.94 277.943 220.28 278.093 220.57C278.243 220.86 278.503 221.06 278.823 221.12C279.133 221.17 279.193 221.29 279.223 221.36C279.603 222.16 278.783 224.34 278.113 225.56C277.873 226 277.993 226.55 278.393 226.85C278.463 226.9 278.673 227.05 278.563 227.69C278.103 230.47 272.723 236.16 265.683 238.38C263.933 238.93 262.743 239.25 261.783 239.5C258.323 240.41 258.163 240.53 249.763 246.64C248.213 247.77 246.373 249.11 244.183 250.7C236.443 256.3 229.603 259.26 224.393 259.26C219.253 259.26 215.973 256.36 214.883 250.88C213.253 242.64 231.823 225.09 240.633 217.72C242.413 225.6 247.423 229.04 247.653 229.19C247.823 229.3 248.013 229.36 248.213 229.36C248.403 229.36 248.593 229.31 248.753 229.2C249.093 228.98 249.263 228.59 249.193 228.2C248.693 225.19 250.513 221.37 251.793 219.13C251.833 219.25 251.863 219.37 251.903 219.48C252.073 220.01 252.213 220.48 252.313 220.86C252.453 221.41 252.863 223.07 254.443 223.07C254.583 223.07 254.733 223.05 254.893 223.02C263.003 221.4 272.443 213.23 276.133 209.79C276.363 209.56 276.673 209.44 276.983 209.44ZM276.983 208.44C276.433 208.44 275.863 208.66 275.443 209.05C272.443 211.85 262.723 220.42 254.693 222.03C254.603 222.05 254.523 222.06 254.443 222.06C253.753 222.06 253.483 221.39 253.283 220.61C253.033 219.62 252.523 218.23 252.153 216.67C252.153 216.67 247.383 223.36 248.213 228.35C248.213 228.35 242.643 224.62 241.303 215.86C241.303 215.86 211.693 239.89 213.903 251.06C215.063 256.92 218.683 260.25 224.393 260.25C229.563 260.25 236.443 257.53 244.773 251.5C262.303 238.8 256.923 242.19 265.983 239.33C275.043 236.47 281.673 228.04 278.983 226.05C278.983 226.05 281.963 220.66 278.983 220.14C278.983 220.14 281.773 214.88 277.983 214.08C277.983 214.08 280.153 210.52 278.253 208.9C277.883 208.58 277.433 208.44 276.983 208.44Z" fill="#864B53"/>
<path d="M241.062 215.03C241.062 215.03 238.192 217.79 246.762 229.16C246.762 229.16 231.852 236.05 229.492 239.17C229.492 239.17 235.612 235.84 241.212 233.32C245.342 231.46 249.572 230.6 248.862 228.95C248.862 228.95 244.342 225.54 241.062 215.03Z" fill="#864B53"/>
<path d="M246.253 196.99C246.073 196.99 245.903 196.89 245.813 196.73C245.723 196.57 245.733 196.37 245.843 196.22L247.363 193.96C247.453 193.82 247.613 193.74 247.783 193.74H278.793C278.963 193.74 279.123 193.83 279.213 193.97C279.303 194.12 279.313 194.3 279.243 194.45L278.173 196.71C278.093 196.88 277.913 197 277.723 197H246.253V196.99Z" fill="#21202F"/>
<path d="M278.773 194.23L277.703 196.49H246.253L247.773 194.23H278.773ZM278.773 193.23H247.763C247.433 193.23 247.113 193.4 246.933 193.67L245.413 195.93C245.203 196.24 245.183 196.63 245.363 196.96C245.533 197.29 245.873 197.49 246.243 197.49H277.693C278.083 197.49 278.433 197.27 278.593 196.92L279.663 194.66C279.813 194.35 279.783 193.99 279.603 193.7C279.433 193.41 279.113 193.23 278.773 193.23Z" fill="#21202F"/>
<path d="M294.294 248.57C294.084 248.56 293.904 248.42 293.834 248.22L277.224 196.65C277.184 196.53 277.194 196.4 277.244 196.28L278.314 194.02C278.394 193.84 278.574 193.73 278.764 193.73C278.774 193.73 278.784 193.73 278.794 193.73C278.994 193.74 279.174 193.88 279.234 194.08L295.664 245.7C295.704 245.81 295.694 245.93 295.654 246.04L294.764 248.25C294.684 248.44 294.504 248.56 294.304 248.56C294.304 248.57 294.304 248.57 294.294 248.57Z" fill="#21202F"/>
<path d="M278.774 194.23L295.204 245.85L294.314 248.06L277.704 196.49L278.774 194.23ZM278.774 193.23C278.394 193.23 278.034 193.45 277.874 193.8L276.804 196.06C276.694 196.29 276.674 196.55 276.754 196.79L293.364 248.36C293.494 248.76 293.864 249.04 294.284 249.05C294.294 249.05 294.304 249.05 294.324 249.05C294.734 249.05 295.094 248.8 295.254 248.42L296.144 246.21C296.234 245.99 296.244 245.75 296.174 245.53L279.744 193.91C279.624 193.52 279.264 193.24 278.854 193.22C278.814 193.23 278.794 193.23 278.774 193.23Z" fill="#21202F"/>
<path d="M276.174 248.57L278.394 251.03C278.754 251.43 279.304 251.58 279.814 251.43C280.744 251.15 281.104 250.01 280.494 249.25L279.874 248.47L276.174 248.57Z" fill="#2F2E41"/>
<path d="M227.664 240.59C233.714 235.24 249.234 230.47 249.234 230.47L248.724 228.35" stroke="#864B53" stroke-miterlimit="10" stroke-linecap="round" stroke-linejoin="round"/>
<path d="M277.982 214.07C277.982 214.07 273.522 220.35 264.242 224.33" stroke="#864B53" stroke-miterlimit="10" stroke-linecap="round" stroke-linejoin="round"/>
<path d="M278.973 220.13C278.973 220.13 273.873 228.26 268.123 229.76" stroke="#864B53" stroke-miterlimit="10" stroke-linecap="round" stroke-linejoin="round"/>
<path d="M278.973 226.04C278.973 226.04 275.393 232.63 270.193 234.21" stroke="#864B53" stroke-miterlimit="10" stroke-linecap="round" stroke-linejoin="round"/>
<path d="M300.383 105.18C300.383 105.18 309.973 88.1201 332.633 95.7201C355.283 103.32 342.093 131.7 342.093 131.7C342.093 131.7 310.513 124.42 302.253 112.74L300.383 105.18Z" fill="white" stroke="#E0E0E0" stroke-miterlimit="10" stroke-linejoin="round"/>
<path d="M344.133 111.32C344.203 114.73 343.873 118.23 342.393 121.3C340.913 124.37 338.123 126.96 334.763 127.51C333.643 127.69 332.503 127.65 331.383 127.54C324.803 126.91 318.453 124.12 313.543 119.69C311.783 118.1 310.073 115.8 310.823 113.55C310.983 113.06 311.263 112.55 311.143 112.05C310.843 110.79 308.973 111.27 307.683 111.15C306.443 111.04 305.403 110.07 304.893 108.94C304.383 107.8 304.313 106.52 304.333 105.28C304.363 103.51 305.013 101.72 304.613 100.2C301.733 102.79 300.393 105.19 300.393 105.19L302.263 112.74C310.523 124.43 342.103 131.7 342.103 131.7C342.103 131.7 349.733 115.25 343.383 104.05C343.823 106.45 344.083 108.88 344.133 111.32Z" fill="#E0E0E0"/>
<path d="M342.094 131.7C342.094 131.7 366.344 138.56 366.044 147.26C365.744 155.95 342.094 147.26 342.094 147.26L343.654 136.37L342.094 131.7Z" fill="#E0E0E0"/>
<path d="M346.764 140.97C346.994 141.04 350.224 142.09 349.754 140.25C349.254 138.35 345.924 133.92 342.094 131.69C342.094 131.69 335.844 129.5 328.464 126.44C320.434 123.11 311.024 118.74 306.814 115.04L306.704 114.95L305.764 114.02C306.144 113.8 306.534 113.59 306.934 113.4C307.734 113.09 308.544 112.86 309.394 112.73C309.584 112.71 309.774 112.69 309.964 112.68C311.344 112.62 312.674 111.52 312.604 110.04C312.544 108.68 311.444 107.33 309.964 107.4C307.634 107.53 305.374 108.18 303.374 109.32C303.354 106.27 303.194 103.23 302.874 100.21C302.734 98.8402 301.764 97.5002 300.234 97.5702C298.924 97.6202 297.444 98.7402 297.594 100.21C297.704 101.19 297.764 102.17 297.824 103.14C294.954 98.8002 290.914 95.0202 286.344 93.1602C283.184 91.8602 279.394 94.5502 278.554 97.5802C277.574 101.17 279.754 104.02 282.894 105.33C282.484 105.21 283.674 106.24 283.814 106.37C284.604 107.14 285.374 107.93 286.124 108.74C286.554 109.21 287.014 109.76 287.424 110.31C285.574 110.26 283.724 110.32 281.844 110.54C278.444 110.93 275.514 113.17 275.514 116.87C275.514 119.98 278.424 123.59 281.844 123.2C282.824 123.08 283.814 123 284.804 122.96C282.234 126.15 279.754 129.42 277.834 132.97C273.944 140.13 284.874 146.53 288.764 139.36C289.494 138.01 290.304 136.72 291.184 135.47C290.764 137.7 290.354 139.93 289.944 142.17C289.204 146.15 295.304 147.86 296.044 143.85L298.464 130.9C298.744 133.57 299.034 136.23 299.324 138.9C299.754 142.91 306.084 142.95 305.654 138.9C305.294 135.62 304.934 132.34 304.584 129.05C305.724 131.51 306.824 134 307.824 136.52C308.244 137.59 309.234 138.32 310.424 138C311.434 137.73 312.184 136.51 311.904 135.4C311.344 133.24 310.614 131.42 309.714 129.41C311.174 130.97 312.104 132.51 313.334 134.25C314.484 135.83 316.234 135.58 316.564 135.45C317.584 135.07 317.774 133.99 317.564 133.12C317.394 132.43 317.214 131.74 317.184 131.03C317.174 130.97 317.174 130.91 317.174 130.87C317.174 130.7 317.184 130.52 317.184 130.34C317.234 130.37 317.274 130.4 317.334 130.43C317.564 130.63 317.774 130.85 317.974 131.08C318.174 131.36 318.354 131.67 318.504 132C318.804 132.76 319.064 133.54 319.434 134.27C319.454 134.32 319.494 134.38 319.534 134.42C319.924 135.25 320.354 136.05 320.874 136.8C321.154 137.22 321.464 137.63 321.784 138.03C322.064 138.38 322.374 138.81 322.734 139.1C323.134 139.41 323.734 139.3 323.944 138.85C324.144 138.42 324.124 137.82 324.124 137.34C324.134 136.35 323.994 135.3 324.324 134.34C324.364 134.21 324.484 133.85 324.634 133.79C326.844 135.78 328.314 138.46 328.614 141.42C328.814 143.36 328.764 145.19 328.434 145.95C327.734 147.55 329.884 148.04 331.184 145.25C332.484 142.45 331.814 138.83 334.344 135.69C336.644 132.84 340.544 134.13 341.244 135.49C342.594 138.14 342.304 143.73 338.394 147.43C334.504 151.14 330.694 150.75 330.694 150.75C330.694 150.75 330.334 159.35 335.004 160.85C339.674 162.35 339.074 154.06 339.074 154.06C339.074 154.06 342.984 162.26 345.934 159.76C348.874 157.26 344.774 151.07 344.774 151.07C344.774 151.07 348.274 153.56 350.274 151.97C352.214 150.38 346.974 141.35 346.764 140.97Z" fill="#2F2E41"/>
<path d="M314.523 148.75C313.883 148.75 313.883 149.75 314.523 149.75C315.173 149.75 315.173 148.75 314.523 148.75Z" fill="#864B53"/>
<path d="M320.302 152.83C319.662 152.83 319.662 153.83 320.302 153.83C320.942 153.83 320.942 152.83 320.302 152.83Z" fill="#864B53"/>
<path d="M322.552 150.4C321.912 150.4 321.912 151.4 322.552 151.4C323.192 151.4 323.192 150.4 322.552 150.4Z" fill="#864B53"/>
<path d="M319.484 148.54C318.844 148.54 318.844 149.54 319.484 149.54C320.124 149.54 320.134 148.54 319.484 148.54Z" fill="#864B53"/>
<path d="M316.392 152.04C315.752 152.04 315.752 153.04 316.392 153.04C317.032 153.04 317.032 152.04 316.392 152.04Z" fill="#864B53"/>
<path d="M311.873 152.04C311.233 152.04 311.233 153.04 311.873 153.04C312.523 153.04 312.523 152.04 311.873 152.04Z" fill="#864B53"/>
<path d="M315.213 143.07C315.859 143.07 316.383 142.547 316.383 141.9C316.383 141.254 315.859 140.73 315.213 140.73C314.567 140.73 314.043 141.254 314.043 141.9C314.043 142.547 314.567 143.07 315.213 143.07Z" fill="#864B53"/>
<path d="M300.873 148.75C300.233 148.75 300.233 149.75 300.873 149.75C301.513 149.75 301.523 148.75 300.873 148.75Z" fill="#864B53"/>
<path d="M298.664 150.9C298.024 150.9 298.024 151.9 298.664 151.9C299.304 151.9 299.304 150.9 298.664 150.9Z" fill="#864B53"/>
<path d="M301.003 152.04C300.363 152.04 300.363 153.04 301.003 153.04C301.643 153.04 301.643 152.04 301.003 152.04Z" fill="#864B53"/>
<path d="M306.453 161.43C308.313 162.1 310.413 162.08 312.263 161.37" stroke="#864B53" stroke-miterlimit="10" stroke-linecap="round" stroke-linejoin="round"/>
<path d="M350.243 151.95C352.203 150.38 346.973 141.35 346.763 140.97C346.993 141.04 350.223 142.09 349.753 140.25C349.253 138.35 345.923 133.92 342.093 131.69C342.093 131.69 335.843 129.5 328.463 126.44C320.433 123.11 311.023 118.74 306.813 115.04L306.703 114.95L306.533 114.78C306.373 115.12 306.473 115.54 306.613 115.91C308.263 120.38 312.383 123.45 316.823 125.3C317.203 125.46 317.573 125.6 317.953 125.74C322.803 127.52 327.993 128.2 332.893 129.83C335.593 130.73 338.343 132.03 339.933 134.39C339.943 134.41 339.953 134.43 339.973 134.45C340.573 134.73 341.043 135.11 341.233 135.49C342.583 138.14 342.293 143.73 338.383 147.43C334.493 151.14 330.673 150.75 330.673 150.75C330.673 150.75 330.313 159.35 334.983 160.85C339.653 162.35 339.053 154.06 339.053 154.06C339.053 154.06 342.963 162.26 345.913 159.76C348.853 157.26 344.753 151.07 344.753 151.07C344.753 151.07 348.253 153.54 350.243 151.95Z" fill="#21202F"/>
<path d="M284.763 92.8302C282.033 92.7602 279.273 95.0402 278.573 97.5702C277.593 101.16 279.773 104.01 282.913 105.32C282.503 105.2 283.693 106.23 283.833 106.36C284.623 107.13 285.393 107.92 286.143 108.73C286.433 109.05 286.733 109.41 287.033 109.78C287.513 109.65 287.923 109.39 288.173 108.96C289.053 107.44 287.203 105.88 285.823 104.77C283.863 103.2 282.443 100.87 282.313 98.3602C282.203 96.2802 283.123 94.1102 284.763 92.8302Z" fill="#21202F"/>
<path d="M281.463 142.05C279.193 136.04 280.493 128.65 285.073 124.07C284.843 123.87 284.583 123.72 284.303 123.6C281.913 126.58 279.633 129.64 277.843 132.96C275.653 137 278.163 140.79 281.463 142.05Z" fill="#21202F"/>
<path d="M281.854 123.2C282.834 123.08 283.824 123 284.814 122.96C284.714 123.09 284.614 123.22 284.504 123.35C284.894 123.11 285.184 122.77 285.254 122.28C285.514 120.53 283.014 120.04 281.294 119.63C278.614 118.98 276.404 116.47 276.374 113.73C275.834 114.61 275.514 115.66 275.514 116.87C275.524 119.99 278.444 123.59 281.854 123.2Z" fill="#21202F"/>
<path d="M336.542 142.76C335.822 142.76 333.952 143.12 334.392 145.97C334.532 146.9 335.612 146.82 335.832 147.42C336.172 148.37 335.552 149.66 334.802 150.48C334.492 150.81 334.562 151.35 334.952 151.58C335.232 151.75 335.602 151.71 335.832 151.47C336.992 150.3 340.122 146.73 338.592 143.76C338.112 142.86 336.542 142.76 336.542 142.76Z" fill="#21202F"/>
<path d="M335.103 151.12C335.103 151.12 328.623 156.4 324.433 170.04C320.243 183.69 314.843 196.37 308.253 196.8C301.663 197.24 298.312 170.87 301.813 167.87" stroke="#2F2E41" stroke-miterlimit="10" stroke-linejoin="round"/>
<path d="M402.741 432.513C393.967 432.431 357.122 435.95 354.149 460.21C351.175 484.47 393.248 490.671 437.167 489.462C481.086 488.252 498.835 475.577 498.999 459.946C499.163 444.315 479.113 435.877 452.88 433.813C426.638 431.749 402.741 432.513 402.741 432.513Z" fill="white" stroke="#E0E0E0" stroke-miterlimit="10" stroke-linejoin="round"/>
<path d="M364.812 454.57C364.812 454.57 370.659 452.161 379.27 461.336" stroke="#E0E0E0" stroke-miterlimit="10" stroke-linecap="round" stroke-linejoin="round"/>
<path d="M411.131 475.23C411.131 475.23 414.55 465.546 433.427 468.455" stroke="#E0E0E0" stroke-miterlimit="10" stroke-linecap="round" stroke-linejoin="round"/>
<path d="M488.192 453.87C488.192 453.87 479.918 453.079 477.062 458.78" stroke="#E0E0E0" stroke-miterlimit="10" stroke-linecap="round" stroke-linejoin="round"/>
<path d="M472.126 454.489C472.126 454.489 479.41 456.898 478.782 462.154C478.155 467.41 471.235 468.246 465.407 467.373C459.578 466.51 455.514 461.163 455.514 461.163L472.126 454.489Z" fill="white" stroke="#E0E0E0" stroke-miterlimit="10" stroke-linejoin="round"/>
<path d="M465.415 474.857C465.415 474.857 463.905 467.983 453.203 466.228" stroke="#E0E0E0" stroke-miterlimit="10" stroke-linecap="round" stroke-linejoin="round"/>
<path d="M433.526 411.87C433.526 411.87 439.509 415.744 442.037 420.808C442.037 420.808 451.293 418.108 460.222 420.69C460.222 420.69 464.151 414.08 467.97 413.78C467.97 413.78 473.371 416.408 473.098 430.883C473.098 430.883 479.663 442.986 475.899 453.734C472.134 464.482 459.386 470.138 434.026 466.7C434.026 466.7 430.025 472.52 414.349 466.228C414.349 466.228 400.682 475.111 382.278 465.518C367.438 457.789 375.858 441.659 381.496 440.386C381.496 440.386 379.496 425.037 395.863 418.081C412.23 411.124 427.106 423 427.106 423C427.106 423 429.443 414.807 433.526 411.87Z" fill="white"/>
<path d="M390.327 453.734C390.327 453.734 385.135 454.889 383.343 458.78C382.461 460.699 382.252 463.336 382.28 465.527C382.28 465.527 382.28 465.527 382.289 465.527C383.88 466.355 385.435 467.037 386.944 467.61C386.826 465.518 386.908 462.454 388.108 460.172C389.618 457.298 392.573 456.171 393.937 455.789C392.791 455.298 391.6 454.625 390.372 453.743L390.327 453.734Z" fill="#E6E6E6"/>
<path d="M396.628 456.671C395.837 458.044 394.427 461.045 394.646 464.818C394.764 466.882 395.51 468.555 396.364 469.819C399.374 470.101 402.093 469.956 404.457 469.592C402.948 467.882 401.102 465.327 400.974 462.99C400.838 460.508 401.274 458.199 401.62 456.798C400.129 457.062 398.456 457.08 396.628 456.671Z" fill="#E6E6E6"/>
<path d="M417.096 463.227C416.186 464.682 415.141 465.8 414.35 466.237C414.35 466.237 413.859 466.555 412.931 467.01C405.384 463.982 404.875 457.98 404.975 455.744C406.202 455.162 407.203 454.498 407.93 453.961C409.067 459.908 414.895 462.463 417.096 463.227Z" fill="#E6E6E6"/>
<path d="M434.418 418.562C433.945 418.271 433.327 418.471 433.108 418.981C432.472 420.445 431.308 423.4 431.299 425.391C431.299 427.391 435.3 425.409 437.446 424.209C438.2 423.782 438.437 422.8 437.946 422.081C437.209 421.008 436.009 419.526 434.418 418.562Z" fill="#E6E6E6"/>
<path d="M467.071 420.636C466.352 421.29 465.288 422.454 464.861 423.936C464.661 424.609 465.052 425.328 465.725 425.546L468.298 426.392C468.971 426.61 469.662 426.11 469.662 425.391C469.662 424.264 469.417 422.591 468.316 420.818C468.034 420.39 467.443 420.299 467.071 420.636Z" fill="#E6E6E6"/>
<path d="M435.654 447.142C435.654 447.142 437.437 449.188 440.71 449.188C443.983 449.188 444.684 447.642 444.684 447.642" stroke="#E0E0E0" stroke-miterlimit="10" stroke-linecap="round" stroke-linejoin="round"/>
<path d="M461.168 447.869C461.168 447.869 461.35 449.133 465.796 449.133C468.97 449.133 469.724 447.142 469.724 447.142" stroke="#E0E0E0" stroke-miterlimit="10" stroke-linecap="round" stroke-linejoin="round"/>
<path d="M452.687 449.933L454.278 449.86C455.169 449.824 455.788 450.742 455.415 451.561C454.806 452.87 453.051 453.152 452.069 452.088L451.887 451.888C451.205 451.161 451.696 449.979 452.687 449.933Z" fill="#E0E0E0"/>
<path d="M434.028 466.701C435.346 465.164 436.092 458.471 425.508 455.616" stroke="#E0E0E0" stroke-miterlimit="10" stroke-linecap="round" stroke-linejoin="round"/>
<path d="M428.571 456.68C425.361 457.671 421.26 460.517 421.906 468.592C431.371 470.565 434.027 466.701 434.027 466.701C435.2 465.337 435.918 459.881 428.571 456.68Z" fill="white" stroke="#E0E0E0" stroke-miterlimit="10" stroke-linejoin="round"/>
<path d="M414.351 466.228C417.078 464.736 422.743 455.198 416.26 451.297C413.723 449.779 410.713 451.87 408.986 453.161C407.258 454.452 399.565 461.308 389.072 452.77" stroke="#E0E0E0" stroke-miterlimit="10" stroke-linecap="round" stroke-linejoin="round"/>
<path d="M381.506 440.395C382.333 444.086 383.106 444.841 383.106 444.841" stroke="#E0E0E0" stroke-miterlimit="10" stroke-linecap="round" stroke-linejoin="round"/>
<path d="M442.666 428.51C444.994 429.319 446.531 425.064 445.613 420.072C443.421 420.417 442.039 420.817 442.039 420.817C442.039 420.817 440.129 427.637 442.666 428.51Z" fill="#E6E6E6"/>
<path d="M450.141 429.219C453.705 429.51 454.351 423.027 453.705 419.635C451.568 419.517 449.549 419.617 447.822 419.79C447.413 422.381 446.731 428.937 450.141 429.219Z" fill="#E6E6E6"/>
<path d="M457.669 429.228C461.87 428.837 460.224 420.69 460.224 420.69C458.951 420.327 457.678 420.063 456.414 419.89C455.623 423.4 454.668 429.51 457.669 429.228Z" fill="#E6E6E6"/>
<path d="M424.871 421.463C423.544 420.636 421.68 419.59 419.406 418.635C417.815 421.163 417.906 425.091 418.524 426.655C419.352 428.747 423.216 429.565 422.953 425.6C422.798 423.354 423.889 422.118 424.871 421.463Z" fill="#E6E6E6"/>
<path d="M411.377 416.298C411.013 416.826 410.704 417.389 410.486 417.99C409.768 419.899 409.759 422.109 410.668 423.964C410.677 423.991 410.695 424.009 410.704 424.036C411.223 425.055 413.65 428.11 414.505 425.791C415.187 423.927 414.087 421.909 414.832 420.054C415.196 419.154 415.96 418.681 416.624 418.035C416.733 417.935 416.824 417.817 416.924 417.699C415.223 417.108 413.359 416.617 411.377 416.298Z" fill="#E6E6E6"/>
<path d="M400.402 416.607C400.047 417.599 399.965 418.744 399.875 419.717C399.593 422.763 399.556 430.247 404.594 428.565C406.067 428.074 406.431 426.573 406.203 425.173C405.876 423.145 405.167 421.336 405.549 419.235C405.739 418.199 406.13 417.217 406.758 416.362C406.831 416.271 407.003 416.107 407.212 415.925C405.039 415.862 402.748 416.062 400.402 416.607Z" fill="#E6E6E6"/>
<path d="M395.863 418.09C394.163 418.817 392.662 419.635 391.335 420.508C390.771 422.772 391.035 425.4 391.535 427.601C391.826 428.874 392.326 430.256 393.299 431.174C394.49 432.293 396.572 432.666 397.673 431.229C399.391 428.983 396.8 426.237 396.245 424.064C396.063 423.354 395.954 422.636 395.908 421.918C395.818 420.599 395.936 419.263 396.181 417.962C396.072 418.008 395.972 418.044 395.863 418.09Z" fill="#E6E6E6"/>
<path d="M381.979 433.911C382.124 434.375 382.315 434.821 382.579 435.257C383.843 437.385 386.061 439.231 388.562 439.631C389.78 439.831 391.208 439.494 391.453 438.121C391.799 436.175 390.299 434.875 389.171 433.566C387.589 431.738 387.089 429.51 386.952 427.146C386.898 426.173 386.898 425.219 386.907 424.318C384.034 427.51 382.633 431.002 381.979 433.911Z" fill="#E6E6E6"/>
<path d="M433.528 411.87C433.528 411.87 439.511 415.744 442.039 420.808C442.039 420.808 451.295 418.108 460.224 420.69C460.224 420.69 464.153 414.08 467.972 413.78C467.972 413.78 473.373 416.408 473.1 430.883C473.1 430.883 479.665 442.986 475.901 453.734C472.136 464.482 459.388 470.138 434.028 466.7C434.028 466.7 430.027 472.52 414.351 466.228C414.351 466.228 400.684 475.111 382.28 465.518C367.44 457.789 375.86 441.659 381.498 440.386C381.498 440.386 379.498 425.037 395.865 418.081C412.232 411.124 427.108 423 427.108 423C427.108 423 429.445 414.807 433.528 411.87Z" stroke="#E0E0E0" stroke-miterlimit="10" stroke-linecap="round" stroke-linejoin="round"/>
<circle cx="428" cy="334.87" r="28" fill="#F55681"/>
<path d="M422.133 323.87L415 332.502L427.779 346.523L440.72 332.502L434.168 323.87H422.133Z" stroke="white" stroke-width="2" stroke-miterlimit="10" stroke-linecap="round" stroke-linejoin="round"/>
<path d="M421.721 333.327L427.779 340.367L433.75 333.327" stroke="white" stroke-width="2" stroke-miterlimit="10" stroke-linecap="round" stroke-linejoin="round"/>
<circle cx="66" cy="243.87" r="39" fill="#F55681"/>
<circle cx="189" cy="183.87" r="15" fill="#E0E0E0"/>
<path d="M77.2705 230.61H68.7755C67.2451 230.61 66.0023 231.853 66.0023 233.384C66.0023 231.853 64.7595 230.61 63.2291 230.61H54.7341C53.2037 230.61 51.9609 231.853 51.9609 233.384V254.312C51.9609 255.842 53.2037 257.085 54.7341 257.085H62.5614C63.3753 258.079 64.6133 258.717 66.0023 258.717C67.3913 258.717 68.6244 258.084 69.4432 257.085H77.2705C78.8008 257.085 80.0436 255.842 80.0436 254.312V233.384C80.0436 231.853 78.8008 230.61 77.2705 230.61Z" stroke="white" stroke-width="2" stroke-miterlimit="10" stroke-linejoin="round"/>
<path d="M66.002 233.384V248.4" stroke="white" stroke-width="2" stroke-miterlimit="10" stroke-linecap="round" stroke-linejoin="round"/>
<path d="M56.3965 236.488H61.5773" stroke="white" stroke-width="2" stroke-miterlimit="10" stroke-linecap="round" stroke-linejoin="round"/>
<path d="M56.3965 243.599H61.5773" stroke="white" stroke-width="2" stroke-miterlimit="10" stroke-linecap="round" stroke-linejoin="round"/>
<path d="M56.3965 250.71H61.5773" stroke="white" stroke-width="2" stroke-miterlimit="10" stroke-linecap="round" stroke-linejoin="round"/>
<path d="M70.8906 236.488H76.0714" stroke="white" stroke-width="2" stroke-miterlimit="10" stroke-linecap="round" stroke-linejoin="round"/>
<path d="M70.8906 243.599H76.0714" stroke="white" stroke-width="2" stroke-miterlimit="10" stroke-linecap="round" stroke-linejoin="round"/>
<path d="M70.8906 250.71H76.0714" stroke="white" stroke-width="2" stroke-miterlimit="10" stroke-linecap="round" stroke-linejoin="round"/>
<circle cx="522.5" cy="154.37" r="47" fill="white" stroke="#E6E6E6"/>
<path d="M529.955 145.303L528.945 148.327C528.74 148.946 528.163 149.36 527.509 149.36H503.073C502.04 149.36 501.31 150.37 501.637 151.351C501.842 151.969 502.419 152.384 503.073 152.384H525.495C526.528 152.384 527.258 153.394 526.931 154.374L522.897 166.475C522.693 167.094 522.115 167.509 521.461 167.509H501.736C501.083 167.509 500.505 167.094 500.3 166.475L499.291 163.452C498.964 162.471 499.693 161.461 500.727 161.461H517.101C517.749 161.461 518.326 161.047 518.537 160.428C518.864 159.447 518.134 158.437 517.101 158.437H498.713C498.059 158.437 497.481 158.023 497.277 157.404L493.243 145.303C492.916 144.322 493.646 143.312 494.679 143.312H528.519C529.552 143.312 530.282 144.328 529.955 145.303Z" fill="#F55681"/>
<path d="M545.727 145.304L544.717 148.327C544.513 148.946 543.935 149.361 543.281 149.361H537.998L540.012 143.313H544.285C545.324 143.313 546.054 144.329 545.727 145.304Z" fill="#F55681"/>
<path d="M551.922 136.232L550.912 139.256C550.708 139.875 550.13 140.289 549.476 140.289H541.029L542.354 136.308C542.763 135.076 543.919 134.242 545.221 134.242H550.486C551.519 134.242 552.249 135.252 551.922 136.232Z" fill="#F55681"/>
<path d="M532.715 149.366H537.998L532.294 166.482C532.09 167.1 531.512 167.515 530.858 167.515H527.671C526.638 167.515 525.908 166.505 526.235 165.524L531.279 150.399C531.483 149.781 532.061 149.366 532.715 149.366Z" fill="#F55681"/>
<path d="M541.02 140.289L540.011 143.313H535.732C534.698 143.313 533.969 142.303 534.296 141.322C534.5 140.704 535.078 140.289 535.732 140.289H541.02Z" fill="#F55681"/>
<path d="M527.614 174.549C528.952 174.549 530.036 173.465 530.036 172.127C530.036 170.789 528.952 169.704 527.614 169.704C526.276 169.704 525.191 170.789 525.191 172.127C525.191 173.465 526.276 174.549 527.614 174.549Z" fill="#F55681"/>
<path d="M511.6 174.549C512.938 174.549 514.023 173.465 514.023 172.127C514.023 170.789 512.938 169.704 511.6 169.704C510.262 169.704 509.178 170.789 509.178 172.127C509.178 173.465 510.262 174.549 511.6 174.549Z" fill="#F55681"/>
<path d="M189.151 190.598C192.784 190.598 195.729 187.653 195.729 184.02C195.729 180.387 192.784 177.441 189.151 177.441C185.518 177.441 182.572 180.387 182.572 184.02C182.572 187.653 185.518 190.598 189.151 190.598Z" fill="#E0E0E0" stroke="white" stroke-miterlimit="10" stroke-linejoin="round"/>
<path d="M189.15 182.083C189.904 182.083 190.516 181.472 190.516 180.718C190.516 179.964 189.904 179.353 189.15 179.353C188.396 179.353 187.785 179.964 187.785 180.718C187.785 181.472 188.396 182.083 189.15 182.083Z" fill="white"/>
<path d="M189.15 188.965C189.904 188.965 190.516 188.354 190.516 187.6C190.516 186.846 189.904 186.234 189.15 186.234C188.396 186.234 187.785 186.846 187.785 187.6C187.785 188.354 188.396 188.965 189.15 188.965Z" fill="white"/>
<path d="M192.59 185.521C193.344 185.521 193.955 184.91 193.955 184.156C193.955 183.402 193.344 182.791 192.59 182.791C191.836 182.791 191.225 183.402 191.225 184.156C191.225 184.91 191.836 185.521 192.59 185.521Z" fill="white"/>
<path d="M185.713 185.521C186.467 185.521 187.078 184.91 187.078 184.156C187.078 183.402 186.467 182.791 185.713 182.791C184.959 182.791 184.348 183.402 184.348 184.156C184.348 184.91 184.959 185.521 185.713 185.521Z" fill="white"/>
<path d="M189.15 190.598H195.353" stroke="white" stroke-miterlimit="10" stroke-linecap="round" stroke-linejoin="round"/>
<path d="M557 211.87C567.493 211.87 576 203.364 576 192.87C576 182.377 567.493 173.87 557 173.87C546.507 173.87 538 182.377 538 192.87C538 203.364 546.507 211.87 557 211.87Z" fill="#F55681"/>
<path d="M563.682 195.486C563.556 195.127 563.372 194.786 563.14 194.464C562.908 194.142 562.628 193.847 562.299 193.581C561.97 193.314 561.602 193.074 561.196 192.872C562.018 192.494 562.657 191.997 563.102 191.362C563.547 190.736 563.769 190.037 563.769 189.282C563.769 188.555 563.624 187.873 563.343 187.238C563.063 186.603 562.666 186.051 562.173 185.591C561.68 185.121 561.099 184.753 560.432 184.486C559.997 184.311 559.532 184.191 559.049 184.136H559.116V181.89H557.337V184.063L557.83 184.081H556.205V181.89H554.425V184.072L549.859 184.063V186.124H551.639V199.895H549.859V201.92H554.425V203.89H556.205V201.92H557.337V203.89H559.116V201.92H558.401C559.155 201.92 559.871 201.782 560.529 201.506C561.196 201.23 561.767 200.852 562.26 200.374C562.753 199.895 563.14 199.334 563.43 198.689C563.711 198.045 563.856 197.355 563.856 196.609C563.875 196.213 563.808 195.845 563.682 195.486ZM554.077 186.097H558.323C558.71 186.097 559.078 186.189 559.416 186.364C559.755 186.548 560.055 186.778 560.316 187.073C560.567 187.367 560.77 187.689 560.925 188.067C561.07 188.435 561.148 188.822 561.148 189.199C561.148 189.549 561.07 189.889 560.925 190.221C560.78 190.552 560.577 190.837 560.326 191.095C560.074 191.344 559.774 191.546 559.436 191.693C559.097 191.841 558.729 191.914 558.333 191.914H554.086V186.097H554.077ZM561.022 197.824C560.877 198.211 560.674 198.551 560.422 198.855C560.171 199.159 559.871 199.398 559.532 199.591C559.194 199.776 558.826 199.877 558.43 199.877H554.067V193.976H558.43C558.817 193.976 559.184 194.05 559.523 194.197C559.861 194.345 560.161 194.547 560.413 194.796C560.664 195.044 560.867 195.329 561.012 195.652C561.157 195.974 561.235 196.305 561.235 196.655C561.244 197.051 561.167 197.437 561.022 197.824Z" fill="white"/>
</svg>
