<svg width="568" height="540" viewBox="0 0 568 540" fill="none" xmlns="http://www.w3.org/2000/svg">
<path d="M542 232C550.837 232 558 224.837 558 216C558 207.163 550.837 200 542 200C533.163 200 526 207.163 526 216C526 224.837 533.163 232 542 232Z" fill="#515667"/>
<path d="M536.4 216.056L541.871 219.448L547.6 216.161L541.871 206.706L536.4 216.056Z" fill="white"/>
<path d="M536.4 217.411L541.919 225.283L547.6 217.273L541.871 220.763L536.4 217.411Z" fill="white"/>
<circle cx="405" cy="357" r="21" fill="#F55681"/>
<circle cx="520.5" cy="297.5" r="47" fill="white" stroke="#E6E6E6"/>
<path d="M527.955 288.433L526.945 291.457C526.74 292.076 526.163 292.49 525.509 292.49H501.073C500.04 292.49 499.31 293.5 499.637 294.481C499.842 295.099 500.419 295.514 501.073 295.514H523.495C524.528 295.514 525.258 296.524 524.931 297.504L520.897 309.605C520.693 310.224 520.115 310.639 519.461 310.639H499.736C499.083 310.639 498.505 310.224 498.3 309.605L497.291 306.582C496.964 305.601 497.693 304.591 498.727 304.591H515.101C515.749 304.591 516.326 304.177 516.537 303.558C516.864 302.577 516.134 301.567 515.101 301.567H496.713C496.059 301.567 495.481 301.153 495.277 300.534L491.243 288.433C490.916 287.452 491.646 286.442 492.679 286.442H526.519C527.552 286.442 528.282 287.458 527.955 288.433Z" fill="#F55681"/>
<path d="M543.727 288.433L542.717 291.457C542.513 292.076 541.935 292.49 541.281 292.49H535.998L538.012 286.443H542.285C543.324 286.443 544.054 287.459 543.727 288.433Z" fill="#F55681"/>
<path d="M549.922 279.362L548.912 282.386C548.708 283.005 548.13 283.419 547.476 283.419H539.029L540.354 279.438C540.763 278.206 541.919 277.372 543.221 277.372H548.486C549.519 277.372 550.249 278.381 549.922 279.362Z" fill="#F55681"/>
<path d="M530.715 292.496H535.998L530.294 309.611C530.09 310.23 529.512 310.645 528.858 310.645H525.671C524.638 310.645 523.908 309.635 524.235 308.654L529.279 293.529C529.483 292.911 530.061 292.496 530.715 292.496Z" fill="#F55681"/>
<path d="M539.02 283.419L538.011 286.443H533.732C532.698 286.443 531.969 285.433 532.296 284.452C532.5 283.833 533.078 283.419 533.732 283.419H539.02Z" fill="#F55681"/>
<path d="M525.614 317.679C526.952 317.679 528.036 316.594 528.036 315.257C528.036 313.919 526.952 312.834 525.614 312.834C524.276 312.834 523.191 313.919 523.191 315.257C523.191 316.594 524.276 317.679 525.614 317.679Z" fill="#F55681"/>
<path d="M509.6 317.679C510.938 317.679 512.023 316.594 512.023 315.257C512.023 313.919 510.938 312.834 509.6 312.834C508.262 312.834 507.178 313.919 507.178 315.257C507.178 316.594 508.262 317.679 509.6 317.679Z" fill="#F55681"/>
<path d="M484 280C494.493 280 503 271.493 503 261C503 250.507 494.493 242 484 242C473.507 242 465 250.507 465 261C465 271.493 473.507 280 484 280Z" fill="#F55681"/>
<path d="M490.682 263.616C490.556 263.257 490.372 262.916 490.14 262.594C489.908 262.272 489.628 261.977 489.299 261.71C488.97 261.443 488.602 261.204 488.196 261.002C489.018 260.624 489.657 260.127 490.102 259.492C490.547 258.866 490.769 258.166 490.769 257.412C490.769 256.684 490.624 256.003 490.343 255.368C490.063 254.733 489.666 254.181 489.173 253.72C488.68 253.251 488.099 252.883 487.432 252.616C486.997 252.441 486.532 252.321 486.049 252.266H486.116V250.02H484.337V252.192L484.83 252.211H483.205V250.02H481.425V252.202L476.859 252.192V254.254H478.639V268.025H476.859V270.05H481.425V272.02H483.205V270.05H484.337V272.02H486.116V270.05H485.401C486.155 270.05 486.871 269.912 487.529 269.636C488.196 269.36 488.767 268.982 489.26 268.504C489.753 268.025 490.14 267.464 490.43 266.819C490.711 266.175 490.856 265.484 490.856 264.739C490.875 264.343 490.808 263.975 490.682 263.616ZM481.077 254.227H485.323C485.71 254.227 486.078 254.319 486.416 254.494C486.755 254.678 487.055 254.908 487.316 255.202C487.567 255.497 487.77 255.819 487.925 256.197C488.07 256.565 488.148 256.951 488.148 257.329C488.148 257.679 488.07 258.019 487.925 258.351C487.78 258.682 487.577 258.967 487.326 259.225C487.074 259.474 486.774 259.676 486.436 259.823C486.097 259.971 485.729 260.044 485.333 260.044H481.086V254.227H481.077ZM488.022 265.954C487.877 266.341 487.674 266.681 487.422 266.985C487.171 267.289 486.871 267.528 486.532 267.721C486.194 267.905 485.826 268.007 485.43 268.007H481.067V262.106H485.43C485.817 262.106 486.184 262.18 486.523 262.327C486.861 262.474 487.161 262.677 487.413 262.925C487.664 263.174 487.867 263.459 488.012 263.782C488.157 264.104 488.235 264.435 488.235 264.785C488.244 265.181 488.167 265.567 488.022 265.954Z" fill="white"/>
<path d="M405.439 364.81L402.897 363.168C397.193 359.482 397.193 356.721 397.193 355.673C397.193 353.088 399.29 351 401.867 351C403.29 351 404.574 351.638 405.43 352.651C406.286 351.638 407.571 351 408.994 351C411.58 351 413.668 353.096 413.668 355.673C413.668 356.713 413.667 359.482 407.964 363.168L405.439 364.81Z" fill="white"/>
<circle cx="171" cy="364" r="28" fill="#515667"/>
<path d="M181.047 370H160.953C159.873 370 159 369.134 159 368.062V356.938C159 355.866 159.873 355 160.953 355H181.047C182.127 355 183 355.866 183 356.938V368.062C182.994 369.134 182.121 370 181.047 370Z" fill="#515667" stroke="white" stroke-width="2" stroke-miterlimit="10" stroke-linejoin="round"/>
<path d="M166 373H176" stroke="white" stroke-width="2" stroke-miterlimit="10" stroke-linecap="round" stroke-linejoin="round"/>
<path d="M171 370V373" stroke="white" stroke-width="2" stroke-miterlimit="10" stroke-linejoin="round"/>
<path d="M179.154 367H162.846C162.381 367 162 366.676 162 366.271V358.729C162 358.328 162.376 358 162.846 358H179.154C179.619 358 180 358.324 180 358.729V366.271C179.995 366.676 179.619 367 179.154 367Z" fill="white"/>
<circle cx="325" cy="250" r="31" fill="#E0E0E0"/>
<path d="M332.021 262.144H318.878C317.859 262.144 317.041 261.317 317.041 260.306V240.579C317.041 239.559 317.867 238.741 318.878 238.741H332.021C333.041 238.741 333.859 239.568 333.859 240.579V260.306C333.859 261.317 333.033 262.144 332.021 262.144Z" fill="white"/>
<path d="M322.889 258.944H328.005" stroke="#E0E0E0" stroke-miterlimit="10" stroke-linecap="round"/>
<path d="M499.47 230H171.54C165.44 230 160.5 225.06 160.5 218.96V11.04C160.5 4.93998 165.44 0 171.54 0H499.47C505.57 0 510.51 4.93998 510.51 11.04V218.97C510.5 225.06 505.56 230 499.47 230Z" fill="white"/>
<rect x="261" y="181" width="37" height="13" rx="2" fill="#F55681"/>
<rect x="376" y="181" width="32" height="13" rx="2" fill="#E6E6E6"/>
<rect x="485" y="181" width="22" height="13" rx="2" fill="#E6E6E6"/>
<path d="M249 181H183C181.343 181 180 182.343 180 184C180 185.657 181.343 187 183 187H249C250.657 187 252 185.657 252 184C252 182.343 250.657 181 249 181Z" fill="#F55681"/>
<path d="M216 192H183C181.343 192 180 193.343 180 195C180 196.657 181.343 198 183 198H216C217.657 198 219 196.657 219 195C219 193.343 217.657 192 216 192Z" fill="#F55681"/>
<path d="M359 181H314C312.343 181 311 182.343 311 184C311 185.657 312.343 187 314 187H359C360.657 187 362 185.657 362 184C362 182.343 360.657 181 359 181Z" fill="#E6E6E6"/>
<path d="M468 181H423C421.343 181 420 182.343 420 184C420 185.657 421.343 187 423 187H468C469.657 187 471 185.657 471 184C471 182.343 469.657 181 468 181Z" fill="#E6E6E6"/>
<path d="M340 192H314C312.343 192 311 193.343 311 195C311 196.657 312.343 198 314 198H340C341.657 198 343 196.657 343 195C343 193.343 341.657 192 340 192Z" fill="#E6E6E6"/>
<path d="M449 192H423C421.343 192 420 193.343 420 195C420 196.657 421.343 198 423 198H449C450.657 198 452 196.657 452 195C452 193.343 450.657 192 449 192Z" fill="#E6E6E6"/>
<path d="M290.9 166H187.1C183.179 166 180 162.795 180 158.841V54.1592C180 50.2053 183.179 47 187.1 47H290.9C294.821 47 298 50.2053 298 54.1592V158.831C298 162.795 294.821 166 290.9 166Z" fill="#F55681"/>
<path d="M402.446 166H316.554C313.482 166 311 163.508 311 160.446V74.5542C311 71.4823 313.492 69 316.554 69H402.446C405.518 69 408 71.4918 408 74.5542V160.446C408 163.508 405.518 166 402.446 166Z" stroke="#E0E0E0" stroke-miterlimit="10" stroke-linejoin="round"/>
<path d="M501 166H425.565C422.487 166 420 163.508 420 160.446V74.5542C420 71.4823 422.497 69 425.565 69H501V166Z" stroke="#E0E0E0" stroke-miterlimit="10" stroke-linejoin="round"/>
<path d="M220.814 110.111L210.145 145.679C209.5 147.83 211.093 150 213.303 150H262.696C264.916 150 266.5 147.83 265.855 145.679L255.185 110.111C254.787 108.796 254.55 107.442 254.474 106.069L253.317 86.1721C254.635 86.1721 255.308 89.3026 255.308 89.3026L265.494 87.7566C265.494 87.7566 265.494 78.471 260.401 71.2595C255.308 64.0384 247.161 64.0384 247.161 64.0384C247.161 66.6119 242.068 69.1757 237.99 69.1757V69.1373C233.912 69.1373 228.819 66.5831 228.819 64C228.819 64 220.672 64 215.579 71.221C210.486 78.4421 210.486 87.7181 210.486 87.7181L220.672 89.2642C220.672 89.2642 221.345 86.1338 222.664 86.1338L221.507 106.069C221.44 107.442 221.203 108.796 220.814 110.111Z" fill="white"/>
<path d="M386.22 143.409H331.478C329.693 143.409 328.32 141.825 328.558 140.06L333.233 106.64C333.433 105.19 334.683 104.103 336.152 104.103H381.536C383.005 104.103 384.245 105.181 384.455 106.64L389.13 140.06C389.387 141.835 388.014 143.409 386.22 143.409Z" stroke="#E0E0E0" stroke-miterlimit="10" stroke-linejoin="round"/>
<path d="M338.91 102.147C338.91 96.1743 343.747 91.3374 349.719 91.3374H367.999C373.971 91.3374 378.808 96.1743 378.808 102.147" stroke="#E0E0E0" stroke-miterlimit="10" stroke-linecap="round"/>
<mask id="path-40-inside-1_13_4223" fill="white">
<path d="M454.711 125.502C454.854 125.502 454.968 125.616 454.968 125.759V147.168C454.968 147.311 454.854 147.426 454.711 147.426H444.665C444.522 147.426 444.407 147.311 444.407 147.168V125.759C444.407 125.616 444.522 125.502 444.665 125.502H454.711ZM454.711 124.548H444.665C443.997 124.548 443.453 125.092 443.453 125.759V147.168C443.453 147.836 443.997 148.38 444.665 148.38H454.711C455.379 148.38 455.922 147.836 455.922 147.168V125.759C455.932 125.092 455.388 124.548 454.711 124.548Z"/>
</mask>
<path d="M454.711 125.502C454.854 125.502 454.968 125.616 454.968 125.759V147.168C454.968 147.311 454.854 147.426 454.711 147.426H444.665C444.522 147.426 444.407 147.311 444.407 147.168V125.759C444.407 125.616 444.522 125.502 444.665 125.502H454.711ZM454.711 124.548H444.665C443.997 124.548 443.453 125.092 443.453 125.759V147.168C443.453 147.836 443.997 148.38 444.665 148.38H454.711C455.379 148.38 455.922 147.836 455.922 147.168V125.759C455.932 125.092 455.388 124.548 454.711 124.548Z" fill="#E0E0E0"/>
<path d="M455.922 125.759L454.923 125.745L454.922 125.752V125.759H455.922ZM454.711 126.502C454.302 126.502 453.968 126.169 453.968 125.759H455.968C455.968 125.064 455.406 124.502 454.711 124.502V126.502ZM453.968 125.759V147.168H455.968V125.759H453.968ZM453.968 147.168C453.968 146.759 454.302 146.426 454.711 146.426V148.426C455.406 148.426 455.968 147.863 455.968 147.168H453.968ZM454.711 146.426H444.665V148.426H454.711V146.426ZM444.665 146.426C445.074 146.426 445.407 146.759 445.407 147.168H443.407C443.407 147.863 443.969 148.426 444.665 148.426V146.426ZM445.407 147.168V125.759H443.407V147.168H445.407ZM445.407 125.759C445.407 126.169 445.074 126.502 444.665 126.502V124.502C443.97 124.502 443.407 125.064 443.407 125.759H445.407ZM444.665 126.502H454.711V124.502H444.665V126.502ZM454.711 123.548H444.665V125.548H454.711V123.548ZM444.665 123.548C443.445 123.548 442.453 124.539 442.453 125.759H444.453C444.453 125.644 444.549 125.548 444.665 125.548V123.548ZM442.453 125.759V147.168H444.453V125.759H442.453ZM442.453 147.168C442.453 148.388 443.445 149.38 444.665 149.38V147.38C444.549 147.38 444.453 147.283 444.453 147.168H442.453ZM444.665 149.38H454.711V147.38H444.665V149.38ZM454.711 149.38C455.931 149.38 456.922 148.388 456.922 147.168H454.922C454.922 147.283 454.826 147.38 454.711 147.38V149.38ZM456.922 147.168V125.759H454.922V147.168H456.922ZM456.922 125.774C456.94 124.535 455.932 123.548 454.711 123.548V125.548C454.844 125.548 454.924 125.649 454.923 125.745L456.922 125.774Z" fill="#E0E0E0" mask="url(#path-40-inside-1_13_4223)"/>
<mask id="path-42-inside-2_13_4223" fill="white">
<path d="M453.41 119.549L453.438 119.577L453.41 123.145L445.405 123.117L445.434 119.549H453.41ZM453.41 118.595H445.444C444.9 118.595 444.461 119.034 444.461 119.577V123.117C444.461 123.661 444.9 124.099 445.444 124.099H453.41C453.954 124.099 454.392 123.661 454.392 123.117V119.577C454.402 119.034 453.954 118.595 453.41 118.595Z"/>
</mask>
<path d="M453.41 119.549L453.438 119.577L453.41 123.145L445.405 123.117L445.434 119.549H453.41ZM453.41 118.595H445.444C444.9 118.595 444.461 119.034 444.461 119.577V123.117C444.461 123.661 444.9 124.099 445.444 124.099H453.41C453.954 124.099 454.392 123.661 454.392 123.117V119.577C454.402 119.034 453.954 118.595 453.41 118.595Z" fill="#E0E0E0"/>
<path d="M453.41 119.549L454.116 118.841L453.823 118.549H453.41V119.549ZM453.438 119.577L454.438 119.585L454.442 119.166L454.145 118.87L453.438 119.577ZM453.41 123.145L453.406 124.145L454.402 124.149L454.41 123.153L453.41 123.145ZM445.405 123.117L444.405 123.109L444.397 124.113L445.402 124.117L445.405 123.117ZM445.434 119.549V118.549H444.442L444.434 119.541L445.434 119.549ZM454.392 119.577L453.393 119.56L453.392 119.569V119.577H454.392ZM452.703 120.257L452.732 120.285L454.145 118.87L454.116 118.841L452.703 120.257ZM452.438 119.569L452.41 123.137L454.41 123.153L454.438 119.585L452.438 119.569ZM453.413 122.145L445.409 122.117L445.402 124.117L453.406 124.145L453.413 122.145ZM446.405 123.125L446.434 119.557L444.434 119.541L444.405 123.109L446.405 123.125ZM445.434 120.549H453.41V118.549H445.434V120.549ZM453.41 117.595H445.444V119.595H453.41V117.595ZM445.444 117.595C444.348 117.595 443.461 118.481 443.461 119.577H445.461C445.461 119.577 445.461 119.58 445.459 119.583C445.458 119.586 445.457 119.588 445.455 119.589C445.454 119.59 445.452 119.592 445.449 119.593C445.446 119.595 445.443 119.595 445.444 119.595V117.595ZM443.461 119.577V123.117H445.461V119.577H443.461ZM443.461 123.117C443.461 124.213 444.348 125.099 445.444 125.099V123.099C445.443 123.099 445.446 123.1 445.449 123.101C445.452 123.102 445.454 123.104 445.455 123.105C445.457 123.106 445.458 123.108 445.459 123.111C445.461 123.114 445.461 123.117 445.461 123.117H443.461ZM445.444 125.099H453.41V123.099H445.444V125.099ZM453.41 125.099C454.506 125.099 455.392 124.213 455.392 123.117H453.392C453.392 123.117 453.393 123.114 453.394 123.111C453.395 123.108 453.397 123.106 453.398 123.105C453.399 123.104 453.401 123.102 453.404 123.101C453.407 123.1 453.41 123.099 453.41 123.099V125.099ZM455.392 123.117V119.577H453.392V123.117H455.392ZM455.392 119.595C455.412 118.469 454.489 117.595 453.41 117.595V119.595C453.41 119.595 453.409 119.595 453.407 119.594C453.406 119.594 453.405 119.593 453.404 119.592C453.403 119.59 453.4 119.587 453.397 119.58C453.394 119.573 453.393 119.565 453.393 119.56L455.392 119.595Z" fill="#E0E0E0" mask="url(#path-42-inside-2_13_4223)"/>
<mask id="path-44-inside-3_13_4223" fill="white">
<path d="M452.983 108.997L452.964 117.192L446.124 117.173V114.12C446.124 113.786 446.286 113.48 446.563 113.29L452.983 108.997ZM453.098 107.938C452.945 107.938 452.783 107.985 452.63 108.081L446.038 112.498C445.494 112.86 445.17 113.471 445.17 114.12V117.173C445.17 117.707 445.609 118.146 446.143 118.146H452.964C453.499 118.146 453.937 117.707 453.937 117.173V108.787C453.937 108.291 453.537 107.938 453.098 107.938Z"/>
</mask>
<path d="M452.983 108.997L452.964 117.192L446.124 117.173V114.12C446.124 113.786 446.286 113.48 446.563 113.29L452.983 108.997ZM453.098 107.938C452.945 107.938 452.783 107.985 452.63 108.081L446.038 112.498C445.494 112.86 445.17 113.471 445.17 114.12V117.173C445.17 117.707 445.609 118.146 446.143 118.146H452.964C453.499 118.146 453.937 117.707 453.937 117.173V108.787C453.937 108.291 453.537 107.938 453.098 107.938Z" fill="#E0E0E0"/>
<path d="M452.983 108.997L453.983 108.999L453.988 107.122L452.428 108.165L452.983 108.997ZM452.964 117.192L452.962 118.192L453.962 118.194L453.964 117.194L452.964 117.192ZM446.124 117.173H445.124V118.17L446.121 118.173L446.124 117.173ZM446.563 113.29L446.007 112.458L446.001 112.462L445.995 112.466L446.563 113.29ZM452.63 108.081L452.1 107.233L452.087 107.241L452.074 107.25L452.63 108.081ZM446.038 112.498L446.593 113.33L446.595 113.329L446.038 112.498ZM451.983 108.994L451.964 117.189L453.964 117.194L453.983 108.999L451.983 108.994ZM452.967 116.192L446.127 116.173L446.121 118.173L452.962 118.192L452.967 116.192ZM447.124 117.173V114.12H445.124V117.173H447.124ZM447.124 114.12C447.124 114.117 447.124 114.117 447.124 114.117C447.124 114.118 447.124 114.118 447.123 114.119C447.123 114.119 447.123 114.119 447.124 114.118C447.125 114.118 447.126 114.116 447.131 114.113L445.995 112.466C445.452 112.841 445.124 113.452 445.124 114.12H447.124ZM447.119 114.121L453.539 109.828L452.428 108.165L446.007 112.458L447.119 114.121ZM453.098 106.938C452.738 106.938 452.394 107.049 452.1 107.233L453.16 108.929C453.172 108.921 453.153 108.938 453.098 108.938V106.938ZM452.074 107.25L445.481 111.667L446.595 113.329L453.187 108.911L452.074 107.25ZM445.483 111.666C444.66 112.214 444.17 113.138 444.17 114.12H446.17C446.17 113.804 446.328 113.506 446.593 113.33L445.483 111.666ZM444.17 114.12V117.173H446.17V114.12H444.17ZM444.17 117.173C444.17 118.259 445.057 119.146 446.143 119.146V117.146C446.148 117.146 446.153 117.147 446.157 117.149C446.161 117.15 446.163 117.152 446.163 117.152C446.164 117.153 446.165 117.155 446.167 117.158C446.169 117.163 446.17 117.168 446.17 117.173H444.17ZM446.143 119.146H452.964V117.146H446.143V119.146ZM452.964 119.146C454.051 119.146 454.937 118.259 454.937 117.173H452.937C452.937 117.168 452.939 117.163 452.94 117.158C452.942 117.155 452.943 117.153 452.944 117.152C452.945 117.152 452.946 117.15 452.95 117.149C452.955 117.147 452.96 117.146 452.964 117.146V119.146ZM454.937 117.173V108.787H452.937V117.173H454.937ZM454.937 108.787C454.937 107.709 454.059 106.938 453.098 106.938V108.938C453.05 108.938 453.012 108.919 452.986 108.894C452.954 108.863 452.937 108.819 452.937 108.787H454.937Z" fill="#E0E0E0" mask="url(#path-44-inside-3_13_4223)"/>
<mask id="path-46-inside-4_13_4223" fill="white">
<path d="M471.169 125.502C471.56 125.502 471.884 125.826 471.884 126.217V146.72C471.884 147.111 471.56 147.435 471.169 147.435H461.943C461.552 147.435 461.227 147.111 461.227 146.72V126.217C461.227 125.826 461.552 125.502 461.943 125.502H471.169ZM471.169 124.548H461.943C461.027 124.548 460.273 125.292 460.273 126.217V146.72C460.273 147.635 461.018 148.389 461.943 148.389H471.169C472.084 148.389 472.838 147.645 472.838 146.72V126.217C472.829 125.302 472.084 124.548 471.169 124.548Z"/>
</mask>
<path d="M471.169 125.502C471.56 125.502 471.884 125.826 471.884 126.217V146.72C471.884 147.111 471.56 147.435 471.169 147.435H461.943C461.552 147.435 461.227 147.111 461.227 146.72V126.217C461.227 125.826 461.552 125.502 461.943 125.502H471.169ZM471.169 124.548H461.943C461.027 124.548 460.273 125.292 460.273 126.217V146.72C460.273 147.635 461.018 148.389 461.943 148.389H471.169C472.084 148.389 472.838 147.645 472.838 146.72V126.217C472.829 125.302 472.084 124.548 471.169 124.548Z" fill="#E0E0E0"/>
<path d="M472.838 126.217H473.838L473.838 126.207L472.838 126.217ZM471.169 126.502C471.007 126.502 470.884 126.379 470.884 126.217H472.884C472.884 125.274 472.112 124.502 471.169 124.502V126.502ZM470.884 126.217V146.72H472.884V126.217H470.884ZM470.884 146.72C470.884 146.558 471.007 146.435 471.169 146.435V148.435C472.112 148.435 472.884 147.663 472.884 146.72H470.884ZM471.169 146.435H461.943V148.435H471.169V146.435ZM461.943 146.435C462.104 146.435 462.227 146.558 462.227 146.72H460.227C460.227 147.663 461 148.435 461.943 148.435V146.435ZM462.227 146.72V126.217H460.227V146.72H462.227ZM462.227 126.217C462.227 126.379 462.104 126.502 461.943 126.502V124.502C461 124.502 460.227 125.274 460.227 126.217H462.227ZM461.943 126.502H471.169V124.502H461.943V126.502ZM471.169 123.548H461.943V125.548H471.169V123.548ZM461.943 123.548C460.479 123.548 459.273 124.736 459.273 126.217H461.273C461.273 125.848 461.576 125.548 461.943 125.548V123.548ZM459.273 126.217V146.72H461.273V126.217H459.273ZM459.273 146.72C459.273 148.184 460.462 149.389 461.943 149.389V147.389C461.574 147.389 461.273 147.087 461.273 146.72H459.273ZM461.943 149.389H471.169V147.389H461.943V149.389ZM471.169 149.389C472.633 149.389 473.838 148.201 473.838 146.72H471.838C471.838 147.089 471.536 147.389 471.169 147.389V149.389ZM473.838 146.72V126.217H471.838V146.72H473.838ZM473.838 126.207C473.823 124.756 472.646 123.548 471.169 123.548V125.548C471.523 125.548 471.834 125.847 471.838 126.228L473.838 126.207Z" fill="#E0E0E0" mask="url(#path-46-inside-4_13_4223)"/>
<mask id="path-48-inside-5_13_4223" fill="white">
<path d="M496.247 141.654V145.365C496.247 146.5 495.322 147.435 494.177 147.435H481.632C480.496 147.435 479.561 146.51 479.561 145.365V141.654H496.247ZM496.763 140.7H479.046C478.808 140.7 478.607 140.891 478.607 141.139V145.365C478.607 147.035 479.962 148.389 481.632 148.389H494.177C495.847 148.389 497.202 147.035 497.202 145.365V141.139C497.202 140.9 497.011 140.7 496.763 140.7Z"/>
</mask>
<path d="M496.247 141.654V145.365C496.247 146.5 495.322 147.435 494.177 147.435H481.632C480.496 147.435 479.561 146.51 479.561 145.365V141.654H496.247ZM496.763 140.7H479.046C478.808 140.7 478.607 140.891 478.607 141.139V145.365C478.607 147.035 479.962 148.389 481.632 148.389H494.177C495.847 148.389 497.202 147.035 497.202 145.365V141.139C497.202 140.9 497.011 140.7 496.763 140.7Z" fill="#E0E0E0"/>
<path d="M496.247 141.654H497.247V140.654H496.247V141.654ZM479.561 141.654V140.654H478.561V141.654H479.561ZM497.202 141.139H498.202H497.202ZM495.247 141.654V145.365H497.247V141.654H495.247ZM495.247 145.365C495.247 145.951 494.767 146.435 494.177 146.435V148.435C495.877 148.435 497.247 147.05 497.247 145.365H495.247ZM494.177 146.435H481.632V148.435H494.177V146.435ZM481.632 146.435C481.046 146.435 480.561 145.955 480.561 145.365H478.561C478.561 147.065 479.947 148.435 481.632 148.435V146.435ZM480.561 145.365V141.654H478.561V145.365H480.561ZM479.561 142.654H496.247V140.654H479.561V142.654ZM496.763 139.7H479.046V141.7H496.763V139.7ZM479.046 139.7C478.27 139.7 477.607 140.324 477.607 141.139H479.607C479.607 141.457 479.346 141.7 479.046 141.7V139.7ZM477.607 141.139V145.365H479.607V141.139H477.607ZM477.607 145.365C477.607 147.587 479.41 149.389 481.632 149.389V147.389C480.514 147.389 479.607 146.482 479.607 145.365H477.607ZM481.632 149.389H494.177V147.389H481.632V149.389ZM494.177 149.389C496.399 149.389 498.202 147.587 498.202 145.365H496.202C496.202 146.482 495.294 147.389 494.177 147.389V149.389ZM498.202 145.365V141.139H496.202V145.365H498.202ZM498.202 141.139C498.202 140.362 497.577 139.7 496.763 139.7V141.7C496.444 141.7 496.202 141.438 496.202 141.139H498.202Z" fill="#E0E0E0" mask="url(#path-48-inside-5_13_4223)"/>
<path d="M479.117 139.149V138.375H496.702V139.149H479.117Z" fill="#E0E0E0" stroke="#E0E0E0"/>
<mask id="path-51-inside-6_13_4223" fill="white">
<path d="M498.409 87.311L496.291 135.881H479.528L477.41 87.311H498.409ZM499.41 86.3569H476.428L478.603 136.367C478.612 136.635 478.832 136.835 479.099 136.835H496.739C497.006 136.835 497.216 136.625 497.235 136.367L499.41 86.3569Z"/>
</mask>
<path d="M498.409 87.311L496.291 135.881H479.528L477.41 87.311H498.409ZM499.41 86.3569H476.428L478.603 136.367C478.612 136.635 478.832 136.835 479.099 136.835H496.739C497.006 136.835 497.216 136.625 497.235 136.367L499.41 86.3569Z" fill="#E0E0E0"/>
<path d="M498.409 87.311L499.408 87.3545L499.453 86.311H498.409V87.311ZM496.291 135.881V136.881H497.248L497.29 135.924L496.291 135.881ZM479.528 135.881L478.529 135.924L478.571 136.881H479.528V135.881ZM477.41 87.311V86.311H476.366L476.411 87.3545L477.41 87.311ZM499.41 86.3569L500.409 86.4004L500.455 85.3569H499.41V86.3569ZM476.428 86.3569V85.3569H475.383L475.429 86.4004L476.428 86.3569ZM478.603 136.367L479.602 136.332L479.602 136.324L478.603 136.367ZM497.235 136.367L498.232 136.441L498.234 136.426L498.234 136.411L497.235 136.367ZM497.41 87.2674L495.292 135.837L497.29 135.924L499.408 87.3545L497.41 87.2674ZM496.291 134.881H479.528V136.881H496.291V134.881ZM480.527 135.837L478.409 87.2674L476.411 87.3545L478.529 135.924L480.527 135.837ZM477.41 88.311H498.409V86.311H477.41V88.311ZM499.41 85.3569H476.428V87.3569H499.41V85.3569ZM475.429 86.4004L477.604 136.411L479.602 136.324L477.427 86.3135L475.429 86.4004ZM477.604 136.403C477.633 137.239 478.324 137.835 479.099 137.835V135.835C479.339 135.835 479.592 136.03 479.602 136.332L477.604 136.403ZM479.099 137.835H496.739V135.835H479.099V137.835ZM496.739 137.835C497.559 137.835 498.177 137.191 498.232 136.441L496.238 136.294C496.255 136.059 496.453 135.835 496.739 135.835V137.835ZM498.234 136.411L500.409 86.4004L498.411 86.3135L496.236 136.324L498.234 136.411Z" fill="#E0E0E0" mask="url(#path-51-inside-6_13_4223)"/>
<path d="M466.239 96.0542H466.731V123.608H465.928V96.3651C465.928 96.1929 466.066 96.0542 466.239 96.0542Z" fill="#E0E0E0" stroke="#E0E0E0"/>
<path d="M463.977 95.062H468.68C468.853 95.062 468.991 95.2007 468.991 95.3729C468.991 95.5452 468.853 95.6838 468.68 95.6838H463.977C463.805 95.6838 463.666 95.5452 463.666 95.3729C463.666 95.2007 463.805 95.062 463.977 95.062Z" fill="#E0E0E0" stroke="#E0E0E0"/>
<path d="M463.164 97.5054H469.49C469.662 97.5054 469.801 97.644 469.801 97.8163C469.801 97.9885 469.662 98.1272 469.49 98.1272H463.164C462.992 98.1272 462.854 97.9885 462.854 97.8163C462.854 97.644 462.992 97.5054 463.164 97.5054Z" fill="#E0E0E0" stroke="#E0E0E0"/>
<path d="M462.705 99.9468H469.937C470.109 99.9468 470.248 100.085 470.248 100.258C470.248 100.43 470.109 100.569 469.937 100.569H462.705C462.533 100.569 462.395 100.43 462.395 100.258C462.395 100.085 462.533 99.9468 462.705 99.9468Z" fill="#E0E0E0" stroke="#E0E0E0"/>
<path d="M463.164 102.38H469.49C469.662 102.38 469.801 102.519 469.801 102.691C469.801 102.864 469.662 103.002 469.49 103.002H463.164C462.992 103.002 462.854 102.864 462.854 102.691C462.854 102.519 462.992 102.38 463.164 102.38Z" fill="#E0E0E0" stroke="#E0E0E0"/>
<path d="M463.977 104.822H468.68C468.853 104.822 468.991 104.96 468.991 105.133C468.991 105.305 468.853 105.444 468.68 105.444H463.977C463.805 105.444 463.666 105.305 463.666 105.133C463.666 104.96 463.805 104.822 463.977 104.822Z" fill="#E0E0E0" stroke="#E0E0E0"/>
<path d="M499.47 225H171.54C168.201 225 165.5 222.299 165.5 218.96V11.04C165.5 7.70137 168.201 5 171.54 5H499.47C502.809 5 505.51 7.70144 505.51 11.04V218.962C505.505 222.298 502.797 225 499.47 225Z" stroke="#21202F" stroke-width="10" stroke-miterlimit="10" stroke-linejoin="round"/>
<path d="M499.47 226H171.54C167.649 226 164.5 222.851 164.5 218.96V11.04C164.5 7.14909 167.649 4 171.54 4H499.47C503.361 4 506.51 7.14915 506.51 11.04V218.963C506.504 222.851 503.35 226 499.47 226Z" stroke="#515667" stroke-width="8" stroke-miterlimit="10" stroke-linejoin="round"/>
<path d="M183 27C184.657 27 186 25.6569 186 24C186 22.3431 184.657 21 183 21C181.343 21 180 22.3431 180 24C180 25.6569 181.343 27 183 27Z" fill="#F55681"/>
<path d="M197 27C198.657 27 200 25.6569 200 24C200 22.3431 198.657 21 197 21C195.343 21 194 22.3431 194 24C194 25.6569 195.343 27 197 27Z" fill="#2F2E41"/>
<path d="M211 27C212.657 27 214 25.6569 214 24C214 22.3431 212.657 21 211 21C209.343 21 208 22.3431 208 24C208 25.6569 209.343 27 211 27Z" fill="#E0E0E0"/>
<path d="M91.9118 101.16C91.9118 101.16 93.1518 100.99 94.2818 102.2C94.2818 102.2 93.9517 102.74 93.1017 102.66C93.1017 102.66 93.4917 103.61 92.5017 104.11C91.5117 104.61 90.3017 104.48 89.9717 103.78C89.6417 103.07 89.6017 101.4 89.9717 101.16C90.3417 100.92 90.7217 100.67 90.7217 100.67L91.9118 101.16Z" fill="#FAA5A5"/>
<path d="M19.1014 439.05C19.1014 439.05 18.0914 447.7 16.8314 454.84C15.5714 461.98 11.6914 471.15 8.29145 474.9C4.89145 478.65 0.541446 481.05 1.04145 488.94C1.55145 496.83 5.56146 498.1 6.24146 501.57C6.92146 505.04 5.49145 515.78 5.48145 520.08C5.47145 524.37 11.9114 528.35 22.7714 529.68C33.6314 531.01 42.0814 531.32 46.0414 529.27C49.9914 527.22 39.5715 513.58 34.1715 512.41C28.7715 511.24 27.7314 483.12 29.0714 474.03C30.4114 464.94 37.0414 447.1 37.0414 447.1L19.1014 439.05Z" fill="#FFB8B8" stroke="#FAA5A5" stroke-miterlimit="10" stroke-linejoin="round"/>
<path d="M56.0714 442.05C56.0714 442.05 59.0014 450.64 56.6814 463.94C54.3614 477.24 51.2014 488.28 51.2014 488.28C51.2014 488.28 47.8814 488.82 47.0814 493.62C46.2814 498.42 48.4214 510.66 48.9314 511.93C49.4414 513.2 58.6614 512.56 58.6614 512.56C58.6614 512.56 75.1315 524.23 80.5115 524.08C85.8915 523.93 109.771 524.63 114.041 523.39C116.511 522.67 114.591 516.27 111.691 515.26C108.791 514.25 99.3014 508.94 96.5914 506.46C93.8914 503.98 74.4414 493.37 73.6814 475.81C72.9314 458.25 77.1814 446.19 77.1814 446.19L56.0714 442.05Z" fill="#FFB8B8" stroke="#FAA5A5" stroke-miterlimit="10" stroke-linejoin="round"/>
<path d="M47.0808 493.61C46.2708 498.41 48.4209 510.65 48.9309 511.92C49.4409 513.19 58.6608 512.55 58.6608 512.55C58.6608 512.55 75.1309 524.22 80.5109 524.07C85.8909 523.92 109.771 524.62 114.041 523.38C116.511 522.66 114.591 516.26 111.691 515.25C109.821 514.6 105.211 512.16 101.451 509.84C58.9908 517.42 51.2108 488.26 51.2108 488.26C51.2108 488.26 47.8908 488.81 47.0808 493.61Z" fill="#2F2E41" stroke="#2F2E41" stroke-miterlimit="10" stroke-linejoin="round"/>
<path d="M1.04093 488.94C1.55093 496.83 5.56095 498.1 6.24095 501.57C6.92095 505.04 5.49094 515.78 5.48094 520.08C5.47094 524.37 11.9109 528.35 22.7709 529.68C33.6309 531.01 42.0809 531.32 46.0409 529.27C49.9909 527.22 39.5709 513.58 34.1709 512.41C28.6409 511.56 23.2209 513.26 19.4909 511.93C15.7609 510.6 13.4109 499.41 9.49095 491.7C5.57095 483.99 8.30094 474.91 8.30094 474.91C4.89094 478.65 0.530934 481.05 1.04093 488.94Z" fill="#2F2E41" stroke="#2F2E41" stroke-miterlimit="10" stroke-linejoin="round"/>
<path d="M39.0818 214.08V223.93C39.0818 223.93 31.6718 233.86 30.2818 243.58C28.8918 253.3 33.1318 263.54 33.1318 263.54C33.1318 263.54 31.5518 274.64 34.0318 287.1C36.5218 299.57 45.5618 343.68 45.5618 343.68C45.5618 343.68 36.4318 354.24 32.6618 366.94C28.8918 379.64 25.0418 413.87 22.9918 421.03C20.9418 428.19 12.8418 443.43 12.8418 443.43C12.8418 443.43 16.2218 450.23 27.8518 452.06C35.0818 453.2 38.8118 450.5 38.8118 450.5L63.1218 391.62L54.5218 443.43C54.5218 443.43 57.6318 447.89 65.4618 448.9C73.2918 449.91 75.9818 448.86 78.1418 447.05C80.3018 445.24 106.332 289.51 108.662 265.63C110.992 241.75 97.2918 214.11 94.6318 208.23C91.9718 202.35 59.1718 203.03 59.1718 203.03L37.6218 207.6L39.0818 214.08Z" fill="#E6E6E6" stroke="#E0E0E0" stroke-miterlimit="10" stroke-linejoin="round"/>
<path d="M59.7815 438.79C59.2815 433.48 68.3615 391.61 68.3615 391.61C86.0415 341.4 87.4315 271.18 87.4315 271.18C87.4315 271.18 80.0815 350.54 63.1215 391.61L54.5215 443.42C54.5215 443.42 57.6315 447.88 65.4615 448.89C73.2915 449.9 75.9815 448.85 78.1415 447.04C68.7115 449.49 60.2815 444.1 59.7815 438.79Z" fill="#E0E0E0"/>
<path d="M34.1016 247.99L30.3516 228.73L46.0316 227.09L52.9515 254.39L37.0215 258.54L34.1016 247.99Z" fill="#2F2E41"/>
<path d="M34.101 247.99C34.011 248.1 31.091 252.55 39.861 251.12C48.621 249.69 55.101 248.8 63.941 243.06C63.941 243.06 61.7909 267.89 61.4109 270.04C61.0309 272.19 43.4709 278.38 42.0809 278.25C40.6909 278.12 37.8809 277.37 37.0109 274.84C36.1409 272.31 31.9609 252.48 31.9609 252.48L32.481 246.96L34.101 247.99Z" fill="#E6E6E6"/>
<path d="M34.1018 247.99C34.0118 248.1 31.0918 252.55 39.8618 251.12C48.6218 249.69 55.1018 248.8 63.9418 243.06" stroke="#E0E0E0" stroke-miterlimit="10" stroke-linejoin="round"/>
<path d="M45.3715 109.35C45.3715 109.35 31.7315 111 20.1715 118.96C8.61151 126.92 5.02148 180.14 5.02148 202.04C5.02148 202.04 25.5515 199.06 35.4615 201.17V210.86C35.4615 210.86 70.3715 214.52 94.6315 208.22V194.37C94.6315 194.37 103.692 180.16 103.902 169.36C104.112 158.56 98.0015 149.41 98.0015 149.41C98.0015 149.41 97.7015 140.5 94.9715 138.16C92.2415 135.82 55.8715 114.81 55.8715 114.81L45.3715 109.35Z" fill="#F55681"/>
<path d="M61.0212 50.9199C61.0212 50.9199 59.7812 49.2799 56.3012 48.5999C52.8212 47.9199 43.6112 54.9899 36.0312 64.8999C28.4512 74.8199 14.4612 100.29 20.1112 121.68C25.7712 143.06 47.9512 141.83 64.9912 135.86C64.9912 135.86 43.1312 129.76 43.3112 109.87C43.4912 89.9799 51.3512 65.7399 51.3512 65.7399L61.0212 50.9199Z" fill="#2F2E41"/>
<path d="M62.1208 62.2397C65.7052 62.2397 68.6108 59.3341 68.6108 55.7498C68.6108 52.1654 65.7052 49.2598 62.1208 49.2598C58.5365 49.2598 55.6309 52.1654 55.6309 55.7498C55.6309 59.3341 58.5365 62.2397 62.1208 62.2397Z" fill="white" stroke="#E0E0E0" stroke-miterlimit="10" stroke-linejoin="round"/>
<path d="M81.5714 121.71C87.2599 121.71 91.8715 117.098 91.8715 111.41C91.8715 105.721 87.2599 101.11 81.5714 101.11C75.8829 101.11 71.2715 105.721 71.2715 111.41C71.2715 117.098 75.8829 121.71 81.5714 121.71Z" stroke="#F55681" stroke-miterlimit="10"/>
<path d="M73.311 119.86C74.321 120.11 75.4111 120.22 76.4011 120.02C78.3811 119.63 84.4311 114.99 87.7211 112.24C88.3411 111.75 89.2611 111.91 90.0011 111.85C90.5811 111.8 91.0611 111.35 91.1511 110.77C91.4911 108.68 91.3811 104.49 91.3611 104.04C91.3311 103.55 91.6811 102.23 92.6111 101.71C93.0511 101.46 93.8411 101.27 94.3311 101.15C94.9811 100.99 95.521 100.53 95.801 99.9199C97.661 95.9199 98.0011 93.1199 98.0011 93.1199L101.191 88.3799L95.2111 77.21L61.701 79.1699L54.1411 89.3099C54.1411 89.3099 50.4211 99.5999 48.1411 104.86C47.4711 106.39 46.6311 107.72 45.7711 108.84C45.6411 109.02 45.5111 109.19 45.3711 109.35C45.6411 111.89 47.1311 121.14 54.8011 128.14C63.7911 136.33 71.4211 134.01 71.3511 130.91C71.2911 127.81 68.4811 125.7 66.6911 124.1C65.8911 123.39 65.3911 122.54 65.0411 121.6C64.6911 120.67 64.491 119.65 64.261 118.59C64.161 118.3 64.0811 118.01 64.0311 117.71C63.5611 115.44 64.061 113.07 64.951 111.47C68.191 115.22 72.631 119.7 73.311 119.86Z" fill="#FFB8B8" stroke="#FAA5A5" stroke-miterlimit="10" stroke-linejoin="round"/>
<path d="M73.231 51.3298C67.671 48.8298 58.261 51.5798 53.461 57.9798C48.661 64.3898 48.261 76.7298 48.941 82.7098C49.621 88.6898 51.531 92.0598 52.871 93.9498C54.211 95.8398 58.851 94.2098 58.851 94.2098C58.851 94.2098 57.231 91.8498 57.631 88.9798C58.031 86.1098 59.841 85.1198 61.931 85.7498C64.021 86.3898 66.031 88.3898 65.601 93.5798C65.401 95.9598 67.751 96.9798 67.751 96.9798C67.751 96.9798 65.431 92.0698 69.301 90.7998C73.171 89.5298 75.4511 87.3198 76.4111 86.3898C77.3711 85.4598 79.4911 85.0198 82.9011 86.7698C86.3111 88.5198 89.191 89.0298 92.351 86.3898C94.341 84.7298 94.641 81.7798 94.641 81.7798C94.641 81.7798 97.551 89.4498 94.361 94.6998C94.361 94.6998 100.111 96.0298 107.801 91.1898C111.831 88.6598 111.571 84.8898 111.161 81.6198C110.751 78.3598 109.831 74.0597 108.301 71.5997C106.771 69.1397 101.801 67.0498 94.341 65.0898C86.881 63.1298 76.911 52.9798 73.231 51.3298Z" fill="#2F2E41"/>
<path d="M70.9112 128.93C70.0412 126.87 68.0711 125.34 66.6911 124.11C65.8911 123.4 65.3911 122.55 65.0411 121.61C64.6911 120.68 64.4911 119.66 64.2611 118.6C64.2511 118.56 64.2411 118.51 64.2311 118.47C64.1611 118.25 64.1111 118.04 64.0611 117.82C64.0511 117.79 64.0411 117.75 64.0311 117.72C64.0111 117.63 64.0011 117.53 63.9911 117.44C63.9411 117.13 63.9011 116.82 63.8811 116.51C63.8711 116.32 63.8611 116.12 63.8611 115.93C63.8611 115.76 63.8711 115.59 63.8811 115.43C63.8911 115.24 63.9111 115.05 63.9311 114.86C63.9511 114.71 63.9611 114.57 63.9811 114.42C64.0311 114.11 64.0911 113.82 64.1611 113.53C64.1911 113.42 64.2211 113.32 64.2511 113.21C64.3111 113 64.3811 112.79 64.4611 112.59C64.5011 112.49 64.5411 112.39 64.5811 112.29C64.7011 112.01 64.8211 111.74 64.9611 111.49C63.4411 109.73 62.1811 108.14 61.7011 107.23C60.4611 104.84 60.3911 99.2298 60.4011 97.5098C60.2711 97.8398 57.7711 104.71 60.6311 114.7C63.5111 124.76 69.4112 126.22 70.9112 128.93Z" fill="#FAA5A5"/>
<path d="M62.0305 118.45C67.719 118.45 72.3304 113.838 72.3304 108.15C72.3304 102.461 67.719 97.8496 62.0305 97.8496C56.3419 97.8496 51.7305 102.461 51.7305 108.15C51.7305 113.838 56.3419 118.45 62.0305 118.45Z" stroke="#F55681" stroke-miterlimit="10"/>
<path d="M34.9707 145.61C34.9707 145.61 40.2307 152.61 38.8307 167.5C37.4307 182.39 34.9907 195.28 39.7407 200.13L47.0007 198.45C47.0007 198.45 40.4607 193.36 40.4507 185.03C40.4507 176.69 44.9007 156.21 34.9707 145.61Z" fill="#D44E72"/>
<path d="M97.5911 145.19C94.1411 141.9 88.891 137.43 83.291 134.61C83.291 134.61 92.1511 141.08 98.0011 149.41C98.0011 149.41 97.9311 147.49 97.5911 145.19Z" fill="#D44E72"/>
<path d="M19.6406 142.46C19.6406 142.46 22.6306 138.04 25.0306 140.12C27.4306 142.2 32.7006 167.85 31.9606 176.94C31.9606 176.94 27.8106 144.89 23.7206 141.57C21.7006 139.93 19.6406 142.46 19.6406 142.46Z" fill="#D44E72"/>
<path d="M7.71094 201.69C7.71094 201.69 8.35095 215.33 8.35095 221.53C8.35095 227.73 15.5809 232.35 23.5109 229.23C31.4409 226.11 75.9709 196.26 75.9709 196.26C75.9709 196.26 87.0509 197.16 90.8409 196.15C94.6309 195.13 100.911 192.04 104.591 192.12C108.271 192.2 114.351 198.34 114.351 198.34H122.671C122.671 198.34 118.701 187.34 111.781 184.04C104.861 180.74 78.811 182.97 71.231 182.97C63.651 182.97 40.5309 196.54 31.9609 200.67C31.9609 200.66 23.6709 199.24 7.71094 201.69Z" fill="#FFB8B8" stroke="#FAA5A5" stroke-miterlimit="10" stroke-linejoin="round"/>
<path d="M165.882 195.63H73.5117V200.28H165.882V195.63Z" fill="#2F2E41" stroke="#2F2E41" stroke-miterlimit="10" stroke-linejoin="round"/>
<path d="M165.871 200.28H112.191L153.041 147.27H203.171L165.871 200.28Z" fill="#515667" stroke="#515667" stroke-miterlimit="10" stroke-linejoin="round"/>
<path d="M158.49 185.54C156.5 187.06 155.81 187.77 155.58 188.11C155.65 187.57 155.66 186.39 154.54 185.45C153.04 184.19 147.34 187.29 139.75 200.28H119.47C119.47 200.28 112.4 206.57 104.07 209.85C100.84 211.12 98.5702 212.34 96.9902 213.37C98.8502 217.54 101.36 223.51 103.6 230.41C107.36 227.52 115.78 220.88 121.53 214.89C129.13 206.97 142.27 208.77 147.68 205.64C153.09 202.51 154.23 197.7 157.04 194.1C159.86 190.5 163.87 185.16 165.25 184.13C165.25 184.13 162.09 182.79 158.49 185.54Z" fill="#FFB8B8" stroke="#FAA5A5" stroke-miterlimit="10" stroke-linejoin="round"/>
<path d="M87.3301 110.89C87.3301 110.89 87.7801 111.11 88.2601 111.11C88.7401 111.11 89.0601 111.23 89.0601 110.89C89.0601 110.55 88.6701 110.28 88.1901 110.28C87.7201 110.28 87.3301 110.89 87.3301 110.89Z" fill="#FAA5A5"/>
<path d="M84.0911 114.87C84.6611 115.25 83.6311 116.34 83.1111 116.19C82.5911 116.04 79.5412 113.29 78.9112 111.04C78.7212 110.35 79.7911 110.91 79.9911 111.29C80.1811 111.66 81.6311 113.2 84.0911 114.87Z" fill="#FAA5A5"/>
<path d="M83.291 93.1799C84.581 92.7899 86.0311 92.9499 87.2111 93.6099C87.7411 93.9099 88.2211 94.3099 88.5911 94.7999C88.7611 95.0299 88.911 95.2699 89.041 95.5199C89.421 96.2499 89.6711 97.0399 89.7611 97.8599" stroke="#FAA5A5" stroke-miterlimit="10" stroke-linecap="round"/>
<path d="M92.9102 100.5C93.5502 100.3 94.2701 100.37 94.8601 100.68" stroke="#FAA5A5" stroke-miterlimit="10" stroke-linecap="round"/>
<path d="M85.4206 99.5889C85.9242 99.9937 86.4033 99.7068 86.8082 99.2032C87.213 98.6995 87.3903 98.1699 86.8867 97.7651C86.3831 97.3602 85.8612 97.6129 85.4564 98.1165C85.0515 98.6201 84.917 99.184 85.4206 99.5889Z" fill="#FAA5A5"/>
<path d="M45.3514 135.63C39.3714 134.02 33.7114 130.53 30.4614 125.26C27.6514 120.69 26.8414 115.18 26.6014 109.82C25.8814 93.2899 30.3914 76.6199 39.0714 62.5499C40.1514 60.7999 41.3214 59.1099 42.5214 57.4399C40.3314 59.6399 38.1114 62.15 36.0214 64.89C28.4414 74.81 14.4514 100.28 20.1014 121.67C25.5314 142.21 46.2014 141.88 62.9214 136.53C57.0514 137.13 51.0514 137.16 45.3514 135.63Z" fill="#21202F"/>
<path d="M61.781 51.7798C58.591 53.0498 55.581 55.1597 53.461 57.9897C48.661 64.3997 48.261 76.7398 48.941 82.7198C49.621 88.6998 51.531 92.0698 52.871 93.9598C54.211 95.8498 58.851 94.2198 58.851 94.2198C58.851 94.2198 57.231 91.8597 57.631 88.9897C58.031 86.1197 59.841 85.1298 61.931 85.7598C63.001 86.0898 64.061 86.7798 64.771 88.0798C64.611 87.4898 64.361 86.9398 63.941 86.4698C62.541 84.8898 60.111 84.8798 58.211 83.9598C55.441 82.6198 54.071 79.4497 53.461 76.4297C51.821 68.2797 54.421 59.4397 60.041 53.3497C60.401 52.9697 61.131 52.4098 61.781 51.7798Z" fill="#21202F"/>
<path d="M342.601 390.72H293.711V417.49H342.601V390.72Z" fill="#E6E6E6" stroke="#E0E0E0" stroke-miterlimit="10" stroke-linejoin="round"/>
<path d="M408.83 445.059H367.3C365.48 445.059 364 443.579 364 441.759V410.739C364 408.919 365.48 407.439 367.3 407.439H408.83C410.65 407.439 412.13 408.919 412.13 410.739V441.759C412.13 443.579 410.65 445.059 408.83 445.059Z" fill="#E0E0E0" stroke="#E0E0E0" stroke-miterlimit="10" stroke-linejoin="round"/>
<path d="M378.301 392.91C381.021 392.91 383.221 395.11 383.221 397.83V407.45H378.301C375.581 407.45 373.381 405.25 373.381 402.53V397.83C373.381 395.11 375.581 392.91 378.301 392.91Z" stroke="#E0E0E0" stroke-miterlimit="10" stroke-linejoin="round"/>
<path d="M397.901 392.91C395.181 392.91 392.98 395.11 392.98 397.83V407.45H397.901C400.621 407.45 402.82 405.25 402.82 402.53V397.83C402.82 395.11 400.621 392.91 397.901 392.91Z" stroke="#E0E0E0" stroke-miterlimit="10" stroke-linejoin="round"/>
<rect x="383" y="408" width="10" height="37" fill="white"/>
<path d="M421.291 428.61V418.51C421.291 403.16 433.731 390.72 449.081 390.72H457.671" stroke="#E0E0E0" stroke-miterlimit="10" stroke-linejoin="round"/>
<path d="M421.292 502.42H283.712L252.912 423.93C251.702 420.85 253.972 417.53 257.282 417.53H421.292V502.42Z" fill="white" stroke="#E0E0E0" stroke-miterlimit="10" stroke-linejoin="round"/>
<path d="M283.711 502.42L292.921 522.91L327.421 502.42H283.711Z" stroke="#E0E0E0" stroke-miterlimit="10" stroke-linejoin="round"/>
<path d="M421.292 502.42V522.91L388.312 502.42H421.292Z" stroke="#E0E0E0" stroke-miterlimit="10" stroke-linejoin="round"/>
<path d="M293.711 539.07C302.459 539.07 309.551 531.978 309.551 523.23C309.551 514.481 302.459 507.39 293.711 507.39C284.963 507.39 277.871 514.481 277.871 523.23C277.871 531.978 284.963 539.07 293.711 539.07Z" fill="#515667"/>
<path d="M293.712 529.78C297.33 529.78 300.262 526.847 300.262 523.23C300.262 519.612 297.33 516.68 293.712 516.68C290.095 516.68 287.162 519.612 287.162 523.23C287.162 526.847 290.095 529.78 293.712 529.78Z" fill="white"/>
<path d="M421.291 539.07C430.039 539.07 437.131 531.978 437.131 523.23C437.131 514.481 430.039 507.39 421.291 507.39C412.543 507.39 405.451 514.481 405.451 523.23C405.451 531.978 412.543 539.07 421.291 539.07Z" fill="#515667"/>
<path d="M421.292 529.78C424.91 529.78 427.842 526.847 427.842 523.23C427.842 519.612 424.91 516.68 421.292 516.68C417.675 516.68 414.742 519.612 414.742 523.23C414.742 526.847 417.675 529.78 421.292 529.78Z" fill="white"/>
<path d="M293.711 443.08H377.761" stroke="#E0E0E0" stroke-miterlimit="10" stroke-linecap="round" stroke-linejoin="round"/>
<path d="M301.281 461.21H396.901" stroke="#E0E0E0" stroke-miterlimit="10" stroke-linecap="round" stroke-linejoin="round"/>
<path d="M307.211 479.33H396.901" stroke="#E0E0E0" stroke-miterlimit="10" stroke-linecap="round" stroke-linejoin="round"/>
<path d="M324.902 438.85V489.75" stroke="#E0E0E0" stroke-miterlimit="10" stroke-linecap="round" stroke-linejoin="round"/>
<path d="M345.312 457.92V486.41" stroke="#E0E0E0" stroke-miterlimit="10" stroke-linecap="round" stroke-linejoin="round"/>
<path d="M365.711 427.479V477.5" stroke="#E0E0E0" stroke-miterlimit="10" stroke-linecap="round" stroke-linejoin="round"/>
<path d="M386.121 448.32V489.75" stroke="#E0E0E0" stroke-miterlimit="10" stroke-linecap="round" stroke-linejoin="round"/>
<path d="M307.157 303H181.031C174.994 303 170.101 298.107 170.101 292.069V267.73L154 257H180.528H307.145C313.182 257 318.075 261.893 318.075 267.931V292.057C318.088 298.107 313.195 303 307.157 303Z" fill="#F55681"/>
<path d="M190.756 273.453H296.215" stroke="white" stroke-width="2" stroke-miterlimit="10" stroke-linecap="round"/>
<path d="M190.777 287.705H267.507" stroke="white" stroke-width="2" stroke-miterlimit="10" stroke-linecap="round"/>
</svg>
