<svg width="630" height="552" viewBox="0 0 630 552" fill="none" xmlns="http://www.w3.org/2000/svg">
<path d="M408.984 228.1H408.588C404.508 227.893 401.254 224.511 401.254 220.38V151.48C401.254 148.756 403.47 146.54 406.194 146.54H467.644C471.908 146.54 475.374 150.006 475.374 154.27V170.43H461.704C461.148 170.43 460.704 170.874 460.704 171.43V220.45C460.704 224.674 457.268 228.1 453.054 228.1H408.984Z" fill="white" stroke="#E0E0E0"/>
<path d="M475.374 170.93H475.864V170.94H461.704H461.615C461.647 170.933 461.68 170.93 461.714 170.93H475.374ZM460.019 224.697C458.589 227.044 456.006 228.61 453.054 228.61H408.984C404.44 228.61 400.754 224.924 400.754 220.38V151.48C400.754 149.508 401.804 147.781 403.374 146.827C401.811 147.785 400.764 149.509 400.764 151.47V220.37C400.764 224.906 404.458 228.6 408.994 228.6H453.064C456.005 228.6 458.586 227.037 460.019 224.697ZM468.144 146.055V146.055C470.811 146.215 473.137 147.647 474.52 149.754C473.133 147.65 470.807 146.216 468.144 146.055Z" fill="#E0E0E0" stroke="#E0E0E0"/>
<path d="M461.703 171.43V154.001C461.703 150.017 464.949 146.771 468.933 146.771H469.143C473.127 146.771 476.373 150.017 476.373 154.001V171.43H461.703Z" fill="#E0E0E0" stroke="#E0E0E0"/>
<path d="M461.203 154.01C461.203 152.108 461.893 150.364 463.036 149.016C461.899 150.362 461.213 152.102 461.213 154V171.44V171.539C461.207 171.507 461.203 171.474 461.203 171.44V154.01Z" fill="#E0E0E0" stroke="#E0E0E0"/>
<path d="M399.193 229.11C394.379 229.11 390.463 225.194 390.463 220.38V203.22H444.253V220.38C444.253 225.196 448.167 229.11 452.983 229.11H399.193Z" fill="#E0E0E0" stroke="#E0E0E0"/>
<path d="M452.983 228.61V229.11V229.61C453.257 229.61 453.483 229.384 453.483 229.11C453.483 228.836 453.257 228.61 452.983 228.61ZM452.983 228.61C448.439 228.61 444.753 224.924 444.753 220.38C444.753 224.916 448.447 228.61 452.983 228.61Z" fill="#E0E0E0" stroke="#E0E0E0"/>
<path d="M411.953 159.1H438.213" stroke="#E0E0E0" stroke-miterlimit="10" stroke-linecap="round" stroke-linejoin="round"/>
<path d="M411.953 171.43H438.213" stroke="#E0E0E0" stroke-miterlimit="10" stroke-linecap="round" stroke-linejoin="round"/>
<path d="M411.953 183.76H438.213" stroke="#E0E0E0" stroke-miterlimit="10" stroke-linecap="round" stroke-linejoin="round"/>
<path d="M411.953 196.08H438.213" stroke="#E0E0E0" stroke-miterlimit="10" stroke-linecap="round" stroke-linejoin="round"/>
<path d="M450.104 156.12H445.684V160.54H450.104V156.12Z" stroke="#E0E0E0" stroke-miterlimit="10" stroke-linecap="round" stroke-linejoin="round"/>
<path d="M446.633 157.8L447.893 158.75L452.983 154.96" stroke="#E0E0E0" stroke-miterlimit="10" stroke-linecap="round" stroke-linejoin="round"/>
<path d="M450.104 168.64H445.684V173.06H450.104V168.64Z" stroke="#E0E0E0" stroke-miterlimit="10" stroke-linecap="round" stroke-linejoin="round"/>
<path d="M446.633 170.32L447.893 171.27L452.983 167.48" stroke="#E0E0E0" stroke-miterlimit="10" stroke-linecap="round" stroke-linejoin="round"/>
<path d="M450.104 181.16H445.684V185.58H450.104V181.16Z" stroke="#E0E0E0" stroke-miterlimit="10" stroke-linecap="round" stroke-linejoin="round"/>
<path d="M446.633 182.84L447.893 183.79L452.983 180" stroke="#E0E0E0" stroke-miterlimit="10" stroke-linecap="round" stroke-linejoin="round"/>
<path d="M450.104 193.68H445.684V198.1H450.104V193.68Z" stroke="#E0E0E0" stroke-miterlimit="10" stroke-linecap="round" stroke-linejoin="round"/>
<path d="M446.633 195.36L447.893 196.3L452.983 192.52" stroke="#E0E0E0" stroke-miterlimit="10" stroke-linecap="round" stroke-linejoin="round"/>
<path d="M211.203 268.79C211.433 268.25 211.623 267.69 211.753 267.12C214.883 263.22 216.753 258.36 216.523 253.19C216.093 243.55 210.273 235.06 201.693 231.71C201.713 230.83 201.553 229.94 201.173 229.15C201.173 229.08 201.183 229 201.173 228.93C200.763 219.72 193.703 211.93 184.173 211.93C181.853 211.93 179.563 212.47 177.453 213.42C176.903 213.27 176.313 213.17 175.663 213.17C175.483 213.17 175.323 213.18 175.153 213.2C174.623 211.89 173.453 210.87 171.623 210.87C171.593 210.87 171.573 210.87 171.543 210.88C170.733 202.06 163.843 194.76 154.623 194.76C146.843 194.76 139.373 200.75 137.893 208.39C136.193 207.75 134.353 207.38 132.393 207.38C127.053 207.38 121.873 210.38 118.913 214.79C118.723 214.92 118.553 215.06 118.403 215.23C117.633 216.06 117.283 217.02 117.283 217.98C116.653 219.68 116.313 221.5 116.403 223.38C116.413 223.69 116.453 223.99 116.483 224.29C114.773 224.8 113.633 226.03 113.033 227.5C111.003 225.97 108.363 225.03 105.113 225.03C90.6027 225.03 88.2027 243.86 97.9527 250.06C97.2627 252.44 97.1826 255.01 97.7126 257.43C94.9626 259.51 93.0727 262.79 93.0627 267.28C93.0427 275.28 95.5627 282.79 99.5527 289.66C102.843 295.34 107.003 301.68 111.813 306.15C119.523 313.33 130.473 314.66 139.233 310.58C142.453 313.33 145.663 316.09 148.883 318.84C150.163 319.94 151.703 320.65 153.283 320.88C153.643 323.79 155.713 326.45 159.503 326.45C164.623 326.45 166.603 321.58 165.453 317.8C169.583 317.91 173.763 317.2 178.073 315.64C186.873 312.46 193.523 308.77 196.893 299.5C197.503 297.83 197.653 296.06 197.453 294.29C197.723 293.98 197.983 293.65 198.193 293.29C199.873 294.03 201.723 294.44 203.643 294.44C211.213 294.44 217.643 288.01 217.643 280.44C217.633 275.65 215.033 271.32 211.203 268.79Z" fill="#2F2E41"/>
<path d="M217.503 278.64C217.123 279.61 216.793 280.63 216.443 281.55C214.203 287.32 207.433 290.93 201.393 289.55C199.843 289.2 198.323 288.56 196.743 288.64C192.513 288.85 190.343 293.62 188.563 297.46C186.873 301.11 184.613 304.67 181.203 306.81C177.793 308.95 173.043 309.32 169.893 306.82C166.283 303.96 165.963 298.74 164.733 294.3C162.783 287.28 157.733 281.18 151.203 277.95C144.673 274.72 136.763 274.4 129.993 277.11C129.563 279.54 131.873 281.47 133.033 283.64C134.853 287.05 133.663 291.56 130.843 294.19C128.023 296.83 123.913 297.76 120.063 297.42C112.003 296.69 104.973 290.61 102.023 283.08C99.0731 275.55 99.8732 266.88 103.073 259.45C104.573 255.98 106.613 252.23 105.383 248.66C104.653 246.52 102.873 244.95 101.613 243.07C99.2331 239.5 98.8732 234.67 100.703 230.78C101.513 229.07 102.733 227.56 104.213 226.38C104.753 225.95 105.673 225.57 106.393 225.09C105.973 225.06 105.543 225.03 105.093 225.03C90.5831 225.03 88.1832 243.86 97.9332 250.06C97.2432 252.44 97.1632 255.01 97.6932 257.43C94.9432 259.51 93.0531 262.79 93.0431 267.28C93.0231 275.28 95.5431 282.79 99.5331 289.66C102.823 295.34 106.983 301.68 111.793 306.15C119.503 313.33 130.453 314.66 139.213 310.58C142.433 313.33 145.643 316.09 148.863 318.84C150.143 319.94 151.683 320.65 153.263 320.88C153.623 323.79 155.693 326.45 159.483 326.45C164.603 326.45 166.583 321.58 165.433 317.8C169.563 317.91 173.743 317.2 178.053 315.64C186.853 312.46 193.503 308.77 196.873 299.5C197.483 297.83 197.633 296.06 197.433 294.29C197.703 293.98 197.963 293.65 198.173 293.29C199.853 294.03 201.703 294.44 203.623 294.44C211.193 294.44 217.623 288.01 217.623 280.44C217.633 279.85 217.583 279.24 217.503 278.64Z" fill="#21202F"/>
<path d="M139.873 291.36C139.873 291.36 141.743 312.79 137.203 320.04C132.663 327.29 116.743 327.41 111.943 326.46C111.943 326.46 120.783 356.77 148.823 361.6C176.863 366.44 192.273 347.74 189.493 341.18C186.713 334.61 172.563 335.97 168.523 327.33C164.483 318.69 169.283 310.86 169.283 310.86L139.873 291.36Z" fill="#A0616A" stroke="#864B53" stroke-miterlimit="10" stroke-linejoin="round"/>
<path d="M168.532 327.34C164.492 318.7 169.292 310.87 169.292 310.87L141.152 293.48C141.472 295.17 143.142 297.24 143.752 298.54C145.162 301.56 145.602 304.95 146.882 308.03C149.912 315.35 157.042 319.95 162.742 325.46C165.122 327.76 167.302 330.28 169.962 332.25C172.622 334.22 175.892 335.62 179.182 335.23C179.382 335.21 179.582 335.17 179.792 335.13C175.292 333.55 170.592 331.75 168.532 327.34Z" fill="#864B53"/>
<path d="M168.244 316.44C163.594 315.83 151.114 308.21 145.404 301.74C142.694 298.67 141.614 295.53 140.834 293.25C140.694 292.83 140.554 292.44 140.424 292.08C139.384 289.25 139.504 285.64 139.604 284.22C139.624 283.99 139.484 283.78 139.264 283.71C137.234 283.03 135.104 282.23 133.254 280.71C129.774 277.85 127.424 272.58 129.894 268.45C131.124 266.39 133.244 265.26 135.844 265.26C138.014 265.26 140.274 266.11 141.884 267.53C142.424 268 142.914 268.56 143.394 269.22C143.484 269.35 143.644 269.43 143.804 269.43H143.814C143.974 269.43 144.134 269.34 144.224 269.21C146.654 265.6 150.024 262.74 154.234 260.72C154.364 260.66 154.454 260.55 154.494 260.41L154.994 258.7C155.174 258.1 155.414 257.31 155.714 256.55C155.744 256.49 155.754 256.42 155.754 256.35C155.734 255.42 156.054 254.56 156.704 253.8C156.734 253.77 156.754 253.73 156.774 253.7C157.104 253.03 157.664 252.49 158.434 252.09C159.414 251.58 160.384 251.33 161.394 251.33C164.294 251.33 166.954 253.4 169.524 255.4L170.204 255.93C172.184 257.46 173.864 258.2 175.344 258.2C176.424 258.2 177.374 257.79 178.144 256.99C178.554 256.57 178.844 255.88 179.124 255.21C179.344 254.69 179.574 254.14 179.824 253.82C180.364 253.13 180.764 252.74 181.294 252.41L181.414 252.34C181.504 252.29 181.834 252.1 181.834 252.1C181.884 252.07 181.924 252.04 181.984 252.02C182.054 251.99 182.094 251.98 182.134 251.96L182.304 251.88C182.754 251.68 183.204 251.55 183.664 251.51C183.964 251.46 184.234 251.44 184.504 251.44C188.494 251.44 191.314 256.34 192.514 260.54C193.434 263.76 193.464 267.1 192.614 271.06C192.404 272.01 191.924 273.01 191.404 274.06C190.804 275.28 190.184 276.55 190.014 277.8C189.944 278.14 190.104 278.94 191.214 283.13C191.444 283.98 191.674 284.87 191.694 285.01C192.244 289.14 192.124 291.68 183.514 304.16C179.604 309.77 173.764 314.47 168.244 316.44Z" fill="#A0616A"/>
<path d="M161.363 250.81V251.81C164.093 251.81 166.683 253.83 169.183 255.77L169.873 256.3C171.943 257.9 173.723 258.67 175.313 258.67C176.543 258.67 177.603 258.21 178.473 257.3C178.943 256.81 179.253 256.08 179.553 255.37C179.763 254.88 179.973 254.36 180.193 254.09C180.693 253.45 181.053 253.1 181.573 252.77C181.603 252.75 181.633 252.73 181.633 252.73C181.713 252.68 181.804 252.63 181.914 252.58C181.964 252.55 182.013 252.52 182.053 252.5C182.083 252.48 182.113 252.46 182.133 252.45C182.183 252.43 182.233 252.41 182.313 252.38L182.393 252.34L182.473 252.3C182.873 252.12 183.273 252.01 183.683 251.97C183.703 251.97 183.713 251.97 183.733 251.96C183.983 251.92 184.223 251.9 184.463 251.9C188.173 251.9 190.843 256.6 191.993 260.63C192.893 263.77 192.923 267.04 192.083 270.9C191.893 271.79 191.414 272.76 190.914 273.78C190.314 275.01 189.683 276.29 189.493 277.59C189.373 277.97 189.463 278.58 190.703 283.21C190.913 283.99 191.144 284.88 191.174 285.02C191.664 288.71 191.963 290.94 183.083 303.82C179.283 309.33 173.593 313.94 168.193 315.9C163.543 315.2 151.383 307.73 145.773 301.38C143.123 298.38 142.073 295.3 141.303 293.06C141.163 292.64 141.023 292.24 140.893 291.88C139.883 289.15 140.003 285.62 140.103 284.22C140.133 283.77 139.854 283.35 139.424 283.2C137.444 282.53 135.353 281.76 133.563 280.29C130.253 277.56 127.983 272.56 130.313 268.67C131.853 266.1 134.433 265.72 135.833 265.72C137.883 265.72 140.024 266.52 141.544 267.87C142.054 268.32 142.523 268.85 142.983 269.48C143.173 269.74 143.474 269.89 143.794 269.89C143.804 269.89 143.803 269.89 143.813 269.89C144.143 269.88 144.443 269.72 144.623 269.45C147.003 265.91 150.303 263.11 154.443 261.13C154.703 261.01 154.893 260.78 154.973 260.51L155.223 259.64L155.463 258.8C155.713 257.92 155.934 257.28 156.174 256.7C156.224 256.57 156.253 256.44 156.243 256.3C156.223 255.5 156.503 254.75 157.073 254.09C157.123 254.03 157.173 253.96 157.213 253.88C157.493 253.31 157.983 252.84 158.653 252.49C159.563 252.02 160.453 251.79 161.383 251.79L161.363 250.81ZM161.363 250.81C160.333 250.81 159.274 251.05 158.174 251.63C157.254 252.11 156.653 252.75 156.303 253.46C155.523 254.38 155.213 255.38 155.233 256.35C154.943 257.06 154.703 257.81 154.493 258.55C154.323 259.12 154.163 259.69 153.993 260.26C149.893 262.22 146.373 265.06 143.783 268.92C143.323 268.28 142.803 267.69 142.193 267.15C140.463 265.62 138.103 264.75 135.813 264.75C133.303 264.75 130.863 265.8 129.433 268.19C126.783 272.61 129.333 278.15 132.903 281.09C134.763 282.62 136.873 283.44 139.073 284.18C138.923 286.34 138.974 289.67 139.924 292.25C140.804 294.64 141.733 298.37 145.003 302.07C150.823 308.66 163.563 316.43 168.273 316.95C173.983 314.96 179.973 310.08 183.873 304.42C192.683 291.64 192.683 289.05 192.133 284.92C192.073 284.47 190.293 278.23 190.443 277.88C190.723 275.68 192.563 273.34 193.033 271.15C193.823 267.51 193.963 264.02 192.933 260.39C191.753 256.25 188.863 250.93 184.443 250.93C184.153 250.93 183.853 250.95 183.553 251C183.063 251.05 182.554 251.18 182.044 251.42C181.984 251.45 181.933 251.47 181.873 251.5C181.823 251.52 181.763 251.53 181.713 251.56C181.603 251.61 181.514 251.67 181.414 251.73C181.304 251.79 181.203 251.84 181.103 251.9C181.063 251.93 181.013 251.95 180.973 251.98C180.373 252.36 179.933 252.79 179.373 253.51C178.753 254.31 178.373 255.97 177.733 256.64C177.003 257.4 176.164 257.7 175.294 257.7C173.564 257.7 171.743 256.52 170.463 255.54C167.713 253.38 164.713 250.81 161.363 250.81Z" fill="#864B53"/>
<path d="M138.912 289.4C141.432 289.4 143.482 291.45 143.482 293.97C143.482 296.49 141.432 298.54 138.912 298.54C136.392 298.54 134.342 296.49 134.342 293.97C134.342 291.45 136.392 289.4 138.912 289.4ZM138.912 288.4C135.832 288.4 133.342 290.9 133.342 293.97C133.342 297.05 135.832 299.54 138.912 299.54C141.992 299.54 144.482 297.04 144.482 293.97C144.482 290.89 141.992 288.4 138.912 288.4Z" fill="#F55681"/>
<path d="M190.201 464.78C174.651 464.78 157.941 453.12 155.461 451.33L199.941 345.09H206.691C208.501 347.86 226.671 377.47 217.841 433.16C214.521 454.14 205.221 464.78 190.201 464.78Z" fill="#A0616A"/>
<path d="M206.432 345.59C208.852 349.4 225.982 378.73 217.362 433.08C214.082 453.78 204.942 464.28 190.212 464.28C175.372 464.28 159.412 453.51 156.092 451.15L200.292 345.59H206.432ZM206.972 344.59H199.612L154.852 451.5C154.852 451.5 173.072 465.28 190.202 465.28C202.592 465.28 214.402 458.07 218.342 433.24C227.732 374.05 206.972 344.59 206.972 344.59Z" fill="#864B53"/>
<path d="M32.7734 500.87C32.7734 500.87 6.62341 520.89 9.26341 550.23H180.573V475.74L32.7734 500.87Z" fill="white"/>
<path d="M9.26341 550.24H19.1834C19.5534 546.61 21.2034 535.68 27.9234 529.12C29.2634 527.81 31.0134 526.95 32.8834 526.74C45.3334 525.3 51.3234 512.31 51.3234 512.31C51.3234 512.31 44.1234 506.08 37.1134 500.14L32.7834 500.88C32.7734 500.87 6.62341 520.89 9.26341 550.24Z" fill="#E6E6E6"/>
<path d="M200.653 362.83C201.993 356.26 204.013 349.97 206.973 344.6C206.973 344.6 203.123 338.89 188.233 337.69L188.223 337.68C187.973 337.62 184.463 336.08 180.293 334.79C180.403 335.29 201.333 346.53 174.853 358.96C169.603 361.42 141.853 361.12 131.493 351.84C125.063 346.07 121.383 341.73 118.833 331.47L118.193 326.35C109.743 326.08 99.1426 323.97 86.1526 325.74C82.1626 326.28 79.7827 336.11 75.3227 337.56C56.3727 343.71 -5.67736 421.13 22.1126 457.19C26.9126 463.41 27.3426 472.43 49.1227 462.5C45.2427 477.13 39.8927 491.73 32.7627 500.88C32.7627 500.88 47.2627 524.21 120.273 524.04C158.243 523.96 178.173 493.99 188.563 465.25C198.143 438.72 199.603 413.23 199.603 413.23C199.603 413.23 197.613 399.08 198.363 382.34C198.653 376 199.323 369.29 200.653 362.83Z" fill="#F55681"/>
<path d="M177.522 383.09C173.352 384.61 154.212 399.95 141.332 402.23C128.452 404.5 62.8922 445.62 71.6022 421.75C80.3222 397.88 94.9122 375.14 98.8022 363.8L85.2422 353.16L47.9022 362.09C41.6822 369.73 35.4722 378.61 30.1422 387.97L27.4422 417.19C27.4422 417.19 21.9422 434.71 17.9922 450.12C19.0522 452.61 20.4122 454.97 22.1022 457.17C26.9022 463.39 27.3322 472.41 49.1122 462.48C45.2322 477.11 39.8822 491.71 32.7522 500.86C32.7522 500.86 37.1322 507.91 53.1922 514.22C49.2022 511.07 48.9322 506.6 48.4522 502.49C47.6722 495.91 35.7822 496.48 50.3622 478.94C64.9422 461.4 89.5822 451.28 107.822 435.84C126.062 420.4 150.402 406.75 159.112 401.26C167.822 395.77 183.552 393.87 193.032 388.38C195.462 386.97 197.112 386 198.242 385.28C198.272 384.3 198.302 383.32 198.352 382.32C198.392 381.33 198.452 380.34 198.512 379.33C193.312 379 180.752 381.92 177.522 383.09Z" fill="#D44E72"/>
<path d="M65.2812 518.14C66.8112 518.54 68.4013 518.93 70.0613 519.31C68.9913 518.77 67.4313 518.36 65.2812 518.14Z" fill="#D44E72"/>
<path d="M15.8834 473.01C11.5434 473.01 8.45337 471.86 6.70337 469.6C-0.73663 459.95 -1.49665 445.34 4.43335 426.19C17.4034 384.3 59.8533 332.53 73.3333 328.16C77.5033 326.81 81.7933 325.82 86.1033 325.24C87.0833 325.11 88.0434 325.04 88.9534 325.04C99.1134 325.04 101.353 333.33 102.093 336.05C102.143 336.24 102.193 336.4 102.223 336.53C104.513 344.13 103.453 358.16 95.7333 371.04C89.2133 381.91 70.4834 403.35 62.1234 411.56C87.0134 398.49 130.283 388.93 139.123 387.06C142.163 386.41 145.433 383.02 148.243 379.8C149.413 378.45 150.573 377.04 151.813 375.54C153.113 373.96 154.453 372.33 155.803 370.79C159.303 366.79 163.483 362.58 167.863 361.64C169.693 361.25 171.973 360.98 174.663 360.84C176.053 360.77 177.563 360.74 179.153 360.74C179.863 360.74 180.583 360.75 181.313 360.76C184.733 360.82 188.583 361.04 192.443 361.38C195.433 361.64 198.383 361.98 200.753 362.33C202.493 362.58 203.913 362.84 204.763 363.07C206.083 363.42 206.913 364.08 207.203 365.01C207.603 366.26 206.903 367.65 206.423 368.4C207.423 368.86 209.293 369.98 209.293 371.95C209.293 374.12 204.053 374.88 201.053 375.13C201.663 375.76 202.263 376.78 202.263 378.37C202.263 380.11 201.033 381.6 198.613 382.79C195.873 384.13 192.343 384.72 190.923 384.91C191.093 385.58 191.013 386.21 190.683 386.8C189.683 388.61 186.303 389.88 180.643 390.59C177.813 390.96 175.253 391.05 174.473 391.08C166.883 401.16 147.293 403.49 145.283 403.7C109.543 430.01 75.4733 451.06 49.3633 462.96C34.6933 469.63 23.4434 473.01 15.8834 473.01Z" fill="#A0616A"/>
<path d="M88.9425 325.54C99.4425 325.54 101.162 334.78 101.732 336.67C104.132 344.63 102.682 358.46 95.2925 370.78C87.6225 383.56 62.4125 411.76 58.2925 414.26C82.4925 399.86 130.742 389.34 139.212 387.55C142.192 386.91 145.332 383.89 148.602 380.13C151.052 377.31 153.573 374.07 156.153 371.12C159.983 366.75 163.922 362.99 167.942 362.13C169.852 361.72 172.153 361.47 174.663 361.34C176.093 361.27 177.593 361.24 179.123 361.24C179.833 361.24 180.553 361.25 181.273 361.26C185.013 361.33 188.873 361.57 192.373 361.88C195.543 362.16 198.423 362.5 200.653 362.83C202.453 363.09 203.822 363.35 204.602 363.56C208.852 364.7 205.623 368.63 205.623 368.63C205.623 368.63 208.763 369.65 208.763 371.95C208.763 374.25 199.613 374.73 199.613 374.73C199.613 374.73 201.743 375.56 201.743 378.37C201.743 380.13 200.263 381.41 198.373 382.34C194.973 384 190.222 384.49 190.222 384.49C191.832 387.95 185.702 389.45 180.562 390.09C177.162 390.53 174.192 390.58 174.192 390.58C166.522 401.09 145.072 403.21 145.072 403.21C109.032 429.75 74.7125 450.84 49.1325 462.5C34.9825 468.95 23.5025 472.52 15.8825 472.52C11.7725 472.52 8.7825 471.48 7.1025 469.3C-20.6875 433.24 54.5325 334.79 73.4825 328.64C77.9425 327.19 82.1725 326.28 86.1625 325.74C87.1525 325.6 88.0725 325.54 88.9425 325.54ZM88.9425 324.54C88.0125 324.54 87.0325 324.61 86.0325 324.75C81.7025 325.34 77.3725 326.33 73.1825 327.69C66.1625 329.97 52.1125 344.06 38.2325 362.74C22.2525 384.26 9.75248 407.33 3.96248 426.05C-2.01752 445.37 -1.22747 460.12 6.32253 469.91C8.17253 472.3 11.3925 473.52 15.8925 473.52C23.5225 473.52 34.8525 470.12 49.5525 463.41C75.6725 451.5 109.722 430.47 145.452 404.18C148.092 403.89 167.042 401.45 174.702 391.57C175.692 391.54 178.052 391.43 180.692 391.09C186.592 390.35 190.002 389.03 191.102 387.05C191.332 386.64 191.532 386.06 191.482 385.34C193.152 385.08 196.302 384.48 198.822 383.25C201.432 381.97 202.753 380.33 202.753 378.38C202.753 377.17 202.423 376.24 201.993 375.56C205.583 375.19 209.773 374.26 209.773 371.96C209.773 370.03 208.243 368.83 207.113 368.21C207.583 367.34 208.053 366.08 207.663 364.87C207.423 364.11 206.733 363.1 204.873 362.6C204.013 362.37 202.572 362.1 200.802 361.85C198.422 361.5 195.462 361.16 192.472 360.89C188.592 360.55 184.732 360.33 181.302 360.27C180.572 360.26 179.853 360.25 179.133 360.25C177.533 360.25 176.023 360.28 174.623 360.35C171.903 360.49 169.593 360.76 167.743 361.16C163.213 362.13 158.973 366.41 155.413 370.47C154.063 372.02 152.713 373.65 151.413 375.23C150.183 376.72 149.022 378.14 147.852 379.48C145.102 382.64 141.903 385.96 139.003 386.58C130.483 388.38 89.9725 397.33 64.7125 409.69C74.0125 400.11 90.4625 380.78 96.1525 371.3C103.952 358.3 105.013 344.09 102.693 336.39C102.653 336.27 102.613 336.11 102.563 335.92C100.513 328.37 95.9325 324.54 88.9425 324.54Z" fill="#864B53"/>
<path d="M62.4324 411.95C71.0624 403.76 89.5524 382 96.0724 371.49C103.812 359.02 105.202 344.37 102.802 336.41C102.422 335.16 101.172 330.26 97.6224 327.38C97.6224 327.38 114.142 351.57 81.3624 387C51.2724 419.53 43.2024 424.63 44.2524 423.84C44.2524 423.84 50.8224 418.79 57.9924 414.45L62.4324 411.95Z" fill="#864B53"/>
<path d="M129.012 459.83C129.012 459.83 50.5717 489.64 55.4917 496.59C57.6917 499.68 70.5317 506.32 129.012 459.83Z" fill="#D44E72"/>
<path d="M205.623 368.63C205.623 368.63 192.683 366.87 182.703 369.39Z" fill="#A0616A"/>
<path d="M205.623 368.63C205.623 368.63 192.683 366.87 182.703 369.39" stroke="#864B53" stroke-miterlimit="10" stroke-linecap="round" stroke-linejoin="round"/>
<path d="M199.613 374.73C199.613 374.73 185.233 374.16 177.523 376.01Z" fill="#A0616A"/>
<path d="M199.613 374.73C199.613 374.73 185.233 374.16 177.523 376.01" stroke="#864B53" stroke-miterlimit="10" stroke-linecap="round" stroke-linejoin="round"/>
<path d="M190.223 384.49C190.223 384.49 179.673 383.41 172.723 386.19Z" fill="#A0616A"/>
<path d="M190.223 384.49C190.223 384.49 179.673 383.41 172.723 386.19" stroke="#864B53" stroke-miterlimit="10" stroke-linecap="round" stroke-linejoin="round"/>
<path d="M161.053 278.58C161.925 278.58 162.633 277.873 162.633 277C162.633 276.127 161.925 275.42 161.053 275.42C160.18 275.42 159.473 276.127 159.473 277C159.473 277.873 160.18 278.58 161.053 278.58Z" fill="#864B53"/>
<path d="M181.592 280.03C182.464 280.03 183.172 279.322 183.172 278.45C183.172 277.577 182.464 276.87 181.592 276.87C180.719 276.87 180.012 277.577 180.012 278.45C180.012 279.322 180.719 280.03 181.592 280.03Z" fill="#864B53"/>
<path d="M154.992 269.76C157.932 267.99 162.272 267.85 165.382 269.43C166.182 269.84 166.942 270.4 167.132 271.15" stroke="#864B53" stroke-miterlimit="10" stroke-linecap="round" stroke-linejoin="round"/>
<path d="M179.963 270.72C181.663 269.9 183.873 269.75 185.673 270.33C186.413 270.57 187.803 271.27 187.773 272.19" stroke="#864B53" stroke-miterlimit="10" stroke-linecap="round" stroke-linejoin="round"/>
<path d="M173.463 290.75C174.833 290.02 175.443 289.53 175.953 288.98C176.213 288.7 176.453 288.37 176.473 288C176.493 287.65 176.303 287.32 176.123 287.01C175.303 285.57 174.733 284.01 174.393 282.39C173.893 280.01 174.663 277.53 175.943 275.54" stroke="#864B53" stroke-miterlimit="10" stroke-linecap="round" stroke-linejoin="round"/>
<path d="M161.842 296.76C160.802 296.97 165.582 301.59 169.222 302.26C172.862 302.93 174.492 301.19 174.672 300.17C174.672 300.17 176.202 299.75 175.872 298.42C175.542 297.08 171.022 294.87 161.842 296.76Z" fill="#864B53"/>
<circle cx="323.5" cy="47.5" r="47" fill="white" stroke="#E6E6E6"/>
<path d="M330.955 38.433L329.945 41.4567C329.74 42.0755 329.163 42.49 328.509 42.49H304.073C303.04 42.49 302.31 43.4999 302.637 44.4805C302.842 45.0993 303.419 45.5138 304.073 45.5138H326.495C327.528 45.5138 328.258 46.5237 327.931 47.5043L323.897 59.6054C323.693 60.2241 323.115 60.6386 322.461 60.6386H302.736C302.083 60.6386 301.505 60.2241 301.3 59.6054L300.291 56.5816C299.964 55.6009 300.693 54.591 301.727 54.591H318.101C318.749 54.591 319.326 54.1765 319.537 53.5578C319.864 52.5771 319.134 51.5672 318.101 51.5672H299.713C299.059 51.5672 298.481 51.1527 298.277 50.534L294.243 38.433C293.916 37.4523 294.646 36.4424 295.679 36.4424H329.519C330.552 36.4424 331.282 37.4581 330.955 38.433Z" fill="#F55681"/>
<path d="M346.727 38.4334L345.717 41.4572C345.513 42.076 344.935 42.4905 344.281 42.4905H338.998L341.012 36.4429H345.285C346.324 36.4429 347.054 37.4586 346.727 38.4334Z" fill="#F55681"/>
<path d="M352.922 29.3622L351.912 32.3859C351.708 33.0047 351.13 33.4192 350.476 33.4192H342.029L343.354 29.438C343.763 28.2063 344.919 27.3716 346.221 27.3716H351.486C352.519 27.3716 353.249 28.3815 352.922 29.3622Z" fill="#F55681"/>
<path d="M333.715 42.4961H338.998L333.294 59.6115C333.09 60.2303 332.512 60.6447 331.858 60.6447H328.671C327.638 60.6447 326.908 59.6348 327.235 58.6541L332.279 43.5293C332.483 42.9106 333.061 42.4961 333.715 42.4961Z" fill="#F55681"/>
<path d="M342.02 33.4189L341.011 36.4427H336.732C335.698 36.4427 334.969 35.4329 335.296 34.4522C335.5 33.8334 336.078 33.4189 336.732 33.4189H342.02Z" fill="#F55681"/>
<path d="M328.614 67.6791C329.952 67.6791 331.036 66.5945 331.036 65.2565C331.036 63.9186 329.952 62.834 328.614 62.834C327.276 62.834 326.191 63.9186 326.191 65.2565C326.191 66.5945 327.276 67.6791 328.614 67.6791Z" fill="#F55681"/>
<path d="M312.6 67.6791C313.938 67.6791 315.023 66.5945 315.023 65.2565C315.023 63.9186 313.938 62.834 312.6 62.834C311.262 62.834 310.178 63.9186 310.178 65.2565C310.178 66.5945 311.262 67.6791 312.6 67.6791Z" fill="#F55681"/>
<path d="M325 234C333.837 234 341 226.837 341 218C341 209.163 333.837 202 325 202C316.163 202 309 209.163 309 218C309 226.837 316.163 234 325 234Z" fill="#515667"/>
<path d="M330.626 220.203C330.521 219.901 330.366 219.614 330.17 219.343C329.975 219.071 329.739 218.823 329.462 218.598C329.185 218.374 328.875 218.172 328.533 218.002C329.225 217.684 329.763 217.265 330.138 216.73C330.512 216.203 330.7 215.614 330.7 214.978C330.7 214.366 330.578 213.792 330.341 213.258C330.105 212.723 329.771 212.258 329.356 211.87C328.94 211.475 328.452 211.165 327.89 210.94C327.523 210.793 327.132 210.692 326.725 210.645H326.782V208.754H325.283V210.583L325.698 210.599H324.33V208.754H322.831V210.591L318.986 210.583V212.32H320.485V223.916H318.986V225.621H322.831V227.28H324.33V225.621H325.283V227.28H326.782V225.621H326.179C326.814 225.621 327.417 225.505 327.971 225.273C328.533 225.04 329.014 224.722 329.429 224.319C329.844 223.916 330.17 223.443 330.415 222.901C330.651 222.358 330.773 221.777 330.773 221.149C330.789 220.815 330.732 220.505 330.626 220.203ZM322.538 212.296H326.114C326.44 212.296 326.749 212.374 327.034 212.521C327.319 212.676 327.572 212.87 327.792 213.118C328.004 213.366 328.175 213.637 328.305 213.955C328.427 214.265 328.492 214.591 328.492 214.909C328.492 215.203 328.427 215.49 328.305 215.769C328.183 216.048 328.012 216.288 327.8 216.505C327.588 216.715 327.336 216.885 327.05 217.009C326.765 217.133 326.456 217.195 326.122 217.195H322.546V212.296H322.538ZM328.386 222.172C328.264 222.498 328.093 222.784 327.881 223.04C327.67 223.296 327.417 223.497 327.132 223.66C326.847 223.815 326.537 223.901 326.203 223.901H322.53V218.932H326.203C326.529 218.932 326.839 218.994 327.124 219.118C327.409 219.242 327.661 219.412 327.873 219.622C328.085 219.831 328.256 220.071 328.378 220.343C328.5 220.614 328.566 220.893 328.566 221.187C328.574 221.521 328.509 221.846 328.386 222.172Z" fill="white"/>
<path d="M399.103 372.73C407.603 372.73 414.493 365.84 414.493 357.34C414.493 348.841 407.603 341.95 399.103 341.95C390.603 341.95 383.713 348.841 383.713 357.34C383.713 365.84 390.603 372.73 399.103 372.73Z" fill="#F55681"/>
<path d="M399.103 388.56C416.345 388.56 430.323 374.582 430.323 357.34C430.323 340.098 416.345 326.12 399.103 326.12C381.86 326.12 367.883 340.098 367.883 357.34C367.883 374.582 381.86 388.56 399.103 388.56Z" stroke="#F55681" stroke-miterlimit="10" stroke-linejoin="round"/>
<path d="M493.642 367.66C489.182 367.66 485.112 367.12 481.542 366.07C473.302 363.63 459.112 353.15 453.052 348.67C451.602 347.6 450.562 346.83 450.082 346.52C449.792 346.33 449.582 345.77 449.512 344.98C449.152 340.64 452.652 330.67 458.972 324.92C465.572 318.91 467.742 311.3 465.592 301.64C464.562 297 485.792 285.96 500.692 279.49C501.332 284.08 505.542 309.81 519.942 316.57C525.742 319.29 529.012 321.91 529.672 324.36C530.122 326.05 529.222 327.34 528.572 328.28C528.302 328.67 528.092 328.97 528.002 329.26C526.652 333.59 515.702 364.32 509.812 365.68C505.912 366.58 499.942 367.66 493.642 367.66Z" fill="#FFB8B8"/>
<path d="M500.292 280.21C501.202 286.24 505.682 310.43 519.732 317.02C526.782 320.33 528.772 322.91 529.192 324.49C529.582 325.96 528.802 327.09 528.162 327.99C527.872 328.41 527.632 328.74 527.522 329.11C525.622 335.19 514.922 363.98 509.692 365.19C505.812 366.09 499.882 367.16 493.632 367.16C489.222 367.16 485.192 366.63 481.672 365.59C473.512 363.17 459.372 352.73 453.332 348.27C451.822 347.16 450.832 346.42 450.332 346.1C450.262 346.06 450.062 345.75 449.992 344.93C449.642 340.69 453.082 330.93 459.292 325.28C465.942 319.23 468.222 311.23 466.072 301.52C465.892 300.69 466.562 297.32 482.992 288.58C490.142 284.78 497.472 281.46 500.292 280.21ZM501.102 278.76C501.102 278.76 463.582 294.92 465.102 301.74C466.622 308.56 466.622 317.28 458.632 324.55C450.642 331.82 447.292 345.32 449.812 346.94C452.322 348.56 471.172 363.51 481.402 366.54C485.382 367.72 489.602 368.15 493.642 368.15C499.992 368.15 505.932 367.08 509.932 366.16C516.482 364.64 528.012 330.92 528.482 329.4C528.952 327.88 535.592 323.34 520.162 316.1C504.732 308.86 501.102 278.76 501.102 278.76Z" fill="#E0E0E0"/>
<path d="M500.313 279.11C494.923 281.48 463.723 295.51 465.103 301.75C466.623 308.57 466.623 317.29 458.633 324.56C455.843 327.09 453.633 330.39 452.023 333.67C454.373 334.6 456.943 334.82 459.353 334C458.403 331.75 459.513 329.07 461.283 327.39C463.063 325.71 465.383 324.77 467.573 323.68C475.523 319.74 482.193 313.55 487.823 306.69C492.423 301.08 496.473 294.78 498.533 287.77C499.343 284.98 499.863 281.98 500.313 279.11Z" fill="#FAA5A5"/>
<path d="M627.793 461.22L572.713 462.49C572.713 462.49 592.193 508.02 592.703 550.81H405.733C405.733 550.81 378.333 508.22 384.203 461.74C389.053 423.54 396.583 382.71 408.003 360.77C418.353 340.88 433.203 329.85 458.633 324.55C458.633 324.55 457.383 347.42 470.823 352C484.263 356.58 510.773 352.94 520.163 316.11C520.163 316.11 540.483 310.41 557.123 319.5C573.753 328.6 637.613 397.05 627.793 461.22Z" fill="white" stroke="#E0E0E0" stroke-miterlimit="10" stroke-linejoin="round"/>
<path d="M418.353 534.87C426.883 537.87 451.753 531.87 439.453 520.37C427.153 508.87 418.603 486.11 418.603 486.11C418.603 486.11 402.743 514.91 401.223 517.44C399.713 519.96 409.813 531.87 418.353 534.87Z" fill="#E6E6E6"/>
<path d="M553.434 446.42C563.294 430.35 546.094 382.91 546.094 382.91C546.094 382.91 546.064 426.89 529.104 458.71C512.144 490.53 523.154 498.11 556.494 518.57C589.824 539.03 463.484 539.38 457.304 545.1C455.454 546.81 454.714 548.83 454.584 550.81H592.704C592.194 508.02 572.714 462.49 572.714 462.49L575.294 462.43C563.214 453.73 553.434 446.42 553.434 446.42Z" fill="#E0E0E0"/>
<path d="M440.052 509.19C439.792 509.19 439.523 509.16 439.273 509.1C438.633 508.95 438.172 508.6 437.862 508.05C436.712 505.97 438.062 501.88 438.072 501.84C438.122 501.7 438.103 501.56 438.033 501.43C437.963 501.31 437.842 501.22 437.702 501.19C437.682 501.19 435.563 500.72 434.523 498.76C433.603 497.04 433.733 494.68 434.913 491.76C437.733 484.76 448.392 464.05 459.952 460.93C461.762 460.44 463.722 460.2 465.952 460.2C469.172 460.2 472.513 460.69 476.033 461.21C479.863 461.78 483.823 462.36 487.993 462.36C491.663 462.36 495.002 461.9 498.212 460.95L500.682 460.22C515.642 455.77 550.683 445.34 578.543 445.34C579.463 445.34 580.363 445.35 581.263 445.37C608.383 446.05 621.093 454.37 622.993 455.72C622.293 458.55 616.433 479.73 597.113 483.56C590.373 484.9 578.143 485.58 560.763 485.58C535.663 485.58 508.342 484.13 508.062 484.12C508.052 484.12 508.043 484.12 508.033 484.12C507.953 484.12 507.872 484.14 507.802 484.18C507.732 484.21 501.202 487.58 490.322 487.58C487.882 487.58 485.383 487.41 482.873 487.08C482.853 487.08 482.832 487.08 482.802 487.08C482.632 487.08 482.483 487.16 482.383 487.3C482.323 487.39 475.992 496.66 466.452 496.66C465.692 496.66 465.653 495.05 465.653 495.04C465.653 494.82 465.512 494.63 465.302 494.56C465.252 494.55 465.203 494.54 465.153 494.54C464.993 494.54 464.832 494.62 464.732 494.76C464.692 494.83 460.202 501.41 455.852 501.41C455.422 501.41 454.992 501.34 454.592 501.21C452.062 500.38 452.763 496.22 452.763 496.18C452.803 495.93 452.663 495.69 452.423 495.62C452.373 495.61 452.323 495.6 452.273 495.6C452.083 495.6 451.902 495.71 451.822 495.89C451.782 496.01 445.672 509.19 440.052 509.19Z" fill="#FFB8B8"/>
<path d="M578.543 444.84V445.84C579.453 445.84 580.363 445.85 581.243 445.87C607.153 446.52 619.823 454.17 622.413 455.93C621.423 459.71 615.433 479.41 597.013 483.07C590.303 484.4 578.103 485.08 560.753 485.08C535.673 485.08 508.353 483.63 508.083 483.62C508.063 483.62 508.043 483.62 508.033 483.62C507.873 483.62 507.712 483.66 507.562 483.73C507.502 483.76 501.052 487.07 490.312 487.07C487.892 487.07 485.412 486.9 482.932 486.57C482.892 486.56 482.842 486.56 482.802 486.56C482.472 486.56 482.163 486.72 481.973 487C481.913 487.09 475.723 496.14 466.463 496.15C466.333 496.06 466.173 495.51 466.163 495.02C466.163 494.58 465.872 494.19 465.452 494.06C465.352 494.03 465.263 494.02 465.163 494.02C464.833 494.02 464.523 494.18 464.333 494.46C463.123 496.25 459.253 500.89 455.873 500.89C455.493 500.89 455.123 500.83 454.773 500.72C452.653 500.02 453.273 496.29 453.283 496.25C453.373 495.75 453.073 495.27 452.593 495.12C452.493 495.09 452.393 495.07 452.293 495.07C451.913 495.07 451.553 495.29 451.383 495.65C449.723 499.27 444.443 508.67 440.043 508.67C439.823 508.67 439.593 508.64 439.383 508.59C438.883 508.47 438.542 508.21 438.302 507.78C437.432 506.22 438.182 503.06 438.552 501.97C438.642 501.7 438.613 501.4 438.473 501.16C438.333 500.91 438.092 500.74 437.812 500.68C437.792 500.68 435.893 500.24 434.963 498.49C434.123 496.91 434.263 494.7 435.383 491.93C438.903 483.19 449.573 464.24 460.093 461.39C461.863 460.91 463.783 460.68 465.963 460.68C469.153 460.68 472.463 461.17 475.973 461.69C479.823 462.26 483.803 462.85 488.003 462.85C491.723 462.85 495.113 462.38 498.363 461.42L500.833 460.69C515.773 456.24 550.762 445.83 578.552 445.83L578.543 444.84ZM578.543 444.84C549.023 444.84 512.182 456.31 498.072 460.48C494.602 461.51 491.243 461.87 487.993 461.87C480.053 461.87 472.742 459.7 465.952 459.7C463.862 459.7 461.822 459.91 459.822 460.45C448.702 463.45 437.972 482.83 434.442 491.58C430.912 500.33 437.603 501.69 437.603 501.69C437.603 501.69 435.263 508.67 439.153 509.6C439.453 509.67 439.752 509.7 440.052 509.7C446.062 509.7 452.302 496.1 452.302 496.1C452.302 496.1 451.483 500.71 454.463 501.69C454.933 501.84 455.403 501.91 455.873 501.91C460.543 501.91 465.163 495.04 465.163 495.04C465.163 495.04 465.163 497.16 466.463 497.16C476.393 497.16 482.802 487.58 482.802 487.58C485.492 487.94 488.002 488.09 490.312 488.09C501.462 488.09 508.023 484.63 508.023 484.63C508.023 484.63 535.343 486.09 560.743 486.09C575.413 486.09 589.442 485.6 597.192 484.06C618.372 479.86 623.533 455.52 623.533 455.52C623.533 455.52 611.193 445.63 581.253 444.88C580.363 444.85 579.463 444.84 578.543 444.84Z" fill="#FAA5A5"/>
<path d="M405.733 550.81H376.453C376.453 550.81 378.333 508.22 384.203 461.74C392.413 464.96 405.523 467.48 426.003 465.92C426.003 465.92 426.273 525.42 405.733 550.81Z" fill="#FAA5A5"/>
<path d="M438.492 380.67C438.502 380.62 438.512 380.6 438.512 380.6C438.512 380.6 438.502 380.63 438.492 380.67Z" fill="#E6E6E6"/>
<path d="M438.492 380.669C437.892 383.229 420.382 456.829 394.862 460.319C391.232 460.819 387.652 461.319 384.192 461.849C383.242 469.409 383.182 476.859 383.732 484.049C390.622 484.079 426.012 465.919 426.012 465.919C428.212 424.929 438.052 382.569 438.492 380.669Z" fill="#E0E0E0"/>
<path d="M437.604 501.68C439.314 496.9 446.293 484.46 452.303 477.27" stroke="#FAA5A5" stroke-miterlimit="10" stroke-linecap="round" stroke-linejoin="round"/>
<path d="M452.303 496.09C454.893 492.01 459.853 485.02 462.303 481.21" stroke="#FAA5A5" stroke-miterlimit="10" stroke-linecap="round" stroke-linejoin="round"/>
<path d="M465.164 495.03C465.164 495.03 471.074 485.25 474.224 482.97" stroke="#FAA5A5" stroke-miterlimit="10" stroke-linecap="round" stroke-linejoin="round"/>
<path d="M623.553 455.52C623.553 455.52 611.213 445.63 581.273 444.88C570.023 444.6 557.533 446.12 545.543 448.37C566.543 444.93 601.543 450.06 609.903 455.53C618.693 461.28 611.393 476.73 611.303 476.92C620.833 468.27 623.553 455.52 623.553 455.52Z" fill="#FAA5A5"/>
<path d="M464.053 308.11C461.383 308.11 459.323 307.83 458.803 307.76C454.473 304.11 439.343 280.97 438.333 277.68C437.833 276.05 438.393 273.12 438.933 270.29C439.493 267.35 440.023 264.57 439.473 262.92C438.843 261.03 436.373 259.31 434.193 257.79C433.113 257.04 431.623 256.01 431.553 255.62C431.753 254.34 432.643 249.96 432.653 249.91C432.663 249.84 432.663 249.76 432.653 249.69L431.113 243.38C432.013 242.03 437.333 234.07 438.453 232.24C439.453 230.6 445.433 228.62 448.423 228.62H448.623C451.393 228.72 485.093 235.61 486.883 235.98C496.573 241.18 511.223 249.17 512.033 249.99C512.503 250.84 511.433 258.68 510.093 265.82L501.173 274.72C501.083 274.81 501.023 274.94 501.023 275.07L500.993 278.28C500.973 281.19 499.833 283.93 497.793 286.01C492.423 291.49 479.353 304.46 474.093 306.49C471.343 307.55 467.873 308.11 464.053 308.11Z" fill="#FFB8B8"/>
<path d="M448.434 229.12C448.494 229.12 448.554 229.12 448.614 229.12C450.914 229.2 476.754 234.41 486.714 236.45C495.684 241.26 510.024 249.08 511.584 250.26C511.894 251.66 510.864 258.99 509.634 265.57L500.824 274.36C500.634 274.55 500.534 274.8 500.534 275.06L500.504 278.27C500.484 281.05 499.394 283.67 497.454 285.65C486.144 297.18 477.574 304.61 473.924 306.01C471.224 307.05 467.804 307.6 464.054 307.6C461.614 307.6 459.694 307.37 459.024 307.27C454.604 303.39 439.814 280.76 438.814 277.52C438.354 276.01 438.924 273.02 439.424 270.37C439.994 267.36 440.534 264.52 439.954 262.75C439.274 260.7 436.724 258.93 434.484 257.37C433.594 256.75 432.404 255.93 432.084 255.52C432.324 254.03 433.144 250.04 433.154 250C433.184 249.86 433.184 249.71 433.144 249.56L431.664 243.46C432.844 241.69 437.814 234.25 438.894 232.48C439.734 231.11 445.354 229.12 448.434 229.12ZM448.434 228.12C445.434 228.12 439.214 230.06 438.034 231.98C436.834 233.95 430.584 243.29 430.584 243.29L432.174 249.81C432.174 249.81 431.274 254.24 431.064 255.57C430.864 256.9 437.974 259.98 439.004 263.07C440.034 266.16 436.804 274.38 437.864 277.82C438.924 281.26 454.354 304.82 458.604 308.23C458.604 308.23 460.884 308.61 464.064 308.61C467.064 308.61 470.864 308.27 474.294 306.95C479.564 304.92 492.164 292.49 498.174 286.36C500.294 284.2 501.494 281.31 501.514 278.28L501.544 275.07L510.574 266.06C510.574 266.06 513.444 250.76 512.414 249.65C511.384 248.54 487.074 235.5 487.074 235.5C487.074 235.5 451.574 228.22 448.664 228.12C448.574 228.12 448.504 228.12 448.434 228.12Z" fill="#FAA5A5"/>
<path d="M479.802 203.22C461.442 196.08 410.133 186.82 407.013 219.4C405.643 233.74 422.893 247.94 432.173 249.81C432.173 249.81 432.453 245.91 434.503 243.83C434.503 243.83 457.383 247.89 469.363 241.38C469.363 241.38 468.702 250.7 483.592 255.83C483.592 255.83 485.723 261.72 486.033 267.07C486.073 267.78 486.832 268.2 487.452 267.85L490.883 265.9C490.883 265.9 489.323 252.11 495.413 248.99C501.513 245.87 509.363 250.48 509.863 255.82C510.363 261.16 506.422 266.83 500.472 268.44C500.472 268.44 500.573 274.68 500.503 278.86C500.503 278.86 501.003 277.39 506.263 273.71C511.523 270.03 516.062 264.62 513.852 250.17C511.642 235.72 511.563 209.21 490.523 213C490.533 213.01 486.992 206.01 479.802 203.22Z" fill="#A0616A"/>
<path d="M456.774 250.52C455.654 250.81 454.994 252 455.374 253.1C455.644 253.88 456.244 254.67 457.534 255.09C460.634 256.12 466.524 252.44 469.034 252.43C471.544 252.42 468.964 249.94 465.554 249.8C462.554 249.68 460.144 249.66 456.774 250.52Z" fill="#864B53"/>
<path d="M463.053 263.58C464.169 263.58 465.073 262.676 465.073 261.56C465.073 260.444 464.169 259.54 463.053 259.54C461.937 259.54 461.033 260.444 461.033 261.56C461.033 262.676 461.937 263.58 463.053 263.58Z" fill="#864B53"/>
<path d="M445.044 265.72C446.082 265.72 446.924 264.878 446.924 263.84C446.924 262.802 446.082 261.96 445.044 261.96C444.006 261.96 443.164 262.802 443.164 263.84C443.164 264.878 444.006 265.72 445.044 265.72Z" fill="#864B53"/>
<path d="M440.313 257.12C441.603 255.56 439.723 253.9 439.723 253.9C436.743 252.88 433.813 253.2 431.353 253.94C431.223 254.61 431.113 255.21 431.063 255.58C430.993 256.02 431.733 256.65 432.773 257.41C436.533 256.81 439.413 258.2 440.313 257.12Z" fill="#864B53"/>
<path d="M451.523 259.88C451.523 259.88 452.723 273.28 450.443 277.51C449.443 279.37 455.163 279.94 456.903 279.52" stroke="#864B53" stroke-miterlimit="10" stroke-linecap="round" stroke-linejoin="round"/>
<path d="M456.482 291.34C460.842 291.05 465.132 289.55 468.802 287.02" stroke="#864B53" stroke-miterlimit="10" stroke-linecap="round" stroke-linejoin="round"/>
<path d="M495.243 262.22C493.643 258.37 497.003 250.12 502.133 253.46" stroke="#864B53" stroke-miterlimit="10" stroke-linecap="round" stroke-linejoin="round"/>
<path d="M432.173 249.81C432.173 249.81 432.453 245.91 434.503 243.83C434.503 243.83 447.223 246.09 458.663 244.54C445.833 244.56 432.873 241.04 422.383 233.66C419.543 231.66 416.873 229.37 414.703 226.67C414.143 225.98 413.623 225.26 413.143 224.51C410.773 220.85 409.373 216.46 409.783 212.12C409.853 211.37 409.953 210.55 409.863 209.81C408.373 212.51 407.373 215.68 407.023 219.4C405.643 233.74 422.893 247.94 432.173 249.81Z" fill="#864B53"/>
<path d="M513.862 250.18C512.952 244.25 512.402 236.3 510.622 229.24C510.642 230.22 510.672 231.3 510.662 232.44C510.622 237.75 509.922 244.21 505.702 245.91C505.122 246.14 504.452 246.29 504.062 246.78C503.762 247.17 503.712 247.69 503.692 248.18C503.682 248.37 503.682 248.56 503.682 248.75C506.992 250.05 509.592 252.82 509.872 255.82C510.372 261.17 506.432 266.83 500.482 268.44C500.482 268.44 500.582 274.68 500.512 278.86C500.512 278.86 501.012 277.39 506.272 273.71C511.532 270.02 516.072 264.63 513.862 250.18Z" fill="#864B53"/>
<path d="M284 106C294.493 106 303 97.4934 303 87C303 76.5066 294.493 68 284 68C273.507 68 265 76.5066 265 87C265 97.4934 273.507 106 284 106Z" fill="#F55681"/>
<path d="M277.352 87.066L283.847 91.0946L290.652 87.1913L283.847 75.9634L277.352 87.066Z" fill="white"/>
<path d="M277.352 88.6755L283.905 98.0241L290.652 88.5117L283.847 92.6559L277.352 88.6755Z" fill="white"/>
<path d="M256 306C268.703 306 279 295.703 279 283C279 270.297 268.703 260 256 260C243.297 260 233 270.297 233 283C233 295.703 243.297 306 256 306Z" fill="#F55681"/>
<path d="M26.68 195H82.7801C87.5801 195 91.4701 198.89 91.4701 203.69V233.71L104.27 242.24H83.18H26.69C21.89 242.24 18 238.35 18 233.55V203.69C17.99 198.89 21.88 195 26.68 195Z" fill="#E6E6E6"/>
<path d="M75.0606 224.45H35.3906" stroke="white" stroke-width="2" stroke-miterlimit="10" stroke-linecap="round" stroke-linejoin="round"/>
<path d="M75.0606 211.06H35.3906" stroke="white" stroke-width="2" stroke-miterlimit="10" stroke-linecap="round" stroke-linejoin="round"/>
<path d="M241.462 394.97H178.152L94.4316 461.23H241.462V394.97Z" fill="#E6E6E6" stroke="#E0E0E0" stroke-miterlimit="10" stroke-linejoin="round"/>
<path d="M139.482 461.73H240.962V549.73H139.482V461.73Z" fill="#E0E0E0" stroke="#E0E0E0"/>
<path d="M418.052 527.74V388.71L325.212 316.24L232.362 388.71V527.74L218.342 550.24H325.212H432.072L418.052 527.74Z" fill="white" stroke="#E0E0E0" stroke-miterlimit="10" stroke-linejoin="round"/>
<path d="M325.211 309.07L199.611 407.31V418.53L325.211 321.94L450.801 418.53V407.31L325.211 309.07Z" fill="white" stroke="#E0E0E0" stroke-miterlimit="10" stroke-linejoin="round"/>
<path d="M316.762 435.87H258.262C257.157 435.87 256.262 436.765 256.262 437.87V500.72C256.262 501.824 257.157 502.72 258.262 502.72H316.762C317.866 502.72 318.762 501.824 318.762 500.72V437.87C318.762 436.765 317.866 435.87 316.762 435.87Z" fill="white" stroke="#E0E0E0" stroke-miterlimit="10" stroke-linejoin="round"/>
<path d="M391.792 433.24H345.771C344.667 433.24 343.771 434.135 343.771 435.24V532.87C343.771 533.974 344.667 534.87 345.771 534.87H391.792C392.896 534.87 393.792 533.974 393.792 532.87V435.24C393.792 434.135 392.896 433.24 391.792 433.24Z" fill="#E6E6E6" stroke="#E0E0E0" stroke-miterlimit="10" stroke-linejoin="round"/>
<path d="M399.102 534.87H338.992V542.44H399.102V534.87Z" fill="white" stroke="#E0E0E0" stroke-miterlimit="10" stroke-linejoin="round"/>
<path d="M406.301 542.44H331.271V550.24H406.301V542.44Z" fill="white" stroke="#E0E0E0" stroke-miterlimit="10" stroke-linejoin="round"/>
<path d="M372.711 386.19H277.711C276.606 386.19 275.711 387.085 275.711 388.19V403.19C275.711 404.295 276.606 405.19 277.711 405.19H372.711C373.816 405.19 374.711 404.295 374.711 403.19V388.19C374.711 387.085 373.816 386.19 372.711 386.19Z" fill="white" stroke="#E0E0E0" stroke-miterlimit="10" stroke-linejoin="round"/>
<path d="M325.516 329.503L325.211 329.27L324.907 329.503L232.861 400.126V393.586L325.211 322.571L417.551 393.586V400.126L325.516 329.503Z" fill="#E0E0E0" stroke="#E0E0E0"/>
<path d="M187.612 401.96L129.012 450.09" stroke="white" stroke-miterlimit="10" stroke-linecap="round" stroke-linejoin="round"/>
<path d="M188.232 422.42L171.922 438.91" stroke="white" stroke-miterlimit="10" stroke-linecap="round" stroke-linejoin="round"/>
<path d="M164.912 477.3V527.74H217.102V478.04L164.912 477.3Z" fill="white" stroke="#E0E0E0" stroke-miterlimit="10" stroke-linejoin="round"/>
<path d="M99.2617 490.87H92.2617V549.87H99.2617V490.87Z" fill="white" stroke="#E0E0E0" stroke-miterlimit="10" stroke-linejoin="round"/>
<path d="M165.262 490.87H158.262V549.87H165.262V490.87Z" fill="white" stroke="#E0E0E0" stroke-miterlimit="10" stroke-linejoin="round"/>
<path d="M231.262 490.87H224.262V549.87H231.262V490.87Z" fill="white" stroke="#E0E0E0" stroke-miterlimit="10" stroke-linejoin="round"/>
<path d="M297.262 490.87H290.262V549.87H297.262V490.87Z" fill="white" stroke="#E0E0E0" stroke-miterlimit="10" stroke-linejoin="round"/>
<path d="M363.262 490.87H356.262V549.87H363.262V490.87Z" fill="white" stroke="#E0E0E0" stroke-miterlimit="10" stroke-linejoin="round"/>
<path d="M429.262 490.87H422.262V549.87H429.262V490.87Z" fill="white" stroke="#E0E0E0" stroke-miterlimit="10" stroke-linejoin="round"/>
<path d="M495.262 490.87H488.262V549.87H495.262V490.87Z" fill="white" stroke="#E0E0E0" stroke-miterlimit="10" stroke-linejoin="round"/>
<path d="M488.262 531.87H99.2617V534.87H488.262V531.87Z" fill="white" stroke="#E0E0E0" stroke-miterlimit="10" stroke-linejoin="round"/>
<path d="M488.262 504.87H99.2617V507.87H488.262V504.87Z" fill="white" stroke="#E0E0E0" stroke-miterlimit="10" stroke-linejoin="round"/>
<path d="M601.59 330.24H545.49C540.69 330.24 536.8 326.35 536.8 321.55V291.53L524 283H545.09H601.58C606.38 283 610.27 286.89 610.27 291.69V321.55C610.28 326.35 606.39 330.24 601.59 330.24Z" fill="#F55681"/>
<path d="M553.221 300.79H592.881" stroke="white" stroke-width="2" stroke-miterlimit="10" stroke-linecap="round"/>
<path d="M553.221 314.18H592.881" stroke="white" stroke-width="2" stroke-miterlimit="10" stroke-linecap="round"/>
<path d="M247.17 281.51L245 283.42L254.12 292.99C254.12 292.99 256.26 285.67 266.59 275.42L265.99 274C265.99 274 256.07 280.71 252.52 285.95L247.17 281.51Z" fill="white"/>
<path d="M120.151 544.96C126.939 544.96 132.441 539.457 132.441 532.67C132.441 525.882 126.939 520.38 120.151 520.38C113.364 520.38 107.861 525.882 107.861 532.67C107.861 539.457 113.364 544.96 120.151 544.96Z" fill="#515667"/>
<path d="M135.741 541.26C101.061 541.26 89.7814 537.61 89.3214 526.24C88.7414 511.72 101.801 505.32 115.231 500.01C121.331 497.6 128.901 493.83 136.931 489.85C146.821 484.93 157.051 479.85 165.761 476.67C180.131 471.42 211.611 471.15 217.771 471.15H218.571C219.751 471.18 247.321 471.81 256.431 475.23C263.171 477.75 268.451 485.03 271.951 489.85C273.281 491.68 274.431 493.27 275.281 494.07C282.981 501.36 290.041 518.56 284.071 530.04C279.621 538.59 257.231 538.89 220.141 539.38C206.461 539.56 190.951 539.77 173.451 540.4C157.281 540.99 145.291 541.26 135.741 541.26Z" fill="white"/>
<path d="M217.782 471.65C218.302 471.65 218.582 471.65 218.582 471.65C218.582 471.65 247.132 472.27 256.272 475.7C265.412 479.12 271.772 491.42 274.962 494.44C282.302 501.38 289.542 518.5 283.652 529.81C277.762 541.13 238.782 537.53 173.452 539.9C158.512 540.44 146.072 540.76 135.752 540.76C100.922 540.76 90.2715 537.13 89.8415 526.22C89.2815 512.07 101.822 505.85 115.442 500.47C129.052 495.09 150.192 482.89 165.952 477.13C180.332 471.88 212.332 471.65 217.782 471.65ZM217.782 470.65C211.602 470.65 180.052 470.92 165.602 476.2C156.872 479.39 146.632 484.48 136.722 489.4C128.712 493.38 121.142 497.14 115.062 499.55C101.462 504.93 88.2415 511.42 88.8315 526.27C89.3015 538.01 100.702 541.77 135.742 541.77C145.302 541.77 157.292 541.5 173.482 540.91C190.972 540.28 206.482 540.07 220.162 539.89C258.712 539.38 279.942 539.1 284.532 530.28C290.612 518.6 283.452 501.11 275.642 493.72C274.822 492.94 273.682 491.38 272.362 489.56C268.832 484.69 263.482 477.34 256.612 474.77C247.412 471.33 219.762 470.69 218.592 470.66C218.582 470.65 218.302 470.65 217.782 470.65Z" fill="#E0E0E0"/>
<path d="M179.661 474.01C174.431 474.78 169.611 475.79 165.931 477.13C154.151 481.43 139.351 489.34 126.951 495.3C138.841 496.9 158.551 497.31 169.671 488.69C182.141 479.03 197.391 474.68 197.391 474.68L179.661 474.01Z" fill="#515667"/>
<path d="M227.931 476.48C217.931 476.08 205.591 474.51 184.921 484.7C164.251 494.89 164.231 499.31 166.091 500.04C167.951 500.77 214.151 497.9 232.481 495.87C250.811 493.84 258.761 492.4 259.171 486.14C259.591 479.89 258.361 477.69 227.931 476.48Z" fill="#515667"/>
<path d="M121.513 500.23C121.513 500.23 143.333 499.28 145.173 500.47C147.023 501.66 124.702 514.95 102.312 511.23C102.322 511.23 101.853 508.57 121.513 500.23Z" fill="#E6E6E6"/>
<path d="M135.743 541.26C101.063 541.26 89.7826 537.61 89.3326 526.24C89.2026 522.97 89.7726 519.94 91.0126 517.22C91.0726 517.09 91.1826 516.99 91.3226 516.95C91.3726 516.94 91.4226 516.93 91.4726 516.93C91.5626 516.93 91.6526 516.95 91.7326 517C94.9226 518.91 100.033 519.88 106.943 519.88C107.763 519.88 108.623 519.87 109.523 519.84C119.203 519.52 125.853 515.86 132.893 511.98C140.153 507.98 147.653 503.84 158.653 503.84C159.013 503.84 159.393 503.84 159.763 503.85C161.373 503.89 163.053 503.91 164.803 503.91C186.853 503.91 218.083 500.88 234.413 497.16C240.163 495.85 247.703 495.19 256.823 495.19C265.323 495.19 273.213 495.78 277.163 496.14C277.283 496.15 277.403 496.21 277.493 496.3C283.773 503.22 289.733 519.22 284.103 530.04C279.653 538.59 257.263 538.89 220.173 539.38C206.493 539.56 190.983 539.77 173.483 540.4C157.283 540.99 145.293 541.26 135.743 541.26Z" fill="white"/>
<path d="M256.812 495.69C265.102 495.69 272.772 496.25 277.112 496.63C283.682 503.88 288.962 519.59 283.652 529.8C277.762 541.12 238.782 537.52 173.452 539.89C158.512 540.43 146.072 540.75 135.752 540.75C100.922 540.75 90.2723 537.12 89.8423 526.21C89.7123 522.87 90.3123 519.97 91.4823 517.42C94.0323 518.95 98.6324 520.37 106.952 520.37C107.782 520.37 108.642 520.36 109.542 520.33C129.692 519.67 137.502 504.33 158.662 504.33C159.022 504.33 159.392 504.33 159.752 504.34C161.372 504.38 163.062 504.4 164.802 504.4C186.822 504.4 218.272 501.34 234.522 497.64C241.072 496.16 249.202 495.69 256.812 495.69ZM256.812 494.69C247.662 494.69 240.082 495.36 234.292 496.68C217.982 500.39 186.802 503.41 164.792 503.41C163.042 503.41 161.352 503.39 159.762 503.35C159.382 503.34 159.012 503.34 158.642 503.34C147.512 503.34 139.952 507.51 132.632 511.54C125.642 515.39 119.052 519.03 109.492 519.34C108.622 519.37 107.752 519.38 106.932 519.38C98.4423 519.38 94.1123 517.85 91.9823 516.57C91.8223 516.48 91.6523 516.43 91.4723 516.43C91.3723 516.43 91.2723 516.44 91.1723 516.47C90.9023 516.55 90.6824 516.75 90.5624 517.01C89.2824 519.8 88.7023 522.91 88.8323 526.25C89.3023 537.99 100.702 541.75 135.742 541.75C145.302 541.75 157.292 541.48 173.482 540.89C190.972 540.26 206.482 540.05 220.162 539.87C258.712 539.36 279.942 539.08 284.532 530.26C290.272 519.25 284.222 502.98 277.852 495.95C277.682 495.76 277.452 495.65 277.202 495.63C273.232 495.29 265.322 494.69 256.812 494.69Z" fill="#E0E0E0"/>
<path d="M266.912 530.58C236.592 538.82 151.712 534.29 117.972 531.93C100.382 530.7 92.9518 527.04 89.8618 523.82C89.8118 524.59 89.7918 525.39 89.8318 526.22C90.3918 540.37 108.112 542.27 173.442 539.9C238.772 537.53 277.752 541.12 283.642 529.81C284.512 528.13 285.092 526.42 285.402 524.7C281.052 526.39 275.082 528.36 266.912 530.58Z" fill="#E6E6E6"/>
<path d="M149.141 549.87C157.983 549.87 165.151 542.702 165.151 533.86C165.151 525.018 157.983 517.85 149.141 517.85C140.299 517.85 133.131 525.018 133.131 533.86C133.131 542.702 140.299 549.87 149.141 549.87Z" fill="#515667"/>
<path d="M149.142 543.02C154.201 543.02 158.302 538.919 158.302 533.86C158.302 528.801 154.201 524.7 149.142 524.7C144.084 524.7 139.982 528.801 139.982 533.86C139.982 538.919 144.084 543.02 149.142 543.02Z" fill="white"/>
<path d="M264.412 549.87C273.254 549.87 280.422 542.702 280.422 533.86C280.422 525.018 273.254 517.85 264.412 517.85C255.57 517.85 248.402 525.018 248.402 533.86C248.402 542.702 255.57 549.87 264.412 549.87Z" fill="#515667"/>
<path d="M264.412 543.02C269.471 543.02 273.572 538.919 273.572 533.86C273.572 528.801 269.471 524.7 264.412 524.7C259.353 524.7 255.252 528.801 255.252 533.86C255.252 538.919 259.353 543.02 264.412 543.02Z" fill="white"/>
</svg>
