<svg width="72" height="72" viewBox="0 0 118 118" fill="none" xmlns="http://www.w3.org/2000/svg">
<path d="M59 118C26.4136 118 0 91.5864 0 59C0 26.4136 26.4136 0 59 0C91.5864 0 118 26.4136 118 59C118 91.5864 91.5864 118 59 118Z" fill="#F55681"/>
<path d="M68.629 47.7222L67.3765 51.4731C67.1231 52.2407 66.4064 52.7548 65.5955 52.7548H35.2897C34.0082 52.7548 33.1033 54.0076 33.5087 55.2241C33.7621 55.9917 34.4788 56.5058 35.2897 56.5058H63.0978C64.3792 56.5058 65.2842 57.7585 64.8788 58.975L59.8761 73.9861C59.6227 74.7537 58.9059 75.2678 58.0951 75.2678H33.6318C32.8209 75.2678 32.1042 74.7537 31.8508 73.9861L30.5983 70.2351C30.1929 69.0186 31.0978 67.7659 32.3793 67.7659H52.6869C53.4906 67.7659 54.2073 67.2518 54.4679 66.4842C54.8734 65.2677 53.9684 64.0149 52.6869 64.0149H29.8816C29.0707 64.0149 28.354 63.5008 28.1006 62.7332L23.0979 47.7222C22.6924 46.5057 23.5974 45.2529 24.8788 45.2529H66.848C68.1295 45.2529 69.0344 46.5129 68.629 47.7222Z" fill="white"/>
<path d="M88.189 47.7217L86.9365 51.4726C86.6831 52.2402 85.9664 52.7543 85.1555 52.7543H78.6035L81.1012 45.2524H86.4008C87.6895 45.2524 88.5944 46.5124 88.189 47.7217Z" fill="white"/>
<path d="M95.8669 36.4693L94.6144 40.2202C94.361 40.9878 93.6443 41.5019 92.8334 41.5019H82.3574L84.0009 36.5634C84.5076 35.0355 85.9411 34 87.5556 34H94.0859C95.3674 34 96.2723 35.2527 95.8669 36.4693Z" fill="white"/>
<path d="M72.0559 52.7612H78.6079L71.5346 73.9925C71.2813 74.7601 70.5645 75.2742 69.7537 75.2742H65.8007C64.5193 75.2742 63.6143 74.0215 64.0197 72.8049L70.2749 54.0429C70.5283 53.2754 71.2451 52.7612 72.0559 52.7612Z" fill="white"/>
<path d="M82.358 41.501L81.1056 45.2519H75.7988C74.5173 45.2519 73.6123 43.9992 74.0178 42.7827C74.2712 42.0151 74.9879 41.501 75.7988 41.501H82.358Z" fill="white"/>
<path d="M65.7252 84C67.3846 84 68.7297 82.6545 68.7297 80.9949C68.7297 79.3352 67.3846 77.9897 65.7252 77.9897C64.0659 77.9897 62.7207 79.3352 62.7207 80.9949C62.7207 82.6545 64.0659 84 65.7252 84Z" fill="white"/>
<path d="M45.8658 84C47.5252 84 48.8704 82.6545 48.8704 80.9949C48.8704 79.3352 47.5252 77.9897 45.8658 77.9897C44.2065 77.9897 42.8613 79.3352 42.8613 80.9949C42.8613 82.6545 44.2065 84 45.8658 84Z" fill="white"/>
</svg>
