<svg width="238" height="60" viewBox="0 0 238 60" fill="none" xmlns="http://www.w3.org/2000/svg">
<path d="M55.2306 16.4664L53.7276 20.9674C53.4235 21.8885 52.5635 22.5055 51.5904 22.5055H15.224C13.6863 22.5055 12.6003 24.0087 13.0868 25.4685C13.3909 26.3896 14.251 27.0065 15.224 27.0065H48.5932C50.1309 27.0065 51.2169 28.5098 50.7304 29.9696L44.7272 47.9826C44.4231 48.9037 43.5631 49.5206 42.59 49.5206H13.2345C12.2615 49.5206 11.4014 48.9037 11.0973 47.9826L9.59439 43.4815C9.10788 42.0217 10.1938 40.5185 11.7315 40.5185H36.1004C37.0647 40.5185 37.9248 39.9015 38.2375 38.9804C38.724 37.5206 37.6381 36.0174 36.1004 36.0174H8.73431C7.76129 36.0174 6.90122 35.4004 6.59715 34.4794L0.593989 16.4664C0.107481 15.0066 1.19344 13.5033 2.73115 13.5033H53.0934C54.6311 13.5033 55.7171 15.0152 55.2306 16.4664Z" fill="white"/>
<path d="M78.7036 16.4664L77.2006 20.9674C76.8966 21.8885 76.0365 22.5055 75.0635 22.5055H67.2012L70.1984 13.5033H76.5578C78.1042 13.5033 79.1901 15.0152 78.7036 16.4664Z" fill="white"/>
<path d="M87.9201 2.96306L86.4172 7.46414C86.1131 8.38521 85.253 9.00216 84.28 9.00216H71.709L73.6811 3.07603C74.2892 1.24258 76.0094 0 77.9467 0H85.783C87.3207 0 88.4066 1.50326 87.9201 2.96306Z" fill="white"/>
<path d="M59.3408 22.5138H67.2031L58.7153 47.9909C58.4112 48.912 57.5511 49.5289 56.5781 49.5289H51.8347C50.297 49.5289 49.211 48.0257 49.6975 46.5659L57.2036 24.0518C57.5077 23.1307 58.3678 22.5138 59.3408 22.5138Z" fill="white"/>
<path d="M71.7018 9.00208L70.1988 13.5032H63.8308C62.293 13.5032 61.2071 11.9999 61.6936 10.5401C61.9977 9.61902 62.8577 9.00208 63.8308 9.00208H71.7018Z" fill="white"/>
<path d="M51.746 60C53.7372 60 55.3514 58.3855 55.3514 56.3939C55.3514 54.4023 53.7372 52.7878 51.746 52.7878C49.7548 52.7878 48.1406 54.4023 48.1406 56.3939C48.1406 58.3855 49.7548 60 51.746 60Z" fill="white"/>
<path d="M27.9159 60C29.9071 60 31.5213 58.3855 31.5213 56.3939C31.5213 54.4023 29.9071 52.7878 27.9159 52.7878C25.9247 52.7878 24.3105 54.4023 24.3105 56.3939C24.3105 58.3855 25.9247 60 27.9159 60Z" fill="white"/>
<path d="M123.751 19.438V17.5958C123.751 12.8515 119.903 9.00208 115.159 9.00208H109.026C104.282 9.00208 100.434 12.8515 100.434 17.5958V21.1845C100.434 24.3301 101.937 27.2758 104.473 29.1266L112.414 34.905C113.369 35.6001 113.934 36.7037 113.934 37.8854V41.535C113.934 42.5516 113.109 43.3771 112.092 43.3771C111.076 43.3771 110.251 42.5516 110.251 41.535V37.8507C110.251 36.834 109.425 36.0085 108.409 36.0085H102.275C101.259 36.0085 100.434 36.834 100.434 37.8507V40.918C100.434 45.6624 104.282 49.5118 109.026 49.5118H115.159C119.903 49.5118 123.751 45.6624 123.751 40.918V36.0954C123.751 32.9499 122.248 30.0042 119.711 28.1534L111.771 22.375C110.815 21.6798 110.251 20.5763 110.251 19.3945V16.9702C110.251 15.9535 111.076 15.1281 112.092 15.1281C113.109 15.1281 113.934 15.9535 113.934 16.9702V19.4293C113.934 20.4459 114.76 21.2714 115.776 21.2714H121.909C122.926 21.2801 123.751 20.4546 123.751 19.438Z" fill="white"/>
<path d="M144.62 17.5958H140.936C139.459 17.5958 138.156 18.2562 137.253 19.2903V10.8442C137.253 9.82756 136.427 9.00208 135.411 9.00208H129.277C128.261 9.00208 127.436 9.82756 127.436 10.8442V47.6696C127.436 48.6863 128.261 49.5118 129.277 49.5118H135.411C136.427 49.5118 137.253 48.6863 137.253 47.6696V22.5053C137.253 21.8275 137.8 21.2801 138.478 21.2801C139.155 21.2801 139.702 21.8275 139.702 22.5053V47.6696C139.702 48.6863 140.528 49.5118 141.544 49.5118H147.678C148.694 49.5118 149.52 48.6863 149.52 47.6696V22.5053C149.528 19.7942 147.33 17.5958 144.62 17.5958Z" fill="white"/>
<path d="M153.211 28.6489V38.4679C153.211 44.5678 158.154 49.5207 164.262 49.5207H165.487C171.585 49.5207 176.537 44.5765 176.537 38.4679V28.6489C176.537 22.549 171.594 17.5961 165.487 17.5961H164.262C158.154 17.5961 153.211 22.549 153.211 28.6489ZM164.87 45.8364C164.192 45.8364 163.645 45.289 163.645 44.6112V22.5055C163.645 21.8278 164.192 21.2803 164.87 21.2803C165.547 21.2803 166.095 21.8278 166.095 22.5055V44.6025C166.103 45.2803 165.547 45.8364 164.87 45.8364Z" fill="white"/>
<path d="M196.17 16.371H194.945C192.93 16.371 191.157 17.3616 190.037 18.8561V18.2044C190.037 17.1878 189.211 16.3623 188.195 16.3623H182.053C181.036 16.3623 180.211 17.1878 180.211 18.2044V51.3543C180.211 52.3709 181.036 53.1964 182.053 53.1964H188.186C189.203 53.1964 190.028 52.3709 190.028 51.3543V45.7931C191.149 47.2964 192.921 48.2782 194.936 48.2782H196.161C199.55 48.2782 202.295 45.5324 202.295 42.1436V22.5057C202.304 19.1168 199.558 16.371 196.17 16.371ZM191.262 43.3775C190.584 43.3775 190.037 42.83 190.037 42.1523V22.5057C190.037 21.8279 190.584 21.2805 191.262 21.2805C191.939 21.2805 192.487 21.8279 192.487 22.5057V42.1523C192.487 42.83 191.939 43.3775 191.262 43.3775Z" fill="white"/>
<path d="M224.405 14.5285V10.8442C224.405 9.82756 223.58 9.00208 222.563 9.00208H207.838C206.821 9.00208 205.996 9.82756 205.996 10.8442V47.6696C205.996 48.6863 206.821 49.5118 207.838 49.5118H213.971C214.988 49.5118 215.813 48.6863 215.813 47.6696V32.9412C215.813 31.9246 216.638 31.0991 217.655 31.0991H221.338C222.355 31.0991 223.18 30.2736 223.18 29.2569V25.5726C223.18 24.556 222.355 23.7305 221.338 23.7305H217.655C216.638 23.7305 215.813 22.905 215.813 21.8884V18.2041C215.813 17.1874 216.638 16.3619 217.655 16.3619H222.563C223.58 16.3706 224.405 15.5451 224.405 14.5285Z" fill="white"/>
<path d="M236.065 49.5204H229.932C228.915 49.5204 228.09 48.6949 228.09 47.6783V18.2127C228.09 17.1961 228.915 16.3706 229.932 16.3706H236.065C237.082 16.3706 237.907 17.1961 237.907 18.2127V47.6783C237.907 48.6949 237.082 49.5204 236.065 49.5204Z" fill="white"/>
<path d="M236.065 13.9116H229.932C228.915 13.9116 228.09 13.0861 228.09 12.0694V10.8442C228.09 9.82756 228.915 9.00208 229.932 9.00208H236.065C237.082 9.00208 237.907 9.82756 237.907 10.8442V12.0694C237.907 13.0948 237.082 13.9116 236.065 13.9116Z" fill="white"/>
</svg>
