<svg width="134" height="35" viewBox="0 0 134 35" fill="none" xmlns="http://www.w3.org/2000/svg">
<path d="M30.7675 9.62302L29.923 12.1523C29.7521 12.6698 29.2688 13.0165 28.7221 13.0165H8.28691C7.42283 13.0165 6.81261 13.8612 7.08599 14.6815C7.25685 15.1991 7.74015 15.5458 8.28691 15.5458H27.0378C27.9019 15.5458 28.5121 16.3905 28.2388 17.2108L24.8654 27.3327C24.6946 27.8503 24.2113 28.197 23.6645 28.197H7.16898C6.62222 28.197 6.13892 27.8503 5.96806 27.3327L5.12351 24.8034C4.85013 23.9832 5.46035 23.1384 6.32443 23.1384H20.0178C20.5597 23.1384 21.043 22.7918 21.2187 22.2742C21.4921 21.4539 20.8819 20.6092 20.0178 20.6092H4.64022C4.09346 20.6092 3.61016 20.2625 3.4393 19.7449L0.0659848 9.62302C-0.207395 8.80272 0.402828 7.95801 1.2669 7.95801H29.5666C30.4307 7.95801 31.0409 8.8076 30.7675 9.62302Z" fill="#F55681"/>
<path d="M43.9576 9.62302L43.1131 12.1523C42.9422 12.6698 42.4589 13.0165 41.9122 13.0165H37.4941L39.1784 7.95801H42.7518C43.6208 7.95801 44.231 8.8076 43.9576 9.62302Z" fill="#F55681"/>
<path d="M49.1368 2.03513L48.2922 4.56439C48.1213 5.08196 47.638 5.42863 47.0913 5.42863H40.0273L41.1355 2.09861C41.4772 1.06835 42.4438 0.370117 43.5325 0.370117H47.9358C48.7999 0.370117 49.4101 1.21483 49.1368 2.03513Z" fill="#F55681"/>
<path d="M33.0766 13.021H37.4946L32.7251 27.3372C32.5542 27.8548 32.0709 28.2014 31.5242 28.2014H28.8587C27.9946 28.2014 27.3844 27.3567 27.6578 26.5364L31.8756 13.8852C32.0465 13.3677 32.5298 13.021 33.0766 13.021Z" fill="#F55681"/>
<path d="M40.0238 5.42871L39.1792 7.95797H35.6009C34.7368 7.95797 34.1266 7.11326 34.4 6.29296C34.5708 5.77539 35.0541 5.42871 35.6009 5.42871H40.0238Z" fill="#F55681"/>
<path d="M28.8091 34.0854C29.928 34.0854 30.8351 33.1782 30.8351 32.0591C30.8351 30.9399 29.928 30.0327 28.8091 30.0327C27.6902 30.0327 26.7832 30.9399 26.7832 32.0591C26.7832 33.1782 27.6902 34.0854 28.8091 34.0854Z" fill="#F55681"/>
<path d="M15.4185 34.0854C16.5374 34.0854 17.4445 33.1782 17.4445 32.0591C17.4445 30.9399 16.5374 30.0327 15.4185 30.0327C14.2996 30.0327 13.3926 30.9399 13.3926 32.0591C13.3926 33.1782 14.2996 34.0854 15.4185 34.0854Z" fill="#F55681"/>
<path d="M69.2707 11.2929V10.2577C69.2707 7.59176 67.108 5.42871 64.4426 5.42871H60.9961C58.3306 5.42871 56.168 7.59176 56.168 10.2577V12.2743C56.168 14.0419 57.0125 15.6971 58.438 16.7371L62.8999 19.9841C63.4369 20.3748 63.7543 20.9949 63.7543 21.6589V23.7097C63.7543 24.281 63.2905 24.7448 62.7193 24.7448C62.1482 24.7448 61.6844 24.281 61.6844 23.7097V21.6394C61.6844 21.0681 61.2206 20.6043 60.6494 20.6043H57.2029C56.6317 20.6043 56.168 21.0681 56.168 21.6394V23.363C56.168 26.029 58.3306 28.192 60.9961 28.192H64.4426C67.108 28.192 69.2707 26.029 69.2707 23.363V20.6531C69.2707 18.8855 68.4261 17.2303 67.0006 16.1903L62.5387 12.9432C62.0017 12.5526 61.6844 11.9325 61.6844 11.2685V9.90618C61.6844 9.3349 62.1482 8.87104 62.7193 8.87104C63.2905 8.87104 63.7543 9.3349 63.7543 9.90618V11.288C63.7543 11.8593 64.218 12.3231 64.7892 12.3231H68.2357C68.8069 12.328 69.2707 11.8642 69.2707 11.2929Z" fill="#F55681"/>
<path d="M80.998 10.2577H78.9281C78.0982 10.2577 77.3659 10.6288 76.8582 11.2099V6.46385C76.8582 5.89257 76.3944 5.42871 75.8233 5.42871H72.3767C71.8056 5.42871 71.3418 5.89257 71.3418 6.46385V27.1569C71.3418 27.7282 71.8056 28.192 72.3767 28.192H75.8233C76.3944 28.192 76.8582 27.7282 76.8582 27.1569V13.0165C76.8582 12.6356 77.1658 12.328 77.5465 12.328C77.9273 12.328 78.2349 12.6356 78.2349 13.0165V27.1569C78.2349 27.7282 78.6986 28.192 79.2698 28.192H82.7163C83.2875 28.192 83.7513 27.7282 83.7513 27.1569V13.0165C83.7562 11.4931 82.5211 10.2577 80.998 10.2577Z" fill="#F55681"/>
<path d="M85.8242 16.4687V21.9861C85.8242 25.4138 88.602 28.197 92.0338 28.197H92.7222C96.1492 28.197 98.9318 25.4187 98.9318 21.9861V16.4687C98.9318 13.041 96.1541 10.2578 92.7222 10.2578H92.0338C88.602 10.2578 85.8242 13.041 85.8242 16.4687ZM92.3756 26.1267C91.9948 26.1267 91.6872 25.8191 91.6872 25.4382V13.0166C91.6872 12.6357 91.9948 12.3281 92.3756 12.3281C92.7563 12.3281 93.0639 12.6357 93.0639 13.0166V25.4334C93.0688 25.8142 92.7563 26.1267 92.3756 26.1267Z" fill="#F55681"/>
<path d="M109.964 9.56934H109.276C108.143 9.56934 107.147 10.126 106.517 10.9658V10.5996C106.517 10.0283 106.054 9.56445 105.482 9.56445H102.031C101.46 9.56445 100.996 10.0283 100.996 10.5996V29.2272C100.996 29.7985 101.46 30.2624 102.031 30.2624H105.478C106.049 30.2624 106.513 29.7985 106.513 29.2272V26.1023C107.142 26.947 108.138 27.4987 109.271 27.4987H109.959C111.863 27.4987 113.406 25.9558 113.406 24.0515V13.0165C113.41 11.1123 111.868 9.56934 109.964 9.56934ZM107.206 24.7449C106.825 24.7449 106.517 24.4373 106.517 24.0564V13.0165C106.517 12.6357 106.825 12.3281 107.206 12.3281C107.587 12.3281 107.894 12.6357 107.894 13.0165V24.0564C107.894 24.4373 107.587 24.7449 107.206 24.7449Z" fill="#F55681"/>
<path d="M125.831 8.53413V6.46385C125.831 5.89257 125.367 5.42871 124.796 5.42871H116.521C115.95 5.42871 115.486 5.89257 115.486 6.46385V27.1569C115.486 27.7282 115.95 28.192 116.521 28.192H119.968C120.539 28.192 121.003 27.7282 121.003 27.1569V18.8807C121.003 18.3094 121.467 17.8455 122.038 17.8455H124.108C124.679 17.8455 125.142 17.3816 125.142 16.8104V14.7401C125.142 14.1688 124.679 13.705 124.108 13.705H122.038C121.467 13.705 121.003 13.2411 121.003 12.6698V10.5995C121.003 10.0282 121.467 9.56439 122.038 9.56439H124.796C125.367 9.56927 125.831 9.10541 125.831 8.53413Z" fill="#F55681"/>
<path d="M132.382 28.197H128.935C128.364 28.197 127.9 27.7331 127.9 27.1618V10.6045C127.9 10.0332 128.364 9.56934 128.935 9.56934H132.382C132.953 9.56934 133.417 10.0332 133.417 10.6045V27.1618C133.417 27.7331 132.953 28.197 132.382 28.197Z" fill="#F55681"/>
<path d="M132.382 8.18746H128.935C128.364 8.18746 127.9 7.7236 127.9 7.15232V6.46385C127.9 5.89257 128.364 5.42871 128.935 5.42871H132.382C132.953 5.42871 133.417 5.89257 133.417 6.46385V7.15232C133.417 7.72848 132.953 8.18746 132.382 8.18746Z" fill="#F55681"/>
</svg>
