<svg width="681" height="558" viewBox="0 0 681 558" fill="none" xmlns="http://www.w3.org/2000/svg">
<path d="M80.5027 477.21H525.681C534.423 477.21 541.504 470.129 541.504 461.389V178.147C541.504 169.407 534.423 162.327 525.681 162.327H80.4927C71.7512 162.327 64.67 169.407 64.67 178.147V461.389C64.68 470.119 71.7612 477.21 80.5027 477.21Z" fill="#515667"/>
<path d="M86.5553 477.21H519.632C523.502 477.21 526.633 474.08 526.633 470.209V185.738C526.633 181.867 523.502 178.737 519.632 178.737H86.5553C82.6846 178.737 79.5541 181.867 79.5541 185.738V470.209C79.5541 474.07 82.6946 477.21 86.5553 477.21Z" fill="white" stroke="#21202F" stroke-miterlimit="10" stroke-linejoin="round"/>
<path d="M40.8586 496.991H565.331C583.454 496.991 598.137 482.3 598.137 464.19C598.137 457.729 592.896 452.499 586.445 452.499H19.7549C13.2937 452.499 8.06281 457.739 8.06281 464.19C8.05281 482.31 22.7454 496.991 40.8586 496.991Z" fill="#515667"/>
<path d="M143.674 376.046H477.504C479.713 376.046 481.504 377.837 481.504 380.046V429.928C481.504 432.137 479.713 433.928 477.504 433.928H143.674C141.465 433.928 139.674 432.137 139.674 429.928V380.046C139.674 377.837 141.465 376.046 143.674 376.046Z" fill="#E6E6E6"/>
<path d="M312.543 229.379H477.504C479.713 229.379 481.504 231.17 481.504 233.379V244.46C481.504 246.669 479.713 248.46 477.504 248.46H312.543C310.334 248.46 308.543 246.669 308.543 244.46V233.379C308.543 231.17 310.334 229.379 312.543 229.379Z" fill="#E6E6E6"/>
<path d="M128.612 229.379H293.572C295.781 229.379 297.572 231.17 297.572 233.379V244.46C297.572 246.669 295.781 248.46 293.572 248.46H128.612C126.403 248.46 124.612 246.669 124.612 244.46V233.379C124.612 231.17 126.403 229.379 128.612 229.379Z" fill="#E6E6E6"/>
<path d="M128.612 265.801H293.572C295.781 265.801 297.572 267.592 297.572 269.801V280.882C297.572 283.091 295.781 284.882 293.572 284.882H128.612C126.403 284.882 124.612 283.091 124.612 280.882V269.801C124.612 267.592 126.403 265.801 128.612 265.801Z" fill="#E6E6E6"/>
<path d="M128.612 302.213H293.572C295.781 302.213 297.572 304.004 297.572 306.213V317.294C297.572 319.503 295.781 321.294 293.572 321.294H128.612C126.403 321.294 124.612 319.503 124.612 317.294V306.213C124.612 304.004 126.403 302.213 128.612 302.213Z" fill="#E6E6E6"/>
<path d="M128.612 338.634H293.572C295.781 338.634 297.572 340.425 297.572 342.634V353.715C297.572 355.924 295.781 357.715 293.572 357.715H128.612C126.403 357.715 124.612 355.924 124.612 353.715V342.634C124.612 340.425 126.403 338.634 128.612 338.634Z" fill="#E6E6E6"/>
<path d="M7.61212 483.08H264.037C267.688 483.08 270.648 480.12 270.648 476.47V314.063C270.648 310.413 267.688 307.453 264.037 307.453H7.61212C3.96146 307.453 1.00098 310.413 1.00098 314.063V476.47C0.990967 480.12 3.95148 483.08 7.61212 483.08Z" fill="white" stroke="#E0E0E0" stroke-miterlimit="10" stroke-linejoin="round"/>
<path d="M31.8445 338.724H127.164C131.582 338.724 135.164 342.306 135.164 346.724V442.029C135.164 446.447 131.582 450.029 127.164 450.029H31.8445C27.4262 450.029 23.8445 446.447 23.8445 442.029V346.724C23.8445 342.306 27.4262 338.724 31.8445 338.724Z" fill="#E6E6E6" stroke="#E6E6E6" stroke-miterlimit="10" stroke-linejoin="round"/>
<path d="M193.933 353.215H249.475C251.684 353.215 253.475 355.006 253.475 357.215V365.125C253.475 367.335 251.684 369.125 249.475 369.125H193.933C191.724 369.125 189.933 367.335 189.933 365.125V357.215C189.933 355.006 191.724 353.215 193.933 353.215Z" fill="#E6E6E6"/>
<path d="M158.987 383.906H249.475C251.684 383.906 253.475 385.697 253.475 387.906V395.817C253.475 398.026 251.684 399.817 249.475 399.817H158.987C156.778 399.817 154.987 398.026 154.987 395.817V387.906C154.987 385.697 156.778 383.906 158.987 383.906Z" fill="#E6E6E6"/>
<path d="M158.987 414.907H249.475C251.684 414.907 253.475 416.698 253.475 418.907V446.039C253.475 448.248 251.684 450.039 249.475 450.039H158.987C156.778 450.039 154.987 448.248 154.987 446.039V418.907C154.987 416.698 156.778 414.907 158.987 414.907Z" fill="#E6E6E6"/>
<path d="M312.543 274.142H477.504C479.713 274.142 481.504 275.932 481.504 278.142V353.715C481.504 355.924 479.713 357.715 477.504 357.715H312.543C310.334 357.715 308.543 355.924 308.543 353.715V278.142C308.543 275.932 310.334 274.142 312.543 274.142Z" fill="#E6E6E6"/>
<path d="M250.694 326.643C248.788 326.643 247.243 325.099 247.243 323.193C247.243 321.288 248.788 319.743 250.694 319.743C252.6 319.743 254.145 321.288 254.145 323.193C254.145 325.099 252.6 326.643 250.694 326.643Z" fill="#E6E6E6"/>
<path d="M239.221 326.643C237.316 326.643 235.771 325.099 235.771 323.193C235.771 321.288 237.316 319.743 239.221 319.743C241.127 319.743 242.672 321.288 242.672 323.193C242.672 325.099 241.127 326.643 239.221 326.643Z" fill="#2F2E41"/>
<path d="M227.76 326.643C225.855 326.643 224.31 325.099 224.31 323.193C224.31 321.288 225.855 319.743 227.76 319.743C229.666 319.743 231.211 321.288 231.211 323.193C231.211 325.099 229.666 326.643 227.76 326.643Z" fill="#F55681"/>
<path d="M526.633 91.0839V271.341C526.633 276.252 530.614 280.222 535.514 280.222H671.818C676.889 280.222 681 276.112 681 271.041V76.4533C681 71.3831 676.889 67.2729 671.818 67.2729H550.437L526.633 91.0839Z" fill="#E6E6E6"/>
<path d="M586.603 168.327H658.066C659.171 168.327 660.066 169.223 660.066 170.327V175.818C660.066 176.922 659.171 177.818 658.066 177.818H586.603C585.499 177.818 584.603 176.922 584.603 175.818V170.327C584.603 169.223 585.499 168.327 586.603 168.327Z" fill="white"/>
<path d="M551.947 191.778H658.066C659.171 191.778 660.066 192.673 660.066 193.778V200.418C660.066 201.523 659.171 202.418 658.066 202.418H551.947C550.842 202.418 549.947 201.523 549.947 200.418V193.778C549.947 192.673 550.842 191.778 551.947 191.778Z" fill="white"/>
<path d="M551.947 216.619H658.066C659.171 216.619 660.066 217.515 660.066 218.619V225.26C660.066 226.364 659.171 227.26 658.066 227.26H551.947C550.842 227.26 549.947 226.364 549.947 225.26V218.619C549.947 217.515 550.842 216.619 551.947 216.619Z" fill="white"/>
<path d="M551.947 241.47H658.066C659.171 241.47 660.066 242.366 660.066 243.47V250.111C660.066 251.215 659.171 252.111 658.066 252.111H551.947C550.842 252.111 549.947 251.215 549.947 250.111V243.47C549.947 242.366 550.842 241.47 551.947 241.47Z" fill="white"/>
<path d="M550.445 67.2729V85.9337C550.445 88.8239 548.105 91.164 545.214 91.164H526.641L550.445 67.2729Z" fill="#E0E0E0"/>
<path d="M594.525 157.826H654.605C657.616 157.826 660.066 155.386 660.066 152.366V92.2937C660.066 89.2836 657.626 86.8335 654.605 86.8335H594.525C591.514 86.8335 589.064 89.2736 589.064 92.2937V152.366C589.074 155.386 591.514 157.826 594.525 157.826Z" fill="white"/>
<path d="M189.083 0H242.512C267.877 0 293.231 0 318.596 0C324.727 0 329.688 4.97021 329.688 11.0905V38.7916C329.688 44.9219 324.717 49.8821 318.596 49.8821H294.811V62.5226L281.959 49.8821H189.093C182.962 49.8821 178.001 44.9119 178.001 38.7916V11.0905C177.991 4.97021 182.962 0 189.083 0Z" fill="#F55681"/>
<path d="M644.497 136.526C642.547 136.526 640.966 134.945 640.966 132.995C640.966 131.046 642.547 129.465 644.497 129.465C646.447 129.465 648.027 131.046 648.027 132.995C648.027 134.945 646.447 136.526 644.497 136.526Z" fill="#515667"/>
<path d="M640.024 135.826C650.256 135.826 653.586 134.696 653.726 131.166C653.906 126.755 650.026 124.855 646.045 123.275C644.305 122.585 642.134 121.505 639.834 120.365C636.983 118.945 634.033 117.485 631.502 116.555C627.312 115.025 618.21 114.945 616.42 114.945H616.19C615.84 114.955 607.858 115.135 605.178 116.145C603.137 116.905 601.577 119.055 600.547 120.475C600.177 120.985 599.857 121.435 599.627 121.645C597.336 123.815 595.236 128.965 597.026 132.416C598.407 135.066 604.558 135.146 615.72 135.296C619.65 135.346 624.111 135.406 629.142 135.586C633.813 135.746 637.263 135.826 640.024 135.826C640.014 135.826 640.014 135.826 640.024 135.826Z" fill="white"/>
<path d="M616.42 115.455C616.27 115.455 616.19 115.455 616.19 115.455C616.19 115.455 607.978 115.635 605.348 116.615C602.717 117.595 600.887 121.135 599.977 122.005C597.866 124.005 595.786 128.925 597.476 132.176C599.167 135.426 610.379 134.396 629.172 135.076C633.463 135.236 637.043 135.326 640.014 135.326C650.036 135.326 653.096 134.286 653.216 131.146C653.376 127.075 649.766 125.285 645.855 123.745C641.944 122.195 635.863 118.685 631.332 117.035C627.192 115.515 617.99 115.455 616.42 115.455ZM616.42 114.455C618.22 114.455 627.402 114.535 631.672 116.095C634.223 117.025 637.183 118.495 640.054 119.925C642.344 121.065 644.505 122.135 646.225 122.815C649.296 124.025 654.426 126.055 654.216 131.186C654.046 135.536 649.296 136.326 640.014 136.326C637.253 136.326 633.803 136.246 629.132 136.076C624.111 135.896 619.66 135.836 615.73 135.786C603.998 135.626 598.107 135.556 596.596 132.636C594.696 128.985 596.886 123.555 599.297 121.275C599.487 121.095 599.807 120.655 600.157 120.175C601.227 118.705 602.837 116.485 605.018 115.675C607.778 114.645 615.84 114.455 616.19 114.445L616.42 114.455Z" fill="#E0E0E0"/>
<path d="M627.382 116.135C628.883 116.355 630.273 116.645 631.333 117.035C634.724 118.275 638.974 120.545 642.545 122.265C639.124 122.725 633.453 122.845 630.253 120.365C626.672 117.585 622.281 116.335 622.281 116.335L627.382 116.135Z" fill="#515667"/>
<path d="M613.5 116.845C616.38 116.735 619.921 116.275 625.872 119.205C631.823 122.135 631.823 123.405 631.283 123.615C630.753 123.825 617.46 122.995 612.189 122.415C606.918 121.835 604.628 121.415 604.508 119.615C604.388 117.815 604.748 117.185 613.5 116.845Z" fill="#515667"/>
<path d="M644.106 123.675C644.106 123.675 637.835 123.405 637.304 123.745C636.774 124.085 643.196 127.906 649.627 126.836C649.627 126.836 649.767 126.066 644.106 123.675Z" fill="#E6E6E6"/>
<path d="M640.022 135.826C650.254 135.826 653.585 134.696 653.725 131.165C653.765 130.165 653.595 129.245 653.205 128.415C653.145 128.285 653.035 128.185 652.895 128.145C652.845 128.135 652.795 128.125 652.745 128.125C652.655 128.125 652.565 128.145 652.485 128.195C651.894 128.545 650.684 128.975 648.294 128.975C648.064 128.975 647.814 128.975 647.564 128.965C644.863 128.875 642.993 127.845 641.003 126.745C638.872 125.575 636.672 124.365 633.421 124.365H633.091C632.631 124.375 632.151 124.385 631.651 124.385C625.33 124.385 616.388 123.515 611.707 122.455C610.027 122.075 607.827 121.875 605.186 121.875C602.726 121.875 600.445 122.045 599.305 122.145C599.175 122.155 599.065 122.215 598.975 122.305C597.105 124.375 595.324 129.155 597.025 132.415C598.405 135.066 604.556 135.146 615.718 135.296C619.649 135.346 624.11 135.406 629.14 135.586C633.811 135.746 637.262 135.826 640.022 135.826C640.012 135.826 640.012 135.826 640.022 135.826Z" fill="white"/>
<path d="M605.197 122.365C602.816 122.365 600.606 122.525 599.356 122.635C597.466 124.715 595.945 129.236 597.476 132.176C599.166 135.426 610.378 134.396 629.171 135.076C633.462 135.236 637.042 135.326 640.013 135.326C650.035 135.326 653.095 134.286 653.215 131.146C653.255 130.186 653.085 129.356 652.745 128.616C652.015 129.056 650.685 129.466 648.294 129.466C648.054 129.466 647.804 129.466 647.544 129.456C641.753 129.266 639.503 124.855 633.422 124.855C633.322 124.855 633.212 124.855 633.102 124.855C632.642 124.865 632.152 124.875 631.652 124.875C625.32 124.875 616.269 123.995 611.598 122.935C609.718 122.495 607.377 122.365 605.197 122.365ZM605.197 121.365C607.887 121.365 610.118 121.565 611.828 121.955C616.479 123.015 625.37 123.875 631.662 123.875C632.152 123.875 632.632 123.865 633.092 123.855C633.202 123.855 633.322 123.855 633.432 123.855C636.812 123.855 639.073 125.095 641.253 126.305C643.184 127.365 645.014 128.376 647.584 128.456C647.834 128.466 648.074 128.466 648.294 128.466C650.575 128.466 651.695 128.086 652.225 127.755C652.385 127.665 652.555 127.615 652.735 127.615C652.835 127.615 652.935 127.625 653.035 127.655C653.305 127.736 653.525 127.936 653.645 128.196C654.065 129.096 654.246 130.106 654.205 131.176C654.035 135.526 649.285 136.316 640.003 136.316C637.243 136.316 633.792 136.236 629.121 136.066C624.1 135.886 619.649 135.826 615.719 135.776C603.987 135.616 598.096 135.546 596.585 132.626C594.765 129.126 596.595 124.185 598.616 121.955C598.786 121.765 599.016 121.655 599.266 121.635C600.416 121.535 602.716 121.365 605.197 121.365Z" fill="#E0E0E0"/>
<path d="M602.287 132.396C611.009 134.766 635.423 133.466 645.125 132.786C650.186 132.436 652.326 131.376 653.206 130.456C653.226 130.676 653.226 130.906 653.216 131.146C653.056 135.216 647.955 135.766 629.172 135.076C610.379 134.396 599.177 135.426 597.476 132.176C597.226 131.696 597.056 131.196 596.966 130.706C598.226 131.196 599.937 131.756 602.287 132.396Z" fill="#E6E6E6"/>
<path d="M636.165 137.936C633.624 137.936 631.564 135.876 631.564 133.336C631.564 130.795 633.624 128.735 636.165 128.735C638.706 128.735 640.766 130.795 640.766 133.336C640.766 135.876 638.706 137.936 636.165 137.936Z" fill="#515667"/>
<path d="M636.163 135.966C634.71 135.966 633.533 134.788 633.533 133.336C633.533 131.883 634.71 130.706 636.163 130.706C637.615 130.706 638.793 131.883 638.793 133.336C638.793 134.788 637.615 135.966 636.163 135.966Z" fill="white"/>
<path d="M603.009 137.936C600.468 137.936 598.408 135.876 598.408 133.336C598.408 130.795 600.468 128.735 603.009 128.735C605.55 128.735 607.609 130.795 607.609 133.336C607.609 135.876 605.55 137.936 603.009 137.936Z" fill="#515667"/>
<path d="M603.007 135.966C601.554 135.966 600.377 134.788 600.377 133.336C600.377 131.883 601.554 130.706 603.007 130.706C604.459 130.706 605.637 131.883 605.637 133.336C605.637 134.788 604.459 135.966 603.007 135.966Z" fill="white"/>
<path d="M70.0675 414.51H101.215V373.057C101.215 370.937 99.496 369.223 97.38 369.223H73.9023C71.7811 369.223 70.0675 370.942 70.0675 373.057V414.51Z" stroke="white" stroke-width="2"/>
<path d="M58 414.51H70.1387V385.218H60.2796C59.0174 385.218 58 386.239 58 387.497V414.51Z" stroke="white" stroke-width="2"/>
<path d="M105 415H54" stroke="white" stroke-width="2" stroke-miterlimit="10" stroke-linecap="round" stroke-linejoin="round"/>
<path d="M92.7129 380H78.7431" stroke="white" stroke-width="2" stroke-miterlimit="10" stroke-linecap="round" stroke-linejoin="round"/>
<path d="M92.7129 392H78.7431" stroke="white" stroke-width="2" stroke-miterlimit="10" stroke-linecap="round" stroke-linejoin="round"/>
<path d="M92.7129 405H78.7431" stroke="white" stroke-width="2" stroke-miterlimit="10" stroke-linecap="round" stroke-linejoin="round"/>
<path d="M310.254 16.8608H198.214" stroke="white" stroke-width="2" stroke-miterlimit="10" stroke-linecap="round"/>
<path d="M310.254 31.2612H198.214" stroke="white" stroke-width="2" stroke-miterlimit="10" stroke-linecap="round"/>
<path d="M347.246 157.832C347.246 157.832 341.956 163.468 339.746 163.688C337.536 163.908 332.836 163.688 332.836 163.688L342.956 149.204C342.956 149.204 342.036 144.75 334.676 141.046C327.316 137.343 319.136 137.443 319.136 137.443L282.746 184.378C282.746 184.378 281.106 194.718 291.746 195.378C302.376 196.039 343.776 194.427 343.776 194.427L347.246 157.832Z" fill="#F55681"/>
<path d="M334.667 141.046C342.027 144.74 342.947 149.204 342.947 149.204C340.617 152.857 331.777 150.195 326.237 147.282C320.697 144.369 317.797 139.164 319.127 137.443C319.137 137.443 327.307 137.343 334.667 141.046Z" fill="#D44E72"/>
<path d="M331.637 175.469C329.627 180.494 321.787 181.345 322.507 179.263C323.227 177.181 332.827 163.688 332.827 163.688C332.827 163.688 333.857 163.738 335.188 163.758C334.517 166.441 333.097 171.826 331.637 175.469Z" fill="#D44E72"/>
<path d="M343.767 194.427C343.767 194.427 321.577 195.288 305.517 195.489C306.517 193.657 308.767 191.925 311.467 191.385C317.707 190.153 329.867 181.615 334.127 177.541C338.387 173.467 344.177 161.706 344.177 161.706C344.177 161.706 345.607 161.226 346.957 160.785L343.767 194.427Z" fill="#D44E72"/>
<path d="M366.878 127.673C366.878 127.673 361.868 128.244 360.378 130.896C358.898 133.549 355.008 138.674 349.698 138.864C344.388 139.054 341.318 141.997 341.318 141.997L331.638 144.61C331.638 144.61 325.368 142.197 325.568 140.486C325.768 138.774 329.508 135.611 329.508 135.611C329.508 135.611 337.218 127.283 338.038 123.209C338.858 119.135 344.678 110.186 351.068 108.024C357.458 105.862 365.488 107.534 365.818 107.894C366.138 108.265 370.398 124.44 370.398 124.44L366.878 127.673Z" fill="#FFB8B8" stroke="#FAA5A5" stroke-miterlimit="10" stroke-linejoin="round"/>
<path d="M342.477 145.23L338.557 150.055C338.557 150.055 325.787 148.443 322.467 142.938L328.347 135.541C328.647 135.161 329.277 135.191 329.517 135.601C330.737 137.643 334.337 142.357 341.317 141.987C341.317 141.987 342.267 142.367 342.737 143.318C343.037 143.949 342.917 144.68 342.477 145.23Z" fill="white" stroke="#E0E0E0" stroke-miterlimit="10" stroke-linejoin="round"/>
<path d="M363.396 112.749C363.396 112.749 359.426 114.11 356.166 113.31L346.826 118.925C346.296 119.245 346.006 119.846 346.086 120.466L347.676 132.808C347.826 133.949 349.116 134.55 350.076 133.919L365.176 124.02L363.396 112.749Z" fill="#2F2E41"/>
<path d="M424.137 524.405L426.188 526.777V544.514C426.188 544.514 421.508 544.324 420.538 548.308C419.558 552.291 413.658 560.229 386.888 557.406C374.787 556.135 373.308 555.515 377.418 547.927C377.418 547.927 340.647 550.92 333.077 546.766C333.077 546.766 334.717 539.219 343.298 538.738C351.887 538.258 351.478 535.415 359.037 530.481C366.597 525.546 374.777 519.86 374.777 519.86L417.917 516.978L424.137 524.405Z" fill="#2F2E41"/>
<path d="M371.097 545.274C378.047 540.6 377.477 527.457 368.307 524.294C372.057 521.752 374.777 519.86 374.777 519.86L416.257 517.087C420.067 521.662 423.037 526.056 423.037 526.056C423.037 526.056 402.777 526.456 396.857 527.668C390.927 528.879 393.577 532.813 388.057 538.568C382.547 544.324 377.407 547.927 377.407 547.927C377.407 547.927 340.637 550.92 333.067 546.766C333.077 546.766 362.927 550.77 371.097 545.274Z" fill="#21202F"/>
<path d="M386.876 557.406C378.566 556.535 375.266 555.965 375.346 553.232C377.216 554.824 398.606 555.665 407.666 554.463C416.726 553.252 418.526 549.629 420.096 543.563C420.876 540.55 423.616 539.299 426.176 538.798V544.504C426.176 544.504 421.496 544.314 420.526 548.297C419.556 552.281 413.656 560.229 386.876 557.406Z" fill="#21202F"/>
<path d="M409.717 147.272C409.717 147.272 441.837 157.992 443.877 162.356C445.917 166.721 445.637 188.532 439.137 205.218C432.637 221.904 430.747 234.256 420.137 238.229L428.747 284.494L424.317 286.766C424.317 286.766 418.367 345.643 421.817 367.984C425.267 390.326 430.997 421.235 429.847 446.089C428.697 470.943 426.177 526.777 426.177 526.777C426.177 526.777 397.077 519.269 389.427 527.437C389.427 527.437 380.707 522.743 371.437 522.913C371.437 522.913 366.257 518.198 366.257 515.956C366.257 513.714 372.797 500.952 372.797 500.952C372.797 500.952 374.417 438.932 371.847 414.469C369.277 390.005 352.237 293.342 344.737 283.733C344.737 283.733 341.917 288.538 342.847 294.103L336.277 292.011C336.277 292.011 344.547 237.018 342.187 219.221C339.827 201.424 338.727 176.52 340.707 167.451C342.687 158.383 347.797 156.02 350.867 153.688C353.937 151.356 366.887 151.686 366.887 151.686L409.717 147.272Z" fill="#F55681"/>
<path d="M353.726 173.797L360.886 170.484L356.726 162.096L408.996 147.342L409.736 147.272C409.876 147.322 412.326 148.143 415.856 149.394L403.346 169.643H393.786L398.816 179.032L356.986 227.949C356.986 227.949 355.346 238.87 354.226 241.623C353.106 244.375 352.646 257.077 357.126 256.417C379.746 253.074 420.136 238.229 420.136 238.229L421.506 245.586C406.676 244.525 403.936 246.828 385.936 258.549C352.626 280.24 350.586 272.873 350.046 276.106C349.496 279.349 355.106 295.715 355.106 295.715C395.336 298.838 424.326 286.776 424.326 286.776C424.326 286.776 424.186 288.187 423.956 290.66C409.546 296.736 370.496 306.395 370.496 306.395C370.496 306.395 384.666 351.758 390.636 407.392C396.606 463.025 391.136 519.41 391.136 519.41C396.626 517.968 413.646 521.391 426.266 525.005C426.216 526.146 426.186 526.777 426.186 526.777C426.186 526.777 397.086 519.269 389.436 527.437C389.436 527.437 380.716 522.743 371.446 522.913C371.446 522.913 366.266 518.198 366.266 515.956C366.266 515.726 366.336 515.396 366.456 514.975C375.456 515.806 386.146 518.268 385.016 515.646C383.186 511.372 372.806 500.952 372.806 500.952C372.806 500.952 374.426 438.932 371.856 414.469C369.286 390.005 352.246 293.342 344.746 283.733C344.746 283.733 341.926 288.538 342.856 294.103L339.756 293.112C342.536 274.835 351.196 236.318 351.196 236.318L353.726 173.797Z" fill="#D44E72"/>
<path d="M404.828 138.864C404.828 138.864 408.688 138.834 410.918 142.627C413.148 146.421 413.418 149.074 413.418 149.074L402.508 168.422L392.708 170.484L396.658 177.521L352.398 228.43L355.108 172.556L361.018 168.302L356.728 162.106C356.728 162.106 359.998 152.527 364.328 150.805C368.658 149.084 370.878 149.444 370.878 149.444L404.828 138.864Z" fill="#F55681"/>
<path d="M365.727 108.044C365.727 106.833 365.727 96.2028 365.727 96.2028L380.287 91.6484L399.497 94.281L405.537 102.809L403.747 109.866C403.977 115.631 401.677 117.984 401.677 117.984L404.327 143.318L393.417 150.055L373.587 152.217L373.907 139.935C370.927 139.615 368.727 138.804 368.357 138.403C367.047 136.982 366.787 128.684 366.787 126.712C366.787 124.74 364.357 120.336 364.357 116.582C364.357 112.829 365.727 109.255 365.727 108.044Z" fill="#FFB8B8"/>
<path d="M365.727 108.044C365.727 106.833 365.727 96.2028 365.727 96.2028L380.287 91.6484L399.497 94.281L405.537 102.809L403.747 109.866C403.977 115.631 401.677 117.984 401.677 117.984L404.327 143.318L393.417 150.055L373.587 152.217L373.907 139.935C370.927 139.615 368.727 138.804 368.357 138.403C367.047 136.982 366.787 128.684 366.787 126.712C366.787 124.74 364.357 120.336 364.357 116.582C364.357 112.829 365.727 109.255 365.727 108.044Z" stroke="#FAA5A5" stroke-miterlimit="10" stroke-linejoin="round"/>
<path d="M382.857 79.637C383.307 78.9564 382.777 78.0555 381.967 78.0755C378.867 78.1656 373.367 78.6761 369.367 81.0184C363.507 84.4617 361.377 89.2162 361.687 91.8488C361.997 94.4813 363.107 97.6143 366.747 98.9356C369.887 100.067 381.687 98.345 386.937 96.4131C388.437 95.8626 390.127 96.6834 390.487 98.2349C390.707 99.1758 390.827 100.427 390.697 102.069C390.297 107.534 390.497 114.01 389.987 115.832C389.477 117.654 394.337 115.832 394.837 113.81C395.347 111.788 395.547 105.011 400.697 105.212C403.327 105.312 404.567 108.935 404.167 110.146C404.167 110.146 409.187 99.0357 408.587 94.7816C407.977 90.5275 405.457 87.4946 400.297 87.1943C395.137 86.894 383.617 88.4054 381.797 86.1833C380.527 84.6218 381.637 81.5288 382.857 79.637Z" fill="#A0616A"/>
<path d="M379.628 119.495C376.856 119.495 374.608 116.874 374.608 113.64C374.608 110.406 376.856 107.784 379.628 107.784C382.401 107.784 384.648 110.406 384.648 113.64C384.648 116.874 382.401 119.495 379.628 119.495Z" stroke="#2F2E41" stroke-miterlimit="10"/>
<path d="M394.988 112.318L384.648 112.198" stroke="#2F2E41" stroke-miterlimit="10" stroke-linecap="round"/>
<path d="M374.867 111.808C374.867 111.808 373.427 111.378 370.207 111.808" stroke="#2F2E41" stroke-miterlimit="10"/>
<path d="M365.439 119.495C362.667 119.495 360.419 116.874 360.419 113.64C360.419 110.406 362.667 107.784 365.439 107.784C368.211 107.784 370.459 110.406 370.459 113.64C370.459 116.874 368.211 119.495 365.439 119.495Z" stroke="#2F2E41" stroke-miterlimit="10"/>
<path d="M384.647 138.364C393.797 134.059 396.438 128.234 396.438 128.234C396.438 128.234 396.118 138.434 373.658 149.294L373.908 139.935C377.018 140.265 380.977 140.085 384.647 138.364Z" fill="#FAA5A5"/>
<path d="M355.648 221.623C355.818 221.623 355.988 221.533 356.078 221.383C356.338 220.952 381.898 177.911 388.498 167.03C393.298 159.103 400.128 151.215 403.788 146.981C405.278 145.259 406.258 144.128 406.548 143.638C407.148 142.647 406.978 141.596 406.608 140.955C406.268 140.345 405.718 139.984 405.128 139.984C404.718 139.984 404.318 140.165 403.968 140.495C398.528 145.69 380.678 150.224 377.218 150.354H377.058C374.178 150.354 373.328 147.432 373.288 147.301C373.228 147.081 373.028 146.931 372.808 146.931C372.788 146.931 372.768 146.931 372.748 146.931C370.758 147.181 369.538 149.724 367.538 157.801C365.648 165.439 355.248 220.472 355.148 221.022C355.108 221.262 355.238 221.493 355.458 221.583C355.528 221.613 355.588 221.623 355.648 221.623Z" fill="white"/>
<path d="M405.138 140.485C404.878 140.485 404.598 140.595 404.318 140.856C398.768 146.161 380.708 150.725 377.248 150.855C377.188 150.855 377.128 150.855 377.068 150.855C373.758 150.855 372.818 147.442 372.818 147.442C371.118 147.652 369.938 150.225 368.028 157.932C366.118 165.65 355.638 221.133 355.638 221.133C355.638 221.133 381.388 177.781 388.068 166.761C394.748 155.75 405.138 145 406.128 143.368C406.908 142.087 406.138 140.485 405.138 140.485ZM405.138 139.484C405.908 139.484 406.618 139.945 407.048 140.706C407.598 141.686 407.578 142.908 406.978 143.899C406.678 144.399 405.848 145.36 404.168 147.302C400.508 151.526 393.708 159.394 388.928 167.281C382.328 178.172 356.768 221.203 356.508 221.633C356.328 221.944 355.988 222.124 355.648 222.124C355.528 222.124 355.408 222.104 355.298 222.064C354.848 221.894 354.578 221.423 354.668 220.943C355.098 218.68 365.178 165.339 367.068 157.692C369.158 149.254 370.418 146.731 372.708 146.441C372.748 146.431 372.788 146.431 372.828 146.431C373.278 146.431 373.668 146.731 373.788 147.172C373.818 147.272 374.578 149.854 377.068 149.854C377.118 149.854 377.158 149.854 377.208 149.854C380.518 149.734 398.378 145.15 403.628 140.135C404.198 139.594 404.768 139.484 405.138 139.484Z" fill="#E0E0E0"/>
<path d="M375.397 152.217C375.907 152.267 377.787 154.269 378.097 156.411C378.407 158.553 374.307 166.02 374.307 166.02L372.827 192.245L355.647 221.123L362.077 187.471C362.077 187.471 370.617 168.673 371.577 166.27C372.527 163.868 370.897 157.091 371.717 155.27C372.527 153.458 375.397 152.217 375.397 152.217Z" fill="#2F2E41"/>
<path d="M435.496 163.678C435.496 163.678 416.956 167.812 398.016 206.809L381.786 220.062C381.786 220.062 392.286 214.316 405.106 212.605C417.926 210.893 424.326 216.058 424.326 216.058C424.326 216.058 425.456 204.077 407.786 207.87C407.786 207.87 412.806 189.002 427.326 180.794C427.326 180.794 424.756 177.641 420.146 178.332C420.136 178.342 424.256 169.373 435.496 163.678Z" fill="#D44E72"/>
<path d="M359.446 227.439C359.446 227.439 361.086 225.517 361.626 227.439C362.166 229.361 361.766 244.075 359.446 249.68C357.126 255.286 356.616 256.677 355.646 251.742C354.676 246.808 355.646 243.865 355.646 243.865L359.446 227.439Z" fill="#D44E72"/>
<path d="M379.597 244.115C378.388 244.115 377.407 243.56 377.407 242.874C377.407 242.189 378.388 241.633 379.597 241.633C380.807 241.633 381.787 242.189 381.787 242.874C381.787 243.56 380.807 244.115 379.597 244.115Z" fill="white"/>
<path d="M359.448 227.439C359.448 227.439 361.218 233.915 359.448 239.601C357.678 245.286 356.588 245.797 356.588 245.797L348.588 244.415C348.588 244.415 347.588 243.144 347.448 239.35C347.308 235.557 350.718 226.218 350.718 226.218L359.448 227.439Z" fill="white" stroke="#E0E0E0" stroke-miterlimit="10" stroke-linejoin="round"/>
<path d="M368.518 246.898C367.242 246.898 366.208 246.275 366.208 245.507C366.208 244.738 367.242 244.115 368.518 244.115C369.794 244.115 370.828 244.738 370.828 245.507C370.828 246.275 369.794 246.898 368.518 246.898Z" fill="white"/>
<path d="M312.827 185.829L331.637 242.874L285.157 233.245L265.257 174.838L312.827 185.829Z" fill="#515667"/>
<path d="M350.858 227.049C350.858 227.049 343.978 227.619 340.908 223.886C337.838 220.152 336.408 218.26 330.348 216.869C324.278 215.478 322.378 214.787 322.378 214.787L324.698 221.834C324.698 221.834 318.958 223.155 313.638 221.123C308.318 219.081 300.518 215.768 296.808 218.2C295.648 218.961 299.878 220.282 301.038 222.124C302.198 223.956 303.018 226.238 304.238 229.201C305.468 232.174 311.188 237.419 316.978 238.81C322.768 240.202 335.398 238.25 338.788 238.81C342.168 239.371 348.328 240.892 349.008 240.071C349.698 239.251 351.738 232.744 350.858 227.049Z" fill="#FFB8B8" stroke="#FAA5A5" stroke-miterlimit="10" stroke-linejoin="round"/>
<path d="M400.098 109.726C399.748 109.706 399.428 109.886 399.148 110.106C398.248 110.807 397.678 111.878 397.448 112.989C397.208 114.1 397.288 115.261 397.478 116.393" stroke="#FAA5A5" stroke-miterlimit="10" stroke-linecap="round"/>
<path d="M379.286 115.031C378.718 115.031 378.256 114.57 378.256 114C378.256 113.431 378.718 112.969 379.286 112.969C379.855 112.969 380.316 113.431 380.316 114C380.316 114.57 379.855 115.031 379.286 115.031Z" fill="#2F2E41"/>
<path d="M367.068 115.031C366.499 115.031 366.038 114.57 366.038 114C366.038 113.431 366.499 112.969 367.068 112.969C367.637 112.969 368.098 113.431 368.098 114C368.098 114.57 367.637 115.031 367.068 115.031Z" fill="#2F2E41"/>
<path d="M376.498 104.491C376.498 105.221 377.198 105.812 379.588 105.812C381.978 105.812 385.148 105.221 385.148 104.491C385.148 103.76 381.978 103.169 379.588 103.169C377.198 103.169 376.498 103.76 376.498 104.491Z" fill="#864B53"/>
<path d="M369.758 104.831C369.758 105.372 369.238 105.812 367.458 105.812C365.678 105.812 363.328 105.372 363.328 104.831C363.328 104.291 365.688 103.85 367.458 103.85C369.228 103.85 369.758 104.281 369.758 104.831Z" fill="#864B53"/>
<path d="M370.487 114.19C369.857 116.763 369.237 119.335 368.607 121.908C368.537 122.178 368.477 122.448 368.467 122.729C368.447 123.559 368.997 123.82 369.757 124.16C370.397 124.44 371.387 124.53 372.357 124.67" stroke="#FAA5A5" stroke-miterlimit="10" stroke-linecap="round"/>
<path d="M373.397 132.057C376.667 131.987 378.617 128.083 378.697 127.923C378.797 127.713 378.747 127.462 378.567 127.312C378.477 127.242 378.367 127.202 378.257 127.202C378.147 127.202 378.037 127.242 377.947 127.312C377.927 127.322 376.027 128.744 371.397 128.744C370.877 128.744 370.317 128.724 369.727 128.684C369.717 128.684 369.707 128.684 369.697 128.684C369.547 128.684 369.407 128.754 369.307 128.874C369.207 129.004 369.167 129.174 369.217 129.324C369.487 130.275 370.687 132.057 373.277 132.057H373.397Z" fill="white"/>
<path d="M378.258 127.703C378.258 127.703 376.308 129.245 371.398 129.245C370.868 129.245 370.298 129.225 369.698 129.185C369.698 129.185 370.378 131.557 373.278 131.557C373.318 131.557 373.358 131.557 373.388 131.557C376.388 131.497 378.258 127.703 378.258 127.703ZM378.248 126.702C378.478 126.702 378.698 126.782 378.888 126.932C379.248 127.233 379.358 127.723 379.148 128.144C379.058 128.324 376.978 132.488 373.408 132.558H373.268C370.378 132.558 369.028 130.536 368.728 129.465C368.638 129.155 368.708 128.814 368.908 128.564C369.098 128.324 369.388 128.194 369.688 128.194C369.708 128.194 369.728 128.194 369.758 128.194C370.318 128.234 370.868 128.254 371.388 128.254C375.798 128.254 377.618 126.932 377.638 126.912C377.828 126.772 378.038 126.702 378.248 126.702Z" fill="#FAA5A5"/>
<path d="M370.796 134.169C369.516 135.341 371.166 137.182 372.426 137.473" stroke="#FAA5A5" stroke-miterlimit="10" stroke-linecap="round"/>
<path d="M369.366 81.0185C369.946 80.6782 370.566 80.3879 371.206 80.1177C371.056 80.2278 370.896 80.3379 370.746 80.448C370.086 80.9285 369.416 81.4089 368.896 82.0295C368.366 82.6601 368.006 83.4108 367.676 84.1716C366.576 86.744 366.466 89.1764 367.706 91.7489C368.386 93.1502 369.216 94.5115 370.436 95.4724C372.736 97.2842 375.956 97.3242 378.846 96.8938C381.746 96.4634 384.716 95.5825 387.676 96.063C387.876 96.093 388.036 96.1631 388.176 96.2532C387.766 96.2131 387.346 96.2532 386.936 96.4033C381.676 98.3252 369.886 100.057 366.746 98.9258C363.106 97.6145 361.996 94.4715 361.686 91.8389C361.376 89.2064 363.506 84.4619 369.366 81.0185Z" fill="#864B53"/>
<circle cx="71.5" cy="172.5" r="47" fill="white" stroke="#E6E6E6"/>
<path d="M78.9547 163.433L77.9448 166.457C77.7405 167.076 77.1626 167.49 76.5088 167.49H52.0732C51.04 167.49 50.3103 168.5 50.6372 169.481C50.8415 170.099 51.4194 170.514 52.0732 170.514H74.4949C75.5281 170.514 76.2578 171.524 75.9309 172.504L71.8972 184.605C71.6929 185.224 71.115 185.639 70.4612 185.639H50.7365C50.0827 185.639 49.5047 185.224 49.3004 184.605L48.2906 181.582C47.9637 180.601 48.6933 179.591 49.7266 179.591H66.1006C66.7486 179.591 67.3265 179.177 67.5366 178.558C67.8635 177.577 67.1338 176.567 66.1006 176.567H47.7127C47.0589 176.567 46.481 176.153 46.2766 175.534L42.243 163.433C41.9161 162.452 42.6457 161.442 43.679 161.442H77.5187C78.5519 161.442 79.2816 162.458 78.9547 163.433Z" fill="#F55681"/>
<path d="M94.7268 163.433L93.7169 166.457C93.5126 167.076 92.9347 167.49 92.2809 167.49H86.998L89.012 161.443H93.285C94.324 161.443 95.0537 162.459 94.7268 163.433Z" fill="#F55681"/>
<path d="M100.922 154.362L99.9121 157.386C99.7078 158.005 99.1299 158.419 98.4761 158.419H90.0293L91.3544 154.438C91.763 153.206 92.9188 152.372 94.2206 152.372H99.486C100.519 152.372 101.249 153.381 100.922 154.362Z" fill="#F55681"/>
<path d="M81.7147 167.496H86.9976L81.2944 184.611C81.0901 185.23 80.5122 185.645 79.8584 185.645H76.6712C75.6379 185.645 74.9083 184.635 75.2352 183.654L80.2787 168.529C80.483 167.911 81.0609 167.496 81.7147 167.496Z" fill="#F55681"/>
<path d="M90.0204 158.419L89.0106 161.443H84.7317C83.6985 161.443 82.9688 160.433 83.2957 159.452C83.5 158.833 84.0779 158.419 84.7317 158.419H90.0204Z" fill="#F55681"/>
<path d="M76.6139 192.679C77.9519 192.679 79.0365 191.594 79.0365 190.257C79.0365 188.919 77.9519 187.834 76.6139 187.834C75.276 187.834 74.1914 188.919 74.1914 190.257C74.1914 191.594 75.276 192.679 76.6139 192.679Z" fill="#F55681"/>
<path d="M60.6003 192.679C61.9382 192.679 63.0228 191.594 63.0228 190.257C63.0228 188.919 61.9382 187.834 60.6003 187.834C59.2623 187.834 58.1777 188.919 58.1777 190.257C58.1777 191.594 59.2623 192.679 60.6003 192.679Z" fill="#F55681"/>
<path d="M211.997 176.091C229.116 176.091 242.994 162.191 242.994 145.045C242.994 127.899 229.116 114 211.997 114C194.878 114 181 127.899 181 145.045C181 162.191 194.878 176.091 211.997 176.091Z" fill="#F55681"/>
<path d="M218.136 146.552L221.948 158.546C222.18 159.269 221.607 160 220.818 160H203.182C202.393 160 201.82 159.269 202.052 158.546L205.864 146.552C206.005 146.108 206.088 145.655 206.121 145.186L206.536 138.474C206.063 138.474 205.822 139.531 205.822 139.531L202.185 139.007C202.185 139.007 202.185 135.877 204.004 133.439C205.814 131.016 208.728 131.016 208.728 131.016C208.728 131.882 210.547 132.747 212 132.747V132.732C213.453 132.732 215.272 131.866 215.272 131C215.272 131 218.178 131 219.996 133.439C221.815 135.877 221.815 139.007 221.815 139.007L218.178 139.531C218.178 139.531 217.937 138.474 217.464 138.474L217.879 145.202C217.912 145.655 217.995 146.116 218.136 146.552Z" fill="white"/>
</svg>
