<svg width="600" height="556" viewBox="0 0 600 556" fill="none" xmlns="http://www.w3.org/2000/svg">
<path d="M383.386 533.618H69.168C64.0137 533.618 59.8301 529.443 59.8301 524.299V264.712C59.8301 259.568 64.0137 255.393 69.168 255.393H383.386C388.541 255.393 392.724 259.568 392.724 264.712V524.299C392.724 529.453 388.541 533.618 383.386 533.618Z" fill="#E6E6E6" stroke="#E0E0E0" stroke-miterlimit="10" stroke-linejoin="round"/>
<path d="M359.978 510.806H92.5799C88.2361 510.806 84.7031 507.29 84.7031 502.946V286.065C84.7031 281.73 88.2261 278.205 92.5799 278.205H359.978C364.322 278.205 367.855 281.72 367.855 286.065V502.946C367.855 507.29 364.322 510.806 359.978 510.806Z" fill="white" stroke="#E0E0E0" stroke-miterlimit="10" stroke-linejoin="round"/>
<path d="M340.57 234.349H112.175C102.837 234.349 93.7389 237.335 86.2225 242.859L69.168 255.403H383.586L366.532 242.859C359.005 237.335 349.908 234.349 340.57 234.349Z" fill="#E0E0E0" stroke="#E0E0E0" stroke-miterlimit="10" stroke-linejoin="round"/>
<path d="M164.758 330.44C136.614 330.44 113.795 353.212 113.795 381.297C113.795 409.382 136.614 432.154 164.758 432.154C192.902 432.154 215.722 409.382 215.722 381.297C215.722 353.212 192.902 330.44 164.758 330.44ZM199.278 375.744H171.354V347.029C185.716 349.766 196.956 361.262 199.278 375.744ZM158.173 347.029V375.744H130.249C132.561 361.262 143.811 349.766 158.173 347.029ZM130.649 388.897H158.173V415.544C144.491 412.938 133.652 402.391 130.649 388.897ZM171.354 415.544V388.897H198.878C195.865 402.391 185.026 412.938 171.354 415.544Z" fill="#E0E0E0"/>
<path d="M164.759 393.052C171.27 393.052 176.549 387.785 176.549 381.287C176.549 374.789 171.27 369.521 164.759 369.521C158.247 369.521 152.969 374.789 152.969 381.287C152.969 387.785 158.247 393.052 164.759 393.052Z" fill="#515667"/>
<path d="M354.662 488.634V514.152C354.662 518.547 378.292 522.102 407.437 522.102C436.582 522.102 460.212 518.547 460.212 514.152V488.634H354.662Z" fill="#E6E6E6" stroke="#E0E0E0" stroke-miterlimit="10" stroke-linejoin="round"/>
<path d="M407.437 496.584C436.584 496.584 460.212 493.024 460.212 488.634C460.212 484.243 436.584 480.684 407.437 480.684C378.29 480.684 354.662 484.243 354.662 488.634C354.662 493.024 378.29 496.584 407.437 496.584Z" fill="white" stroke="#C8D4E8" stroke-miterlimit="10" stroke-linejoin="round"/>
<path d="M354.662 462.646V488.164C354.662 492.559 378.292 496.114 407.437 496.114C436.582 496.114 460.212 492.559 460.212 488.164V462.646H354.662Z" fill="#E6E6E6" stroke="#E0E0E0" stroke-miterlimit="10" stroke-linejoin="round"/>
<path d="M407.437 470.596C436.584 470.596 460.212 467.037 460.212 462.646C460.212 458.255 436.584 454.696 407.437 454.696C378.29 454.696 354.662 458.255 354.662 462.646C354.662 467.037 378.29 470.596 407.437 470.596Z" fill="white" stroke="#C8D4E8" stroke-miterlimit="10" stroke-linejoin="round"/>
<path d="M354.662 436.648V462.166C354.662 466.561 378.292 470.116 407.437 470.116C436.582 470.116 460.212 466.561 460.212 462.166V436.648H354.662Z" fill="#E6E6E6" stroke="#E0E0E0" stroke-miterlimit="10" stroke-linejoin="round"/>
<path d="M407.437 444.598C436.584 444.598 460.212 441.039 460.212 436.648C460.212 432.258 436.584 428.698 407.437 428.698C378.29 428.698 354.662 432.258 354.662 436.648C354.662 441.039 378.29 444.598 407.437 444.598Z" fill="white" stroke="#C8D4E8" stroke-miterlimit="10" stroke-linejoin="round"/>
<path d="M354.662 410.66V436.178C354.662 440.573 378.292 444.129 407.437 444.129C436.582 444.129 460.212 440.573 460.212 436.178V410.66H354.662Z" fill="#E6E6E6" stroke="#E0E0E0" stroke-miterlimit="10" stroke-linejoin="round"/>
<path d="M407.437 418.611C436.584 418.611 460.212 415.051 460.212 410.661C460.212 406.27 436.584 402.71 407.437 402.71C378.29 402.71 354.662 406.27 354.662 410.661C354.662 415.051 378.29 418.611 407.437 418.611Z" fill="white" stroke="#E0E0E0" stroke-miterlimit="10" stroke-linejoin="round"/>
<path d="M118.1 517.008L105.279 536.564V556C105.279 556 392.194 556 401.282 556C410.37 556 418.106 552.055 418.106 546.192C418.106 540.329 418.106 527.735 418.106 527.735C418.106 527.735 416.065 517.418 398.049 517.418C380.034 517.418 118.1 517.008 118.1 517.008Z" fill="#2F2E41"/>
<path d="M398.049 517.418C380.034 517.418 118.1 517.008 118.1 517.008L105.279 536.564C105.279 536.564 392.214 536.564 399.791 536.564C407.367 536.564 418.096 535.575 418.096 527.735C418.106 527.735 416.065 517.418 398.049 517.418Z" fill="#515667"/>
<path d="M325.678 530.082H207.407C205.646 530.082 204.225 528.664 204.225 526.906V433.682H328.871V526.906C328.871 528.664 327.44 530.082 325.678 530.082Z" fill="#F55681"/>
<path d="M204.225 457.552C216.965 460.488 240.105 462.456 266.548 462.456C292.99 462.456 316.13 460.488 328.871 457.552V433.682H204.225V457.552Z" fill="#D44E72"/>
<path d="M193.795 393.931V442.341C193.795 447.934 226.363 452.468 266.547 452.468C306.731 452.468 339.299 447.934 339.299 442.341V393.931H193.795Z" fill="#F55681"/>
<path d="M339.299 393.931C339.299 397.027 329.341 399.794 313.637 401.651C300.946 403.159 284.502 404.058 266.547 404.058C248.181 404.058 231.407 403.119 218.606 401.551C203.393 399.694 193.795 396.967 193.795 393.931C193.795 390.895 203.393 388.168 218.606 386.31C231.407 384.752 248.181 383.813 266.547 383.813C284.492 383.813 300.926 384.712 313.617 386.21C329.331 388.068 339.299 390.835 339.299 393.931Z" fill="#D44E72"/>
<path d="M212.33 430.066C216.78 430.066 220.387 426.467 220.387 422.026C220.387 417.586 216.78 413.986 212.33 413.986C207.881 413.986 204.273 417.586 204.273 422.026C204.273 426.467 207.881 430.066 212.33 430.066Z" fill="white"/>
<path d="M151.26 306.599C171.574 306.599 188.041 290.166 188.041 269.895C188.041 249.624 171.574 233.19 151.26 233.19C130.946 233.19 114.479 249.624 114.479 269.895C114.479 290.166 130.946 306.599 151.26 306.599Z" fill="#F55681"/>
<path d="M313.376 235.688C307.02 253.186 303.447 288.762 308.541 317.396C312.895 341.906 313.526 365.587 313.616 386.211C313.636 389.697 313.636 393.092 313.636 396.388V401.652C300.945 403.16 284.501 404.059 266.546 404.059C248.18 404.059 231.406 403.12 218.605 401.552V361.611C218.605 354.37 212.78 350.745 205.664 350.595C198.558 350.455 177.059 351.364 166.19 343.154C155.311 334.945 144.992 332.258 137.636 332.338C130.279 332.418 138.947 308.218 158.383 306.57C177.82 304.912 189.47 315.589 208.806 302.305C228.133 289.022 231.005 253.625 210.478 239.024C189.95 224.422 178.831 230.404 166.19 234.349C153.539 238.304 130.029 236.786 129.779 223.413C129.519 210.04 163.117 196.077 186.777 194.099C186.777 194.099 207.425 179.777 239.012 189.735C239.012 189.735 250.382 181.026 267.576 190.614C278.606 196.766 286.743 208.731 286.743 208.731C286.743 208.731 309.622 168.162 338.877 174.144C347.865 175.982 346.654 182.184 341.83 190.014C337.006 197.845 319.721 218.189 313.376 235.688Z" fill="#FFB8B8" stroke="#FAA5A5" stroke-miterlimit="10" stroke-linejoin="round"/>
<path d="M186.777 194.099C210.177 194.099 241.094 202.429 258.639 241.311" stroke="#FAA5A5" stroke-miterlimit="10" stroke-linecap="round" stroke-linejoin="round"/>
<path d="M239.014 189.734C251.144 194.139 276.466 208.731 280.639 233.19" stroke="#FAA5A5" stroke-miterlimit="10" stroke-linecap="round" stroke-linejoin="round"/>
<path d="M286.744 208.731C292.019 216.092 294.671 226.878 294.671 226.878" stroke="#FAA5A5" stroke-miterlimit="10" stroke-linecap="round" stroke-linejoin="round"/>
<path d="M157.994 337.901C158.915 336.622 159.755 335.084 160.236 333.327C161.757 327.813 158.714 325.916 155.301 324.597C151.889 323.269 147.545 321.761 142.03 324.597C142.03 324.597 139.148 328.223 138.777 332.348C144.102 332.498 150.768 334.036 157.994 337.901Z" fill="#FFDBDB" stroke="#FAA5A5" stroke-miterlimit="10" stroke-linejoin="round"/>
<path d="M132.031 217.071C133.863 220.187 139.388 221.475 140.649 220.896C142.29 220.137 158.534 215.223 154.46 209.49C152.659 206.963 150.367 205.645 148.355 204.966C141.049 208.551 135.094 212.736 132.031 217.071Z" fill="#FFDBDB" stroke="#FAA5A5" stroke-miterlimit="10" stroke-linejoin="round"/>
<path d="M18.0137 525.088V543.236C18.0137 546.362 34.808 548.889 55.5357 548.889C76.2634 548.889 93.0577 546.362 93.0577 543.236V525.088H18.0137Z" fill="#E6E6E6" stroke="#E0E0E0" stroke-miterlimit="10" stroke-linejoin="round"/>
<path d="M55.5357 530.742C76.2585 530.742 93.0577 528.211 93.0577 525.089C93.0577 521.966 76.2585 519.436 55.5357 519.436C34.8129 519.436 18.0137 521.966 18.0137 525.089C18.0137 528.211 34.8129 530.742 55.5357 530.742Z" fill="white" stroke="#E0E0E0" stroke-miterlimit="10" stroke-linejoin="round"/>
<path d="M56.1106 524.218L74.4206 523.008C74.9806 522.968 75.5606 523.088 75.5506 523.248L75.5406 525.158C75.5406 525.258 75.3006 525.338 74.9506 525.358L65.0006 526.008C64.4406 526.048 64.2306 526.218 64.5806 526.348C64.8006 526.428 65.1906 526.468 65.5406 526.448L74.4006 525.858C74.9606 525.818 75.5306 525.938 75.5306 526.098V526.578C75.5306 526.678 75.2906 526.758 74.9406 526.778L64.2606 527.488C63.9106 527.508 63.5206 527.468 63.3006 527.388L58.9506 525.768C58.6006 525.638 58.8106 525.468 59.3706 525.428L71.5106 524.628C71.8606 524.608 72.1006 524.518 72.1006 524.428C72.1006 524.278 71.5306 524.148 70.9706 524.188L57.7406 525.068C57.3906 525.088 57.0006 525.048 56.7806 524.968L55.6906 524.568C55.3406 524.428 55.5506 524.258 56.1106 524.218Z" fill="#F55681"/>
<path d="M47.5713 524.788L49.8813 524.638L52.0613 525.448L49.2013 525.638C48.8513 525.658 48.4613 525.618 48.2413 525.538L47.1513 525.138C46.8013 524.998 47.0213 524.818 47.5713 524.788Z" fill="#F55681"/>
<path d="M42.5911 523.688L45.4411 523.498C46.1411 523.448 46.9211 523.528 47.3611 523.698L48.7911 524.228L44.2211 524.528C43.8711 524.548 43.4811 524.508 43.2611 524.428L42.1711 524.028C41.8211 523.898 42.0311 523.718 42.5911 523.688Z" fill="#F55681"/>
<path d="M61.3413 528.028C62.0613 527.978 62.8413 528.098 63.0813 528.298C63.3213 528.488 62.9313 528.688 62.2113 528.738C61.4913 528.788 60.7013 528.668 60.4613 528.468C60.2213 528.278 60.6113 528.078 61.3413 528.028Z" fill="#F55681"/>
<path d="M52.0605 525.438L54.9205 525.248C55.2705 525.228 55.6605 525.268 55.8805 525.348L61.3205 527.368C61.6705 527.498 61.4605 527.668 60.9005 527.708L59.1805 527.818C58.8305 527.838 58.4405 527.798 58.2205 527.718L52.0605 525.438Z" fill="#F55681"/>
<path d="M48.8008 524.228L51.6608 524.038C52.0108 524.018 52.4008 524.058 52.6208 524.138C52.9708 524.268 52.7608 524.448 52.2008 524.478L49.8808 524.628L48.8008 524.228Z" fill="#F55681"/>
<path d="M70.0013 527.458C70.7213 527.408 71.5113 527.528 71.7513 527.718C71.9913 527.908 71.6013 528.108 70.8713 528.158C70.1513 528.208 69.3713 528.088 69.1313 527.888C68.8913 527.698 69.2813 527.508 70.0013 527.458Z" fill="#F55681"/>
<path d="M399.926 408.633L424.484 407.01C425.235 406.957 426.013 407.118 425.999 407.332L425.986 409.894C425.986 410.028 425.664 410.135 425.194 410.162L411.849 411.034C411.098 411.088 410.816 411.316 411.286 411.49C411.581 411.597 412.104 411.651 412.573 411.624L424.457 410.833C425.208 410.779 425.972 410.94 425.972 411.155V411.799C425.972 411.933 425.65 412.04 425.181 412.067L410.857 413.019C410.387 413.046 409.864 412.992 409.569 412.885L403.735 410.712C403.265 410.538 403.547 410.31 404.298 410.256L420.581 409.183C421.05 409.156 421.372 409.036 421.372 408.915C421.372 408.714 420.607 408.539 419.856 408.593L402.112 409.773C401.642 409.8 401.119 409.747 400.824 409.639L399.362 409.103C398.893 408.915 399.175 408.687 399.926 408.633Z" fill="#F55681"/>
<path d="M388.473 409.398L391.572 409.196L394.496 410.283L390.66 410.538C390.19 410.564 389.667 410.511 389.372 410.403L387.91 409.867C387.441 409.679 387.736 409.438 388.473 409.398Z" fill="#F55681"/>
<path d="M381.793 407.922L385.615 407.667C386.554 407.6 387.6 407.707 388.19 407.935L390.108 408.646L383.979 409.049C383.51 409.075 382.987 409.022 382.691 408.915L381.229 408.378C380.76 408.204 381.042 407.962 381.793 407.922Z" fill="#F55681"/>
<path d="M406.941 413.744C407.907 413.677 408.953 413.838 409.275 414.106C409.597 414.361 409.074 414.629 408.108 414.696C407.142 414.763 406.083 414.602 405.761 414.334C405.439 414.079 405.962 413.811 406.941 413.744Z" fill="#F55681"/>
<path d="M394.492 410.27L398.328 410.015C398.798 409.988 399.321 410.042 399.616 410.149L406.912 412.859C407.381 413.033 407.1 413.261 406.349 413.315L404.042 413.462C403.572 413.489 403.049 413.435 402.754 413.328L394.492 410.27Z" fill="#F55681"/>
<path d="M390.121 408.647L393.957 408.392C394.426 408.365 394.95 408.419 395.245 408.526C395.714 408.701 395.432 408.942 394.681 408.982L391.57 409.183L390.121 408.647Z" fill="#F55681"/>
<path d="M418.557 412.979C419.522 412.912 420.582 413.073 420.904 413.328C421.226 413.583 420.703 413.851 419.724 413.918C418.758 413.985 417.712 413.824 417.39 413.556C417.068 413.301 417.591 413.046 418.557 412.979Z" fill="#F55681"/>
<path d="M1 503.665V521.813C1 524.939 17.7943 527.465 38.522 527.465C59.2497 527.465 76.0441 524.939 76.0441 521.813V503.665H1Z" fill="#E6E6E6" stroke="#E0E0E0" stroke-miterlimit="10" stroke-linejoin="round"/>
<path d="M38.522 509.318C59.2449 509.318 76.0441 506.787 76.0441 503.665C76.0441 500.543 59.2449 498.012 38.522 498.012C17.7992 498.012 1 500.543 1 503.665C1 506.787 17.7992 509.318 38.522 509.318Z" fill="white" stroke="#E0E0E0" stroke-miterlimit="10" stroke-linejoin="round"/>
<path d="M31.1106 503.218L49.4206 502.008C49.9806 501.968 50.5606 502.088 50.5506 502.248L50.5406 504.158C50.5406 504.258 50.3006 504.338 49.9506 504.358L40.0006 505.008C39.4406 505.048 39.2306 505.218 39.5806 505.348C39.8006 505.428 40.1906 505.468 40.5406 505.448L49.4006 504.858C49.9606 504.818 50.5306 504.938 50.5306 505.098V505.578C50.5306 505.678 50.2906 505.758 49.9406 505.778L39.2606 506.488C38.9106 506.508 38.5206 506.468 38.3006 506.388L33.9506 504.768C33.6006 504.638 33.8106 504.468 34.3706 504.428L46.5106 503.628C46.8606 503.608 47.1006 503.518 47.1006 503.428C47.1006 503.278 46.5306 503.148 45.9706 503.188L32.7406 504.068C32.3906 504.088 32.0006 504.048 31.7806 503.968L30.6906 503.568C30.3406 503.428 30.5506 503.258 31.1106 503.218Z" fill="#F55681"/>
<path d="M22.5713 503.788L24.8813 503.638L27.0613 504.448L24.2013 504.638C23.8513 504.658 23.4613 504.618 23.2413 504.538L22.1513 504.138C21.8013 503.998 22.0213 503.818 22.5713 503.788Z" fill="#F55681"/>
<path d="M17.5911 502.688L20.4411 502.498C21.1411 502.448 21.9211 502.528 22.3611 502.698L23.7911 503.228L19.2211 503.528C18.8711 503.548 18.4811 503.508 18.2611 503.428L17.1711 503.028C16.8211 502.898 17.0311 502.718 17.5911 502.688Z" fill="#F55681"/>
<path d="M36.3413 507.028C37.0613 506.978 37.8413 507.098 38.0813 507.298C38.3213 507.488 37.9313 507.688 37.2113 507.738C36.4913 507.788 35.7013 507.668 35.4613 507.468C35.2213 507.278 35.6113 507.078 36.3413 507.028Z" fill="#F55681"/>
<path d="M27.0605 504.438L29.9205 504.248C30.2705 504.228 30.6605 504.268 30.8805 504.348L36.3205 506.368C36.6705 506.498 36.4605 506.668 35.9005 506.708L34.1805 506.818C33.8305 506.838 33.4405 506.798 33.2205 506.718L27.0605 504.438Z" fill="#F55681"/>
<path d="M23.8008 503.228L26.6608 503.038C27.0108 503.018 27.4008 503.058 27.6208 503.138C27.9708 503.268 27.7608 503.448 27.2008 503.478L24.8808 503.628L23.8008 503.228Z" fill="#F55681"/>
<path d="M45.0013 506.458C45.7213 506.408 46.5113 506.528 46.7513 506.718C46.9913 506.908 46.6013 507.108 45.8713 507.158C45.1513 507.208 44.3713 507.088 44.1313 506.888C43.8913 506.698 44.2813 506.508 45.0013 506.458Z" fill="#F55681"/>
<path d="M21.5566 481.583V499.73C21.5566 502.856 38.351 505.383 59.0787 505.383C79.8064 505.383 96.6007 502.856 96.6007 499.73V481.583H21.5566Z" fill="#2F2E41"/>
<path d="M59.0689 487.235C79.7917 487.235 96.5909 484.704 96.5909 481.582C96.5909 478.46 79.7917 475.929 59.0689 475.929C38.3461 475.929 21.5469 478.46 21.5469 481.582C21.5469 484.704 38.3461 487.235 59.0689 487.235Z" fill="#515667"/>
<path d="M515.518 472.284C509.293 448.743 492.128 431.834 473.532 428.628L472.671 425.392L457.989 429.267C434.159 435.549 421.298 464.983 429.244 495.026C437.191 525.068 462.953 544.325 486.773 538.042L501.456 534.167L500.595 530.931C515.188 518.986 521.743 495.815 515.518 472.284Z" fill="#2F2E41"/>
<path d="M501.458 534.207C525.284 527.929 538.156 498.489 530.208 468.451C522.261 438.414 496.503 419.152 472.676 425.43C448.85 431.708 435.978 461.148 443.926 491.186C451.874 521.224 477.632 540.485 501.458 534.207Z" fill="#515667"/>
<path d="M88.3846 93.7935C73.8922 113.369 69.2782 135.751 75.4435 150.034L73.4518 152.73L83.04 159.802C98.5833 171.267 126.187 160.301 144.693 135.312C163.198 110.323 165.59 80.7797 150.047 69.3139L140.459 62.2427L138.467 64.9393C122.964 63.2514 102.877 74.2178 88.3846 93.7935Z" fill="#D44E72"/>
<path d="M135.109 128.242C153.61 103.256 156.005 73.7073 140.458 62.2436C124.911 50.7798 97.3095 61.7422 78.8082 86.7287C60.3069 111.715 57.912 141.264 73.459 152.728C89.006 164.191 116.608 153.229 135.109 128.242Z" fill="#F55681"/>
<path d="M437.952 239.443C429.565 228.766 418.206 222.983 409.598 224.162L408.447 222.694L403.223 226.779C394.746 233.411 396.547 249.83 407.256 263.463C417.965 277.086 433.509 282.759 441.986 276.128L447.21 272.043L446.059 270.574C449.272 262.504 446.35 250.12 437.952 239.443Z" fill="#E6E6E6" stroke="#E0E0E0" stroke-miterlimit="10" stroke-linejoin="round"/>
<path d="M447.235 272.047C455.714 265.413 453.908 248.99 443.203 235.363C432.497 221.736 416.945 216.067 408.467 222.7C399.988 229.333 401.794 245.757 412.499 259.384C423.205 273.01 438.757 278.68 447.235 272.047Z" fill="white" stroke="#E0E0E0" stroke-miterlimit="10" stroke-linejoin="round"/>
<path d="M335.625 40.5097C346.835 40.5097 355.923 31.4413 355.923 20.2549C355.923 9.06841 346.835 0 335.625 0C324.416 0 315.328 9.06841 315.328 20.2549C315.328 31.4413 324.416 40.5097 335.625 40.5097Z" fill="#515667"/>
<path d="M570.706 278.145L525.047 325.926L599 322.969L577.402 279.164C576.13 276.597 572.688 276.068 570.706 278.145Z" fill="#E0E0E0" stroke="#E0E0E0" stroke-miterlimit="10" stroke-linejoin="round"/>
<path d="M545.595 306.809C555.268 306.809 563.11 298.984 563.11 289.331C563.11 279.678 555.268 271.853 545.595 271.853C535.922 271.853 528.08 279.678 528.08 289.331C528.08 298.984 535.922 306.809 545.595 306.809Z" fill="#F55681"/>
<path d="M548.43 286.04L548.062 287.144C547.986 287.371 547.777 287.521 547.538 287.521H538.616C538.239 287.521 537.971 287.891 538.092 288.248C538.168 288.474 538.377 288.624 538.616 288.624H546.8C547.176 288.624 547.441 288.992 547.324 289.351L545.852 293.768C545.776 293.995 545.567 294.145 545.328 294.145H538.127C537.889 294.145 537.68 293.992 537.603 293.768L537.235 292.665C537.118 292.309 537.383 291.938 537.759 291.938H543.736C543.975 291.938 544.184 291.785 544.26 291.561C544.381 291.202 544.113 290.834 543.736 290.834H537.024C536.785 290.834 536.576 290.681 536.5 290.458L535.028 286.04C534.911 285.684 535.175 285.313 535.552 285.313H547.906C548.283 285.313 548.548 285.681 548.43 286.04Z" fill="white"/>
<path d="M554.186 286.04L553.819 287.144C553.742 287.371 553.533 287.521 553.295 287.521H551.367L552.103 285.313H553.663C554.039 285.313 554.307 285.681 554.186 286.04Z" fill="white"/>
<path d="M556.449 282.727L556.082 283.83C556.005 284.057 555.796 284.207 555.558 284.207H552.471L552.953 282.753C553.106 282.303 553.527 282 554.004 282H555.926C556.302 282 556.567 282.368 556.449 282.727Z" fill="white"/>
<path d="M549.436 287.521H551.367L549.283 293.769C549.207 293.996 548.998 294.146 548.759 294.146H547.597C547.22 294.146 546.955 293.778 547.073 293.419L548.912 287.898C548.989 287.675 549.198 287.521 549.436 287.521Z" fill="white"/>
<path d="M552.47 284.208L552.102 285.312H550.539C550.163 285.312 549.895 284.941 550.016 284.585C550.092 284.358 550.301 284.208 550.539 284.208H552.47V284.208Z" fill="white"/>
<path d="M547.572 296.714C548.06 296.714 548.455 296.319 548.455 295.832C548.455 295.344 548.06 294.949 547.572 294.949C547.085 294.949 546.689 295.344 546.689 295.832C546.689 296.319 547.085 296.714 547.572 296.714Z" fill="white"/>
<path d="M541.729 296.714C542.216 296.714 542.611 296.319 542.611 295.832C542.611 295.344 542.216 294.949 541.729 294.949C541.241 294.949 540.846 295.344 540.846 295.832C540.846 296.319 541.241 296.714 541.729 296.714Z" fill="white"/>
<path d="M540.029 287.483L493.63 346.63C492.138 348.528 492.599 351.294 494.621 352.622L531.722 376.832C537.897 380.857 546.084 379.859 551.099 374.465L599 322.969L545.604 286.614C543.803 285.396 541.37 285.775 540.029 287.483Z" fill="white" stroke="#E0E0E0" stroke-miterlimit="10" stroke-linejoin="round"/>
<path d="M516.991 307.818L511.357 314.3C509.765 316.128 510.016 318.914 511.907 320.433L523.407 329.661C526.59 332.218 531.174 332.018 534.126 329.192C537.519 325.946 537.449 320.512 533.976 317.346L523.107 307.459C521.325 305.851 518.563 306.01 516.991 307.818Z" fill="#E6E6E6" stroke="#E0E0E0" stroke-miterlimit="10" stroke-linejoin="round"/>
<path d="M528.631 327.204C530.776 327.204 532.515 325.469 532.515 323.329C532.515 321.189 530.776 319.454 528.631 319.454C526.487 319.454 524.748 321.189 524.748 323.329C524.748 325.469 526.487 327.204 528.631 327.204Z" fill="white"/>
<path d="M494.652 174.194L419.288 205.105C417.036 206.034 414.454 204.956 413.533 202.708L392.065 150.593C391.134 148.346 392.215 145.769 394.467 144.85L469.831 113.939C472.083 113.01 474.665 114.088 475.586 116.336L497.054 168.451C497.985 170.698 496.904 173.275 494.652 174.194Z" fill="white" stroke="#E0E0E0" stroke-miterlimit="10" stroke-linejoin="round"/>
<path d="M409.488 192.901L493.02 158.643" stroke="#E0E0E0" stroke-miterlimit="10" stroke-linejoin="round"/>
<path d="M403.404 154.408L427.495 144.521" stroke="#E0E0E0" stroke-width="2" stroke-miterlimit="10" stroke-linecap="round" stroke-linejoin="round"/>
<path d="M158.753 263.65L157.965 266.013C157.801 266.498 157.354 266.82 156.844 266.82H137.741C136.934 266.82 136.361 267.613 136.619 268.376C136.783 268.861 137.23 269.182 137.741 269.182H155.262C156.069 269.182 156.636 269.97 156.384 270.738L153.234 280.195C153.07 280.681 152.622 281.002 152.112 281.002H136.695C136.185 281.002 135.737 280.674 135.573 280.195L134.786 277.833C134.534 277.07 135.101 276.277 135.907 276.277H148.704C149.214 276.277 149.661 275.949 149.825 275.47C150.083 274.701 149.51 273.914 148.704 273.914H134.332C133.822 273.914 133.375 273.586 133.211 273.107L130.06 263.65C129.808 262.888 130.375 262.094 131.182 262.094H157.631C158.438 262.094 159.005 262.882 158.753 263.65Z" fill="white"/>
<path d="M171.077 263.65L170.289 266.013C170.125 266.498 169.678 266.82 169.168 266.82H165.041L166.616 262.094H169.955C170.762 262.094 171.335 262.882 171.077 263.65Z" fill="white"/>
<path d="M175.921 256.556L175.133 258.919C174.969 259.404 174.522 259.725 174.012 259.725H167.402L168.436 256.613C168.763 255.649 169.664 255 170.685 255H174.799C175.606 255 176.173 255.788 175.921 256.556Z" fill="white"/>
<path d="M160.907 266.82H165.04L160.579 280.196C160.415 280.681 159.968 281.002 159.458 281.002H156.969C156.163 281.002 155.596 280.215 155.848 279.446L159.785 267.626C159.949 267.147 160.397 266.82 160.907 266.82Z" fill="white"/>
<path d="M167.403 259.726L166.616 262.088H163.27C162.464 262.088 161.89 261.294 162.149 260.532C162.312 260.047 162.76 259.726 163.27 259.726H167.403V259.726Z" fill="white"/>
<path d="M156.919 286.502C157.963 286.502 158.81 285.656 158.81 284.612C158.81 283.568 157.963 282.722 156.919 282.722C155.876 282.722 155.029 283.568 155.029 284.612C155.029 285.656 155.876 286.502 156.919 286.502Z" fill="white"/>
<path d="M144.406 286.502C145.45 286.502 146.296 285.656 146.296 284.612C146.296 283.568 145.45 282.722 144.406 282.722C143.362 282.722 142.516 283.568 142.516 284.612C142.516 285.656 143.362 286.502 144.406 286.502Z" fill="white"/>
<path d="M339.019 16.5184L338.607 17.7525C338.522 18.0059 338.288 18.1738 338.021 18.1738H328.043C327.622 18.1738 327.323 18.5884 327.457 18.9867C327.543 19.2401 327.777 19.4079 328.043 19.4079H337.195C337.617 19.4079 337.913 19.8193 337.781 20.2208L336.136 25.1605C336.05 25.4139 335.817 25.5817 335.55 25.5817H327.497C327.23 25.5817 326.997 25.4106 326.911 25.1605L326.5 23.9264C326.368 23.5282 326.664 23.1135 327.086 23.1135H333.77C334.036 23.1135 334.27 22.9424 334.355 22.6923C334.49 22.2908 334.191 21.8794 333.77 21.8794H326.263C325.996 21.8794 325.763 21.7083 325.677 21.4582L324.032 16.5184C323.9 16.1202 324.196 15.7056 324.617 15.7056H338.433C338.854 15.7056 339.15 16.1169 339.019 16.5184Z" fill="white"/>
<path d="M345.457 16.5184L345.046 17.7525C344.96 18.0059 344.727 18.1738 344.46 18.1738H342.305L343.127 15.7056H344.872C345.293 15.7056 345.592 16.1169 345.457 16.5184Z" fill="white"/>
<path d="M347.986 12.8129L347.575 14.047C347.49 14.3004 347.256 14.4682 346.989 14.4682H343.537L344.077 12.8425C344.248 12.339 344.719 12 345.252 12H347.401C347.822 12 348.118 12.4114 347.986 12.8129Z" fill="white"/>
<path d="M340.145 18.1738H342.304L339.974 25.1605C339.888 25.4139 339.655 25.5818 339.388 25.5818H338.088C337.667 25.5818 337.371 25.1704 337.502 24.7689L339.559 18.5951C339.645 18.345 339.878 18.1738 340.145 18.1738Z" fill="white"/>
<path d="M343.539 14.4683L343.128 15.7024H341.38C340.959 15.7024 340.66 15.2877 340.794 14.8895C340.88 14.6361 341.114 14.4683 341.38 14.4683H343.539V14.4683Z" fill="white"/>
<path d="M338.062 28.455C338.607 28.455 339.049 28.013 339.049 27.4678C339.049 26.9225 338.607 26.4805 338.062 26.4805C337.516 26.4805 337.074 26.9225 337.074 27.4678C337.074 28.013 337.516 28.455 338.062 28.455Z" fill="white"/>
<path d="M331.524 28.455C332.07 28.455 332.512 28.013 332.512 27.4678C332.512 26.9225 332.07 26.4805 331.524 26.4805C330.979 26.4805 330.537 26.9225 330.537 27.4678C330.537 28.013 330.979 28.455 331.524 28.455Z" fill="white"/>
<path d="M115.545 98.3339C115.975 98.7039 115.645 100.064 114.905 100.984L112.625 103.854C112.155 104.434 111.665 104.674 111.395 104.434L101.295 95.5939C100.865 95.2239 99.9448 96.0439 99.4748 97.2139C99.1748 97.9439 99.1648 98.6039 99.4348 98.8339L108.705 106.954C109.135 107.324 108.805 108.664 108.075 109.594L98.9448 121.094C98.4748 121.674 97.9848 121.924 97.7148 121.684L89.5548 114.544C89.2848 114.304 89.3048 113.654 89.6048 112.914L91.0548 109.314C91.5248 108.144 92.4448 107.334 92.8748 107.704L99.6448 113.634C99.9148 113.864 100.405 113.634 100.875 113.044C101.615 112.114 101.935 110.774 101.505 110.394L93.9048 103.734C93.6348 103.494 93.6548 102.844 93.9548 102.104L99.7448 87.7039C100.215 86.5339 101.135 85.7139 101.565 86.0939L115.545 98.3339Z" fill="white"/>
<path d="M122.576 99.6337L120.296 102.504L118.526 100.954C118.096 100.584 118.416 99.2337 119.156 98.3037C119.626 97.7237 120.116 97.4737 120.386 97.7137L122.576 99.6337Z" fill="white"/>
<path d="M130.216 96.584C130.646 96.954 130.326 98.304 129.586 99.234L127.306 102.104C126.846 102.694 126.346 102.934 126.076 102.694L122.586 99.634L125.586 95.854C126.516 94.684 127.506 94.204 128.046 94.684L130.216 96.584Z" fill="white"/>
<path d="M122.066 104.044C122.496 104.414 122.166 105.774 121.426 106.694L119.146 109.564C118.686 110.154 118.186 110.384 117.916 110.144L115.736 108.234L120.296 102.494L122.066 104.044Z" fill="white"/>
<path d="M98.9059 126.254C99.4559 126.734 99.2359 128.294 98.4159 129.724C97.5959 131.154 96.4759 131.914 95.9259 131.434C95.3759 130.954 95.5959 129.404 96.4159 127.974C97.2359 126.544 98.3559 125.764 98.9059 126.254Z" fill="white"/>
<path d="M115.735 108.244L102.825 124.494C102.355 125.074 101.865 125.324 101.595 125.084L100.275 123.924C99.8453 123.554 100.175 122.204 100.915 121.274L112.315 106.924C112.775 106.334 113.275 106.094 113.545 106.334L115.735 108.244Z" fill="white"/>
<path d="M92.2855 120.454C92.8355 120.934 92.6155 122.494 91.7955 123.924C90.9755 125.354 89.8555 126.114 89.3055 125.634C88.7555 125.154 88.9655 123.604 89.7955 122.174C90.6155 120.744 91.7355 119.974 92.2855 120.454Z" fill="white"/>
<path d="M424.207 241.821C423.967 242.031 424.147 242.771 424.557 243.291L425.817 244.881C426.077 245.201 426.347 245.331 426.497 245.201L432.077 240.321C432.317 240.111 432.827 240.571 433.077 241.211C433.237 241.611 433.247 241.971 433.097 242.101L427.977 246.581C427.737 246.791 427.917 247.531 428.327 248.041L433.357 254.381C433.617 254.701 433.887 254.841 434.037 254.711L438.537 250.771C438.687 250.641 438.677 250.281 438.507 249.871L437.707 247.881C437.447 247.241 436.937 246.791 436.707 246.991L432.967 250.261C432.817 250.391 432.547 250.261 432.287 249.931C431.877 249.421 431.707 248.671 431.937 248.471L436.137 244.791C436.287 244.661 436.277 244.301 436.107 243.891L432.917 235.941C432.657 235.301 432.147 234.841 431.907 235.051L424.207 241.821Z" fill="#F55681"/>
<path d="M420.318 242.532L421.578 244.122L422.558 243.262C422.798 243.052 422.618 242.312 422.208 241.802C421.948 241.482 421.678 241.342 421.528 241.472L420.318 242.532Z" fill="#F55681"/>
<path d="M416.108 240.851C415.868 241.061 416.048 241.801 416.458 242.311L417.718 243.901C417.978 244.221 418.248 244.361 418.398 244.231L420.328 242.541L418.668 240.451C418.158 239.801 417.608 239.541 417.308 239.801L416.108 240.851Z" fill="#F55681"/>
<path d="M420.608 244.972C420.368 245.182 420.548 245.922 420.958 246.442L422.218 248.032C422.478 248.352 422.748 248.482 422.898 248.352L424.108 247.292L421.588 244.122L420.608 244.972Z" fill="#F55681"/>
<path d="M433.388 257.232C433.088 257.502 433.208 258.362 433.658 259.152C434.108 259.942 434.728 260.362 435.028 260.092C435.328 259.822 435.208 258.972 434.758 258.182C434.308 257.392 433.688 256.962 433.388 257.232Z" fill="#F55681"/>
<path d="M424.098 247.292L431.218 256.262C431.478 256.582 431.748 256.722 431.898 256.592L432.628 255.952C432.868 255.742 432.688 255.002 432.278 254.492L425.988 246.572C425.728 246.252 425.458 246.112 425.308 246.242L424.098 247.292Z" fill="#F55681"/>
<path d="M437.038 254.032C436.738 254.302 436.858 255.162 437.308 255.942C437.758 256.732 438.378 257.152 438.678 256.882C438.978 256.612 438.868 255.762 438.408 254.972C437.968 254.182 437.348 253.762 437.038 254.032Z" fill="#F55681"/>
<path d="M502.916 469.651L505.336 488.691C505.426 489.381 505.086 490.001 504.486 490.241L501.596 491.401C500.656 491.781 499.546 491.041 499.406 489.951L497.266 473.121C497.176 472.431 497.516 471.811 498.116 471.571L502.916 469.651Z" fill="white"/>
<path d="M502.516 493.591C503.736 493.101 505.196 493.781 505.796 495.101C506.396 496.431 505.886 497.901 504.666 498.391C503.456 498.881 501.986 498.201 501.396 496.871C500.806 495.551 501.306 494.081 502.516 493.591Z" fill="white"/>
<path d="M487.966 499.441C489.176 498.951 490.646 499.631 491.246 500.951C491.846 502.281 491.336 503.751 490.116 504.241C488.906 504.731 487.436 504.051 486.846 502.721C486.246 501.391 486.756 499.921 487.966 499.441Z" fill="white"/>
<path d="M491.605 467.111C492.545 466.731 493.655 467.471 493.795 468.561L494.225 471.931C494.315 472.621 493.975 473.241 493.385 473.481L471.175 482.401C470.235 482.781 470.025 484.041 470.755 484.891C471.215 485.431 471.925 485.631 472.525 485.391L492.895 477.211C493.835 476.831 494.945 477.571 495.085 478.661L496.795 492.121C496.885 492.811 496.545 493.431 495.945 493.671L478.025 500.871C477.435 501.111 476.725 500.911 476.265 500.371L474.005 497.741C473.275 496.891 473.485 495.621 474.425 495.241L489.295 489.271C489.885 489.031 490.225 488.411 490.145 487.721C490.005 486.631 488.895 485.901 487.955 486.271L471.245 492.981C470.655 493.221 469.935 493.011 469.475 492.481L460.435 481.961C459.705 481.111 459.925 479.841 460.855 479.471L491.605 467.111Z" fill="white"/>
<path d="M501.635 459.551L502.065 462.921L498.185 464.481C497.245 464.861 496.135 464.121 495.995 463.031C495.905 462.341 496.245 461.721 496.845 461.481L501.635 459.551Z" fill="white"/>
<path d="M505.945 461.351C506.885 460.971 507.985 461.711 508.125 462.801L508.555 466.171C508.645 466.861 508.305 467.481 507.715 467.721L502.905 469.651L502.045 462.921L505.945 461.351Z" fill="white"/>
<path d="M507.546 450.101C508.486 449.721 509.596 450.461 509.736 451.551L510.166 454.921C510.256 455.611 509.916 456.231 509.316 456.471L501.636 459.551L501.076 455.131C500.896 453.751 501.576 452.501 502.766 452.031L507.546 450.101Z" fill="white"/>
<path d="M55.1106 480.218L73.4206 479.008C73.9806 478.968 74.5606 479.088 74.5506 479.248L74.5406 481.158C74.5406 481.258 74.3006 481.338 73.9506 481.358L64.0006 482.008C63.4406 482.048 63.2306 482.218 63.5806 482.348C63.8006 482.428 64.1906 482.468 64.5406 482.448L73.4006 481.858C73.9606 481.818 74.5306 481.938 74.5306 482.098V482.578C74.5306 482.678 74.2906 482.758 73.9406 482.778L63.2606 483.488C62.9106 483.508 62.5206 483.468 62.3006 483.388L57.9506 481.768C57.6006 481.638 57.8106 481.468 58.3706 481.428L70.5106 480.628C70.8606 480.608 71.1006 480.518 71.1006 480.428C71.1006 480.278 70.5306 480.148 69.9706 480.188L56.7406 481.068C56.3906 481.088 56.0006 481.048 55.7806 480.968L54.6906 480.568C54.3406 480.428 54.5506 480.258 55.1106 480.218Z" fill="white"/>
<path d="M46.5713 480.788L48.8813 480.638L51.0613 481.448L48.2013 481.638C47.8513 481.658 47.4613 481.618 47.2413 481.538L46.1513 481.138C45.8013 480.998 46.0213 480.818 46.5713 480.788Z" fill="white"/>
<path d="M41.5911 479.688L44.4411 479.498C45.1411 479.448 45.9211 479.528 46.3611 479.698L47.7911 480.228L43.2211 480.528C42.8711 480.548 42.4811 480.508 42.2611 480.428L41.1711 480.028C40.8211 479.898 41.0311 479.718 41.5911 479.688Z" fill="white"/>
<path d="M60.3413 484.028C61.0613 483.978 61.8413 484.098 62.0813 484.298C62.3213 484.488 61.9313 484.688 61.2113 484.738C60.4913 484.788 59.7013 484.668 59.4613 484.468C59.2213 484.278 59.6113 484.078 60.3413 484.028Z" fill="white"/>
<path d="M51.0605 481.438L53.9205 481.248C54.2705 481.228 54.6605 481.268 54.8805 481.348L60.3205 483.368C60.6705 483.498 60.4605 483.668 59.9005 483.708L58.1805 483.818C57.8305 483.838 57.4405 483.798 57.2205 483.718L51.0605 481.438Z" fill="white"/>
<path d="M47.8008 480.228L50.6608 480.038C51.0108 480.018 51.4008 480.058 51.6208 480.138C51.9708 480.268 51.7608 480.448 51.2008 480.478L48.8808 480.628L47.8008 480.228Z" fill="white"/>
<path d="M69.0013 483.458C69.7213 483.408 70.5113 483.528 70.7513 483.718C70.9913 483.908 70.6013 484.108 69.8713 484.158C69.1513 484.208 68.3713 484.088 68.1313 483.888C67.8913 483.698 68.2813 483.508 69.0013 483.458Z" fill="white"/>
</svg>
